M48
; DRILL file {KiCad (5.99.0-4079-gfad0916f0)} date 03/03/23 15:53:40
; FORMAT={-:-/ absolute / inch / decimal}
; #@! TF.CreationDate,2023-03-03T15:53:40-05:00
; #@! TF.GenerationSoftware,Kicad,Pcbnew,(5.99.0-4079-gfad0916f0)
FMAT,2
INCH
T1C0.0197
T2C0.0276
T3C0.1260
%
G90
G05
T1
X4.2362Y-3.0709
X4.2639Y-3.0041
X4.2639Y-3.1377
X4.3307Y-2.9764
X4.3307Y-3.1654
X4.3975Y-3.0041
X4.3975Y-3.1377
X4.4252Y-3.0709
X4.9488Y-3.9843
X4.9882Y-3.9843
X5.0079Y-4.0236
X5.0276Y-3.9843
X5.0472Y-4.0236
X5.0669Y-3.9843
X5.0866Y-4.0236
X5.1063Y-3.9843
X5.126Y-4.0236
X5.1457Y-3.9843
X5.1654Y-4.0236
X5.185Y-3.9843
X5.2244Y-3.9843
X4.9665Y-3.7421
X5.0059Y-3.7421
X5.0453Y-3.7421
X5.0846Y-3.7421
X5.124Y-3.7421
X5.1634Y-3.7421
X5.2028Y-3.7421
X5.2421Y-3.7421
X6.2323Y-3.9606
X6.2717Y-3.9606
X6.2913Y-4.0
X6.311Y-3.9606
X6.3307Y-4.0
X6.3504Y-3.9606
X6.3701Y-4.0
X6.3898Y-3.9606
X6.4094Y-4.0
X6.4291Y-3.9606
X6.4488Y-4.0
X6.4685Y-3.9606
X6.5079Y-3.9606
X7.0709Y-3.937
X7.0985Y-3.8702
X7.0985Y-4.0038
X7.1654Y-3.8425
X7.1654Y-4.0315
X7.2322Y-3.8702
X7.2322Y-4.0038
X7.2598Y-3.937
X4.2244Y-3.937
X4.2521Y-3.8702
X4.2521Y-4.0038
X4.3189Y-3.8425
X4.3189Y-4.0315
X4.3857Y-3.8702
X4.3857Y-4.0038
X4.4134Y-3.937
X7.0709Y-3.0709
X7.0985Y-3.0041
X7.0985Y-3.1377
X7.1654Y-2.9764
X7.1654Y-3.1654
X7.2322Y-3.0041
X7.2322Y-3.1377
X7.2598Y-3.0709
X6.4252Y-3.6811
X7.2638Y-3.4134
X7.2638Y-3.4528
X7.2638Y-3.4921
X7.2638Y-3.5315
T2
X6.3346Y-3.4134
X6.5346Y-3.4134
T3
X4.3307Y-3.0709
X7.1654Y-3.937
X4.3189Y-3.937
X7.1654Y-3.0709
T0
M30
