%TF.GenerationSoftware,KiCad,Pcbnew,(7.0.0)*%
%TF.CreationDate,2023-03-15T21:07:42-04:00*%
%TF.ProjectId,headunit_controls,68656164-756e-4697-945f-636f6e74726f,rev?*%
%TF.SameCoordinates,Original*%
%TF.FileFunction,Legend,Bot*%
%TF.FilePolarity,Positive*%
%FSLAX46Y46*%
G04 Gerber Fmt 4.6, Leading zero omitted, Abs format (unit mm)*
G04 Created by KiCad (PCBNEW (7.0.0)) date 2023-03-15 21:07:42*
%MOMM*%
%LPD*%
G01*
G04 APERTURE LIST*
%ADD10C,0.150000*%
%ADD11C,0.153000*%
%ADD12C,0.254000*%
%ADD13C,0.010000*%
%ADD14C,0.120000*%
%ADD15C,0.100000*%
%ADD16C,0.200000*%
G04 APERTURE END LIST*
D10*
%TO.C,R3*%
X147529166Y-180047380D02*
X147862499Y-179571190D01*
X148100594Y-180047380D02*
X148100594Y-179047380D01*
X148100594Y-179047380D02*
X147719642Y-179047380D01*
X147719642Y-179047380D02*
X147624404Y-179095000D01*
X147624404Y-179095000D02*
X147576785Y-179142619D01*
X147576785Y-179142619D02*
X147529166Y-179237857D01*
X147529166Y-179237857D02*
X147529166Y-179380714D01*
X147529166Y-179380714D02*
X147576785Y-179475952D01*
X147576785Y-179475952D02*
X147624404Y-179523571D01*
X147624404Y-179523571D02*
X147719642Y-179571190D01*
X147719642Y-179571190D02*
X148100594Y-179571190D01*
X147195832Y-179047380D02*
X146576785Y-179047380D01*
X146576785Y-179047380D02*
X146910118Y-179428333D01*
X146910118Y-179428333D02*
X146767261Y-179428333D01*
X146767261Y-179428333D02*
X146672023Y-179475952D01*
X146672023Y-179475952D02*
X146624404Y-179523571D01*
X146624404Y-179523571D02*
X146576785Y-179618809D01*
X146576785Y-179618809D02*
X146576785Y-179856904D01*
X146576785Y-179856904D02*
X146624404Y-179952142D01*
X146624404Y-179952142D02*
X146672023Y-179999761D01*
X146672023Y-179999761D02*
X146767261Y-180047380D01*
X146767261Y-180047380D02*
X147052975Y-180047380D01*
X147052975Y-180047380D02*
X147148213Y-179999761D01*
X147148213Y-179999761D02*
X147195832Y-179952142D01*
X150067261Y-176187380D02*
X150257737Y-176187380D01*
X150257737Y-176187380D02*
X150352975Y-176235000D01*
X150352975Y-176235000D02*
X150400594Y-176282619D01*
X150400594Y-176282619D02*
X150495832Y-176425476D01*
X150495832Y-176425476D02*
X150543451Y-176615952D01*
X150543451Y-176615952D02*
X150543451Y-176996904D01*
X150543451Y-176996904D02*
X150495832Y-177092142D01*
X150495832Y-177092142D02*
X150448213Y-177139761D01*
X150448213Y-177139761D02*
X150352975Y-177187380D01*
X150352975Y-177187380D02*
X150162499Y-177187380D01*
X150162499Y-177187380D02*
X150067261Y-177139761D01*
X150067261Y-177139761D02*
X150019642Y-177092142D01*
X150019642Y-177092142D02*
X149972023Y-176996904D01*
X149972023Y-176996904D02*
X149972023Y-176758809D01*
X149972023Y-176758809D02*
X150019642Y-176663571D01*
X150019642Y-176663571D02*
X150067261Y-176615952D01*
X150067261Y-176615952D02*
X150162499Y-176568333D01*
X150162499Y-176568333D02*
X150352975Y-176568333D01*
X150352975Y-176568333D02*
X150448213Y-176615952D01*
X150448213Y-176615952D02*
X150495832Y-176663571D01*
X150495832Y-176663571D02*
X150543451Y-176758809D01*
X149400594Y-176615952D02*
X149495832Y-176568333D01*
X149495832Y-176568333D02*
X149543451Y-176520714D01*
X149543451Y-176520714D02*
X149591070Y-176425476D01*
X149591070Y-176425476D02*
X149591070Y-176377857D01*
X149591070Y-176377857D02*
X149543451Y-176282619D01*
X149543451Y-176282619D02*
X149495832Y-176235000D01*
X149495832Y-176235000D02*
X149400594Y-176187380D01*
X149400594Y-176187380D02*
X149210118Y-176187380D01*
X149210118Y-176187380D02*
X149114880Y-176235000D01*
X149114880Y-176235000D02*
X149067261Y-176282619D01*
X149067261Y-176282619D02*
X149019642Y-176377857D01*
X149019642Y-176377857D02*
X149019642Y-176425476D01*
X149019642Y-176425476D02*
X149067261Y-176520714D01*
X149067261Y-176520714D02*
X149114880Y-176568333D01*
X149114880Y-176568333D02*
X149210118Y-176615952D01*
X149210118Y-176615952D02*
X149400594Y-176615952D01*
X149400594Y-176615952D02*
X149495832Y-176663571D01*
X149495832Y-176663571D02*
X149543451Y-176711190D01*
X149543451Y-176711190D02*
X149591070Y-176806428D01*
X149591070Y-176806428D02*
X149591070Y-176996904D01*
X149591070Y-176996904D02*
X149543451Y-177092142D01*
X149543451Y-177092142D02*
X149495832Y-177139761D01*
X149495832Y-177139761D02*
X149400594Y-177187380D01*
X149400594Y-177187380D02*
X149210118Y-177187380D01*
X149210118Y-177187380D02*
X149114880Y-177139761D01*
X149114880Y-177139761D02*
X149067261Y-177092142D01*
X149067261Y-177092142D02*
X149019642Y-176996904D01*
X149019642Y-176996904D02*
X149019642Y-176806428D01*
X149019642Y-176806428D02*
X149067261Y-176711190D01*
X149067261Y-176711190D02*
X149114880Y-176663571D01*
X149114880Y-176663571D02*
X149210118Y-176615952D01*
X148400594Y-176187380D02*
X148305356Y-176187380D01*
X148305356Y-176187380D02*
X148210118Y-176235000D01*
X148210118Y-176235000D02*
X148162499Y-176282619D01*
X148162499Y-176282619D02*
X148114880Y-176377857D01*
X148114880Y-176377857D02*
X148067261Y-176568333D01*
X148067261Y-176568333D02*
X148067261Y-176806428D01*
X148067261Y-176806428D02*
X148114880Y-176996904D01*
X148114880Y-176996904D02*
X148162499Y-177092142D01*
X148162499Y-177092142D02*
X148210118Y-177139761D01*
X148210118Y-177139761D02*
X148305356Y-177187380D01*
X148305356Y-177187380D02*
X148400594Y-177187380D01*
X148400594Y-177187380D02*
X148495832Y-177139761D01*
X148495832Y-177139761D02*
X148543451Y-177092142D01*
X148543451Y-177092142D02*
X148591070Y-176996904D01*
X148591070Y-176996904D02*
X148638689Y-176806428D01*
X148638689Y-176806428D02*
X148638689Y-176568333D01*
X148638689Y-176568333D02*
X148591070Y-176377857D01*
X148591070Y-176377857D02*
X148543451Y-176282619D01*
X148543451Y-176282619D02*
X148495832Y-176235000D01*
X148495832Y-176235000D02*
X148400594Y-176187380D01*
X146848213Y-176187380D02*
X146657737Y-176187380D01*
X146657737Y-176187380D02*
X146562499Y-176235000D01*
X146562499Y-176235000D02*
X146467261Y-176330238D01*
X146467261Y-176330238D02*
X146419642Y-176520714D01*
X146419642Y-176520714D02*
X146419642Y-176854047D01*
X146419642Y-176854047D02*
X146467261Y-177044523D01*
X146467261Y-177044523D02*
X146562499Y-177139761D01*
X146562499Y-177139761D02*
X146657737Y-177187380D01*
X146657737Y-177187380D02*
X146848213Y-177187380D01*
X146848213Y-177187380D02*
X146943451Y-177139761D01*
X146943451Y-177139761D02*
X147038689Y-177044523D01*
X147038689Y-177044523D02*
X147086308Y-176854047D01*
X147086308Y-176854047D02*
X147086308Y-176520714D01*
X147086308Y-176520714D02*
X147038689Y-176330238D01*
X147038689Y-176330238D02*
X146943451Y-176235000D01*
X146943451Y-176235000D02*
X146848213Y-176187380D01*
X145991070Y-177187380D02*
X145991070Y-176187380D01*
X145562499Y-177187380D02*
X145562499Y-176663571D01*
X145562499Y-176663571D02*
X145610118Y-176568333D01*
X145610118Y-176568333D02*
X145705356Y-176520714D01*
X145705356Y-176520714D02*
X145848213Y-176520714D01*
X145848213Y-176520714D02*
X145943451Y-176568333D01*
X145943451Y-176568333D02*
X145991070Y-176615952D01*
X145086308Y-177187380D02*
X145086308Y-176520714D01*
X145086308Y-176615952D02*
X145038689Y-176568333D01*
X145038689Y-176568333D02*
X144943451Y-176520714D01*
X144943451Y-176520714D02*
X144800594Y-176520714D01*
X144800594Y-176520714D02*
X144705356Y-176568333D01*
X144705356Y-176568333D02*
X144657737Y-176663571D01*
X144657737Y-176663571D02*
X144657737Y-177187380D01*
X144657737Y-176663571D02*
X144610118Y-176568333D01*
X144610118Y-176568333D02*
X144514880Y-176520714D01*
X144514880Y-176520714D02*
X144372023Y-176520714D01*
X144372023Y-176520714D02*
X144276784Y-176568333D01*
X144276784Y-176568333D02*
X144229165Y-176663571D01*
X144229165Y-176663571D02*
X144229165Y-177187380D01*
%TO.C,Ex20*%
X149571428Y-150943571D02*
X149238095Y-150943571D01*
X149095238Y-151467380D02*
X149571428Y-151467380D01*
X149571428Y-151467380D02*
X149571428Y-150467380D01*
X149571428Y-150467380D02*
X149095238Y-150467380D01*
X148761904Y-151467380D02*
X148238095Y-150800714D01*
X148761904Y-150800714D02*
X148238095Y-151467380D01*
X147904761Y-150562619D02*
X147857142Y-150515000D01*
X147857142Y-150515000D02*
X147761904Y-150467380D01*
X147761904Y-150467380D02*
X147523809Y-150467380D01*
X147523809Y-150467380D02*
X147428571Y-150515000D01*
X147428571Y-150515000D02*
X147380952Y-150562619D01*
X147380952Y-150562619D02*
X147333333Y-150657857D01*
X147333333Y-150657857D02*
X147333333Y-150753095D01*
X147333333Y-150753095D02*
X147380952Y-150895952D01*
X147380952Y-150895952D02*
X147952380Y-151467380D01*
X147952380Y-151467380D02*
X147333333Y-151467380D01*
X146714285Y-150467380D02*
X146619047Y-150467380D01*
X146619047Y-150467380D02*
X146523809Y-150515000D01*
X146523809Y-150515000D02*
X146476190Y-150562619D01*
X146476190Y-150562619D02*
X146428571Y-150657857D01*
X146428571Y-150657857D02*
X146380952Y-150848333D01*
X146380952Y-150848333D02*
X146380952Y-151086428D01*
X146380952Y-151086428D02*
X146428571Y-151276904D01*
X146428571Y-151276904D02*
X146476190Y-151372142D01*
X146476190Y-151372142D02*
X146523809Y-151419761D01*
X146523809Y-151419761D02*
X146619047Y-151467380D01*
X146619047Y-151467380D02*
X146714285Y-151467380D01*
X146714285Y-151467380D02*
X146809523Y-151419761D01*
X146809523Y-151419761D02*
X146857142Y-151372142D01*
X146857142Y-151372142D02*
X146904761Y-151276904D01*
X146904761Y-151276904D02*
X146952380Y-151086428D01*
X146952380Y-151086428D02*
X146952380Y-150848333D01*
X146952380Y-150848333D02*
X146904761Y-150657857D01*
X146904761Y-150657857D02*
X146857142Y-150562619D01*
X146857142Y-150562619D02*
X146809523Y-150515000D01*
X146809523Y-150515000D02*
X146714285Y-150467380D01*
D11*
%TO.C,ToSaab_ribbon*%
X157967380Y-159140476D02*
X157967380Y-159711904D01*
X158967380Y-159426190D02*
X157967380Y-159426190D01*
X158967380Y-160188095D02*
X158919761Y-160092857D01*
X158919761Y-160092857D02*
X158872142Y-160045238D01*
X158872142Y-160045238D02*
X158776904Y-159997619D01*
X158776904Y-159997619D02*
X158491190Y-159997619D01*
X158491190Y-159997619D02*
X158395952Y-160045238D01*
X158395952Y-160045238D02*
X158348333Y-160092857D01*
X158348333Y-160092857D02*
X158300714Y-160188095D01*
X158300714Y-160188095D02*
X158300714Y-160330952D01*
X158300714Y-160330952D02*
X158348333Y-160426190D01*
X158348333Y-160426190D02*
X158395952Y-160473809D01*
X158395952Y-160473809D02*
X158491190Y-160521428D01*
X158491190Y-160521428D02*
X158776904Y-160521428D01*
X158776904Y-160521428D02*
X158872142Y-160473809D01*
X158872142Y-160473809D02*
X158919761Y-160426190D01*
X158919761Y-160426190D02*
X158967380Y-160330952D01*
X158967380Y-160330952D02*
X158967380Y-160188095D01*
X158919761Y-160902381D02*
X158967380Y-161045238D01*
X158967380Y-161045238D02*
X158967380Y-161283333D01*
X158967380Y-161283333D02*
X158919761Y-161378571D01*
X158919761Y-161378571D02*
X158872142Y-161426190D01*
X158872142Y-161426190D02*
X158776904Y-161473809D01*
X158776904Y-161473809D02*
X158681666Y-161473809D01*
X158681666Y-161473809D02*
X158586428Y-161426190D01*
X158586428Y-161426190D02*
X158538809Y-161378571D01*
X158538809Y-161378571D02*
X158491190Y-161283333D01*
X158491190Y-161283333D02*
X158443571Y-161092857D01*
X158443571Y-161092857D02*
X158395952Y-160997619D01*
X158395952Y-160997619D02*
X158348333Y-160950000D01*
X158348333Y-160950000D02*
X158253095Y-160902381D01*
X158253095Y-160902381D02*
X158157857Y-160902381D01*
X158157857Y-160902381D02*
X158062619Y-160950000D01*
X158062619Y-160950000D02*
X158015000Y-160997619D01*
X158015000Y-160997619D02*
X157967380Y-161092857D01*
X157967380Y-161092857D02*
X157967380Y-161330952D01*
X157967380Y-161330952D02*
X158015000Y-161473809D01*
X158967380Y-162330952D02*
X158443571Y-162330952D01*
X158443571Y-162330952D02*
X158348333Y-162283333D01*
X158348333Y-162283333D02*
X158300714Y-162188095D01*
X158300714Y-162188095D02*
X158300714Y-161997619D01*
X158300714Y-161997619D02*
X158348333Y-161902381D01*
X158919761Y-162330952D02*
X158967380Y-162235714D01*
X158967380Y-162235714D02*
X158967380Y-161997619D01*
X158967380Y-161997619D02*
X158919761Y-161902381D01*
X158919761Y-161902381D02*
X158824523Y-161854762D01*
X158824523Y-161854762D02*
X158729285Y-161854762D01*
X158729285Y-161854762D02*
X158634047Y-161902381D01*
X158634047Y-161902381D02*
X158586428Y-161997619D01*
X158586428Y-161997619D02*
X158586428Y-162235714D01*
X158586428Y-162235714D02*
X158538809Y-162330952D01*
X158967380Y-163235714D02*
X158443571Y-163235714D01*
X158443571Y-163235714D02*
X158348333Y-163188095D01*
X158348333Y-163188095D02*
X158300714Y-163092857D01*
X158300714Y-163092857D02*
X158300714Y-162902381D01*
X158300714Y-162902381D02*
X158348333Y-162807143D01*
X158919761Y-163235714D02*
X158967380Y-163140476D01*
X158967380Y-163140476D02*
X158967380Y-162902381D01*
X158967380Y-162902381D02*
X158919761Y-162807143D01*
X158919761Y-162807143D02*
X158824523Y-162759524D01*
X158824523Y-162759524D02*
X158729285Y-162759524D01*
X158729285Y-162759524D02*
X158634047Y-162807143D01*
X158634047Y-162807143D02*
X158586428Y-162902381D01*
X158586428Y-162902381D02*
X158586428Y-163140476D01*
X158586428Y-163140476D02*
X158538809Y-163235714D01*
X158967380Y-163711905D02*
X157967380Y-163711905D01*
X158348333Y-163711905D02*
X158300714Y-163807143D01*
X158300714Y-163807143D02*
X158300714Y-163997619D01*
X158300714Y-163997619D02*
X158348333Y-164092857D01*
X158348333Y-164092857D02*
X158395952Y-164140476D01*
X158395952Y-164140476D02*
X158491190Y-164188095D01*
X158491190Y-164188095D02*
X158776904Y-164188095D01*
X158776904Y-164188095D02*
X158872142Y-164140476D01*
X158872142Y-164140476D02*
X158919761Y-164092857D01*
X158919761Y-164092857D02*
X158967380Y-163997619D01*
X158967380Y-163997619D02*
X158967380Y-163807143D01*
X158967380Y-163807143D02*
X158919761Y-163711905D01*
X159062619Y-164378572D02*
X159062619Y-165140476D01*
X158967380Y-165378572D02*
X158300714Y-165378572D01*
X158491190Y-165378572D02*
X158395952Y-165426191D01*
X158395952Y-165426191D02*
X158348333Y-165473810D01*
X158348333Y-165473810D02*
X158300714Y-165569048D01*
X158300714Y-165569048D02*
X158300714Y-165664286D01*
X158967380Y-165997620D02*
X158300714Y-165997620D01*
X157967380Y-165997620D02*
X158015000Y-165950001D01*
X158015000Y-165950001D02*
X158062619Y-165997620D01*
X158062619Y-165997620D02*
X158015000Y-166045239D01*
X158015000Y-166045239D02*
X157967380Y-165997620D01*
X157967380Y-165997620D02*
X158062619Y-165997620D01*
X158967380Y-166473810D02*
X157967380Y-166473810D01*
X158348333Y-166473810D02*
X158300714Y-166569048D01*
X158300714Y-166569048D02*
X158300714Y-166759524D01*
X158300714Y-166759524D02*
X158348333Y-166854762D01*
X158348333Y-166854762D02*
X158395952Y-166902381D01*
X158395952Y-166902381D02*
X158491190Y-166950000D01*
X158491190Y-166950000D02*
X158776904Y-166950000D01*
X158776904Y-166950000D02*
X158872142Y-166902381D01*
X158872142Y-166902381D02*
X158919761Y-166854762D01*
X158919761Y-166854762D02*
X158967380Y-166759524D01*
X158967380Y-166759524D02*
X158967380Y-166569048D01*
X158967380Y-166569048D02*
X158919761Y-166473810D01*
X158967380Y-167378572D02*
X157967380Y-167378572D01*
X158348333Y-167378572D02*
X158300714Y-167473810D01*
X158300714Y-167473810D02*
X158300714Y-167664286D01*
X158300714Y-167664286D02*
X158348333Y-167759524D01*
X158348333Y-167759524D02*
X158395952Y-167807143D01*
X158395952Y-167807143D02*
X158491190Y-167854762D01*
X158491190Y-167854762D02*
X158776904Y-167854762D01*
X158776904Y-167854762D02*
X158872142Y-167807143D01*
X158872142Y-167807143D02*
X158919761Y-167759524D01*
X158919761Y-167759524D02*
X158967380Y-167664286D01*
X158967380Y-167664286D02*
X158967380Y-167473810D01*
X158967380Y-167473810D02*
X158919761Y-167378572D01*
X158967380Y-168426191D02*
X158919761Y-168330953D01*
X158919761Y-168330953D02*
X158872142Y-168283334D01*
X158872142Y-168283334D02*
X158776904Y-168235715D01*
X158776904Y-168235715D02*
X158491190Y-168235715D01*
X158491190Y-168235715D02*
X158395952Y-168283334D01*
X158395952Y-168283334D02*
X158348333Y-168330953D01*
X158348333Y-168330953D02*
X158300714Y-168426191D01*
X158300714Y-168426191D02*
X158300714Y-168569048D01*
X158300714Y-168569048D02*
X158348333Y-168664286D01*
X158348333Y-168664286D02*
X158395952Y-168711905D01*
X158395952Y-168711905D02*
X158491190Y-168759524D01*
X158491190Y-168759524D02*
X158776904Y-168759524D01*
X158776904Y-168759524D02*
X158872142Y-168711905D01*
X158872142Y-168711905D02*
X158919761Y-168664286D01*
X158919761Y-168664286D02*
X158967380Y-168569048D01*
X158967380Y-168569048D02*
X158967380Y-168426191D01*
X158300714Y-169188096D02*
X158967380Y-169188096D01*
X158395952Y-169188096D02*
X158348333Y-169235715D01*
X158348333Y-169235715D02*
X158300714Y-169330953D01*
X158300714Y-169330953D02*
X158300714Y-169473810D01*
X158300714Y-169473810D02*
X158348333Y-169569048D01*
X158348333Y-169569048D02*
X158443571Y-169616667D01*
X158443571Y-169616667D02*
X158967380Y-169616667D01*
D10*
%TO.C,Expansion_GND_2*%
X140560714Y-152616496D02*
X140227381Y-152616496D01*
X140084524Y-153140305D02*
X140560714Y-153140305D01*
X140560714Y-153140305D02*
X140560714Y-152140305D01*
X140560714Y-152140305D02*
X140084524Y-152140305D01*
X139751190Y-153140305D02*
X139227381Y-152473639D01*
X139751190Y-152473639D02*
X139227381Y-153140305D01*
X138846428Y-152473639D02*
X138846428Y-153473639D01*
X138846428Y-152521258D02*
X138751190Y-152473639D01*
X138751190Y-152473639D02*
X138560714Y-152473639D01*
X138560714Y-152473639D02*
X138465476Y-152521258D01*
X138465476Y-152521258D02*
X138417857Y-152568877D01*
X138417857Y-152568877D02*
X138370238Y-152664115D01*
X138370238Y-152664115D02*
X138370238Y-152949829D01*
X138370238Y-152949829D02*
X138417857Y-153045067D01*
X138417857Y-153045067D02*
X138465476Y-153092686D01*
X138465476Y-153092686D02*
X138560714Y-153140305D01*
X138560714Y-153140305D02*
X138751190Y-153140305D01*
X138751190Y-153140305D02*
X138846428Y-153092686D01*
X137513095Y-153140305D02*
X137513095Y-152616496D01*
X137513095Y-152616496D02*
X137560714Y-152521258D01*
X137560714Y-152521258D02*
X137655952Y-152473639D01*
X137655952Y-152473639D02*
X137846428Y-152473639D01*
X137846428Y-152473639D02*
X137941666Y-152521258D01*
X137513095Y-153092686D02*
X137608333Y-153140305D01*
X137608333Y-153140305D02*
X137846428Y-153140305D01*
X137846428Y-153140305D02*
X137941666Y-153092686D01*
X137941666Y-153092686D02*
X137989285Y-152997448D01*
X137989285Y-152997448D02*
X137989285Y-152902210D01*
X137989285Y-152902210D02*
X137941666Y-152806972D01*
X137941666Y-152806972D02*
X137846428Y-152759353D01*
X137846428Y-152759353D02*
X137608333Y-152759353D01*
X137608333Y-152759353D02*
X137513095Y-152711734D01*
X137036904Y-152473639D02*
X137036904Y-153140305D01*
X137036904Y-152568877D02*
X136989285Y-152521258D01*
X136989285Y-152521258D02*
X136894047Y-152473639D01*
X136894047Y-152473639D02*
X136751190Y-152473639D01*
X136751190Y-152473639D02*
X136655952Y-152521258D01*
X136655952Y-152521258D02*
X136608333Y-152616496D01*
X136608333Y-152616496D02*
X136608333Y-153140305D01*
X136179761Y-153092686D02*
X136084523Y-153140305D01*
X136084523Y-153140305D02*
X135894047Y-153140305D01*
X135894047Y-153140305D02*
X135798809Y-153092686D01*
X135798809Y-153092686D02*
X135751190Y-152997448D01*
X135751190Y-152997448D02*
X135751190Y-152949829D01*
X135751190Y-152949829D02*
X135798809Y-152854591D01*
X135798809Y-152854591D02*
X135894047Y-152806972D01*
X135894047Y-152806972D02*
X136036904Y-152806972D01*
X136036904Y-152806972D02*
X136132142Y-152759353D01*
X136132142Y-152759353D02*
X136179761Y-152664115D01*
X136179761Y-152664115D02*
X136179761Y-152616496D01*
X136179761Y-152616496D02*
X136132142Y-152521258D01*
X136132142Y-152521258D02*
X136036904Y-152473639D01*
X136036904Y-152473639D02*
X135894047Y-152473639D01*
X135894047Y-152473639D02*
X135798809Y-152521258D01*
X135322618Y-153140305D02*
X135322618Y-152473639D01*
X135322618Y-152140305D02*
X135370237Y-152187925D01*
X135370237Y-152187925D02*
X135322618Y-152235544D01*
X135322618Y-152235544D02*
X135274999Y-152187925D01*
X135274999Y-152187925D02*
X135322618Y-152140305D01*
X135322618Y-152140305D02*
X135322618Y-152235544D01*
X134703571Y-153140305D02*
X134798809Y-153092686D01*
X134798809Y-153092686D02*
X134846428Y-153045067D01*
X134846428Y-153045067D02*
X134894047Y-152949829D01*
X134894047Y-152949829D02*
X134894047Y-152664115D01*
X134894047Y-152664115D02*
X134846428Y-152568877D01*
X134846428Y-152568877D02*
X134798809Y-152521258D01*
X134798809Y-152521258D02*
X134703571Y-152473639D01*
X134703571Y-152473639D02*
X134560714Y-152473639D01*
X134560714Y-152473639D02*
X134465476Y-152521258D01*
X134465476Y-152521258D02*
X134417857Y-152568877D01*
X134417857Y-152568877D02*
X134370238Y-152664115D01*
X134370238Y-152664115D02*
X134370238Y-152949829D01*
X134370238Y-152949829D02*
X134417857Y-153045067D01*
X134417857Y-153045067D02*
X134465476Y-153092686D01*
X134465476Y-153092686D02*
X134560714Y-153140305D01*
X134560714Y-153140305D02*
X134703571Y-153140305D01*
X133941666Y-152473639D02*
X133941666Y-153140305D01*
X133941666Y-152568877D02*
X133894047Y-152521258D01*
X133894047Y-152521258D02*
X133798809Y-152473639D01*
X133798809Y-152473639D02*
X133655952Y-152473639D01*
X133655952Y-152473639D02*
X133560714Y-152521258D01*
X133560714Y-152521258D02*
X133513095Y-152616496D01*
X133513095Y-152616496D02*
X133513095Y-153140305D01*
X133275000Y-153235544D02*
X132513095Y-153235544D01*
X131751190Y-152187925D02*
X131846428Y-152140305D01*
X131846428Y-152140305D02*
X131989285Y-152140305D01*
X131989285Y-152140305D02*
X132132142Y-152187925D01*
X132132142Y-152187925D02*
X132227380Y-152283163D01*
X132227380Y-152283163D02*
X132274999Y-152378401D01*
X132274999Y-152378401D02*
X132322618Y-152568877D01*
X132322618Y-152568877D02*
X132322618Y-152711734D01*
X132322618Y-152711734D02*
X132274999Y-152902210D01*
X132274999Y-152902210D02*
X132227380Y-152997448D01*
X132227380Y-152997448D02*
X132132142Y-153092686D01*
X132132142Y-153092686D02*
X131989285Y-153140305D01*
X131989285Y-153140305D02*
X131894047Y-153140305D01*
X131894047Y-153140305D02*
X131751190Y-153092686D01*
X131751190Y-153092686D02*
X131703571Y-153045067D01*
X131703571Y-153045067D02*
X131703571Y-152711734D01*
X131703571Y-152711734D02*
X131894047Y-152711734D01*
X131274999Y-153140305D02*
X131274999Y-152140305D01*
X131274999Y-152140305D02*
X130703571Y-153140305D01*
X130703571Y-153140305D02*
X130703571Y-152140305D01*
X130227380Y-153140305D02*
X130227380Y-152140305D01*
X130227380Y-152140305D02*
X129989285Y-152140305D01*
X129989285Y-152140305D02*
X129846428Y-152187925D01*
X129846428Y-152187925D02*
X129751190Y-152283163D01*
X129751190Y-152283163D02*
X129703571Y-152378401D01*
X129703571Y-152378401D02*
X129655952Y-152568877D01*
X129655952Y-152568877D02*
X129655952Y-152711734D01*
X129655952Y-152711734D02*
X129703571Y-152902210D01*
X129703571Y-152902210D02*
X129751190Y-152997448D01*
X129751190Y-152997448D02*
X129846428Y-153092686D01*
X129846428Y-153092686D02*
X129989285Y-153140305D01*
X129989285Y-153140305D02*
X130227380Y-153140305D01*
X129465476Y-153235544D02*
X128703571Y-153235544D01*
X128513094Y-152235544D02*
X128465475Y-152187925D01*
X128465475Y-152187925D02*
X128370237Y-152140305D01*
X128370237Y-152140305D02*
X128132142Y-152140305D01*
X128132142Y-152140305D02*
X128036904Y-152187925D01*
X128036904Y-152187925D02*
X127989285Y-152235544D01*
X127989285Y-152235544D02*
X127941666Y-152330782D01*
X127941666Y-152330782D02*
X127941666Y-152426020D01*
X127941666Y-152426020D02*
X127989285Y-152568877D01*
X127989285Y-152568877D02*
X128560713Y-153140305D01*
X128560713Y-153140305D02*
X127941666Y-153140305D01*
%TO.C,VCC*%
X142633332Y-137267380D02*
X142299999Y-138267380D01*
X142299999Y-138267380D02*
X141966666Y-137267380D01*
X141061904Y-138172142D02*
X141109523Y-138219761D01*
X141109523Y-138219761D02*
X141252380Y-138267380D01*
X141252380Y-138267380D02*
X141347618Y-138267380D01*
X141347618Y-138267380D02*
X141490475Y-138219761D01*
X141490475Y-138219761D02*
X141585713Y-138124523D01*
X141585713Y-138124523D02*
X141633332Y-138029285D01*
X141633332Y-138029285D02*
X141680951Y-137838809D01*
X141680951Y-137838809D02*
X141680951Y-137695952D01*
X141680951Y-137695952D02*
X141633332Y-137505476D01*
X141633332Y-137505476D02*
X141585713Y-137410238D01*
X141585713Y-137410238D02*
X141490475Y-137315000D01*
X141490475Y-137315000D02*
X141347618Y-137267380D01*
X141347618Y-137267380D02*
X141252380Y-137267380D01*
X141252380Y-137267380D02*
X141109523Y-137315000D01*
X141109523Y-137315000D02*
X141061904Y-137362619D01*
X140061904Y-138172142D02*
X140109523Y-138219761D01*
X140109523Y-138219761D02*
X140252380Y-138267380D01*
X140252380Y-138267380D02*
X140347618Y-138267380D01*
X140347618Y-138267380D02*
X140490475Y-138219761D01*
X140490475Y-138219761D02*
X140585713Y-138124523D01*
X140585713Y-138124523D02*
X140633332Y-138029285D01*
X140633332Y-138029285D02*
X140680951Y-137838809D01*
X140680951Y-137838809D02*
X140680951Y-137695952D01*
X140680951Y-137695952D02*
X140633332Y-137505476D01*
X140633332Y-137505476D02*
X140585713Y-137410238D01*
X140585713Y-137410238D02*
X140490475Y-137315000D01*
X140490475Y-137315000D02*
X140347618Y-137267380D01*
X140347618Y-137267380D02*
X140252380Y-137267380D01*
X140252380Y-137267380D02*
X140109523Y-137315000D01*
X140109523Y-137315000D02*
X140061904Y-137362619D01*
D12*
%TO.C,CD_relay1*%
X116308808Y-106145621D02*
X116369284Y-106206097D01*
X116369284Y-106206097D02*
X116550713Y-106266573D01*
X116550713Y-106266573D02*
X116671665Y-106266573D01*
X116671665Y-106266573D02*
X116853094Y-106206097D01*
X116853094Y-106206097D02*
X116974046Y-106085145D01*
X116974046Y-106085145D02*
X117034523Y-105964192D01*
X117034523Y-105964192D02*
X117094999Y-105722288D01*
X117094999Y-105722288D02*
X117094999Y-105540859D01*
X117094999Y-105540859D02*
X117034523Y-105298954D01*
X117034523Y-105298954D02*
X116974046Y-105178002D01*
X116974046Y-105178002D02*
X116853094Y-105057050D01*
X116853094Y-105057050D02*
X116671665Y-104996573D01*
X116671665Y-104996573D02*
X116550713Y-104996573D01*
X116550713Y-104996573D02*
X116369284Y-105057050D01*
X116369284Y-105057050D02*
X116308808Y-105117526D01*
X115764523Y-106266573D02*
X115764523Y-104996573D01*
X115764523Y-104996573D02*
X115462142Y-104996573D01*
X115462142Y-104996573D02*
X115280713Y-105057050D01*
X115280713Y-105057050D02*
X115159761Y-105178002D01*
X115159761Y-105178002D02*
X115099284Y-105298954D01*
X115099284Y-105298954D02*
X115038808Y-105540859D01*
X115038808Y-105540859D02*
X115038808Y-105722288D01*
X115038808Y-105722288D02*
X115099284Y-105964192D01*
X115099284Y-105964192D02*
X115159761Y-106085145D01*
X115159761Y-106085145D02*
X115280713Y-106206097D01*
X115280713Y-106206097D02*
X115462142Y-106266573D01*
X115462142Y-106266573D02*
X115764523Y-106266573D01*
X114796904Y-106387526D02*
X113829284Y-106387526D01*
X113526904Y-106266573D02*
X113526904Y-105419907D01*
X113526904Y-105661811D02*
X113466427Y-105540859D01*
X113466427Y-105540859D02*
X113405951Y-105480383D01*
X113405951Y-105480383D02*
X113284999Y-105419907D01*
X113284999Y-105419907D02*
X113164046Y-105419907D01*
X112256904Y-106206097D02*
X112377856Y-106266573D01*
X112377856Y-106266573D02*
X112619761Y-106266573D01*
X112619761Y-106266573D02*
X112740714Y-106206097D01*
X112740714Y-106206097D02*
X112801190Y-106085145D01*
X112801190Y-106085145D02*
X112801190Y-105601335D01*
X112801190Y-105601335D02*
X112740714Y-105480383D01*
X112740714Y-105480383D02*
X112619761Y-105419907D01*
X112619761Y-105419907D02*
X112377856Y-105419907D01*
X112377856Y-105419907D02*
X112256904Y-105480383D01*
X112256904Y-105480383D02*
X112196428Y-105601335D01*
X112196428Y-105601335D02*
X112196428Y-105722288D01*
X112196428Y-105722288D02*
X112801190Y-105843240D01*
X111470714Y-106266573D02*
X111591666Y-106206097D01*
X111591666Y-106206097D02*
X111652143Y-106085145D01*
X111652143Y-106085145D02*
X111652143Y-104996573D01*
X110442619Y-106266573D02*
X110442619Y-105601335D01*
X110442619Y-105601335D02*
X110503095Y-105480383D01*
X110503095Y-105480383D02*
X110624047Y-105419907D01*
X110624047Y-105419907D02*
X110865952Y-105419907D01*
X110865952Y-105419907D02*
X110986905Y-105480383D01*
X110442619Y-106206097D02*
X110563571Y-106266573D01*
X110563571Y-106266573D02*
X110865952Y-106266573D01*
X110865952Y-106266573D02*
X110986905Y-106206097D01*
X110986905Y-106206097D02*
X111047381Y-106085145D01*
X111047381Y-106085145D02*
X111047381Y-105964192D01*
X111047381Y-105964192D02*
X110986905Y-105843240D01*
X110986905Y-105843240D02*
X110865952Y-105782764D01*
X110865952Y-105782764D02*
X110563571Y-105782764D01*
X110563571Y-105782764D02*
X110442619Y-105722288D01*
X109958809Y-105419907D02*
X109656428Y-106266573D01*
X109354047Y-105419907D02*
X109656428Y-106266573D01*
X109656428Y-106266573D02*
X109777380Y-106568954D01*
X109777380Y-106568954D02*
X109837857Y-106629430D01*
X109837857Y-106629430D02*
X109958809Y-106689907D01*
X108204999Y-106266573D02*
X108930714Y-106266573D01*
X108567857Y-106266573D02*
X108567857Y-104996573D01*
X108567857Y-104996573D02*
X108688809Y-105178002D01*
X108688809Y-105178002D02*
X108809761Y-105298954D01*
X108809761Y-105298954D02*
X108930714Y-105359430D01*
D10*
%TO.C,Ex17*%
X149621428Y-141943571D02*
X149288095Y-141943571D01*
X149145238Y-142467380D02*
X149621428Y-142467380D01*
X149621428Y-142467380D02*
X149621428Y-141467380D01*
X149621428Y-141467380D02*
X149145238Y-141467380D01*
X148811904Y-142467380D02*
X148288095Y-141800714D01*
X148811904Y-141800714D02*
X148288095Y-142467380D01*
X147383333Y-142467380D02*
X147954761Y-142467380D01*
X147669047Y-142467380D02*
X147669047Y-141467380D01*
X147669047Y-141467380D02*
X147764285Y-141610238D01*
X147764285Y-141610238D02*
X147859523Y-141705476D01*
X147859523Y-141705476D02*
X147954761Y-141753095D01*
X147049999Y-141467380D02*
X146383333Y-141467380D01*
X146383333Y-141467380D02*
X146811904Y-142467380D01*
D12*
%TO.C,Am/fm_button1*%
X153936190Y-106703716D02*
X153331428Y-106703716D01*
X154057142Y-107066573D02*
X153633809Y-105796573D01*
X153633809Y-105796573D02*
X153210475Y-107066573D01*
X152787143Y-107066573D02*
X152787143Y-106219907D01*
X152787143Y-106340859D02*
X152726666Y-106280383D01*
X152726666Y-106280383D02*
X152605714Y-106219907D01*
X152605714Y-106219907D02*
X152424285Y-106219907D01*
X152424285Y-106219907D02*
X152303333Y-106280383D01*
X152303333Y-106280383D02*
X152242857Y-106401335D01*
X152242857Y-106401335D02*
X152242857Y-107066573D01*
X152242857Y-106401335D02*
X152182381Y-106280383D01*
X152182381Y-106280383D02*
X152061428Y-106219907D01*
X152061428Y-106219907D02*
X151880000Y-106219907D01*
X151880000Y-106219907D02*
X151759047Y-106280383D01*
X151759047Y-106280383D02*
X151698571Y-106401335D01*
X151698571Y-106401335D02*
X151698571Y-107066573D01*
X150186667Y-105736097D02*
X151275238Y-107368954D01*
X149944762Y-106219907D02*
X149460953Y-106219907D01*
X149763334Y-107066573D02*
X149763334Y-105978002D01*
X149763334Y-105978002D02*
X149702857Y-105857050D01*
X149702857Y-105857050D02*
X149581905Y-105796573D01*
X149581905Y-105796573D02*
X149460953Y-105796573D01*
X149037620Y-107066573D02*
X149037620Y-106219907D01*
X149037620Y-106340859D02*
X148977143Y-106280383D01*
X148977143Y-106280383D02*
X148856191Y-106219907D01*
X148856191Y-106219907D02*
X148674762Y-106219907D01*
X148674762Y-106219907D02*
X148553810Y-106280383D01*
X148553810Y-106280383D02*
X148493334Y-106401335D01*
X148493334Y-106401335D02*
X148493334Y-107066573D01*
X148493334Y-106401335D02*
X148432858Y-106280383D01*
X148432858Y-106280383D02*
X148311905Y-106219907D01*
X148311905Y-106219907D02*
X148130477Y-106219907D01*
X148130477Y-106219907D02*
X148009524Y-106280383D01*
X148009524Y-106280383D02*
X147949048Y-106401335D01*
X147949048Y-106401335D02*
X147949048Y-107066573D01*
X147646668Y-107187526D02*
X146679048Y-107187526D01*
X146376668Y-107066573D02*
X146376668Y-105796573D01*
X146376668Y-106280383D02*
X146255715Y-106219907D01*
X146255715Y-106219907D02*
X146013810Y-106219907D01*
X146013810Y-106219907D02*
X145892858Y-106280383D01*
X145892858Y-106280383D02*
X145832382Y-106340859D01*
X145832382Y-106340859D02*
X145771906Y-106461811D01*
X145771906Y-106461811D02*
X145771906Y-106824669D01*
X145771906Y-106824669D02*
X145832382Y-106945621D01*
X145832382Y-106945621D02*
X145892858Y-107006097D01*
X145892858Y-107006097D02*
X146013810Y-107066573D01*
X146013810Y-107066573D02*
X146255715Y-107066573D01*
X146255715Y-107066573D02*
X146376668Y-107006097D01*
X144683334Y-106219907D02*
X144683334Y-107066573D01*
X145227620Y-106219907D02*
X145227620Y-106885145D01*
X145227620Y-106885145D02*
X145167143Y-107006097D01*
X145167143Y-107006097D02*
X145046191Y-107066573D01*
X145046191Y-107066573D02*
X144864762Y-107066573D01*
X144864762Y-107066573D02*
X144743810Y-107006097D01*
X144743810Y-107006097D02*
X144683334Y-106945621D01*
X144260000Y-106219907D02*
X143776191Y-106219907D01*
X144078572Y-105796573D02*
X144078572Y-106885145D01*
X144078572Y-106885145D02*
X144018095Y-107006097D01*
X144018095Y-107006097D02*
X143897143Y-107066573D01*
X143897143Y-107066573D02*
X143776191Y-107066573D01*
X143534286Y-106219907D02*
X143050477Y-106219907D01*
X143352858Y-105796573D02*
X143352858Y-106885145D01*
X143352858Y-106885145D02*
X143292381Y-107006097D01*
X143292381Y-107006097D02*
X143171429Y-107066573D01*
X143171429Y-107066573D02*
X143050477Y-107066573D01*
X142445715Y-107066573D02*
X142566667Y-107006097D01*
X142566667Y-107006097D02*
X142627144Y-106945621D01*
X142627144Y-106945621D02*
X142687620Y-106824669D01*
X142687620Y-106824669D02*
X142687620Y-106461811D01*
X142687620Y-106461811D02*
X142627144Y-106340859D01*
X142627144Y-106340859D02*
X142566667Y-106280383D01*
X142566667Y-106280383D02*
X142445715Y-106219907D01*
X142445715Y-106219907D02*
X142264286Y-106219907D01*
X142264286Y-106219907D02*
X142143334Y-106280383D01*
X142143334Y-106280383D02*
X142082858Y-106340859D01*
X142082858Y-106340859D02*
X142022382Y-106461811D01*
X142022382Y-106461811D02*
X142022382Y-106824669D01*
X142022382Y-106824669D02*
X142082858Y-106945621D01*
X142082858Y-106945621D02*
X142143334Y-107006097D01*
X142143334Y-107006097D02*
X142264286Y-107066573D01*
X142264286Y-107066573D02*
X142445715Y-107066573D01*
X141478096Y-106219907D02*
X141478096Y-107066573D01*
X141478096Y-106340859D02*
X141417619Y-106280383D01*
X141417619Y-106280383D02*
X141296667Y-106219907D01*
X141296667Y-106219907D02*
X141115238Y-106219907D01*
X141115238Y-106219907D02*
X140994286Y-106280383D01*
X140994286Y-106280383D02*
X140933810Y-106401335D01*
X140933810Y-106401335D02*
X140933810Y-107066573D01*
X139663809Y-107066573D02*
X140389524Y-107066573D01*
X140026667Y-107066573D02*
X140026667Y-105796573D01*
X140026667Y-105796573D02*
X140147619Y-105978002D01*
X140147619Y-105978002D02*
X140268571Y-106098954D01*
X140268571Y-106098954D02*
X140389524Y-106159430D01*
%TO.C,Scan_relay1*%
X118333095Y-115781097D02*
X118151666Y-115841573D01*
X118151666Y-115841573D02*
X117849285Y-115841573D01*
X117849285Y-115841573D02*
X117728333Y-115781097D01*
X117728333Y-115781097D02*
X117667857Y-115720621D01*
X117667857Y-115720621D02*
X117607380Y-115599669D01*
X117607380Y-115599669D02*
X117607380Y-115478716D01*
X117607380Y-115478716D02*
X117667857Y-115357764D01*
X117667857Y-115357764D02*
X117728333Y-115297288D01*
X117728333Y-115297288D02*
X117849285Y-115236811D01*
X117849285Y-115236811D02*
X118091190Y-115176335D01*
X118091190Y-115176335D02*
X118212142Y-115115859D01*
X118212142Y-115115859D02*
X118272619Y-115055383D01*
X118272619Y-115055383D02*
X118333095Y-114934430D01*
X118333095Y-114934430D02*
X118333095Y-114813478D01*
X118333095Y-114813478D02*
X118272619Y-114692526D01*
X118272619Y-114692526D02*
X118212142Y-114632050D01*
X118212142Y-114632050D02*
X118091190Y-114571573D01*
X118091190Y-114571573D02*
X117788809Y-114571573D01*
X117788809Y-114571573D02*
X117607380Y-114632050D01*
X116518809Y-115781097D02*
X116639761Y-115841573D01*
X116639761Y-115841573D02*
X116881666Y-115841573D01*
X116881666Y-115841573D02*
X117002618Y-115781097D01*
X117002618Y-115781097D02*
X117063095Y-115720621D01*
X117063095Y-115720621D02*
X117123571Y-115599669D01*
X117123571Y-115599669D02*
X117123571Y-115236811D01*
X117123571Y-115236811D02*
X117063095Y-115115859D01*
X117063095Y-115115859D02*
X117002618Y-115055383D01*
X117002618Y-115055383D02*
X116881666Y-114994907D01*
X116881666Y-114994907D02*
X116639761Y-114994907D01*
X116639761Y-114994907D02*
X116518809Y-115055383D01*
X115430238Y-115841573D02*
X115430238Y-115176335D01*
X115430238Y-115176335D02*
X115490714Y-115055383D01*
X115490714Y-115055383D02*
X115611666Y-114994907D01*
X115611666Y-114994907D02*
X115853571Y-114994907D01*
X115853571Y-114994907D02*
X115974524Y-115055383D01*
X115430238Y-115781097D02*
X115551190Y-115841573D01*
X115551190Y-115841573D02*
X115853571Y-115841573D01*
X115853571Y-115841573D02*
X115974524Y-115781097D01*
X115974524Y-115781097D02*
X116035000Y-115660145D01*
X116035000Y-115660145D02*
X116035000Y-115539192D01*
X116035000Y-115539192D02*
X115974524Y-115418240D01*
X115974524Y-115418240D02*
X115853571Y-115357764D01*
X115853571Y-115357764D02*
X115551190Y-115357764D01*
X115551190Y-115357764D02*
X115430238Y-115297288D01*
X114825476Y-114994907D02*
X114825476Y-115841573D01*
X114825476Y-115115859D02*
X114764999Y-115055383D01*
X114764999Y-115055383D02*
X114644047Y-114994907D01*
X114644047Y-114994907D02*
X114462618Y-114994907D01*
X114462618Y-114994907D02*
X114341666Y-115055383D01*
X114341666Y-115055383D02*
X114281190Y-115176335D01*
X114281190Y-115176335D02*
X114281190Y-115841573D01*
X113978809Y-115962526D02*
X113011189Y-115962526D01*
X112708809Y-115841573D02*
X112708809Y-114994907D01*
X112708809Y-115236811D02*
X112648332Y-115115859D01*
X112648332Y-115115859D02*
X112587856Y-115055383D01*
X112587856Y-115055383D02*
X112466904Y-114994907D01*
X112466904Y-114994907D02*
X112345951Y-114994907D01*
X111438809Y-115781097D02*
X111559761Y-115841573D01*
X111559761Y-115841573D02*
X111801666Y-115841573D01*
X111801666Y-115841573D02*
X111922619Y-115781097D01*
X111922619Y-115781097D02*
X111983095Y-115660145D01*
X111983095Y-115660145D02*
X111983095Y-115176335D01*
X111983095Y-115176335D02*
X111922619Y-115055383D01*
X111922619Y-115055383D02*
X111801666Y-114994907D01*
X111801666Y-114994907D02*
X111559761Y-114994907D01*
X111559761Y-114994907D02*
X111438809Y-115055383D01*
X111438809Y-115055383D02*
X111378333Y-115176335D01*
X111378333Y-115176335D02*
X111378333Y-115297288D01*
X111378333Y-115297288D02*
X111983095Y-115418240D01*
X110652619Y-115841573D02*
X110773571Y-115781097D01*
X110773571Y-115781097D02*
X110834048Y-115660145D01*
X110834048Y-115660145D02*
X110834048Y-114571573D01*
X109624524Y-115841573D02*
X109624524Y-115176335D01*
X109624524Y-115176335D02*
X109685000Y-115055383D01*
X109685000Y-115055383D02*
X109805952Y-114994907D01*
X109805952Y-114994907D02*
X110047857Y-114994907D01*
X110047857Y-114994907D02*
X110168810Y-115055383D01*
X109624524Y-115781097D02*
X109745476Y-115841573D01*
X109745476Y-115841573D02*
X110047857Y-115841573D01*
X110047857Y-115841573D02*
X110168810Y-115781097D01*
X110168810Y-115781097D02*
X110229286Y-115660145D01*
X110229286Y-115660145D02*
X110229286Y-115539192D01*
X110229286Y-115539192D02*
X110168810Y-115418240D01*
X110168810Y-115418240D02*
X110047857Y-115357764D01*
X110047857Y-115357764D02*
X109745476Y-115357764D01*
X109745476Y-115357764D02*
X109624524Y-115297288D01*
X109140714Y-114994907D02*
X108838333Y-115841573D01*
X108535952Y-114994907D02*
X108838333Y-115841573D01*
X108838333Y-115841573D02*
X108959285Y-116143954D01*
X108959285Y-116143954D02*
X109019762Y-116204430D01*
X109019762Y-116204430D02*
X109140714Y-116264907D01*
X107386904Y-115841573D02*
X108112619Y-115841573D01*
X107749762Y-115841573D02*
X107749762Y-114571573D01*
X107749762Y-114571573D02*
X107870714Y-114753002D01*
X107870714Y-114753002D02*
X107991666Y-114873954D01*
X107991666Y-114873954D02*
X108112619Y-114934430D01*
D10*
%TO.C,ToPi_ribbon*%
X157967380Y-132285714D02*
X157967380Y-132857142D01*
X158967380Y-132571428D02*
X157967380Y-132571428D01*
X158967380Y-133333333D02*
X158919761Y-133238095D01*
X158919761Y-133238095D02*
X158872142Y-133190476D01*
X158872142Y-133190476D02*
X158776904Y-133142857D01*
X158776904Y-133142857D02*
X158491190Y-133142857D01*
X158491190Y-133142857D02*
X158395952Y-133190476D01*
X158395952Y-133190476D02*
X158348333Y-133238095D01*
X158348333Y-133238095D02*
X158300714Y-133333333D01*
X158300714Y-133333333D02*
X158300714Y-133476190D01*
X158300714Y-133476190D02*
X158348333Y-133571428D01*
X158348333Y-133571428D02*
X158395952Y-133619047D01*
X158395952Y-133619047D02*
X158491190Y-133666666D01*
X158491190Y-133666666D02*
X158776904Y-133666666D01*
X158776904Y-133666666D02*
X158872142Y-133619047D01*
X158872142Y-133619047D02*
X158919761Y-133571428D01*
X158919761Y-133571428D02*
X158967380Y-133476190D01*
X158967380Y-133476190D02*
X158967380Y-133333333D01*
X158967380Y-134095238D02*
X157967380Y-134095238D01*
X157967380Y-134095238D02*
X157967380Y-134476190D01*
X157967380Y-134476190D02*
X158015000Y-134571428D01*
X158015000Y-134571428D02*
X158062619Y-134619047D01*
X158062619Y-134619047D02*
X158157857Y-134666666D01*
X158157857Y-134666666D02*
X158300714Y-134666666D01*
X158300714Y-134666666D02*
X158395952Y-134619047D01*
X158395952Y-134619047D02*
X158443571Y-134571428D01*
X158443571Y-134571428D02*
X158491190Y-134476190D01*
X158491190Y-134476190D02*
X158491190Y-134095238D01*
X158967380Y-135095238D02*
X158300714Y-135095238D01*
X157967380Y-135095238D02*
X158015000Y-135047619D01*
X158015000Y-135047619D02*
X158062619Y-135095238D01*
X158062619Y-135095238D02*
X158015000Y-135142857D01*
X158015000Y-135142857D02*
X157967380Y-135095238D01*
X157967380Y-135095238D02*
X158062619Y-135095238D01*
X159062619Y-135333333D02*
X159062619Y-136095237D01*
X158967380Y-136333333D02*
X158300714Y-136333333D01*
X158491190Y-136333333D02*
X158395952Y-136380952D01*
X158395952Y-136380952D02*
X158348333Y-136428571D01*
X158348333Y-136428571D02*
X158300714Y-136523809D01*
X158300714Y-136523809D02*
X158300714Y-136619047D01*
X158967380Y-136952381D02*
X158300714Y-136952381D01*
X157967380Y-136952381D02*
X158015000Y-136904762D01*
X158015000Y-136904762D02*
X158062619Y-136952381D01*
X158062619Y-136952381D02*
X158015000Y-137000000D01*
X158015000Y-137000000D02*
X157967380Y-136952381D01*
X157967380Y-136952381D02*
X158062619Y-136952381D01*
X158967380Y-137428571D02*
X157967380Y-137428571D01*
X158348333Y-137428571D02*
X158300714Y-137523809D01*
X158300714Y-137523809D02*
X158300714Y-137714285D01*
X158300714Y-137714285D02*
X158348333Y-137809523D01*
X158348333Y-137809523D02*
X158395952Y-137857142D01*
X158395952Y-137857142D02*
X158491190Y-137904761D01*
X158491190Y-137904761D02*
X158776904Y-137904761D01*
X158776904Y-137904761D02*
X158872142Y-137857142D01*
X158872142Y-137857142D02*
X158919761Y-137809523D01*
X158919761Y-137809523D02*
X158967380Y-137714285D01*
X158967380Y-137714285D02*
X158967380Y-137523809D01*
X158967380Y-137523809D02*
X158919761Y-137428571D01*
X158967380Y-138333333D02*
X157967380Y-138333333D01*
X158348333Y-138333333D02*
X158300714Y-138428571D01*
X158300714Y-138428571D02*
X158300714Y-138619047D01*
X158300714Y-138619047D02*
X158348333Y-138714285D01*
X158348333Y-138714285D02*
X158395952Y-138761904D01*
X158395952Y-138761904D02*
X158491190Y-138809523D01*
X158491190Y-138809523D02*
X158776904Y-138809523D01*
X158776904Y-138809523D02*
X158872142Y-138761904D01*
X158872142Y-138761904D02*
X158919761Y-138714285D01*
X158919761Y-138714285D02*
X158967380Y-138619047D01*
X158967380Y-138619047D02*
X158967380Y-138428571D01*
X158967380Y-138428571D02*
X158919761Y-138333333D01*
X158967380Y-139380952D02*
X158919761Y-139285714D01*
X158919761Y-139285714D02*
X158872142Y-139238095D01*
X158872142Y-139238095D02*
X158776904Y-139190476D01*
X158776904Y-139190476D02*
X158491190Y-139190476D01*
X158491190Y-139190476D02*
X158395952Y-139238095D01*
X158395952Y-139238095D02*
X158348333Y-139285714D01*
X158348333Y-139285714D02*
X158300714Y-139380952D01*
X158300714Y-139380952D02*
X158300714Y-139523809D01*
X158300714Y-139523809D02*
X158348333Y-139619047D01*
X158348333Y-139619047D02*
X158395952Y-139666666D01*
X158395952Y-139666666D02*
X158491190Y-139714285D01*
X158491190Y-139714285D02*
X158776904Y-139714285D01*
X158776904Y-139714285D02*
X158872142Y-139666666D01*
X158872142Y-139666666D02*
X158919761Y-139619047D01*
X158919761Y-139619047D02*
X158967380Y-139523809D01*
X158967380Y-139523809D02*
X158967380Y-139380952D01*
X158300714Y-140142857D02*
X158967380Y-140142857D01*
X158395952Y-140142857D02*
X158348333Y-140190476D01*
X158348333Y-140190476D02*
X158300714Y-140285714D01*
X158300714Y-140285714D02*
X158300714Y-140428571D01*
X158300714Y-140428571D02*
X158348333Y-140523809D01*
X158348333Y-140523809D02*
X158443571Y-140571428D01*
X158443571Y-140571428D02*
X158967380Y-140571428D01*
%TO.C,Ex18*%
X149571428Y-145243571D02*
X149238095Y-145243571D01*
X149095238Y-145767380D02*
X149571428Y-145767380D01*
X149571428Y-145767380D02*
X149571428Y-144767380D01*
X149571428Y-144767380D02*
X149095238Y-144767380D01*
X148761904Y-145767380D02*
X148238095Y-145100714D01*
X148761904Y-145100714D02*
X148238095Y-145767380D01*
X147333333Y-145767380D02*
X147904761Y-145767380D01*
X147619047Y-145767380D02*
X147619047Y-144767380D01*
X147619047Y-144767380D02*
X147714285Y-144910238D01*
X147714285Y-144910238D02*
X147809523Y-145005476D01*
X147809523Y-145005476D02*
X147904761Y-145053095D01*
X146761904Y-145195952D02*
X146857142Y-145148333D01*
X146857142Y-145148333D02*
X146904761Y-145100714D01*
X146904761Y-145100714D02*
X146952380Y-145005476D01*
X146952380Y-145005476D02*
X146952380Y-144957857D01*
X146952380Y-144957857D02*
X146904761Y-144862619D01*
X146904761Y-144862619D02*
X146857142Y-144815000D01*
X146857142Y-144815000D02*
X146761904Y-144767380D01*
X146761904Y-144767380D02*
X146571428Y-144767380D01*
X146571428Y-144767380D02*
X146476190Y-144815000D01*
X146476190Y-144815000D02*
X146428571Y-144862619D01*
X146428571Y-144862619D02*
X146380952Y-144957857D01*
X146380952Y-144957857D02*
X146380952Y-145005476D01*
X146380952Y-145005476D02*
X146428571Y-145100714D01*
X146428571Y-145100714D02*
X146476190Y-145148333D01*
X146476190Y-145148333D02*
X146571428Y-145195952D01*
X146571428Y-145195952D02*
X146761904Y-145195952D01*
X146761904Y-145195952D02*
X146857142Y-145243571D01*
X146857142Y-145243571D02*
X146904761Y-145291190D01*
X146904761Y-145291190D02*
X146952380Y-145386428D01*
X146952380Y-145386428D02*
X146952380Y-145576904D01*
X146952380Y-145576904D02*
X146904761Y-145672142D01*
X146904761Y-145672142D02*
X146857142Y-145719761D01*
X146857142Y-145719761D02*
X146761904Y-145767380D01*
X146761904Y-145767380D02*
X146571428Y-145767380D01*
X146571428Y-145767380D02*
X146476190Y-145719761D01*
X146476190Y-145719761D02*
X146428571Y-145672142D01*
X146428571Y-145672142D02*
X146380952Y-145576904D01*
X146380952Y-145576904D02*
X146380952Y-145386428D01*
X146380952Y-145386428D02*
X146428571Y-145291190D01*
X146428571Y-145291190D02*
X146476190Y-145243571D01*
X146476190Y-145243571D02*
X146571428Y-145195952D01*
%TO.C,J2*%
X113667437Y-155150380D02*
X113667437Y-155864666D01*
X113667437Y-155864666D02*
X113715056Y-156007523D01*
X113715056Y-156007523D02*
X113810294Y-156102761D01*
X113810294Y-156102761D02*
X113953151Y-156150380D01*
X113953151Y-156150380D02*
X114048389Y-156150380D01*
X113238865Y-155245619D02*
X113191246Y-155198000D01*
X113191246Y-155198000D02*
X113096008Y-155150380D01*
X113096008Y-155150380D02*
X112857913Y-155150380D01*
X112857913Y-155150380D02*
X112762675Y-155198000D01*
X112762675Y-155198000D02*
X112715056Y-155245619D01*
X112715056Y-155245619D02*
X112667437Y-155340857D01*
X112667437Y-155340857D02*
X112667437Y-155436095D01*
X112667437Y-155436095D02*
X112715056Y-155578952D01*
X112715056Y-155578952D02*
X113286484Y-156150380D01*
X113286484Y-156150380D02*
X112667437Y-156150380D01*
%TO.C,R2*%
X128247380Y-176245833D02*
X127771190Y-175912500D01*
X128247380Y-175674405D02*
X127247380Y-175674405D01*
X127247380Y-175674405D02*
X127247380Y-176055357D01*
X127247380Y-176055357D02*
X127295000Y-176150595D01*
X127295000Y-176150595D02*
X127342619Y-176198214D01*
X127342619Y-176198214D02*
X127437857Y-176245833D01*
X127437857Y-176245833D02*
X127580714Y-176245833D01*
X127580714Y-176245833D02*
X127675952Y-176198214D01*
X127675952Y-176198214D02*
X127723571Y-176150595D01*
X127723571Y-176150595D02*
X127771190Y-176055357D01*
X127771190Y-176055357D02*
X127771190Y-175674405D01*
X127342619Y-176626786D02*
X127295000Y-176674405D01*
X127295000Y-176674405D02*
X127247380Y-176769643D01*
X127247380Y-176769643D02*
X127247380Y-177007738D01*
X127247380Y-177007738D02*
X127295000Y-177102976D01*
X127295000Y-177102976D02*
X127342619Y-177150595D01*
X127342619Y-177150595D02*
X127437857Y-177198214D01*
X127437857Y-177198214D02*
X127533095Y-177198214D01*
X127533095Y-177198214D02*
X127675952Y-177150595D01*
X127675952Y-177150595D02*
X128247380Y-176579167D01*
X128247380Y-176579167D02*
X128247380Y-177198214D01*
X123767380Y-174545238D02*
X123767380Y-174354762D01*
X123767380Y-174354762D02*
X123815000Y-174259524D01*
X123815000Y-174259524D02*
X123862619Y-174211905D01*
X123862619Y-174211905D02*
X124005476Y-174116667D01*
X124005476Y-174116667D02*
X124195952Y-174069048D01*
X124195952Y-174069048D02*
X124576904Y-174069048D01*
X124576904Y-174069048D02*
X124672142Y-174116667D01*
X124672142Y-174116667D02*
X124719761Y-174164286D01*
X124719761Y-174164286D02*
X124767380Y-174259524D01*
X124767380Y-174259524D02*
X124767380Y-174450000D01*
X124767380Y-174450000D02*
X124719761Y-174545238D01*
X124719761Y-174545238D02*
X124672142Y-174592857D01*
X124672142Y-174592857D02*
X124576904Y-174640476D01*
X124576904Y-174640476D02*
X124338809Y-174640476D01*
X124338809Y-174640476D02*
X124243571Y-174592857D01*
X124243571Y-174592857D02*
X124195952Y-174545238D01*
X124195952Y-174545238D02*
X124148333Y-174450000D01*
X124148333Y-174450000D02*
X124148333Y-174259524D01*
X124148333Y-174259524D02*
X124195952Y-174164286D01*
X124195952Y-174164286D02*
X124243571Y-174116667D01*
X124243571Y-174116667D02*
X124338809Y-174069048D01*
X124195952Y-175211905D02*
X124148333Y-175116667D01*
X124148333Y-175116667D02*
X124100714Y-175069048D01*
X124100714Y-175069048D02*
X124005476Y-175021429D01*
X124005476Y-175021429D02*
X123957857Y-175021429D01*
X123957857Y-175021429D02*
X123862619Y-175069048D01*
X123862619Y-175069048D02*
X123815000Y-175116667D01*
X123815000Y-175116667D02*
X123767380Y-175211905D01*
X123767380Y-175211905D02*
X123767380Y-175402381D01*
X123767380Y-175402381D02*
X123815000Y-175497619D01*
X123815000Y-175497619D02*
X123862619Y-175545238D01*
X123862619Y-175545238D02*
X123957857Y-175592857D01*
X123957857Y-175592857D02*
X124005476Y-175592857D01*
X124005476Y-175592857D02*
X124100714Y-175545238D01*
X124100714Y-175545238D02*
X124148333Y-175497619D01*
X124148333Y-175497619D02*
X124195952Y-175402381D01*
X124195952Y-175402381D02*
X124195952Y-175211905D01*
X124195952Y-175211905D02*
X124243571Y-175116667D01*
X124243571Y-175116667D02*
X124291190Y-175069048D01*
X124291190Y-175069048D02*
X124386428Y-175021429D01*
X124386428Y-175021429D02*
X124576904Y-175021429D01*
X124576904Y-175021429D02*
X124672142Y-175069048D01*
X124672142Y-175069048D02*
X124719761Y-175116667D01*
X124719761Y-175116667D02*
X124767380Y-175211905D01*
X124767380Y-175211905D02*
X124767380Y-175402381D01*
X124767380Y-175402381D02*
X124719761Y-175497619D01*
X124719761Y-175497619D02*
X124672142Y-175545238D01*
X124672142Y-175545238D02*
X124576904Y-175592857D01*
X124576904Y-175592857D02*
X124386428Y-175592857D01*
X124386428Y-175592857D02*
X124291190Y-175545238D01*
X124291190Y-175545238D02*
X124243571Y-175497619D01*
X124243571Y-175497619D02*
X124195952Y-175402381D01*
X123767380Y-176211905D02*
X123767380Y-176307143D01*
X123767380Y-176307143D02*
X123815000Y-176402381D01*
X123815000Y-176402381D02*
X123862619Y-176450000D01*
X123862619Y-176450000D02*
X123957857Y-176497619D01*
X123957857Y-176497619D02*
X124148333Y-176545238D01*
X124148333Y-176545238D02*
X124386428Y-176545238D01*
X124386428Y-176545238D02*
X124576904Y-176497619D01*
X124576904Y-176497619D02*
X124672142Y-176450000D01*
X124672142Y-176450000D02*
X124719761Y-176402381D01*
X124719761Y-176402381D02*
X124767380Y-176307143D01*
X124767380Y-176307143D02*
X124767380Y-176211905D01*
X124767380Y-176211905D02*
X124719761Y-176116667D01*
X124719761Y-176116667D02*
X124672142Y-176069048D01*
X124672142Y-176069048D02*
X124576904Y-176021429D01*
X124576904Y-176021429D02*
X124386428Y-175973810D01*
X124386428Y-175973810D02*
X124148333Y-175973810D01*
X124148333Y-175973810D02*
X123957857Y-176021429D01*
X123957857Y-176021429D02*
X123862619Y-176069048D01*
X123862619Y-176069048D02*
X123815000Y-176116667D01*
X123815000Y-176116667D02*
X123767380Y-176211905D01*
X123767380Y-177764286D02*
X123767380Y-177954762D01*
X123767380Y-177954762D02*
X123815000Y-178050000D01*
X123815000Y-178050000D02*
X123910238Y-178145238D01*
X123910238Y-178145238D02*
X124100714Y-178192857D01*
X124100714Y-178192857D02*
X124434047Y-178192857D01*
X124434047Y-178192857D02*
X124624523Y-178145238D01*
X124624523Y-178145238D02*
X124719761Y-178050000D01*
X124719761Y-178050000D02*
X124767380Y-177954762D01*
X124767380Y-177954762D02*
X124767380Y-177764286D01*
X124767380Y-177764286D02*
X124719761Y-177669048D01*
X124719761Y-177669048D02*
X124624523Y-177573810D01*
X124624523Y-177573810D02*
X124434047Y-177526191D01*
X124434047Y-177526191D02*
X124100714Y-177526191D01*
X124100714Y-177526191D02*
X123910238Y-177573810D01*
X123910238Y-177573810D02*
X123815000Y-177669048D01*
X123815000Y-177669048D02*
X123767380Y-177764286D01*
X124767380Y-178621429D02*
X123767380Y-178621429D01*
X124767380Y-179050000D02*
X124243571Y-179050000D01*
X124243571Y-179050000D02*
X124148333Y-179002381D01*
X124148333Y-179002381D02*
X124100714Y-178907143D01*
X124100714Y-178907143D02*
X124100714Y-178764286D01*
X124100714Y-178764286D02*
X124148333Y-178669048D01*
X124148333Y-178669048D02*
X124195952Y-178621429D01*
X124767380Y-179526191D02*
X124100714Y-179526191D01*
X124195952Y-179526191D02*
X124148333Y-179573810D01*
X124148333Y-179573810D02*
X124100714Y-179669048D01*
X124100714Y-179669048D02*
X124100714Y-179811905D01*
X124100714Y-179811905D02*
X124148333Y-179907143D01*
X124148333Y-179907143D02*
X124243571Y-179954762D01*
X124243571Y-179954762D02*
X124767380Y-179954762D01*
X124243571Y-179954762D02*
X124148333Y-180002381D01*
X124148333Y-180002381D02*
X124100714Y-180097619D01*
X124100714Y-180097619D02*
X124100714Y-180240476D01*
X124100714Y-180240476D02*
X124148333Y-180335715D01*
X124148333Y-180335715D02*
X124243571Y-180383334D01*
X124243571Y-180383334D02*
X124767380Y-180383334D01*
%TO.C,Ex19*%
X149571428Y-147743571D02*
X149238095Y-147743571D01*
X149095238Y-148267380D02*
X149571428Y-148267380D01*
X149571428Y-148267380D02*
X149571428Y-147267380D01*
X149571428Y-147267380D02*
X149095238Y-147267380D01*
X148761904Y-148267380D02*
X148238095Y-147600714D01*
X148761904Y-147600714D02*
X148238095Y-148267380D01*
X147333333Y-148267380D02*
X147904761Y-148267380D01*
X147619047Y-148267380D02*
X147619047Y-147267380D01*
X147619047Y-147267380D02*
X147714285Y-147410238D01*
X147714285Y-147410238D02*
X147809523Y-147505476D01*
X147809523Y-147505476D02*
X147904761Y-147553095D01*
X146857142Y-148267380D02*
X146666666Y-148267380D01*
X146666666Y-148267380D02*
X146571428Y-148219761D01*
X146571428Y-148219761D02*
X146523809Y-148172142D01*
X146523809Y-148172142D02*
X146428571Y-148029285D01*
X146428571Y-148029285D02*
X146380952Y-147838809D01*
X146380952Y-147838809D02*
X146380952Y-147457857D01*
X146380952Y-147457857D02*
X146428571Y-147362619D01*
X146428571Y-147362619D02*
X146476190Y-147315000D01*
X146476190Y-147315000D02*
X146571428Y-147267380D01*
X146571428Y-147267380D02*
X146761904Y-147267380D01*
X146761904Y-147267380D02*
X146857142Y-147315000D01*
X146857142Y-147315000D02*
X146904761Y-147362619D01*
X146904761Y-147362619D02*
X146952380Y-147457857D01*
X146952380Y-147457857D02*
X146952380Y-147695952D01*
X146952380Y-147695952D02*
X146904761Y-147791190D01*
X146904761Y-147791190D02*
X146857142Y-147838809D01*
X146857142Y-147838809D02*
X146761904Y-147886428D01*
X146761904Y-147886428D02*
X146571428Y-147886428D01*
X146571428Y-147886428D02*
X146476190Y-147838809D01*
X146476190Y-147838809D02*
X146428571Y-147791190D01*
X146428571Y-147791190D02*
X146380952Y-147695952D01*
%TO.C,GND*%
X143061904Y-134565000D02*
X143157142Y-134517380D01*
X143157142Y-134517380D02*
X143299999Y-134517380D01*
X143299999Y-134517380D02*
X143442856Y-134565000D01*
X143442856Y-134565000D02*
X143538094Y-134660238D01*
X143538094Y-134660238D02*
X143585713Y-134755476D01*
X143585713Y-134755476D02*
X143633332Y-134945952D01*
X143633332Y-134945952D02*
X143633332Y-135088809D01*
X143633332Y-135088809D02*
X143585713Y-135279285D01*
X143585713Y-135279285D02*
X143538094Y-135374523D01*
X143538094Y-135374523D02*
X143442856Y-135469761D01*
X143442856Y-135469761D02*
X143299999Y-135517380D01*
X143299999Y-135517380D02*
X143204761Y-135517380D01*
X143204761Y-135517380D02*
X143061904Y-135469761D01*
X143061904Y-135469761D02*
X143014285Y-135422142D01*
X143014285Y-135422142D02*
X143014285Y-135088809D01*
X143014285Y-135088809D02*
X143204761Y-135088809D01*
X142585713Y-135517380D02*
X142585713Y-134517380D01*
X142585713Y-134517380D02*
X142014285Y-135517380D01*
X142014285Y-135517380D02*
X142014285Y-134517380D01*
X141538094Y-135517380D02*
X141538094Y-134517380D01*
X141538094Y-134517380D02*
X141299999Y-134517380D01*
X141299999Y-134517380D02*
X141157142Y-134565000D01*
X141157142Y-134565000D02*
X141061904Y-134660238D01*
X141061904Y-134660238D02*
X141014285Y-134755476D01*
X141014285Y-134755476D02*
X140966666Y-134945952D01*
X140966666Y-134945952D02*
X140966666Y-135088809D01*
X140966666Y-135088809D02*
X141014285Y-135279285D01*
X141014285Y-135279285D02*
X141061904Y-135374523D01*
X141061904Y-135374523D02*
X141157142Y-135469761D01*
X141157142Y-135469761D02*
X141299999Y-135517380D01*
X141299999Y-135517380D02*
X141538094Y-135517380D01*
%TO.C,J1*%
X137355163Y-173375851D02*
X137355163Y-174090137D01*
X137355163Y-174090137D02*
X137402782Y-174232994D01*
X137402782Y-174232994D02*
X137498020Y-174328232D01*
X137498020Y-174328232D02*
X137640877Y-174375851D01*
X137640877Y-174375851D02*
X137736115Y-174375851D01*
X136355163Y-174375851D02*
X136926591Y-174375851D01*
X136640877Y-174375851D02*
X136640877Y-173375851D01*
X136640877Y-173375851D02*
X136736115Y-173518709D01*
X136736115Y-173518709D02*
X136831353Y-173613947D01*
X136831353Y-173613947D02*
X136926591Y-173661566D01*
%TO.C,Ref\u002A\u002A*%
G36*
X124238498Y-131768482D02*
G01*
X124237096Y-131931612D01*
X124227421Y-132205871D01*
X124226209Y-132229050D01*
X124214795Y-132425613D01*
X124201674Y-132602464D01*
X124185597Y-132764978D01*
X124165319Y-132918531D01*
X124139590Y-133068498D01*
X124107165Y-133220255D01*
X124066793Y-133379179D01*
X124017230Y-133550645D01*
X123957226Y-133740028D01*
X123885534Y-133952705D01*
X123800906Y-134194051D01*
X123702095Y-134469442D01*
X123674977Y-134545274D01*
X123622017Y-134697702D01*
X123572290Y-134846161D01*
X123528697Y-134981731D01*
X123494139Y-135095492D01*
X123471516Y-135178525D01*
X123432710Y-135372181D01*
X123398620Y-135665475D01*
X123386186Y-135991179D01*
X123395563Y-136346918D01*
X123404148Y-136487781D01*
X123418325Y-136664832D01*
X123436577Y-136830301D01*
X123460473Y-136994629D01*
X123491583Y-137168256D01*
X123531477Y-137361622D01*
X123581723Y-137585168D01*
X123588686Y-137615356D01*
X123627700Y-137787974D01*
X123656738Y-137925559D01*
X123676277Y-138033280D01*
X123686795Y-138116305D01*
X123688768Y-138179803D01*
X123682675Y-138228945D01*
X123668993Y-138268899D01*
X123648200Y-138304835D01*
X123637878Y-138319050D01*
X123559807Y-138392441D01*
X123445436Y-138457298D01*
X123293858Y-138513862D01*
X123104168Y-138562372D01*
X122875461Y-138603066D01*
X122606831Y-138636185D01*
X122297371Y-138661968D01*
X122276207Y-138663365D01*
X121993724Y-138677417D01*
X121699929Y-138684199D01*
X121400758Y-138684038D01*
X121102147Y-138677261D01*
X120810033Y-138664197D01*
X120530351Y-138645173D01*
X120269037Y-138620517D01*
X120032028Y-138590557D01*
X119825258Y-138555620D01*
X119654665Y-138516035D01*
X119638575Y-138511518D01*
X119502282Y-138467304D01*
X119397600Y-138418198D01*
X119322347Y-138359319D01*
X119274342Y-138285787D01*
X119251405Y-138192724D01*
X119251354Y-138075248D01*
X119272008Y-137928480D01*
X119311186Y-137747540D01*
X119318802Y-137715522D01*
X119381094Y-137438019D01*
X119428881Y-137189546D01*
X119463114Y-136960770D01*
X119484743Y-136742355D01*
X119494721Y-136524968D01*
X119493998Y-136299274D01*
X119483524Y-136055938D01*
X119477594Y-135956645D01*
X119466904Y-135790282D01*
X119455827Y-135644447D01*
X119443257Y-135513011D01*
X119428083Y-135389847D01*
X119409199Y-135268827D01*
X119385495Y-135143824D01*
X119355863Y-135008709D01*
X119319195Y-134857355D01*
X119274382Y-134683634D01*
X119220317Y-134481419D01*
X119155890Y-134244582D01*
X119063064Y-133897028D01*
X118981162Y-133571564D01*
X118912831Y-133275659D01*
X118857287Y-133004238D01*
X118813748Y-132752224D01*
X118781430Y-132514540D01*
X118759550Y-132286111D01*
X118747324Y-132061859D01*
X118743969Y-131836709D01*
X118744964Y-131788107D01*
X118816370Y-131788107D01*
X118818580Y-132022577D01*
X118825780Y-132242151D01*
X118837966Y-132437780D01*
X118855129Y-132600418D01*
X118871177Y-132711764D01*
X118899123Y-132883458D01*
X118932131Y-133060517D01*
X118971500Y-133248767D01*
X119018530Y-133454037D01*
X119074521Y-133682156D01*
X119140771Y-133938951D01*
X119218581Y-134230251D01*
X119256234Y-134370459D01*
X119303356Y-134548906D01*
X119347347Y-134718702D01*
X119386581Y-134873416D01*
X119419431Y-135006616D01*
X119444270Y-135111872D01*
X119459473Y-135182751D01*
X119482970Y-135324883D01*
X119508030Y-135530465D01*
X119527738Y-135757132D01*
X119541814Y-135995916D01*
X119549980Y-136237847D01*
X119551955Y-136473958D01*
X119547459Y-136695278D01*
X119536214Y-136892839D01*
X119517939Y-137057671D01*
X119508527Y-137115396D01*
X119486953Y-137233010D01*
X119459523Y-137371062D01*
X119428793Y-137516843D01*
X119397318Y-137657641D01*
X119373961Y-137762201D01*
X119348235Y-137886575D01*
X119327533Y-137997179D01*
X119313541Y-138084897D01*
X119307945Y-138140615D01*
X119307621Y-138171190D01*
X119313430Y-138228084D01*
X119335265Y-138270150D01*
X119381266Y-138316965D01*
X119454342Y-138367382D01*
X119575145Y-138420124D01*
X119734520Y-138467830D01*
X119930585Y-138510104D01*
X120161457Y-138546546D01*
X120425254Y-138576757D01*
X120720094Y-138600341D01*
X120775390Y-138603499D01*
X120919656Y-138609241D01*
X121091797Y-138613597D01*
X121281989Y-138616517D01*
X121480405Y-138617948D01*
X121677219Y-138617842D01*
X121862605Y-138616146D01*
X122026737Y-138612810D01*
X122159788Y-138607783D01*
X122264452Y-138601299D01*
X122429793Y-138587623D01*
X122601580Y-138570015D01*
X122770069Y-138549680D01*
X122925514Y-138527821D01*
X123058168Y-138505643D01*
X123158286Y-138484352D01*
X123169879Y-138481376D01*
X123322090Y-138434780D01*
X123448371Y-138381694D01*
X123543263Y-138324799D01*
X123601309Y-138266775D01*
X123602655Y-138264676D01*
X123619019Y-138225808D01*
X123625681Y-138172767D01*
X123622102Y-138100294D01*
X123607740Y-138003127D01*
X123582056Y-137876006D01*
X123544510Y-137713670D01*
X123505999Y-137551203D01*
X123460888Y-137351383D01*
X123425016Y-137176548D01*
X123396965Y-137017521D01*
X123375316Y-136865124D01*
X123358649Y-136710180D01*
X123345547Y-136543513D01*
X123334590Y-136355943D01*
X123333356Y-136331180D01*
X123325406Y-136011608D01*
X123333211Y-135717317D01*
X123356515Y-135453079D01*
X123395064Y-135223662D01*
X123399739Y-135202796D01*
X123418113Y-135128169D01*
X123441584Y-135043733D01*
X123471554Y-134945229D01*
X123509429Y-134828400D01*
X123556613Y-134688987D01*
X123614509Y-134522732D01*
X123684522Y-134325379D01*
X123768056Y-134092668D01*
X123789759Y-134032194D01*
X123880032Y-133772730D01*
X123954537Y-133541185D01*
X124014930Y-133328921D01*
X124062865Y-133127302D01*
X124099999Y-132927691D01*
X124127985Y-132721450D01*
X124148481Y-132499944D01*
X124163140Y-132254535D01*
X124173619Y-131976586D01*
X124174768Y-131933463D01*
X124176952Y-131768482D01*
X124176420Y-131586708D01*
X124173424Y-131392687D01*
X124168217Y-131190969D01*
X124161052Y-130986101D01*
X124152180Y-130782630D01*
X124141854Y-130585106D01*
X124130327Y-130398075D01*
X124117852Y-130226087D01*
X124104679Y-130073688D01*
X124091063Y-129945426D01*
X124077255Y-129845851D01*
X124063509Y-129779509D01*
X124050075Y-129750949D01*
X124024575Y-129740618D01*
X123965622Y-129721278D01*
X123883457Y-129696478D01*
X123787388Y-129669117D01*
X123537981Y-129604388D01*
X123126613Y-129516573D01*
X122702809Y-129449786D01*
X122260086Y-129403244D01*
X121791961Y-129376164D01*
X121291955Y-129367763D01*
X121088044Y-129369493D01*
X120586897Y-129387563D01*
X120114995Y-129425709D01*
X119666254Y-129484513D01*
X119234590Y-129564556D01*
X119217339Y-129568254D01*
X119125822Y-129588839D01*
X119066865Y-129605433D01*
X119032647Y-129621531D01*
X119015349Y-129640628D01*
X119007151Y-129666219D01*
X119000644Y-129703495D01*
X118988961Y-129782909D01*
X118974170Y-129892144D01*
X118957108Y-130024365D01*
X118938612Y-130172739D01*
X118919520Y-130330430D01*
X118900667Y-130490603D01*
X118882891Y-130646423D01*
X118867029Y-130791057D01*
X118853918Y-130917668D01*
X118839753Y-131085803D01*
X118826950Y-131310672D01*
X118819158Y-131547789D01*
X118816370Y-131788107D01*
X118744964Y-131788107D01*
X118748703Y-131605585D01*
X118751139Y-131544004D01*
X118763267Y-131317328D01*
X118780526Y-131076421D01*
X118802278Y-130825989D01*
X118827880Y-130570740D01*
X118856693Y-130315381D01*
X118888076Y-130064620D01*
X118921388Y-129823164D01*
X118955989Y-129595720D01*
X118991238Y-129386996D01*
X119026495Y-129201699D01*
X119061120Y-129044536D01*
X119094471Y-128920214D01*
X119125908Y-128833442D01*
X119126032Y-128833171D01*
X119153933Y-128799063D01*
X119206889Y-128767115D01*
X119287769Y-128736558D01*
X119399439Y-128706621D01*
X119544767Y-128676536D01*
X119726622Y-128645533D01*
X119947871Y-128612842D01*
X120153450Y-128586878D01*
X120667812Y-128543878D01*
X121208328Y-128528099D01*
X121770615Y-128539495D01*
X122350285Y-128578021D01*
X122942955Y-128643632D01*
X123117412Y-128667834D01*
X123311685Y-128697617D01*
X123485962Y-128727472D01*
X123635821Y-128756533D01*
X123756835Y-128783930D01*
X123844580Y-128808797D01*
X123894632Y-128830266D01*
X123931127Y-128867071D01*
X123972965Y-128945306D01*
X124012592Y-129061690D01*
X124050468Y-129217615D01*
X124087051Y-129414473D01*
X124095246Y-129465452D01*
X124130327Y-129721303D01*
X124161301Y-130009031D01*
X124187742Y-130320188D01*
X124209227Y-130646321D01*
X124225329Y-130978981D01*
X124235625Y-131309717D01*
X124239689Y-131630077D01*
X124238498Y-131768482D01*
G37*
D13*
X124238498Y-131768482D02*
X124237096Y-131931612D01*
X124227421Y-132205871D01*
X124226209Y-132229050D01*
X124214795Y-132425613D01*
X124201674Y-132602464D01*
X124185597Y-132764978D01*
X124165319Y-132918531D01*
X124139590Y-133068498D01*
X124107165Y-133220255D01*
X124066793Y-133379179D01*
X124017230Y-133550645D01*
X123957226Y-133740028D01*
X123885534Y-133952705D01*
X123800906Y-134194051D01*
X123702095Y-134469442D01*
X123674977Y-134545274D01*
X123622017Y-134697702D01*
X123572290Y-134846161D01*
X123528697Y-134981731D01*
X123494139Y-135095492D01*
X123471516Y-135178525D01*
X123432710Y-135372181D01*
X123398620Y-135665475D01*
X123386186Y-135991179D01*
X123395563Y-136346918D01*
X123404148Y-136487781D01*
X123418325Y-136664832D01*
X123436577Y-136830301D01*
X123460473Y-136994629D01*
X123491583Y-137168256D01*
X123531477Y-137361622D01*
X123581723Y-137585168D01*
X123588686Y-137615356D01*
X123627700Y-137787974D01*
X123656738Y-137925559D01*
X123676277Y-138033280D01*
X123686795Y-138116305D01*
X123688768Y-138179803D01*
X123682675Y-138228945D01*
X123668993Y-138268899D01*
X123648200Y-138304835D01*
X123637878Y-138319050D01*
X123559807Y-138392441D01*
X123445436Y-138457298D01*
X123293858Y-138513862D01*
X123104168Y-138562372D01*
X122875461Y-138603066D01*
X122606831Y-138636185D01*
X122297371Y-138661968D01*
X122276207Y-138663365D01*
X121993724Y-138677417D01*
X121699929Y-138684199D01*
X121400758Y-138684038D01*
X121102147Y-138677261D01*
X120810033Y-138664197D01*
X120530351Y-138645173D01*
X120269037Y-138620517D01*
X120032028Y-138590557D01*
X119825258Y-138555620D01*
X119654665Y-138516035D01*
X119638575Y-138511518D01*
X119502282Y-138467304D01*
X119397600Y-138418198D01*
X119322347Y-138359319D01*
X119274342Y-138285787D01*
X119251405Y-138192724D01*
X119251354Y-138075248D01*
X119272008Y-137928480D01*
X119311186Y-137747540D01*
X119318802Y-137715522D01*
X119381094Y-137438019D01*
X119428881Y-137189546D01*
X119463114Y-136960770D01*
X119484743Y-136742355D01*
X119494721Y-136524968D01*
X119493998Y-136299274D01*
X119483524Y-136055938D01*
X119477594Y-135956645D01*
X119466904Y-135790282D01*
X119455827Y-135644447D01*
X119443257Y-135513011D01*
X119428083Y-135389847D01*
X119409199Y-135268827D01*
X119385495Y-135143824D01*
X119355863Y-135008709D01*
X119319195Y-134857355D01*
X119274382Y-134683634D01*
X119220317Y-134481419D01*
X119155890Y-134244582D01*
X119063064Y-133897028D01*
X118981162Y-133571564D01*
X118912831Y-133275659D01*
X118857287Y-133004238D01*
X118813748Y-132752224D01*
X118781430Y-132514540D01*
X118759550Y-132286111D01*
X118747324Y-132061859D01*
X118743969Y-131836709D01*
X118744964Y-131788107D01*
X118816370Y-131788107D01*
X118818580Y-132022577D01*
X118825780Y-132242151D01*
X118837966Y-132437780D01*
X118855129Y-132600418D01*
X118871177Y-132711764D01*
X118899123Y-132883458D01*
X118932131Y-133060517D01*
X118971500Y-133248767D01*
X119018530Y-133454037D01*
X119074521Y-133682156D01*
X119140771Y-133938951D01*
X119218581Y-134230251D01*
X119256234Y-134370459D01*
X119303356Y-134548906D01*
X119347347Y-134718702D01*
X119386581Y-134873416D01*
X119419431Y-135006616D01*
X119444270Y-135111872D01*
X119459473Y-135182751D01*
X119482970Y-135324883D01*
X119508030Y-135530465D01*
X119527738Y-135757132D01*
X119541814Y-135995916D01*
X119549980Y-136237847D01*
X119551955Y-136473958D01*
X119547459Y-136695278D01*
X119536214Y-136892839D01*
X119517939Y-137057671D01*
X119508527Y-137115396D01*
X119486953Y-137233010D01*
X119459523Y-137371062D01*
X119428793Y-137516843D01*
X119397318Y-137657641D01*
X119373961Y-137762201D01*
X119348235Y-137886575D01*
X119327533Y-137997179D01*
X119313541Y-138084897D01*
X119307945Y-138140615D01*
X119307621Y-138171190D01*
X119313430Y-138228084D01*
X119335265Y-138270150D01*
X119381266Y-138316965D01*
X119454342Y-138367382D01*
X119575145Y-138420124D01*
X119734520Y-138467830D01*
X119930585Y-138510104D01*
X120161457Y-138546546D01*
X120425254Y-138576757D01*
X120720094Y-138600341D01*
X120775390Y-138603499D01*
X120919656Y-138609241D01*
X121091797Y-138613597D01*
X121281989Y-138616517D01*
X121480405Y-138617948D01*
X121677219Y-138617842D01*
X121862605Y-138616146D01*
X122026737Y-138612810D01*
X122159788Y-138607783D01*
X122264452Y-138601299D01*
X122429793Y-138587623D01*
X122601580Y-138570015D01*
X122770069Y-138549680D01*
X122925514Y-138527821D01*
X123058168Y-138505643D01*
X123158286Y-138484352D01*
X123169879Y-138481376D01*
X123322090Y-138434780D01*
X123448371Y-138381694D01*
X123543263Y-138324799D01*
X123601309Y-138266775D01*
X123602655Y-138264676D01*
X123619019Y-138225808D01*
X123625681Y-138172767D01*
X123622102Y-138100294D01*
X123607740Y-138003127D01*
X123582056Y-137876006D01*
X123544510Y-137713670D01*
X123505999Y-137551203D01*
X123460888Y-137351383D01*
X123425016Y-137176548D01*
X123396965Y-137017521D01*
X123375316Y-136865124D01*
X123358649Y-136710180D01*
X123345547Y-136543513D01*
X123334590Y-136355943D01*
X123333356Y-136331180D01*
X123325406Y-136011608D01*
X123333211Y-135717317D01*
X123356515Y-135453079D01*
X123395064Y-135223662D01*
X123399739Y-135202796D01*
X123418113Y-135128169D01*
X123441584Y-135043733D01*
X123471554Y-134945229D01*
X123509429Y-134828400D01*
X123556613Y-134688987D01*
X123614509Y-134522732D01*
X123684522Y-134325379D01*
X123768056Y-134092668D01*
X123789759Y-134032194D01*
X123880032Y-133772730D01*
X123954537Y-133541185D01*
X124014930Y-133328921D01*
X124062865Y-133127302D01*
X124099999Y-132927691D01*
X124127985Y-132721450D01*
X124148481Y-132499944D01*
X124163140Y-132254535D01*
X124173619Y-131976586D01*
X124174768Y-131933463D01*
X124176952Y-131768482D01*
X124176420Y-131586708D01*
X124173424Y-131392687D01*
X124168217Y-131190969D01*
X124161052Y-130986101D01*
X124152180Y-130782630D01*
X124141854Y-130585106D01*
X124130327Y-130398075D01*
X124117852Y-130226087D01*
X124104679Y-130073688D01*
X124091063Y-129945426D01*
X124077255Y-129845851D01*
X124063509Y-129779509D01*
X124050075Y-129750949D01*
X124024575Y-129740618D01*
X123965622Y-129721278D01*
X123883457Y-129696478D01*
X123787388Y-129669117D01*
X123537981Y-129604388D01*
X123126613Y-129516573D01*
X122702809Y-129449786D01*
X122260086Y-129403244D01*
X121791961Y-129376164D01*
X121291955Y-129367763D01*
X121088044Y-129369493D01*
X120586897Y-129387563D01*
X120114995Y-129425709D01*
X119666254Y-129484513D01*
X119234590Y-129564556D01*
X119217339Y-129568254D01*
X119125822Y-129588839D01*
X119066865Y-129605433D01*
X119032647Y-129621531D01*
X119015349Y-129640628D01*
X119007151Y-129666219D01*
X119000644Y-129703495D01*
X118988961Y-129782909D01*
X118974170Y-129892144D01*
X118957108Y-130024365D01*
X118938612Y-130172739D01*
X118919520Y-130330430D01*
X118900667Y-130490603D01*
X118882891Y-130646423D01*
X118867029Y-130791057D01*
X118853918Y-130917668D01*
X118839753Y-131085803D01*
X118826950Y-131310672D01*
X118819158Y-131547789D01*
X118816370Y-131788107D01*
X118744964Y-131788107D01*
X118748703Y-131605585D01*
X118751139Y-131544004D01*
X118763267Y-131317328D01*
X118780526Y-131076421D01*
X118802278Y-130825989D01*
X118827880Y-130570740D01*
X118856693Y-130315381D01*
X118888076Y-130064620D01*
X118921388Y-129823164D01*
X118955989Y-129595720D01*
X118991238Y-129386996D01*
X119026495Y-129201699D01*
X119061120Y-129044536D01*
X119094471Y-128920214D01*
X119125908Y-128833442D01*
X119126032Y-128833171D01*
X119153933Y-128799063D01*
X119206889Y-128767115D01*
X119287769Y-128736558D01*
X119399439Y-128706621D01*
X119544767Y-128676536D01*
X119726622Y-128645533D01*
X119947871Y-128612842D01*
X120153450Y-128586878D01*
X120667812Y-128543878D01*
X121208328Y-128528099D01*
X121770615Y-128539495D01*
X122350285Y-128578021D01*
X122942955Y-128643632D01*
X123117412Y-128667834D01*
X123311685Y-128697617D01*
X123485962Y-128727472D01*
X123635821Y-128756533D01*
X123756835Y-128783930D01*
X123844580Y-128808797D01*
X123894632Y-128830266D01*
X123931127Y-128867071D01*
X123972965Y-128945306D01*
X124012592Y-129061690D01*
X124050468Y-129217615D01*
X124087051Y-129414473D01*
X124095246Y-129465452D01*
X124130327Y-129721303D01*
X124161301Y-130009031D01*
X124187742Y-130320188D01*
X124209227Y-130646321D01*
X124225329Y-130978981D01*
X124235625Y-131309717D01*
X124239689Y-131630077D01*
X124238498Y-131768482D01*
D14*
%TO.C,R3*%
X147107776Y-177727500D02*
X147617224Y-177727500D01*
X147107776Y-178772500D02*
X147617224Y-178772500D01*
%TO.C,Ex20*%
X146000000Y-152150000D02*
X146000000Y-149750000D01*
X146000000Y-149750000D02*
X143600000Y-149750000D01*
X143600000Y-152150000D02*
X146000000Y-152150000D01*
X143600000Y-149750000D02*
X143600000Y-152150000D01*
%TO.C,ToSaab_ribbon*%
X157000000Y-155600000D02*
X157000000Y-173900000D01*
X155260000Y-155600000D02*
X157000000Y-155600000D01*
X151200000Y-155600000D02*
X152540000Y-155600000D01*
X151200000Y-157090000D02*
X151200000Y-155600000D01*
X151200000Y-157090000D02*
X150000000Y-157090000D01*
X151200000Y-172410000D02*
X151200000Y-173900000D01*
X157000000Y-173900000D02*
X155260000Y-173900000D01*
X151200000Y-173900000D02*
X152540000Y-173900000D01*
%TO.C,Expansion_GND_2*%
X146300000Y-136700000D02*
X146300000Y-134300000D01*
X146300000Y-134300000D02*
X143900000Y-134300000D01*
X143900000Y-136700000D02*
X146300000Y-136700000D01*
X143900000Y-134300000D02*
X143900000Y-136700000D01*
%TO.C,VCC*%
X148300000Y-139700000D02*
X148300000Y-137300000D01*
X148300000Y-137300000D02*
X145900000Y-137300000D01*
X145900000Y-139700000D02*
X148300000Y-139700000D01*
X145900000Y-137300000D02*
X145900000Y-139700000D01*
D15*
%TO.C,CD_relay1*%
X122770000Y-106825000D02*
X122770000Y-106825000D01*
X122670000Y-106825000D02*
X122670000Y-106825000D01*
D16*
X122250000Y-109300000D02*
X103050000Y-109300000D01*
X122250000Y-102300000D02*
X122250000Y-109300000D01*
X103050000Y-109300000D02*
X103050000Y-102300000D01*
X103050000Y-102300000D02*
X122250000Y-102300000D01*
D15*
X122670000Y-106825000D02*
G75*
G03*
X122770000Y-106825000I50000J0D01*
G01*
X122770000Y-106825000D02*
G75*
G03*
X122670000Y-106825000I-50000J0D01*
G01*
D14*
%TO.C,Ex17*%
X143600000Y-140750000D02*
X143600000Y-143150000D01*
X143600000Y-143150000D02*
X146000000Y-143150000D01*
X146000000Y-140750000D02*
X143600000Y-140750000D01*
X146000000Y-143150000D02*
X146000000Y-140750000D01*
%TO.C,Expansion_VCC_2*%
X145300000Y-139750000D02*
X145300000Y-137350000D01*
X145300000Y-137350000D02*
X142900000Y-137350000D01*
X142900000Y-139750000D02*
X145300000Y-139750000D01*
X142900000Y-137350000D02*
X142900000Y-139750000D01*
D15*
%TO.C,Am/fm_button1*%
X156920000Y-107625000D02*
X156920000Y-107625000D01*
X156820000Y-107625000D02*
X156820000Y-107625000D01*
D16*
X156400000Y-110100000D02*
X137200000Y-110100000D01*
X156400000Y-103100000D02*
X156400000Y-110100000D01*
X137200000Y-110100000D02*
X137200000Y-103100000D01*
X137200000Y-103100000D02*
X156400000Y-103100000D01*
D15*
X156820000Y-107625000D02*
G75*
G03*
X156920000Y-107625000I50000J0D01*
G01*
X156920000Y-107625000D02*
G75*
G03*
X156820000Y-107625000I-50000J0D01*
G01*
%TO.C,Scan_relay1*%
X122980000Y-116400000D02*
X122980000Y-116400000D01*
X122880000Y-116400000D02*
X122880000Y-116400000D01*
D16*
X122460000Y-118875000D02*
X103260000Y-118875000D01*
X122460000Y-111875000D02*
X122460000Y-118875000D01*
X103260000Y-118875000D02*
X103260000Y-111875000D01*
X103260000Y-111875000D02*
X122460000Y-111875000D01*
D15*
X122880000Y-116400000D02*
G75*
G03*
X122980000Y-116400000I50000J0D01*
G01*
X122980000Y-116400000D02*
G75*
G03*
X122880000Y-116400000I-50000J0D01*
G01*
D14*
%TO.C,ToPi_ribbon*%
X157500000Y-129050000D02*
X157500000Y-142350000D01*
X155760000Y-129050000D02*
X157500000Y-129050000D01*
X151700000Y-129050000D02*
X153040000Y-129050000D01*
X151700000Y-130540000D02*
X151700000Y-129050000D01*
X151700000Y-130540000D02*
X150500000Y-130540000D01*
X151700000Y-140860000D02*
X151700000Y-142350000D01*
X157500000Y-142350000D02*
X155760000Y-142350000D01*
X151700000Y-142350000D02*
X153040000Y-142350000D01*
%TO.C,Ex18*%
X146000000Y-146150000D02*
X146000000Y-143750000D01*
X146000000Y-143750000D02*
X143600000Y-143750000D01*
X143600000Y-146150000D02*
X146000000Y-146150000D01*
X143600000Y-143750000D02*
X143600000Y-146150000D01*
%TO.C,J2*%
X113334104Y-167283000D02*
X107334104Y-167283000D01*
X107334104Y-167283000D02*
X107334104Y-168283000D01*
X107334104Y-168283000D02*
X113334104Y-168283000D01*
X113334104Y-168283000D02*
X113334104Y-167283000D01*
X113334104Y-156283000D02*
X107334104Y-156283000D01*
X107334104Y-156283000D02*
X107334104Y-157005000D01*
X107334104Y-157005000D02*
X113334104Y-157005000D01*
X113334104Y-157005000D02*
X113334104Y-156283000D01*
%TO.C,R2*%
X125927500Y-176667224D02*
X125927500Y-176157776D01*
X126972500Y-176667224D02*
X126972500Y-176157776D01*
%TO.C,Ex19*%
X146000000Y-149150000D02*
X146000000Y-146750000D01*
X146000000Y-146750000D02*
X143600000Y-146750000D01*
X143600000Y-149150000D02*
X146000000Y-149150000D01*
X143600000Y-146750000D02*
X143600000Y-149150000D01*
%TO.C,GND*%
X149300000Y-136700000D02*
X149300000Y-134300000D01*
X149300000Y-134300000D02*
X146900000Y-134300000D01*
X146900000Y-136700000D02*
X149300000Y-136700000D01*
X146900000Y-134300000D02*
X146900000Y-136700000D01*
%TO.C,J1*%
X137021830Y-183008471D02*
X131021830Y-183008471D01*
X131021830Y-183008471D02*
X131021830Y-184008471D01*
X131021830Y-184008471D02*
X137021830Y-184008471D01*
X137021830Y-184008471D02*
X137021830Y-183008471D01*
X137021830Y-174508471D02*
X131021830Y-174508471D01*
X131021830Y-174508471D02*
X131021830Y-175270471D01*
X131021830Y-175270471D02*
X137021830Y-175270471D01*
X137021830Y-175270471D02*
X137021830Y-174508471D01*
%TD*%
M02*
