%TF.GenerationSoftware,KiCad,Pcbnew,(7.0.0)*%
%TF.CreationDate,2023-03-15T21:07:42-04:00*%
%TF.ProjectId,headunit_controls,68656164-756e-4697-945f-636f6e74726f,rev?*%
%TF.SameCoordinates,Original*%
%TF.FileFunction,Copper,L1,Top*%
%TF.FilePolarity,Positive*%
%FSLAX46Y46*%
G04 Gerber Fmt 4.6, Leading zero omitted, Abs format (unit mm)*
G04 Created by KiCad (PCBNEW (7.0.0)) date 2023-03-15 21:07:42*
%MOMM*%
%LPD*%
G01*
G04 APERTURE LIST*
G04 Aperture macros list*
%AMRoundRect*
0 Rectangle with rounded corners*
0 $1 Rounding radius*
0 $2 $3 $4 $5 $6 $7 $8 $9 X,Y pos of 4 corners*
0 Add a 4 corners polygon primitive as box body*
4,1,4,$2,$3,$4,$5,$6,$7,$8,$9,$2,$3,0*
0 Add four circle primitives for the rounded corners*
1,1,$1+$1,$2,$3*
1,1,$1+$1,$4,$5*
1,1,$1+$1,$6,$7*
1,1,$1+$1,$8,$9*
0 Add four rect primitives between the rounded corners*
20,1,$1+$1,$2,$3,$4,$5,0*
20,1,$1+$1,$4,$5,$6,$7,0*
20,1,$1+$1,$6,$7,$8,$9,0*
20,1,$1+$1,$8,$9,$2,$3,0*%
G04 Aperture macros list end*
%TA.AperFunction,SMDPad,CuDef*%
%ADD10R,1.600000X2.400000*%
%TD*%
%TA.AperFunction,ComponentPad*%
%ADD11C,6.400000*%
%TD*%
%TA.AperFunction,SMDPad,CuDef*%
%ADD12R,1.000000X1.500000*%
%TD*%
%TA.AperFunction,ComponentPad*%
%ADD13R,0.850000X0.850000*%
%TD*%
%TA.AperFunction,ComponentPad*%
%ADD14O,0.850000X0.850000*%
%TD*%
%TA.AperFunction,SMDPad,CuDef*%
%ADD15RoundRect,0.250000X0.475000X-0.337500X0.475000X0.337500X-0.475000X0.337500X-0.475000X-0.337500X0*%
%TD*%
%TA.AperFunction,SMDPad,CuDef*%
%ADD16RoundRect,0.237500X0.250000X0.237500X-0.250000X0.237500X-0.250000X-0.237500X0.250000X-0.237500X0*%
%TD*%
%TA.AperFunction,SMDPad,CuDef*%
%ADD17R,2.000000X2.000000*%
%TD*%
%TA.AperFunction,SMDPad,CuDef*%
%ADD18R,1.100000X2.850000*%
%TD*%
%TA.AperFunction,ComponentPad*%
%ADD19R,1.320000X1.320000*%
%TD*%
%TA.AperFunction,ComponentPad*%
%ADD20C,1.320000*%
%TD*%
%TA.AperFunction,ViaPad*%
%ADD21C,0.800000*%
%TD*%
%TA.AperFunction,Conductor*%
%ADD22C,0.250000*%
%TD*%
G04 APERTURE END LIST*
%TO.C,JP1*%
G36*
X145900000Y-169900000D02*
G01*
X145400000Y-169900000D01*
X145400000Y-169500000D01*
X145900000Y-169500000D01*
X145900000Y-169900000D01*
G37*
G36*
X145900000Y-169100000D02*
G01*
X145400000Y-169100000D01*
X145400000Y-168700000D01*
X145900000Y-168700000D01*
X145900000Y-169100000D01*
G37*
%TO.C,JP2*%
G36*
X147150000Y-174600000D02*
G01*
X146650000Y-174600000D01*
X146650000Y-174200000D01*
X147150000Y-174200000D01*
X147150000Y-174600000D01*
G37*
G36*
X147150000Y-175400000D02*
G01*
X146650000Y-175400000D01*
X146650000Y-175000000D01*
X147150000Y-175000000D01*
X147150000Y-175400000D01*
G37*
%TD*%
D10*
%TO.P,BAS_LED,1,K*%
%TO.N,Net-(BAS_LED1-K)*%
X138246999Y-120599999D03*
%TO.P,BAS_LED,2,A*%
%TO.N,Net-(BAS_LED1-A)*%
X135396999Y-120599999D03*
%TD*%
D11*
%TO.P,M3_1,1,1*%
%TO.N,GND*%
X130010000Y-105413000D03*
%TD*%
D12*
%TO.P,JP1,1,A*%
%TO.N,LED_Feed*%
X146299999Y-169299999D03*
%TO.P,JP1,2,B*%
%TO.N,Net-(Expansion_LED_GND1-Pin_1)*%
X144999999Y-169299999D03*
%TD*%
D10*
%TO.P,TRE_LED,1,K*%
%TO.N,Net-(BAS_LED1-K)*%
X138246999Y-156649999D03*
%TO.P,TRE_LED,2,A*%
%TO.N,Net-(BAS_LED1-A)*%
X135396999Y-156649999D03*
%TD*%
D13*
%TO.P,LCD_CTRL,1,Pin_1*%
%TO.N,/SCREEN_RST*%
X145099999Y-130599999D03*
D14*
%TO.P,LCD_CTRL,2,Pin_2*%
%TO.N,/SCREEN_CLK*%
X145099999Y-131599999D03*
%TO.P,LCD_CTRL,3,Pin_3*%
%TO.N,/SCREEN_DIO*%
X145099999Y-132599999D03*
%TO.P,LCD_CTRL,4,Pin_4*%
%TO.N,GND*%
X145099999Y-133599999D03*
%TD*%
D15*
%TO.P,C1,1*%
%TO.N,BTFR_BALL_CON*%
X145600000Y-161000000D03*
%TO.P,C1,2*%
%TO.N,GND*%
X145600000Y-158925000D03*
%TD*%
D16*
%TO.P,R1,1*%
%TO.N,Net-(Expansion_LED_GND1-Pin_1)*%
X144450000Y-174300000D03*
%TO.P,R1,2*%
%TO.N,Net-(BAS_LED1-A)*%
X142625000Y-174300000D03*
%TD*%
D12*
%TO.P,JP2,1,A*%
%TO.N,Net-(BAS_LED1-K)*%
X146249999Y-174799999D03*
%TO.P,JP2,2,B*%
%TO.N,LED_GND*%
X147549999Y-174799999D03*
%TD*%
D17*
%TO.P,LED_VCC_EX,1,Pin_1*%
%TO.N,Net-(BAS_LED1-K)*%
X102649999Y-121499999D03*
%TD*%
D10*
%TO.P,Vol_Text_LED,1,K*%
%TO.N,Net-(BAS_LED1-K)*%
X104074999Y-125399999D03*
%TO.P,Vol_Text_LED,2,A*%
%TO.N,Net-(BAS_LED1-A)*%
X106924999Y-125399999D03*
%TD*%
D18*
%TO.P,Vol_Knob_LED,1,K*%
%TO.N,Net-(BAS_LED1-K)*%
X111942999Y-161632999D03*
%TO.P,Vol_Knob_LED,2,A*%
%TO.N,Net-(BAS_LED1-A)*%
X114482999Y-161632999D03*
%TD*%
D17*
%TO.P,LED_GND_EX,1,Pin_1*%
%TO.N,Net-(Expansion_LED_GND1-Pin_1)*%
X145599999Y-172049999D03*
%TD*%
D11*
%TO.P,M3_3,1,1*%
%TO.N,GND*%
X125656000Y-170706000D03*
%TD*%
D10*
%TO.P,FAD_LED,1,K*%
%TO.N,Net-(BAS_LED1-K)*%
X138246999Y-138549999D03*
%TO.P,FAD_LED,2,A*%
%TO.N,Net-(BAS_LED1-A)*%
X135396999Y-138549999D03*
%TD*%
D11*
%TO.P,M3_2,1,1*%
%TO.N,GND*%
X103909000Y-130945000D03*
%TD*%
D19*
%TO.P,CD_relay1,1,Contact_A*%
%TO.N,15*%
X120269999Y-106824999D03*
D20*
%TO.P,CD_relay1,2,Coil_A*%
%TO.N,CD_button*%
X115190000Y-106825000D03*
%TO.P,CD_relay1,3,Coil_B*%
%TO.N,GND*%
X110110000Y-106825000D03*
%TO.P,CD_relay1,4,Contact_B*%
%TO.N,22*%
X105030000Y-106825000D03*
%TD*%
D19*
%TO.P,Am/fm_button1,1,Contact_A*%
%TO.N,16*%
X154419999Y-107624999D03*
D20*
%TO.P,Am/fm_button1,2,Coil_A*%
%TO.N,AMFM_button*%
X149340000Y-107625000D03*
%TO.P,Am/fm_button1,3,Coil_B*%
%TO.N,GND*%
X144260000Y-107625000D03*
%TO.P,Am/fm_button1,4,Contact_B*%
%TO.N,22*%
X139180000Y-107625000D03*
%TD*%
D19*
%TO.P,Scan_relay1,1,Contact_A*%
%TO.N,18*%
X120479999Y-116399999D03*
D20*
%TO.P,Scan_relay1,2,Coil_A*%
%TO.N,SCAN_button*%
X115400000Y-116400000D03*
%TO.P,Scan_relay1,3,Coil_B*%
%TO.N,GND*%
X110320000Y-116400000D03*
%TO.P,Scan_relay1,4,Contact_B*%
%TO.N,22*%
X105240000Y-116400000D03*
%TD*%
D21*
%TO.N,Net-(BAS_LED1-K)*%
X140500000Y-140050000D03*
%TO.N,GND*%
X148950000Y-159500000D03*
%TO.N,16*%
X153125500Y-165392883D03*
%TO.N,LED_Feed*%
X147900000Y-170000000D03*
%TO.N,Net-(BAS_LED1-A)*%
X130184390Y-171170648D03*
X129100000Y-158800000D03*
%TO.N,15*%
X152970500Y-164400000D03*
%TO.N,CD_button*%
X144236201Y-124963799D03*
X145250000Y-128250000D03*
%TO.N,Net-(BAS_LED1-K)*%
X142600000Y-126300000D03*
X140250000Y-156400000D03*
X136900000Y-122900000D03*
X132340940Y-173713173D03*
X133000000Y-122900000D03*
X131450000Y-159883000D03*
%TO.N,TRE*%
X156200000Y-176500000D03*
X152700000Y-182250000D03*
%TO.N,Vol_buttonB*%
X130200000Y-162900000D03*
X118848682Y-164975916D03*
%TO.N,18*%
X152487786Y-166162509D03*
%TO.N,Net-(J1-Pin_6)*%
X128600000Y-176500000D03*
X101450000Y-160350000D03*
%TO.N,BTFR_BALL_CON*%
X148900000Y-160500000D03*
X140350000Y-174950000D03*
%TO.N,Vol_encA*%
X116408569Y-165710234D03*
X130850000Y-160750000D03*
%TO.N,Vol_encB*%
X129750000Y-161500000D03*
X116186195Y-166684685D03*
%TO.N,Net-(J2-Pin_4)*%
X103850000Y-163150000D03*
X146700000Y-164150000D03*
%TO.N,LED_GND*%
X147905303Y-170999488D03*
%TO.N,22*%
X156100000Y-168000000D03*
%TD*%
D22*
%TO.N,Net-(BAS_LED1-K)*%
X139000000Y-138550000D02*
X140500000Y-140050000D01*
X138247000Y-138550000D02*
X139000000Y-138550000D01*
%TO.N,GND*%
X146175000Y-159500000D02*
X145600000Y-158925000D01*
X148950000Y-159500000D02*
X146175000Y-159500000D01*
%TO.N,16*%
X154420000Y-107625000D02*
X154420000Y-164098383D01*
X154420000Y-164098383D02*
X153125500Y-165392883D01*
%TO.N,LED_Feed*%
X147900000Y-170000000D02*
X147000000Y-170000000D01*
X147000000Y-170000000D02*
X146300000Y-169300000D01*
%TO.N,Net-(BAS_LED1-A)*%
X131300000Y-156650000D02*
X135397000Y-156650000D01*
X135397000Y-156650000D02*
X129047566Y-150300566D01*
X129047566Y-150300566D02*
X129047566Y-144899434D01*
X129049501Y-132202501D02*
X129049501Y-127875097D01*
X131250000Y-156650000D02*
X131300000Y-156650000D01*
X134347499Y-122577099D02*
X134347499Y-121649501D01*
X131524598Y-125400000D02*
X106925000Y-125400000D01*
X114301000Y-156650000D02*
X131300000Y-156650000D01*
X114483000Y-161633000D02*
X112733000Y-163383000D01*
X129100000Y-158800000D02*
X131250000Y-156650000D01*
X135397000Y-138550000D02*
X129049501Y-132202501D01*
X135494049Y-174276501D02*
X132388196Y-171170648D01*
X110000000Y-160951000D02*
X114301000Y-156650000D01*
X142601501Y-174276501D02*
X135494049Y-174276501D01*
X112733000Y-163383000D02*
X110000000Y-163383000D01*
X129049501Y-127875097D02*
X134347499Y-122577099D01*
X129047566Y-144899434D02*
X135397000Y-138550000D01*
X110000000Y-163383000D02*
X110000000Y-160951000D01*
X134347499Y-122577099D02*
X131524598Y-125400000D01*
X134347499Y-121649501D02*
X135397000Y-120600000D01*
X132388196Y-171170648D02*
X130184390Y-171170648D01*
%TO.N,15*%
X120270000Y-106825000D02*
X130795499Y-117350499D01*
X130795499Y-117350499D02*
X139586189Y-117350499D01*
X152624500Y-131691810D02*
X152970500Y-132037810D01*
X152970500Y-132037810D02*
X152970500Y-164400000D01*
X139586189Y-117350499D02*
X152624500Y-130388810D01*
X152624500Y-130388810D02*
X152624500Y-131691810D01*
%TO.N,CD_button*%
X145250000Y-128250000D02*
X145250000Y-125977598D01*
X145250000Y-125977598D02*
X144236201Y-124963799D01*
%TO.N,Net-(BAS_LED1-K)*%
X131450000Y-159883000D02*
X131450000Y-159550000D01*
X104075000Y-125400000D02*
X104075000Y-122925000D01*
X136247000Y-158650000D02*
X138247000Y-156650000D01*
X111943000Y-161633000D02*
X113620000Y-159956000D01*
X142600000Y-124953000D02*
X138247000Y-120600000D01*
X145500000Y-175800000D02*
X134427767Y-175800000D01*
X104075000Y-125400000D02*
X105600000Y-123875000D01*
X136900000Y-122900000D02*
X136900000Y-121947000D01*
X136900000Y-121947000D02*
X138247000Y-120600000D01*
X131377000Y-159956000D02*
X131450000Y-159883000D01*
X113620000Y-159956000D02*
X131377000Y-159956000D01*
X146250000Y-175050000D02*
X145500000Y-175800000D01*
X105600000Y-123875000D02*
X132025000Y-123875000D01*
X131450000Y-159550000D02*
X132350000Y-158650000D01*
X140250000Y-156400000D02*
X138497000Y-156400000D01*
X134427767Y-175800000D02*
X132340940Y-173713173D01*
X132350000Y-158650000D02*
X136247000Y-158650000D01*
X132025000Y-123875000D02*
X133000000Y-122900000D01*
X142600000Y-126300000D02*
X142600000Y-124953000D01*
X104075000Y-122925000D02*
X102650000Y-121500000D01*
%TO.N,Net-(Expansion_LED_GND1-Pin_1)*%
X145000000Y-169300000D02*
X145000000Y-171450000D01*
X144450000Y-174300000D02*
X145600000Y-173150000D01*
X145600000Y-173150000D02*
X145600000Y-172050000D01*
%TO.N,TRE*%
X152700000Y-179900000D02*
X156100000Y-176500000D01*
X152700000Y-182250000D02*
X152700000Y-179900000D01*
X156100000Y-176500000D02*
X156200000Y-176500000D01*
%TO.N,Vol_buttonB*%
X130200000Y-162900000D02*
X120924598Y-162900000D01*
X120924598Y-162900000D02*
X118848682Y-164975916D01*
%TO.N,18*%
X152246000Y-165920723D02*
X152487786Y-166162509D01*
X120480000Y-116400000D02*
X122705499Y-118625499D01*
X152246000Y-131949000D02*
X152246000Y-165920723D01*
X122705499Y-118625499D02*
X138922499Y-118625499D01*
X138922499Y-118625499D02*
X152246000Y-131949000D01*
%TO.N,Net-(J1-Pin_6)*%
X101450000Y-160350000D02*
X101450000Y-161774598D01*
X116175402Y-176500000D02*
X128600000Y-176500000D01*
X101450000Y-161774598D02*
X116175402Y-176500000D01*
%TO.N,BTFR_BALL_CON*%
X143400000Y-169146000D02*
X143400000Y-174704758D01*
X145600000Y-161000000D02*
X145600000Y-161850000D01*
X146100000Y-160500000D02*
X145600000Y-161000000D01*
X143400000Y-174704758D02*
X143077758Y-175027000D01*
X143077758Y-175027000D02*
X140427000Y-175027000D01*
X140427000Y-175027000D02*
X140350000Y-174950000D01*
X147600000Y-163850000D02*
X147600000Y-164946000D01*
X148900000Y-160500000D02*
X146100000Y-160500000D01*
X147600000Y-164946000D02*
X143400000Y-169146000D01*
X145600000Y-161850000D02*
X147600000Y-163850000D01*
%TO.N,Vol_encA*%
X130850000Y-160750000D02*
X121368803Y-160750000D01*
X121368803Y-160750000D02*
X116408569Y-165710234D01*
%TO.N,Vol_encB*%
X116458716Y-166684685D02*
X116186195Y-166684685D01*
X117133069Y-165666931D02*
X117133069Y-166010332D01*
X121300000Y-161500000D02*
X117133069Y-165666931D01*
X117133069Y-166010332D02*
X116458716Y-166684685D01*
X129750000Y-161500000D02*
X121300000Y-161500000D01*
%TO.N,Net-(J2-Pin_4)*%
X114750098Y-170674500D02*
X111374500Y-170674500D01*
X146700000Y-164150000D02*
X146700000Y-165150000D01*
X111374500Y-170674500D02*
X103850000Y-163150000D01*
X139150000Y-172700000D02*
X134450000Y-172700000D01*
X128931000Y-167181000D02*
X118243598Y-167181000D01*
X134450000Y-172700000D02*
X128931000Y-167181000D01*
X146700000Y-165150000D02*
X139150000Y-172700000D01*
X118243598Y-167181000D02*
X114750098Y-170674500D01*
%TO.N,LED_GND*%
X147550000Y-171354791D02*
X147905303Y-170999488D01*
X147550000Y-174800000D02*
X147550000Y-171354791D01*
%TO.N,22*%
X140165000Y-106640000D02*
X155405000Y-106640000D01*
X155405000Y-106640000D02*
X156100000Y-107335000D01*
X139180000Y-107625000D02*
X140165000Y-106640000D01*
X156100000Y-107335000D02*
X156100000Y-168000000D01*
%TD*%
%TA.AperFunction,Conductor*%
%TO.N,GND*%
G36*
X159081500Y-100217113D02*
G01*
X159126887Y-100262500D01*
X159143500Y-100324500D01*
X159143500Y-183975500D01*
X159126887Y-184037500D01*
X159081500Y-184082887D01*
X159019500Y-184099500D01*
X100324500Y-184099500D01*
X100262500Y-184082887D01*
X100217113Y-184037500D01*
X100200500Y-183975500D01*
X100200500Y-182250000D01*
X151786496Y-182250000D01*
X151787175Y-182256460D01*
X151805778Y-182433467D01*
X151805779Y-182433475D01*
X151806458Y-182439928D01*
X151808463Y-182446100D01*
X151808465Y-182446107D01*
X151863465Y-182615377D01*
X151865473Y-182621556D01*
X151960960Y-182786944D01*
X152088747Y-182928866D01*
X152093997Y-182932680D01*
X152094000Y-182932683D01*
X152236863Y-183036479D01*
X152243248Y-183041118D01*
X152417712Y-183118794D01*
X152424070Y-183120145D01*
X152424072Y-183120146D01*
X152460874Y-183127968D01*
X152604513Y-183158500D01*
X152788984Y-183158500D01*
X152795487Y-183158500D01*
X152982288Y-183118794D01*
X153156752Y-183041118D01*
X153311253Y-182928866D01*
X153439040Y-182786944D01*
X153534527Y-182621556D01*
X153593542Y-182439928D01*
X153613504Y-182250000D01*
X153593542Y-182060072D01*
X153534527Y-181878444D01*
X153439040Y-181713056D01*
X153365349Y-181631214D01*
X153341736Y-181592681D01*
X153333500Y-181548243D01*
X153333500Y-180213766D01*
X153342939Y-180166313D01*
X153369819Y-180126085D01*
X156051084Y-177444819D01*
X156091312Y-177417939D01*
X156138765Y-177408500D01*
X156288984Y-177408500D01*
X156295487Y-177408500D01*
X156482288Y-177368794D01*
X156656752Y-177291118D01*
X156811253Y-177178866D01*
X156939040Y-177036944D01*
X157034527Y-176871556D01*
X157093542Y-176689928D01*
X157113504Y-176500000D01*
X157099044Y-176362424D01*
X157094221Y-176316532D01*
X157094220Y-176316531D01*
X157093542Y-176310072D01*
X157034527Y-176128444D01*
X156939040Y-175963056D01*
X156811253Y-175821134D01*
X156806003Y-175817319D01*
X156805999Y-175817316D01*
X156662006Y-175712699D01*
X156662004Y-175712697D01*
X156656752Y-175708882D01*
X156650821Y-175706241D01*
X156650817Y-175706239D01*
X156488226Y-175633849D01*
X156488219Y-175633846D01*
X156482288Y-175631206D01*
X156475935Y-175629855D01*
X156475927Y-175629853D01*
X156301849Y-175592852D01*
X156301846Y-175592851D01*
X156295487Y-175591500D01*
X156104513Y-175591500D01*
X156098154Y-175592851D01*
X156098150Y-175592852D01*
X155924072Y-175629853D01*
X155924061Y-175629856D01*
X155917712Y-175631206D01*
X155911782Y-175633845D01*
X155911773Y-175633849D01*
X155749182Y-175706239D01*
X155749174Y-175706243D01*
X155743248Y-175708882D01*
X155737999Y-175712695D01*
X155737993Y-175712699D01*
X155594000Y-175817316D01*
X155593991Y-175817323D01*
X155588747Y-175821134D01*
X155584403Y-175825957D01*
X155584400Y-175825961D01*
X155465307Y-175958228D01*
X155460960Y-175963056D01*
X155457714Y-175968676D01*
X155457711Y-175968682D01*
X155368721Y-176122817D01*
X155368718Y-176122822D01*
X155365473Y-176128444D01*
X155363467Y-176134616D01*
X155363465Y-176134622D01*
X155316660Y-176278674D01*
X155306458Y-176310072D01*
X155305779Y-176316522D01*
X155305778Y-176316532D01*
X155300763Y-176364253D01*
X155289362Y-176404674D01*
X155265123Y-176438971D01*
X152307793Y-179396300D01*
X152299444Y-179403898D01*
X152292982Y-179408000D01*
X152287641Y-179413686D01*
X152287639Y-179413689D01*
X152246339Y-179457668D01*
X152243634Y-179460460D01*
X152223865Y-179480230D01*
X152221481Y-179483302D01*
X152221478Y-179483306D01*
X152221322Y-179483508D01*
X152213752Y-179492370D01*
X152183414Y-179524679D01*
X152179659Y-179531507D01*
X152179658Y-179531510D01*
X152173579Y-179542567D01*
X152162903Y-179558819D01*
X152155168Y-179568791D01*
X152155160Y-179568802D01*
X152150386Y-179574959D01*
X152147291Y-179582110D01*
X152147288Y-179582116D01*
X152132786Y-179615628D01*
X152127648Y-179626115D01*
X152110065Y-179658098D01*
X152110061Y-179658106D01*
X152106305Y-179664940D01*
X152104366Y-179672491D01*
X152104363Y-179672499D01*
X152101225Y-179684722D01*
X152094926Y-179703119D01*
X152086819Y-179721855D01*
X152085599Y-179729553D01*
X152085598Y-179729559D01*
X152079888Y-179765611D01*
X152077520Y-179777045D01*
X152068438Y-179812417D01*
X152068436Y-179812426D01*
X152066500Y-179819970D01*
X152066500Y-179827766D01*
X152066500Y-179840385D01*
X152064972Y-179859783D01*
X152061780Y-179879943D01*
X152062514Y-179887708D01*
X152062514Y-179887711D01*
X152065950Y-179924058D01*
X152066500Y-179935727D01*
X152066500Y-181548243D01*
X152058264Y-181592681D01*
X152034650Y-181631214D01*
X151960960Y-181713056D01*
X151957714Y-181718676D01*
X151957711Y-181718682D01*
X151868721Y-181872817D01*
X151868718Y-181872822D01*
X151865473Y-181878444D01*
X151863467Y-181884616D01*
X151863465Y-181884622D01*
X151808465Y-182053892D01*
X151808463Y-182053901D01*
X151806458Y-182060072D01*
X151805780Y-182066522D01*
X151805778Y-182066532D01*
X151787778Y-182237795D01*
X151786496Y-182250000D01*
X100200500Y-182250000D01*
X100200500Y-160350000D01*
X100536496Y-160350000D01*
X100537175Y-160356460D01*
X100555778Y-160533467D01*
X100555779Y-160533475D01*
X100556458Y-160539928D01*
X100558463Y-160546100D01*
X100558465Y-160546107D01*
X100607204Y-160696107D01*
X100615473Y-160721556D01*
X100618720Y-160727180D01*
X100618721Y-160727182D01*
X100702075Y-160871556D01*
X100710960Y-160886944D01*
X100758667Y-160939928D01*
X100784650Y-160968785D01*
X100808264Y-161007319D01*
X100816500Y-161051757D01*
X100816500Y-161695752D01*
X100815968Y-161707035D01*
X100814298Y-161714507D01*
X100814543Y-161722303D01*
X100814543Y-161722305D01*
X100816439Y-161782615D01*
X100816500Y-161786511D01*
X100816500Y-161814454D01*
X100816988Y-161818319D01*
X100816989Y-161818330D01*
X100817019Y-161818568D01*
X100817934Y-161830194D01*
X100819081Y-161866694D01*
X100819082Y-161866701D01*
X100819327Y-161874487D01*
X100821500Y-161881968D01*
X100821502Y-161881978D01*
X100825022Y-161894093D01*
X100828967Y-161913140D01*
X100831526Y-161933395D01*
X100834395Y-161940643D01*
X100834398Y-161940652D01*
X100847838Y-161974599D01*
X100851621Y-161985646D01*
X100863982Y-162028191D01*
X100867953Y-162034906D01*
X100867954Y-162034908D01*
X100874375Y-162045766D01*
X100882930Y-162063229D01*
X100890448Y-162082215D01*
X100895030Y-162088522D01*
X100895031Y-162088523D01*
X100916491Y-162118060D01*
X100922905Y-162127825D01*
X100945458Y-162165960D01*
X100950975Y-162171477D01*
X100950976Y-162171478D01*
X100959889Y-162180391D01*
X100972525Y-162195186D01*
X100979938Y-162205389D01*
X100979943Y-162205394D01*
X100984528Y-162211705D01*
X100991311Y-162217316D01*
X101018667Y-162239947D01*
X101027308Y-162247810D01*
X105576621Y-166797123D01*
X105609386Y-166855331D01*
X105607201Y-166922091D01*
X105570699Y-166978032D01*
X105510473Y-167006920D01*
X105453932Y-167016889D01*
X105442101Y-167018976D01*
X105437012Y-167020828D01*
X105437009Y-167020829D01*
X105249793Y-167088970D01*
X105249787Y-167088972D01*
X105244709Y-167090821D01*
X105240030Y-167093522D01*
X105240020Y-167093527D01*
X105067485Y-167193140D01*
X105067477Y-167193145D01*
X105062791Y-167195851D01*
X105058643Y-167199330D01*
X105058638Y-167199335D01*
X104906021Y-167327397D01*
X104906015Y-167327402D01*
X104901876Y-167330876D01*
X104898402Y-167335015D01*
X104898397Y-167335021D01*
X104770335Y-167487638D01*
X104770330Y-167487643D01*
X104766851Y-167491791D01*
X104764145Y-167496477D01*
X104764140Y-167496485D01*
X104664527Y-167669020D01*
X104664522Y-167669030D01*
X104661821Y-167673709D01*
X104659972Y-167678787D01*
X104659970Y-167678793D01*
X104603031Y-167835233D01*
X104589976Y-167871101D01*
X104589036Y-167876430D01*
X104589034Y-167876439D01*
X104558782Y-168048011D01*
X104553500Y-168077970D01*
X104553500Y-168160410D01*
X104553500Y-173143118D01*
X104553500Y-173183000D01*
X104553500Y-173288030D01*
X104554439Y-173293360D01*
X104554440Y-173293362D01*
X104589034Y-173489560D01*
X104589035Y-173489566D01*
X104589976Y-173494899D01*
X104591829Y-173499990D01*
X104625154Y-173591551D01*
X104661821Y-173692291D01*
X104664524Y-173696973D01*
X104664527Y-173696979D01*
X104722098Y-173796695D01*
X104766851Y-173874209D01*
X104796279Y-173909280D01*
X104854043Y-173978120D01*
X104901876Y-174035124D01*
X105062791Y-174170149D01*
X105244709Y-174275179D01*
X105442101Y-174347024D01*
X105648970Y-174383500D01*
X105853616Y-174383500D01*
X105859030Y-174383500D01*
X106065899Y-174347024D01*
X106263291Y-174275179D01*
X106445209Y-174170149D01*
X106606124Y-174035124D01*
X106741149Y-173874209D01*
X106846179Y-173692291D01*
X106918024Y-173494899D01*
X106954500Y-173288030D01*
X106954500Y-173183000D01*
X106954500Y-173143118D01*
X106954500Y-168474364D01*
X106968015Y-168418069D01*
X107005615Y-168374046D01*
X107059102Y-168351891D01*
X107116818Y-168356433D01*
X107166181Y-168386683D01*
X115671696Y-176892198D01*
X115679298Y-176900551D01*
X115683402Y-176907018D01*
X115689092Y-176912361D01*
X115733069Y-176953658D01*
X115735867Y-176956369D01*
X115755632Y-176976134D01*
X115758886Y-176978658D01*
X115767769Y-176986244D01*
X115800081Y-177016586D01*
X115806919Y-177020345D01*
X115817970Y-177026421D01*
X115834232Y-177037103D01*
X115844190Y-177044827D01*
X115844194Y-177044829D01*
X115850361Y-177049613D01*
X115857521Y-177052711D01*
X115857524Y-177052713D01*
X115891016Y-177067206D01*
X115901509Y-177072346D01*
X115940342Y-177093695D01*
X115960120Y-177098773D01*
X115978522Y-177105074D01*
X115988399Y-177109347D01*
X115997257Y-177113181D01*
X116041023Y-177120112D01*
X116052443Y-177122477D01*
X116095372Y-177133500D01*
X116115787Y-177133500D01*
X116135185Y-177135027D01*
X116155345Y-177138220D01*
X116193878Y-177134577D01*
X116199460Y-177134050D01*
X116211129Y-177133500D01*
X127892691Y-177133500D01*
X127943126Y-177144220D01*
X127979021Y-177170299D01*
X127979571Y-177169690D01*
X127984400Y-177174038D01*
X127988747Y-177178866D01*
X127993997Y-177182680D01*
X127994000Y-177182683D01*
X128136863Y-177286479D01*
X128143248Y-177291118D01*
X128317712Y-177368794D01*
X128324070Y-177370145D01*
X128324072Y-177370146D01*
X128360874Y-177377968D01*
X128504513Y-177408500D01*
X128688984Y-177408500D01*
X128695487Y-177408500D01*
X128882288Y-177368794D01*
X129056752Y-177291118D01*
X129211253Y-177178866D01*
X129339040Y-177036944D01*
X129434527Y-176871556D01*
X129493542Y-176689928D01*
X129513504Y-176500000D01*
X129499044Y-176362424D01*
X129494221Y-176316532D01*
X129494220Y-176316531D01*
X129493542Y-176310072D01*
X129434527Y-176128444D01*
X129339040Y-175963056D01*
X129211253Y-175821134D01*
X129206003Y-175817319D01*
X129205999Y-175817316D01*
X129062006Y-175712699D01*
X129062004Y-175712697D01*
X129056752Y-175708882D01*
X129050821Y-175706241D01*
X129050817Y-175706239D01*
X128888226Y-175633849D01*
X128888219Y-175633846D01*
X128882288Y-175631206D01*
X128875935Y-175629855D01*
X128875927Y-175629853D01*
X128701849Y-175592852D01*
X128701846Y-175592851D01*
X128695487Y-175591500D01*
X128504513Y-175591500D01*
X128498154Y-175592851D01*
X128498150Y-175592852D01*
X128324072Y-175629853D01*
X128324061Y-175629856D01*
X128317712Y-175631206D01*
X128311782Y-175633845D01*
X128311773Y-175633849D01*
X128149182Y-175706239D01*
X128149174Y-175706243D01*
X128143248Y-175708882D01*
X128137999Y-175712695D01*
X128137993Y-175712699D01*
X127994000Y-175817316D01*
X127993991Y-175817323D01*
X127988747Y-175821134D01*
X127984402Y-175825958D01*
X127979571Y-175830310D01*
X127979021Y-175829700D01*
X127943126Y-175855780D01*
X127892691Y-175866500D01*
X116489169Y-175866500D01*
X116441716Y-175857061D01*
X116401488Y-175830181D01*
X114065913Y-173494606D01*
X123226305Y-173494606D01*
X123234191Y-173505869D01*
X123475684Y-173701425D01*
X123480938Y-173705242D01*
X123800733Y-173912920D01*
X123806354Y-173916166D01*
X124146116Y-174089283D01*
X124152040Y-174091920D01*
X124508044Y-174228578D01*
X124514197Y-174230577D01*
X124882537Y-174329273D01*
X124888879Y-174330621D01*
X125265508Y-174390273D01*
X125271951Y-174390950D01*
X125652756Y-174410908D01*
X125659244Y-174410908D01*
X126040048Y-174390950D01*
X126046491Y-174390273D01*
X126423120Y-174330621D01*
X126429462Y-174329273D01*
X126797802Y-174230577D01*
X126803955Y-174228578D01*
X127159959Y-174091920D01*
X127165883Y-174089283D01*
X127505645Y-173916166D01*
X127511266Y-173912920D01*
X127831061Y-173705242D01*
X127836315Y-173701425D01*
X128077806Y-173505870D01*
X128085693Y-173494606D01*
X128079027Y-173482580D01*
X125667542Y-171071095D01*
X125656000Y-171064431D01*
X125644457Y-171071095D01*
X123232971Y-173482580D01*
X123226305Y-173494606D01*
X114065913Y-173494606D01*
X112090988Y-171519681D01*
X112060738Y-171470318D01*
X112056196Y-171412602D01*
X112078351Y-171359115D01*
X112122374Y-171321515D01*
X112178669Y-171308000D01*
X114671252Y-171308000D01*
X114682535Y-171308531D01*
X114690007Y-171310202D01*
X114758115Y-171308060D01*
X114762011Y-171308000D01*
X114786056Y-171308000D01*
X114789954Y-171308000D01*
X114793822Y-171307511D01*
X114794045Y-171307483D01*
X114805706Y-171306564D01*
X114849987Y-171305173D01*
X114869588Y-171299477D01*
X114888639Y-171295532D01*
X114908895Y-171292974D01*
X114940120Y-171280610D01*
X114950091Y-171276663D01*
X114961141Y-171272879D01*
X115003691Y-171260518D01*
X115021263Y-171250125D01*
X115038730Y-171241568D01*
X115057715Y-171234052D01*
X115093573Y-171207998D01*
X115103321Y-171201596D01*
X115141460Y-171179042D01*
X115155891Y-171164610D01*
X115170686Y-171151972D01*
X115187205Y-171139972D01*
X115215458Y-171105818D01*
X115223301Y-171097199D01*
X115611256Y-170709244D01*
X121951092Y-170709244D01*
X121971049Y-171090048D01*
X121971726Y-171096491D01*
X122031378Y-171473120D01*
X122032726Y-171479462D01*
X122131422Y-171847802D01*
X122133421Y-171853955D01*
X122270079Y-172209959D01*
X122272716Y-172215883D01*
X122445833Y-172555645D01*
X122449079Y-172561266D01*
X122656757Y-172881061D01*
X122660574Y-172886315D01*
X122856129Y-173127807D01*
X122867392Y-173135693D01*
X122879418Y-173129027D01*
X125290904Y-170717542D01*
X125297568Y-170706000D01*
X125290904Y-170694457D01*
X122879418Y-168282971D01*
X122867393Y-168276305D01*
X122856127Y-168284194D01*
X122660578Y-168525678D01*
X122656756Y-168530939D01*
X122449079Y-168850733D01*
X122445833Y-168856354D01*
X122272716Y-169196116D01*
X122270079Y-169202040D01*
X122133421Y-169558044D01*
X122131422Y-169564197D01*
X122032726Y-169932537D01*
X122031378Y-169938879D01*
X121971726Y-170315508D01*
X121971049Y-170321951D01*
X121951092Y-170702756D01*
X121951092Y-170709244D01*
X115611256Y-170709244D01*
X118469683Y-167850819D01*
X118509912Y-167823939D01*
X118557365Y-167814500D01*
X123100167Y-167814500D01*
X123164031Y-167832211D01*
X123209652Y-167880284D01*
X123212262Y-167892059D01*
X123232971Y-167929418D01*
X125644457Y-170340904D01*
X125656000Y-170347568D01*
X125667542Y-170340904D01*
X128079027Y-167929418D01*
X128099736Y-167892059D01*
X128102347Y-167880284D01*
X128147968Y-167832211D01*
X128211832Y-167814500D01*
X128617234Y-167814500D01*
X128664687Y-167823939D01*
X128704915Y-167850819D01*
X131179563Y-170325467D01*
X131209813Y-170374830D01*
X131214355Y-170432546D01*
X131192200Y-170486033D01*
X131148177Y-170523633D01*
X131091882Y-170537148D01*
X130891699Y-170537148D01*
X130841264Y-170526428D01*
X130805368Y-170500348D01*
X130804819Y-170500958D01*
X130799987Y-170496607D01*
X130795643Y-170491782D01*
X130790393Y-170487967D01*
X130790389Y-170487964D01*
X130646396Y-170383347D01*
X130646394Y-170383345D01*
X130641142Y-170379530D01*
X130635211Y-170376889D01*
X130635207Y-170376887D01*
X130472616Y-170304497D01*
X130472609Y-170304494D01*
X130466678Y-170301854D01*
X130460325Y-170300503D01*
X130460317Y-170300501D01*
X130286239Y-170263500D01*
X130286236Y-170263499D01*
X130279877Y-170262148D01*
X130088903Y-170262148D01*
X130082544Y-170263499D01*
X130082540Y-170263500D01*
X129908462Y-170300501D01*
X129908451Y-170300504D01*
X129902102Y-170301854D01*
X129896172Y-170304493D01*
X129896163Y-170304497D01*
X129733572Y-170376887D01*
X129733564Y-170376891D01*
X129727638Y-170379530D01*
X129722389Y-170383343D01*
X129722383Y-170383347D01*
X129578390Y-170487964D01*
X129578381Y-170487971D01*
X129573137Y-170491782D01*
X129568794Y-170496604D01*
X129568792Y-170496607D01*
X129562443Y-170503659D01*
X129514730Y-170536449D01*
X129457331Y-170544004D01*
X129402759Y-170524678D01*
X129362907Y-170482683D01*
X129346465Y-170427173D01*
X129340950Y-170321952D01*
X129340273Y-170315508D01*
X129280621Y-169938879D01*
X129279273Y-169932537D01*
X129180577Y-169564197D01*
X129178578Y-169558044D01*
X129041920Y-169202040D01*
X129039283Y-169196116D01*
X128866166Y-168856354D01*
X128862920Y-168850733D01*
X128655242Y-168530938D01*
X128651425Y-168525684D01*
X128455869Y-168284191D01*
X128444606Y-168276305D01*
X128432580Y-168282971D01*
X126021095Y-170694457D01*
X126014431Y-170706000D01*
X126021095Y-170717542D01*
X128432580Y-173129027D01*
X128444606Y-173135693D01*
X128455870Y-173127806D01*
X128651425Y-172886315D01*
X128655242Y-172881061D01*
X128862920Y-172561266D01*
X128866166Y-172555645D01*
X129039283Y-172215883D01*
X129041920Y-172209959D01*
X129178578Y-171853955D01*
X129180577Y-171847803D01*
X129212686Y-171727969D01*
X129240311Y-171677090D01*
X129288023Y-171644298D01*
X129345423Y-171636741D01*
X129399997Y-171656067D01*
X129439847Y-171698061D01*
X129445350Y-171707592D01*
X129573137Y-171849514D01*
X129578387Y-171853328D01*
X129578390Y-171853331D01*
X129712311Y-171950630D01*
X129727638Y-171961766D01*
X129902102Y-172039442D01*
X129908460Y-172040793D01*
X129908462Y-172040794D01*
X129945264Y-172048616D01*
X130088903Y-172079148D01*
X130273374Y-172079148D01*
X130279877Y-172079148D01*
X130466678Y-172039442D01*
X130641142Y-171961766D01*
X130795643Y-171849514D01*
X130799990Y-171844685D01*
X130804819Y-171840338D01*
X130805368Y-171840947D01*
X130841264Y-171814868D01*
X130891699Y-171804148D01*
X132074430Y-171804148D01*
X132121883Y-171813587D01*
X132162111Y-171840467D01*
X134990343Y-174668699D01*
X134997945Y-174677052D01*
X135002049Y-174683519D01*
X135007739Y-174688862D01*
X135051716Y-174730159D01*
X135054514Y-174732870D01*
X135074279Y-174752635D01*
X135077533Y-174755159D01*
X135086416Y-174762745D01*
X135118728Y-174793087D01*
X135125566Y-174796846D01*
X135136617Y-174802922D01*
X135152879Y-174813604D01*
X135162837Y-174821328D01*
X135162841Y-174821330D01*
X135169008Y-174826114D01*
X135176168Y-174829212D01*
X135176171Y-174829214D01*
X135209663Y-174843707D01*
X135220156Y-174848847D01*
X135258989Y-174870196D01*
X135278767Y-174875274D01*
X135297169Y-174881575D01*
X135308740Y-174886582D01*
X135315904Y-174889682D01*
X135359663Y-174896612D01*
X135371090Y-174898978D01*
X135414019Y-174910001D01*
X135434440Y-174910001D01*
X135453837Y-174911528D01*
X135456503Y-174911950D01*
X135473992Y-174914720D01*
X135518098Y-174910550D01*
X135529767Y-174910001D01*
X139320642Y-174910001D01*
X139378858Y-174924516D01*
X139423444Y-174964663D01*
X139443963Y-175021044D01*
X139444856Y-175029543D01*
X139432984Y-175096860D01*
X139387244Y-175147659D01*
X139321535Y-175166500D01*
X134741533Y-175166500D01*
X134694080Y-175157061D01*
X134653852Y-175130181D01*
X133287561Y-173763889D01*
X133263321Y-173729591D01*
X133251921Y-173689169D01*
X133242197Y-173596654D01*
X133234482Y-173523245D01*
X133175467Y-173341617D01*
X133079980Y-173176229D01*
X132952193Y-173034307D01*
X132946943Y-173030492D01*
X132946939Y-173030489D01*
X132802946Y-172925872D01*
X132802944Y-172925870D01*
X132797692Y-172922055D01*
X132791761Y-172919414D01*
X132791757Y-172919412D01*
X132629166Y-172847022D01*
X132629159Y-172847019D01*
X132623228Y-172844379D01*
X132616875Y-172843028D01*
X132616867Y-172843026D01*
X132442789Y-172806025D01*
X132442786Y-172806024D01*
X132436427Y-172804673D01*
X132245453Y-172804673D01*
X132239094Y-172806024D01*
X132239090Y-172806025D01*
X132065012Y-172843026D01*
X132065001Y-172843029D01*
X132058652Y-172844379D01*
X132052722Y-172847018D01*
X132052713Y-172847022D01*
X131890122Y-172919412D01*
X131890114Y-172919416D01*
X131884188Y-172922055D01*
X131878939Y-172925868D01*
X131878933Y-172925872D01*
X131734940Y-173030489D01*
X131734931Y-173030496D01*
X131729687Y-173034307D01*
X131725343Y-173039130D01*
X131725340Y-173039134D01*
X131607458Y-173170056D01*
X131601900Y-173176229D01*
X131598654Y-173181849D01*
X131598651Y-173181855D01*
X131509661Y-173335990D01*
X131509658Y-173335995D01*
X131506413Y-173341617D01*
X131504407Y-173347789D01*
X131504405Y-173347795D01*
X131449405Y-173517065D01*
X131449403Y-173517074D01*
X131447398Y-173523245D01*
X131446720Y-173529695D01*
X131446718Y-173529705D01*
X131435803Y-173633562D01*
X131427436Y-173713173D01*
X131428115Y-173719633D01*
X131446718Y-173896640D01*
X131446719Y-173896648D01*
X131447398Y-173903101D01*
X131449403Y-173909273D01*
X131449405Y-173909280D01*
X131488948Y-174030978D01*
X131506413Y-174084729D01*
X131509660Y-174090353D01*
X131509661Y-174090355D01*
X131590618Y-174230577D01*
X131601900Y-174250117D01*
X131729687Y-174392039D01*
X131734937Y-174395853D01*
X131734940Y-174395856D01*
X131877803Y-174499652D01*
X131884188Y-174504291D01*
X132058652Y-174581967D01*
X132065010Y-174583318D01*
X132065012Y-174583319D01*
X132101814Y-174591141D01*
X132245453Y-174621673D01*
X132302174Y-174621673D01*
X132349627Y-174631112D01*
X132389855Y-174657992D01*
X133924069Y-176192207D01*
X133931665Y-176200555D01*
X133935767Y-176207018D01*
X133985418Y-176253643D01*
X133988216Y-176256354D01*
X134007997Y-176276135D01*
X134011073Y-176278521D01*
X134011270Y-176278674D01*
X134020150Y-176286259D01*
X134033741Y-176299022D01*
X134052446Y-176316586D01*
X134070332Y-176326418D01*
X134086596Y-176337102D01*
X134096559Y-176344831D01*
X134096562Y-176344833D01*
X134102726Y-176349614D01*
X134109889Y-176352713D01*
X134109890Y-176352714D01*
X134143383Y-176367207D01*
X134153879Y-176372348D01*
X134192707Y-176393695D01*
X134212483Y-176398772D01*
X134230890Y-176405075D01*
X134242458Y-176410081D01*
X134242459Y-176410081D01*
X134249622Y-176413181D01*
X134293388Y-176420112D01*
X134304808Y-176422477D01*
X134347737Y-176433500D01*
X134368152Y-176433500D01*
X134387550Y-176435027D01*
X134407710Y-176438220D01*
X134446243Y-176434577D01*
X134451825Y-176434050D01*
X134463494Y-176433500D01*
X145421154Y-176433500D01*
X145432437Y-176434031D01*
X145439909Y-176435702D01*
X145508017Y-176433560D01*
X145511913Y-176433500D01*
X145535958Y-176433500D01*
X145539856Y-176433500D01*
X145543724Y-176433011D01*
X145543947Y-176432983D01*
X145555608Y-176432064D01*
X145599889Y-176430673D01*
X145619490Y-176424977D01*
X145638541Y-176421032D01*
X145658797Y-176418474D01*
X145693651Y-176404674D01*
X145699993Y-176402163D01*
X145711043Y-176398379D01*
X145753593Y-176386018D01*
X145771165Y-176375625D01*
X145788632Y-176367068D01*
X145807617Y-176359552D01*
X145843475Y-176333498D01*
X145853223Y-176327096D01*
X145891362Y-176304542D01*
X145905793Y-176290110D01*
X145920588Y-176277472D01*
X145937107Y-176265472D01*
X145965356Y-176231323D01*
X145973198Y-176222704D01*
X146101085Y-176094818D01*
X146141315Y-176067939D01*
X146188767Y-176058500D01*
X146795328Y-176058500D01*
X146798638Y-176058500D01*
X146859201Y-176051989D01*
X146866469Y-176049277D01*
X146871479Y-176048094D01*
X146928521Y-176048094D01*
X146933530Y-176049277D01*
X146940799Y-176051989D01*
X147001362Y-176058500D01*
X148095328Y-176058500D01*
X148098638Y-176058500D01*
X148159201Y-176051989D01*
X148296204Y-176000889D01*
X148413261Y-175913261D01*
X148500889Y-175796204D01*
X148551989Y-175659201D01*
X148558500Y-175598638D01*
X148558500Y-174001362D01*
X148551989Y-173940799D01*
X148500889Y-173803796D01*
X148413261Y-173686739D01*
X148296204Y-173599111D01*
X148287895Y-173596012D01*
X148287890Y-173596009D01*
X148264165Y-173587160D01*
X148221929Y-173560721D01*
X148193512Y-173519791D01*
X148183500Y-173470979D01*
X148183500Y-171950630D01*
X148192529Y-171904179D01*
X148218302Y-171864492D01*
X148257063Y-171837350D01*
X148362055Y-171790606D01*
X148516556Y-171678354D01*
X148644343Y-171536432D01*
X148739830Y-171371044D01*
X148798845Y-171189416D01*
X148818807Y-170999488D01*
X148798845Y-170809560D01*
X148739830Y-170627932D01*
X148736581Y-170622305D01*
X148736579Y-170622300D01*
X148698965Y-170557152D01*
X148682351Y-170495150D01*
X148698964Y-170433150D01*
X148734527Y-170371556D01*
X148793542Y-170189928D01*
X148813504Y-170000000D01*
X148793542Y-169810072D01*
X148734527Y-169628444D01*
X148639040Y-169463056D01*
X148511253Y-169321134D01*
X148506003Y-169317319D01*
X148505999Y-169317316D01*
X148362006Y-169212699D01*
X148362004Y-169212697D01*
X148356752Y-169208882D01*
X148350821Y-169206241D01*
X148350817Y-169206239D01*
X148188226Y-169133849D01*
X148188219Y-169133846D01*
X148182288Y-169131206D01*
X148175935Y-169129855D01*
X148175927Y-169129853D01*
X148001849Y-169092852D01*
X148001846Y-169092851D01*
X147995487Y-169091500D01*
X147804513Y-169091500D01*
X147798154Y-169092851D01*
X147798150Y-169092852D01*
X147624072Y-169129853D01*
X147624061Y-169129856D01*
X147617712Y-169131206D01*
X147611774Y-169133849D01*
X147611773Y-169133850D01*
X147482935Y-169191212D01*
X147422771Y-169201550D01*
X147364965Y-169181927D01*
X147323527Y-169137100D01*
X147308500Y-169077932D01*
X147308500Y-168504672D01*
X147308500Y-168501362D01*
X147301989Y-168440799D01*
X147250889Y-168303796D01*
X147163261Y-168186739D01*
X147147582Y-168175002D01*
X147053304Y-168104426D01*
X147053303Y-168104425D01*
X147046204Y-168099111D01*
X147037896Y-168096012D01*
X147037894Y-168096011D01*
X146916463Y-168050719D01*
X146916458Y-168050717D01*
X146909201Y-168048011D01*
X146901497Y-168047182D01*
X146901494Y-168047182D01*
X146851924Y-168041853D01*
X146851918Y-168041852D01*
X146848638Y-168041500D01*
X145751362Y-168041500D01*
X145748083Y-168041852D01*
X145748073Y-168041853D01*
X145707605Y-168046204D01*
X145647717Y-168037811D01*
X145598920Y-168002091D01*
X145572821Y-167947539D01*
X145575626Y-167887130D01*
X145606668Y-167835235D01*
X147992217Y-165449686D01*
X148000552Y-165442102D01*
X148007018Y-165438000D01*
X148053691Y-165388296D01*
X148056308Y-165385595D01*
X148076135Y-165365770D01*
X148078660Y-165362513D01*
X148086251Y-165353624D01*
X148116586Y-165321321D01*
X148126423Y-165303425D01*
X148137096Y-165287177D01*
X148149614Y-165271041D01*
X148167215Y-165230364D01*
X148172350Y-165219884D01*
X148189935Y-165187899D01*
X148189934Y-165187899D01*
X148193695Y-165181060D01*
X148198774Y-165161273D01*
X148205070Y-165142885D01*
X148213181Y-165124145D01*
X148220112Y-165080376D01*
X148222482Y-165068939D01*
X148233500Y-165026030D01*
X148233500Y-165005615D01*
X148235027Y-164986217D01*
X148236658Y-164975916D01*
X148238220Y-164966057D01*
X148234050Y-164921942D01*
X148233500Y-164910273D01*
X148233500Y-163928846D01*
X148234031Y-163917562D01*
X148235702Y-163910091D01*
X148233560Y-163841982D01*
X148233500Y-163838087D01*
X148233500Y-163814042D01*
X148233500Y-163810144D01*
X148232981Y-163806041D01*
X148232064Y-163794388D01*
X148230918Y-163757908D01*
X148230673Y-163750110D01*
X148228476Y-163742547D01*
X148224977Y-163730502D01*
X148221032Y-163711457D01*
X148218474Y-163691203D01*
X148202162Y-163650005D01*
X148198377Y-163638949D01*
X148188195Y-163603901D01*
X148186018Y-163596407D01*
X148175619Y-163578824D01*
X148167070Y-163561371D01*
X148159552Y-163542383D01*
X148133503Y-163506530D01*
X148127098Y-163496779D01*
X148118852Y-163482836D01*
X148104542Y-163458638D01*
X148090107Y-163444203D01*
X148077470Y-163429407D01*
X148072710Y-163422856D01*
X148065472Y-163412893D01*
X148059460Y-163407920D01*
X148059457Y-163407916D01*
X148031325Y-163384643D01*
X148022685Y-163376781D01*
X146653224Y-162007319D01*
X146621130Y-161951730D01*
X146621131Y-161887541D01*
X146653226Y-161831954D01*
X146674030Y-161811152D01*
X146767115Y-161660238D01*
X146822887Y-161491926D01*
X146833500Y-161388045D01*
X146833500Y-161257500D01*
X146850113Y-161195500D01*
X146895500Y-161150113D01*
X146957500Y-161133500D01*
X148192691Y-161133500D01*
X148243126Y-161144220D01*
X148279021Y-161170299D01*
X148279571Y-161169690D01*
X148284400Y-161174038D01*
X148288747Y-161178866D01*
X148293997Y-161182680D01*
X148294000Y-161182683D01*
X148406978Y-161264766D01*
X148443248Y-161291118D01*
X148617712Y-161368794D01*
X148624070Y-161370145D01*
X148624072Y-161370146D01*
X148660874Y-161377968D01*
X148804513Y-161408500D01*
X148988984Y-161408500D01*
X148995487Y-161408500D01*
X149182288Y-161368794D01*
X149356752Y-161291118D01*
X149511253Y-161178866D01*
X149639040Y-161036944D01*
X149734527Y-160871556D01*
X149793542Y-160689928D01*
X149813504Y-160500000D01*
X149793542Y-160310072D01*
X149734527Y-160128444D01*
X149639040Y-159963056D01*
X149511253Y-159821134D01*
X149506003Y-159817319D01*
X149505999Y-159817316D01*
X149362006Y-159712699D01*
X149362004Y-159712697D01*
X149356752Y-159708882D01*
X149350821Y-159706241D01*
X149350817Y-159706239D01*
X149188226Y-159633849D01*
X149188219Y-159633846D01*
X149182288Y-159631206D01*
X149175935Y-159629855D01*
X149175927Y-159629853D01*
X149001849Y-159592852D01*
X149001846Y-159592851D01*
X148995487Y-159591500D01*
X148804513Y-159591500D01*
X148798154Y-159592851D01*
X148798150Y-159592852D01*
X148624072Y-159629853D01*
X148624061Y-159629856D01*
X148617712Y-159631206D01*
X148611782Y-159633845D01*
X148611773Y-159633849D01*
X148449182Y-159706239D01*
X148449174Y-159706243D01*
X148443248Y-159708882D01*
X148437999Y-159712695D01*
X148437993Y-159712699D01*
X148294000Y-159817316D01*
X148293991Y-159817323D01*
X148288747Y-159821134D01*
X148284402Y-159825958D01*
X148279571Y-159830310D01*
X148279021Y-159829700D01*
X148243126Y-159855780D01*
X148192691Y-159866500D01*
X146805819Y-159866500D01*
X146743040Y-159849434D01*
X146697542Y-159802932D01*
X146681848Y-159739795D01*
X146700280Y-159677403D01*
X146755567Y-159587766D01*
X146761629Y-159574767D01*
X146812375Y-159421625D01*
X146815194Y-159408458D01*
X146824680Y-159315609D01*
X146825000Y-159309332D01*
X146825000Y-159191326D01*
X146821549Y-159178450D01*
X146808674Y-159175000D01*
X144391327Y-159175000D01*
X144378451Y-159178450D01*
X144375001Y-159191326D01*
X144375001Y-159309329D01*
X144375321Y-159315611D01*
X144384805Y-159408459D01*
X144387623Y-159421622D01*
X144438370Y-159574767D01*
X144444432Y-159587766D01*
X144528890Y-159724694D01*
X144537794Y-159735955D01*
X144651548Y-159849709D01*
X144664421Y-159859888D01*
X144700640Y-159906383D01*
X144711301Y-159964349D01*
X144693996Y-160020690D01*
X144661755Y-160053416D01*
X144663163Y-160055197D01*
X144657495Y-160059677D01*
X144651348Y-160063470D01*
X144646240Y-160068577D01*
X144646236Y-160068581D01*
X144531081Y-160183736D01*
X144531077Y-160183740D01*
X144525970Y-160188848D01*
X144522178Y-160194995D01*
X144522177Y-160194997D01*
X144436677Y-160333612D01*
X144436672Y-160333621D01*
X144432885Y-160339762D01*
X144430613Y-160346615D01*
X144430611Y-160346622D01*
X144379241Y-160501649D01*
X144379239Y-160501657D01*
X144377113Y-160508074D01*
X144376425Y-160514802D01*
X144376425Y-160514805D01*
X144366819Y-160608825D01*
X144366818Y-160608840D01*
X144366500Y-160611955D01*
X144366500Y-160615101D01*
X144366500Y-160615102D01*
X144366500Y-161384895D01*
X144366500Y-161384914D01*
X144366501Y-161388044D01*
X144366819Y-161391157D01*
X144366820Y-161391176D01*
X144376424Y-161485186D01*
X144377113Y-161491926D01*
X144379244Y-161498357D01*
X144430611Y-161653377D01*
X144430612Y-161653380D01*
X144432885Y-161660238D01*
X144436674Y-161666381D01*
X144436677Y-161666387D01*
X144471168Y-161722305D01*
X144525970Y-161811152D01*
X144651348Y-161936530D01*
X144750419Y-161997637D01*
X144796112Y-162025822D01*
X144796114Y-162025823D01*
X144802262Y-162029615D01*
X144963113Y-162082914D01*
X145009256Y-162110475D01*
X145032238Y-162144398D01*
X145033819Y-162143530D01*
X145037576Y-162150365D01*
X145040448Y-162157617D01*
X145045030Y-162163924D01*
X145045031Y-162163925D01*
X145066491Y-162193462D01*
X145072905Y-162203227D01*
X145095458Y-162241362D01*
X145100976Y-162246880D01*
X145109889Y-162255793D01*
X145122525Y-162270588D01*
X145129938Y-162280791D01*
X145129943Y-162280796D01*
X145134528Y-162287107D01*
X145168667Y-162315349D01*
X145177308Y-162323212D01*
X146123053Y-163268958D01*
X146151707Y-163313719D01*
X146158990Y-163366365D01*
X146143564Y-163417224D01*
X146108262Y-163456954D01*
X146094003Y-163467314D01*
X146093995Y-163467320D01*
X146088747Y-163471134D01*
X146084403Y-163475957D01*
X146084400Y-163475961D01*
X145969203Y-163603901D01*
X145960960Y-163613056D01*
X145957714Y-163618676D01*
X145957711Y-163618682D01*
X145868721Y-163772817D01*
X145868718Y-163772822D01*
X145865473Y-163778444D01*
X145863467Y-163784616D01*
X145863465Y-163784622D01*
X145808465Y-163953892D01*
X145808463Y-163953901D01*
X145806458Y-163960072D01*
X145805780Y-163966522D01*
X145805778Y-163966532D01*
X145790615Y-164110806D01*
X145786496Y-164150000D01*
X145787175Y-164156460D01*
X145805778Y-164333467D01*
X145805779Y-164333475D01*
X145806458Y-164339928D01*
X145808463Y-164346100D01*
X145808465Y-164346107D01*
X145863314Y-164514911D01*
X145865473Y-164521556D01*
X145868720Y-164527180D01*
X145868721Y-164527182D01*
X145943356Y-164656454D01*
X145960960Y-164686944D01*
X145965306Y-164691771D01*
X145965307Y-164691772D01*
X146027294Y-164760616D01*
X146055966Y-164815694D01*
X146054340Y-164877767D01*
X146022825Y-164931269D01*
X138923914Y-172030181D01*
X138883686Y-172057061D01*
X138836233Y-172066500D01*
X134763766Y-172066500D01*
X134716313Y-172057061D01*
X134676085Y-172030181D01*
X129434695Y-166788790D01*
X129427103Y-166780448D01*
X129423000Y-166773982D01*
X129373316Y-166727326D01*
X129370550Y-166724645D01*
X129353527Y-166707622D01*
X129353526Y-166707621D01*
X129350770Y-166704865D01*
X129347486Y-166702317D01*
X129338624Y-166694746D01*
X129312009Y-166669754D01*
X129312003Y-166669749D01*
X129306321Y-166664414D01*
X129299488Y-166660658D01*
X129299482Y-166660653D01*
X129288429Y-166654576D01*
X129272174Y-166643899D01*
X129262209Y-166636170D01*
X129262206Y-166636168D01*
X129256041Y-166631386D01*
X129219487Y-166615568D01*
X129215376Y-166613789D01*
X129204884Y-166608649D01*
X129172896Y-166591063D01*
X129172894Y-166591062D01*
X129166060Y-166587305D01*
X129146284Y-166582227D01*
X129127881Y-166575926D01*
X129116309Y-166570918D01*
X129116301Y-166570915D01*
X129109145Y-166567819D01*
X129101440Y-166566598D01*
X129101438Y-166566598D01*
X129065381Y-166560887D01*
X129053955Y-166558521D01*
X129011030Y-166547500D01*
X129003228Y-166547500D01*
X128990615Y-166547500D01*
X128971217Y-166545973D01*
X128958766Y-166544001D01*
X128951057Y-166542780D01*
X128943291Y-166543514D01*
X128943288Y-166543514D01*
X128906942Y-166546950D01*
X128895273Y-166547500D01*
X118322444Y-166547500D01*
X118311160Y-166546968D01*
X118303689Y-166545298D01*
X118295891Y-166545543D01*
X118235581Y-166547439D01*
X118231685Y-166547500D01*
X118203742Y-166547500D01*
X118199875Y-166547988D01*
X118199866Y-166547989D01*
X118199630Y-166548019D01*
X118188004Y-166548934D01*
X118151502Y-166550081D01*
X118151494Y-166550082D01*
X118143709Y-166550327D01*
X118136227Y-166552500D01*
X118136218Y-166552502D01*
X118124104Y-166556022D01*
X118105055Y-166559967D01*
X118092536Y-166561548D01*
X118092530Y-166561549D01*
X118084801Y-166562526D01*
X118077558Y-166565393D01*
X118077552Y-166565395D01*
X118043598Y-166578838D01*
X118032553Y-166582619D01*
X117997500Y-166592803D01*
X117997490Y-166592807D01*
X117990005Y-166594982D01*
X117983292Y-166598951D01*
X117983289Y-166598953D01*
X117972432Y-166605374D01*
X117954968Y-166613929D01*
X117943234Y-166618575D01*
X117943227Y-166618578D01*
X117935981Y-166621448D01*
X117929677Y-166626027D01*
X117929666Y-166626034D01*
X117900132Y-166647491D01*
X117890374Y-166653901D01*
X117858953Y-166672483D01*
X117858939Y-166672493D01*
X117852236Y-166676458D01*
X117846720Y-166681973D01*
X117846717Y-166681976D01*
X117837795Y-166690897D01*
X117823012Y-166703523D01*
X117812804Y-166710940D01*
X117812798Y-166710944D01*
X117806491Y-166715528D01*
X117801524Y-166721530D01*
X117801513Y-166721542D01*
X117778241Y-166749673D01*
X117770381Y-166758311D01*
X114524012Y-170004681D01*
X114483784Y-170031561D01*
X114436331Y-170041000D01*
X111688266Y-170041000D01*
X111640813Y-170031561D01*
X111600585Y-170004681D01*
X104796621Y-163200716D01*
X104772381Y-163166418D01*
X104760981Y-163125996D01*
X104758946Y-163106638D01*
X104743542Y-162960072D01*
X104684527Y-162778444D01*
X104589040Y-162613056D01*
X104461253Y-162471134D01*
X104456003Y-162467319D01*
X104455999Y-162467316D01*
X104312006Y-162362699D01*
X104312004Y-162362697D01*
X104306752Y-162358882D01*
X104300821Y-162356241D01*
X104300817Y-162356239D01*
X104138226Y-162283849D01*
X104138219Y-162283846D01*
X104132288Y-162281206D01*
X104125935Y-162279855D01*
X104125927Y-162279853D01*
X103951849Y-162242852D01*
X103951846Y-162242851D01*
X103945487Y-162241500D01*
X103754513Y-162241500D01*
X103748154Y-162242851D01*
X103748150Y-162242852D01*
X103574072Y-162279853D01*
X103574061Y-162279856D01*
X103567712Y-162281206D01*
X103561782Y-162283845D01*
X103561773Y-162283849D01*
X103399182Y-162356239D01*
X103399174Y-162356243D01*
X103393248Y-162358882D01*
X103387999Y-162362695D01*
X103387993Y-162362699D01*
X103244000Y-162467316D01*
X103243991Y-162467323D01*
X103238747Y-162471134D01*
X103234403Y-162475957D01*
X103234400Y-162475961D01*
X103233168Y-162477330D01*
X103232185Y-162477955D01*
X103229571Y-162480310D01*
X103229176Y-162479872D01*
X103177272Y-162512936D01*
X103111022Y-162514669D01*
X103053341Y-162482034D01*
X102119819Y-161548512D01*
X102092939Y-161508284D01*
X102083500Y-161460831D01*
X102083500Y-161051757D01*
X102091736Y-161007319D01*
X102115350Y-160968785D01*
X102135769Y-160946107D01*
X102189040Y-160886944D01*
X102284527Y-160721556D01*
X102343542Y-160539928D01*
X102363504Y-160350000D01*
X102343542Y-160160072D01*
X102284527Y-159978444D01*
X102189040Y-159813056D01*
X102061253Y-159671134D01*
X102056003Y-159667319D01*
X102055999Y-159667316D01*
X101912006Y-159562699D01*
X101912004Y-159562697D01*
X101906752Y-159558882D01*
X101900821Y-159556241D01*
X101900817Y-159556239D01*
X101738226Y-159483849D01*
X101738219Y-159483846D01*
X101732288Y-159481206D01*
X101725935Y-159479855D01*
X101725927Y-159479853D01*
X101551849Y-159442852D01*
X101551846Y-159442851D01*
X101545487Y-159441500D01*
X101354513Y-159441500D01*
X101348154Y-159442851D01*
X101348150Y-159442852D01*
X101174072Y-159479853D01*
X101174061Y-159479856D01*
X101167712Y-159481206D01*
X101161782Y-159483845D01*
X101161773Y-159483849D01*
X100999182Y-159556239D01*
X100999174Y-159556243D01*
X100993248Y-159558882D01*
X100987999Y-159562695D01*
X100987993Y-159562699D01*
X100844000Y-159667316D01*
X100843991Y-159667323D01*
X100838747Y-159671134D01*
X100834403Y-159675957D01*
X100834400Y-159675961D01*
X100776924Y-159739795D01*
X100710960Y-159813056D01*
X100707714Y-159818676D01*
X100707711Y-159818682D01*
X100618721Y-159972817D01*
X100618718Y-159972822D01*
X100615473Y-159978444D01*
X100613467Y-159984616D01*
X100613465Y-159984622D01*
X100558465Y-160153892D01*
X100558463Y-160153901D01*
X100556458Y-160160072D01*
X100555780Y-160166522D01*
X100555778Y-160166532D01*
X100538218Y-160333612D01*
X100536496Y-160350000D01*
X100200500Y-160350000D01*
X100200500Y-147563200D01*
X105567346Y-147563200D01*
X105567770Y-147568317D01*
X105585061Y-147776999D01*
X105585062Y-147777007D01*
X105585486Y-147782119D01*
X105586743Y-147787086D01*
X105586745Y-147787093D01*
X105619641Y-147916994D01*
X105639412Y-147995067D01*
X105641472Y-147999763D01*
X105725592Y-148191540D01*
X105725595Y-148191545D01*
X105727652Y-148196235D01*
X105739917Y-148215008D01*
X105844998Y-148375847D01*
X105845001Y-148375851D01*
X105847800Y-148380135D01*
X105851265Y-148383899D01*
X105851269Y-148383904D01*
X105993106Y-148537980D01*
X105993109Y-148537983D01*
X105996578Y-148541751D01*
X106169928Y-148676675D01*
X106363121Y-148781227D01*
X106570888Y-148852554D01*
X106787562Y-148888711D01*
X106874807Y-148888711D01*
X106897396Y-148888711D01*
X106937278Y-148888711D01*
X109818574Y-148888711D01*
X109864776Y-148897640D01*
X109904325Y-148923141D01*
X109931523Y-148961539D01*
X110066639Y-149259786D01*
X110068254Y-149262550D01*
X110068262Y-149262564D01*
X110250165Y-149573739D01*
X110250169Y-149573746D01*
X110251783Y-149576506D01*
X110468694Y-149872376D01*
X110715045Y-150144223D01*
X110811409Y-150230624D01*
X110985802Y-150386987D01*
X110985809Y-150386993D01*
X110988194Y-150389131D01*
X111285209Y-150604471D01*
X111287993Y-150606078D01*
X111287995Y-150606080D01*
X111515869Y-150737673D01*
X111602905Y-150787935D01*
X111605840Y-150789246D01*
X111605846Y-150789249D01*
X111934931Y-150936239D01*
X111937873Y-150937553D01*
X112286521Y-151051721D01*
X112645108Y-151129215D01*
X113009787Y-151169202D01*
X113376646Y-151171254D01*
X113741749Y-151135348D01*
X114101180Y-151061871D01*
X114451083Y-150951610D01*
X114787704Y-150805747D01*
X115107432Y-150625849D01*
X115406838Y-150413844D01*
X115682708Y-150172008D01*
X115932085Y-149902933D01*
X116152292Y-149609508D01*
X116340967Y-149294879D01*
X116496086Y-148962422D01*
X116615986Y-148615703D01*
X116699379Y-148258443D01*
X116745372Y-147894473D01*
X116753470Y-147527697D01*
X116723588Y-147162052D01*
X116656045Y-146801459D01*
X116551566Y-146449786D01*
X116538642Y-146418560D01*
X116446902Y-146196895D01*
X116411272Y-146110806D01*
X116236668Y-145788156D01*
X116029627Y-145485297D01*
X115792371Y-145205477D01*
X115527443Y-144951700D01*
X115237687Y-144726686D01*
X114926211Y-144532851D01*
X114923340Y-144531453D01*
X114923334Y-144531450D01*
X114599236Y-144373674D01*
X114599235Y-144373673D01*
X114596356Y-144372272D01*
X114251661Y-144246674D01*
X114248549Y-144245893D01*
X114248545Y-144245892D01*
X113898933Y-144158183D01*
X113895824Y-144157403D01*
X113892662Y-144156950D01*
X113892650Y-144156948D01*
X113535836Y-144105872D01*
X113535826Y-144105871D01*
X113532661Y-144105418D01*
X113529459Y-144105294D01*
X113529454Y-144105294D01*
X113169272Y-144091398D01*
X113169260Y-144091398D01*
X113166069Y-144091275D01*
X113162877Y-144091482D01*
X113162871Y-144091483D01*
X112803188Y-144114917D01*
X112803186Y-144114917D01*
X112799981Y-144115126D01*
X112796814Y-144115665D01*
X112796808Y-144115666D01*
X112441494Y-144176176D01*
X112441475Y-144176180D01*
X112438323Y-144176717D01*
X112435238Y-144177578D01*
X112435222Y-144177582D01*
X112088075Y-144274519D01*
X112088063Y-144274522D01*
X112084976Y-144275385D01*
X112081994Y-144276561D01*
X112081982Y-144276566D01*
X111746715Y-144408893D01*
X111746701Y-144408899D01*
X111743730Y-144410072D01*
X111740892Y-144411547D01*
X111740885Y-144411551D01*
X111421090Y-144577854D01*
X111421082Y-144577858D01*
X111418245Y-144579334D01*
X111415576Y-144581094D01*
X111415567Y-144581100D01*
X111114691Y-144779589D01*
X111114682Y-144779595D01*
X111112015Y-144781355D01*
X111109543Y-144783381D01*
X111109536Y-144783387D01*
X110830806Y-145011930D01*
X110830794Y-145011940D01*
X110828323Y-145013967D01*
X110826077Y-145016235D01*
X110826059Y-145016252D01*
X110572477Y-145272388D01*
X110572466Y-145272400D01*
X110570213Y-145274676D01*
X110568208Y-145277171D01*
X110568198Y-145277183D01*
X110342468Y-145558174D01*
X110342454Y-145558193D01*
X110340454Y-145560683D01*
X110338717Y-145563373D01*
X110338707Y-145563388D01*
X110143256Y-145866216D01*
X110143251Y-145866223D01*
X110141510Y-145868922D01*
X110140061Y-145871777D01*
X110140050Y-145871797D01*
X109988845Y-146169816D01*
X109943144Y-146219383D01*
X109878264Y-146237711D01*
X106897478Y-146237711D01*
X106897396Y-146237700D01*
X106897396Y-146237689D01*
X106787562Y-146237689D01*
X106782509Y-146238532D01*
X106782499Y-146238533D01*
X106575946Y-146273001D01*
X106575934Y-146273003D01*
X106570888Y-146273846D01*
X106566038Y-146275510D01*
X106566034Y-146275512D01*
X106367973Y-146343507D01*
X106367969Y-146343508D01*
X106363121Y-146345173D01*
X106358615Y-146347611D01*
X106358607Y-146347615D01*
X106174445Y-146447280D01*
X106174440Y-146447282D01*
X106169928Y-146449725D01*
X106165882Y-146452874D01*
X106165873Y-146452880D01*
X106019979Y-146566435D01*
X105996578Y-146584649D01*
X105993115Y-146588410D01*
X105993106Y-146588419D01*
X105851269Y-146742495D01*
X105851260Y-146742505D01*
X105847800Y-146746265D01*
X105845005Y-146750542D01*
X105844998Y-146750552D01*
X105741171Y-146909473D01*
X105727652Y-146930165D01*
X105725597Y-146934848D01*
X105725592Y-146934859D01*
X105675276Y-147049570D01*
X105639412Y-147131333D01*
X105638154Y-147136298D01*
X105638153Y-147136303D01*
X105586745Y-147339306D01*
X105586743Y-147339315D01*
X105585486Y-147344281D01*
X105585062Y-147349390D01*
X105585061Y-147349400D01*
X105570553Y-147524498D01*
X105567346Y-147563200D01*
X100200500Y-147563200D01*
X100200500Y-133733606D01*
X101479305Y-133733606D01*
X101487191Y-133744869D01*
X101728684Y-133940425D01*
X101733938Y-133944242D01*
X102053733Y-134151920D01*
X102059354Y-134155166D01*
X102399116Y-134328283D01*
X102405040Y-134330920D01*
X102761044Y-134467578D01*
X102767197Y-134469577D01*
X103135537Y-134568273D01*
X103141879Y-134569621D01*
X103518508Y-134629273D01*
X103524951Y-134629950D01*
X103905756Y-134649908D01*
X103912244Y-134649908D01*
X104293048Y-134629950D01*
X104299491Y-134629273D01*
X104676120Y-134569621D01*
X104682462Y-134568273D01*
X105050802Y-134469577D01*
X105056955Y-134467578D01*
X105412959Y-134330920D01*
X105418883Y-134328283D01*
X105758645Y-134155166D01*
X105764266Y-134151920D01*
X106084061Y-133944242D01*
X106089315Y-133940425D01*
X106330806Y-133744870D01*
X106338693Y-133733606D01*
X106332027Y-133721580D01*
X103920542Y-131310095D01*
X103909000Y-131303431D01*
X103897457Y-131310095D01*
X101485971Y-133721580D01*
X101479305Y-133733606D01*
X100200500Y-133733606D01*
X100200500Y-132277657D01*
X100219113Y-132212315D01*
X100269365Y-132166589D01*
X100336169Y-132154207D01*
X100399470Y-132178887D01*
X100440264Y-132233219D01*
X100523079Y-132448959D01*
X100525716Y-132454883D01*
X100698833Y-132794645D01*
X100702079Y-132800266D01*
X100909757Y-133120061D01*
X100913574Y-133125315D01*
X101109129Y-133366807D01*
X101120392Y-133374693D01*
X101132418Y-133368027D01*
X103543904Y-130956542D01*
X103550567Y-130945000D01*
X104267431Y-130945000D01*
X104274095Y-130956542D01*
X106685580Y-133368027D01*
X106697606Y-133374693D01*
X106708870Y-133366806D01*
X106904425Y-133125315D01*
X106908242Y-133120061D01*
X107115920Y-132800266D01*
X107119166Y-132794645D01*
X107292283Y-132454883D01*
X107294920Y-132448959D01*
X107431578Y-132092955D01*
X107433577Y-132086802D01*
X107532273Y-131718462D01*
X107533621Y-131712120D01*
X107593273Y-131335491D01*
X107593950Y-131329048D01*
X107613908Y-130948244D01*
X107613908Y-130941756D01*
X107593950Y-130560951D01*
X107593273Y-130554508D01*
X107533621Y-130177879D01*
X107532273Y-130171537D01*
X107433577Y-129803197D01*
X107431578Y-129797044D01*
X107294920Y-129441040D01*
X107292283Y-129435116D01*
X107119166Y-129095354D01*
X107115920Y-129089733D01*
X106908242Y-128769938D01*
X106904425Y-128764684D01*
X106708869Y-128523191D01*
X106697606Y-128515305D01*
X106685580Y-128521971D01*
X104274095Y-130933457D01*
X104267431Y-130945000D01*
X103550567Y-130945000D01*
X103550568Y-130944999D01*
X103543904Y-130933457D01*
X101132418Y-128521971D01*
X101120393Y-128515305D01*
X101109127Y-128523194D01*
X100913578Y-128764678D01*
X100909756Y-128769939D01*
X100702079Y-129089733D01*
X100698833Y-129095354D01*
X100525716Y-129435116D01*
X100523079Y-129441040D01*
X100440264Y-129656781D01*
X100399470Y-129711113D01*
X100336169Y-129735793D01*
X100269365Y-129723411D01*
X100219113Y-129677685D01*
X100200500Y-129612343D01*
X100200500Y-122548638D01*
X101141500Y-122548638D01*
X101141852Y-122551918D01*
X101141853Y-122551924D01*
X101145880Y-122589387D01*
X101148011Y-122609201D01*
X101150717Y-122616458D01*
X101150719Y-122616463D01*
X101191204Y-122725005D01*
X101199111Y-122746204D01*
X101286739Y-122863261D01*
X101403796Y-122950889D01*
X101540799Y-123001989D01*
X101601362Y-123008500D01*
X103211234Y-123008500D01*
X103258687Y-123017939D01*
X103298915Y-123044819D01*
X103405181Y-123151085D01*
X103432061Y-123191313D01*
X103441500Y-123238766D01*
X103441500Y-123567500D01*
X103424887Y-123629500D01*
X103379500Y-123674887D01*
X103317500Y-123691500D01*
X103226362Y-123691500D01*
X103223082Y-123691852D01*
X103223075Y-123691853D01*
X103173505Y-123697182D01*
X103173500Y-123697182D01*
X103165799Y-123698011D01*
X103158543Y-123700717D01*
X103158536Y-123700719D01*
X103037105Y-123746011D01*
X103037099Y-123746013D01*
X103028796Y-123749111D01*
X103021698Y-123754423D01*
X103021695Y-123754426D01*
X102918835Y-123831426D01*
X102918831Y-123831429D01*
X102911739Y-123836739D01*
X102906429Y-123843831D01*
X102906426Y-123843835D01*
X102829426Y-123946695D01*
X102829423Y-123946698D01*
X102824111Y-123953796D01*
X102821013Y-123962099D01*
X102821011Y-123962105D01*
X102775719Y-124083536D01*
X102775717Y-124083543D01*
X102773011Y-124090799D01*
X102772182Y-124098500D01*
X102772182Y-124098505D01*
X102766853Y-124148075D01*
X102766500Y-124151362D01*
X102766500Y-126648638D01*
X102766852Y-126651918D01*
X102766853Y-126651924D01*
X102769568Y-126677182D01*
X102773011Y-126709201D01*
X102775717Y-126716458D01*
X102775719Y-126716463D01*
X102800681Y-126783387D01*
X102824111Y-126846204D01*
X102829425Y-126853303D01*
X102829426Y-126853304D01*
X102903084Y-126951700D01*
X102911739Y-126963261D01*
X103028796Y-127050889D01*
X103132541Y-127089584D01*
X103183305Y-127125010D01*
X103210619Y-127180563D01*
X103207673Y-127242396D01*
X103175203Y-127295101D01*
X103121301Y-127325541D01*
X102767192Y-127420424D01*
X102761044Y-127422421D01*
X102405040Y-127559079D01*
X102399116Y-127561716D01*
X102059354Y-127734833D01*
X102053733Y-127738079D01*
X101733939Y-127945756D01*
X101728678Y-127949578D01*
X101487194Y-128145127D01*
X101479305Y-128156393D01*
X101485971Y-128168418D01*
X103897457Y-130579904D01*
X103908999Y-130586568D01*
X103920542Y-130579904D01*
X106332027Y-128168418D01*
X106338693Y-128156392D01*
X106330807Y-128145129D01*
X106089315Y-127949574D01*
X106084061Y-127945757D01*
X105764266Y-127738079D01*
X105758645Y-127734833D01*
X105418883Y-127561716D01*
X105412959Y-127559079D01*
X105056955Y-127422421D01*
X105050802Y-127420422D01*
X104796471Y-127352275D01*
X104744791Y-127323923D01*
X104712042Y-127274911D01*
X104705625Y-127216315D01*
X104726989Y-127161377D01*
X104771307Y-127122511D01*
X104828564Y-127108500D01*
X104920328Y-127108500D01*
X104923638Y-127108500D01*
X104984201Y-127101989D01*
X105121204Y-127050889D01*
X105238261Y-126963261D01*
X105325889Y-126846204D01*
X105376989Y-126709201D01*
X105377817Y-126701493D01*
X105379324Y-126695119D01*
X105410768Y-126637534D01*
X105467194Y-126604054D01*
X105532806Y-126604054D01*
X105589232Y-126637534D01*
X105620676Y-126695119D01*
X105622182Y-126701494D01*
X105623011Y-126709201D01*
X105625717Y-126716458D01*
X105625719Y-126716463D01*
X105650681Y-126783387D01*
X105674111Y-126846204D01*
X105679425Y-126853303D01*
X105679426Y-126853304D01*
X105753084Y-126951700D01*
X105761739Y-126963261D01*
X105878796Y-127050889D01*
X106015799Y-127101989D01*
X106076362Y-127108500D01*
X107770328Y-127108500D01*
X107773638Y-127108500D01*
X107834201Y-127101989D01*
X107971204Y-127050889D01*
X108088261Y-126963261D01*
X108175889Y-126846204D01*
X108226989Y-126709201D01*
X108233500Y-126648638D01*
X108233500Y-126157500D01*
X108250113Y-126095500D01*
X108295500Y-126050113D01*
X108357500Y-126033500D01*
X129695831Y-126033500D01*
X129752126Y-126047015D01*
X129796149Y-126084615D01*
X129818304Y-126138102D01*
X129813762Y-126195818D01*
X129783512Y-126245181D01*
X128657294Y-127371397D01*
X128648945Y-127378995D01*
X128642483Y-127383097D01*
X128637142Y-127388783D01*
X128637140Y-127388786D01*
X128595840Y-127432765D01*
X128593135Y-127435557D01*
X128573366Y-127455327D01*
X128570982Y-127458399D01*
X128570979Y-127458403D01*
X128570823Y-127458605D01*
X128563253Y-127467467D01*
X128546511Y-127485297D01*
X128532915Y-127499776D01*
X128529160Y-127506604D01*
X128529159Y-127506607D01*
X128523080Y-127517664D01*
X128512404Y-127533916D01*
X128504669Y-127543888D01*
X128504661Y-127543899D01*
X128499887Y-127550056D01*
X128496792Y-127557207D01*
X128496789Y-127557213D01*
X128482287Y-127590725D01*
X128477149Y-127601212D01*
X128459566Y-127633195D01*
X128459562Y-127633203D01*
X128455806Y-127640037D01*
X128453867Y-127647588D01*
X128453864Y-127647596D01*
X128450726Y-127659819D01*
X128444427Y-127678216D01*
X128436320Y-127696952D01*
X128435100Y-127704650D01*
X128435099Y-127704656D01*
X128429389Y-127740708D01*
X128427021Y-127752142D01*
X128417939Y-127787514D01*
X128417937Y-127787523D01*
X128416001Y-127795067D01*
X128416001Y-127802863D01*
X128416001Y-127815482D01*
X128414473Y-127834880D01*
X128411281Y-127855040D01*
X128412015Y-127862805D01*
X128412015Y-127862808D01*
X128415451Y-127899155D01*
X128416001Y-127910824D01*
X128416001Y-132123655D01*
X128415469Y-132134938D01*
X128413799Y-132142410D01*
X128414044Y-132150206D01*
X128414044Y-132150208D01*
X128415940Y-132210518D01*
X128416001Y-132214414D01*
X128416001Y-132242357D01*
X128416489Y-132246222D01*
X128416490Y-132246233D01*
X128416520Y-132246471D01*
X128417435Y-132258097D01*
X128418582Y-132294597D01*
X128418583Y-132294604D01*
X128418828Y-132302390D01*
X128421001Y-132309871D01*
X128421003Y-132309881D01*
X128424523Y-132321996D01*
X128428468Y-132341043D01*
X128431027Y-132361298D01*
X128433896Y-132368546D01*
X128433899Y-132368555D01*
X128447339Y-132402502D01*
X128451122Y-132413549D01*
X128463483Y-132456094D01*
X128467454Y-132462809D01*
X128467455Y-132462811D01*
X128473876Y-132473669D01*
X128482431Y-132491132D01*
X128489949Y-132510118D01*
X128494531Y-132516425D01*
X128494532Y-132516426D01*
X128515992Y-132545963D01*
X128522406Y-132555728D01*
X128544959Y-132593863D01*
X128550477Y-132599381D01*
X128559390Y-132608294D01*
X128572026Y-132623089D01*
X128579439Y-132633292D01*
X128579444Y-132633297D01*
X128584029Y-132639608D01*
X128611865Y-132662636D01*
X128618168Y-132667850D01*
X128626809Y-132675713D01*
X134052181Y-138101085D01*
X134079061Y-138141313D01*
X134088500Y-138188766D01*
X134088500Y-138911234D01*
X134079061Y-138958687D01*
X134052181Y-138998915D01*
X128655359Y-144395734D01*
X128647010Y-144403332D01*
X128640548Y-144407434D01*
X128635207Y-144413120D01*
X128635205Y-144413123D01*
X128593905Y-144457102D01*
X128591200Y-144459894D01*
X128571431Y-144479664D01*
X128569047Y-144482736D01*
X128569044Y-144482740D01*
X128568888Y-144482942D01*
X128561318Y-144491804D01*
X128538404Y-144516207D01*
X128530980Y-144524113D01*
X128527225Y-144530941D01*
X128527224Y-144530944D01*
X128521145Y-144542001D01*
X128510469Y-144558253D01*
X128502734Y-144568225D01*
X128502726Y-144568236D01*
X128497952Y-144574393D01*
X128494857Y-144581544D01*
X128494854Y-144581550D01*
X128480352Y-144615062D01*
X128475214Y-144625549D01*
X128457631Y-144657532D01*
X128457627Y-144657540D01*
X128453871Y-144664374D01*
X128451932Y-144671925D01*
X128451929Y-144671933D01*
X128448791Y-144684156D01*
X128442492Y-144702553D01*
X128434385Y-144721289D01*
X128433165Y-144728987D01*
X128433164Y-144728993D01*
X128427454Y-144765045D01*
X128425086Y-144776479D01*
X128416004Y-144811851D01*
X128416002Y-144811860D01*
X128414066Y-144819404D01*
X128414066Y-144827200D01*
X128414066Y-144839819D01*
X128412538Y-144859217D01*
X128409346Y-144879377D01*
X128410080Y-144887142D01*
X128410080Y-144887145D01*
X128413516Y-144923492D01*
X128414066Y-144935161D01*
X128414066Y-150221720D01*
X128413534Y-150233003D01*
X128411864Y-150240475D01*
X128412109Y-150248271D01*
X128412109Y-150248273D01*
X128414005Y-150308583D01*
X128414066Y-150312479D01*
X128414066Y-150340422D01*
X128414554Y-150344287D01*
X128414555Y-150344298D01*
X128414585Y-150344536D01*
X128415500Y-150356162D01*
X128416647Y-150392662D01*
X128416648Y-150392669D01*
X128416893Y-150400455D01*
X128419066Y-150407936D01*
X128419068Y-150407946D01*
X128422588Y-150420061D01*
X128426533Y-150439108D01*
X128429092Y-150459363D01*
X128431961Y-150466611D01*
X128431964Y-150466620D01*
X128445404Y-150500567D01*
X128449187Y-150511614D01*
X128461548Y-150554159D01*
X128465519Y-150560874D01*
X128465520Y-150560876D01*
X128471941Y-150571734D01*
X128480496Y-150589197D01*
X128488014Y-150608183D01*
X128492596Y-150614490D01*
X128492597Y-150614491D01*
X128514057Y-150644028D01*
X128520471Y-150653793D01*
X128543024Y-150691928D01*
X128548542Y-150697446D01*
X128557455Y-150706359D01*
X128570091Y-150721154D01*
X128577504Y-150731357D01*
X128577509Y-150731362D01*
X128582094Y-150737673D01*
X128616233Y-150765915D01*
X128624874Y-150773778D01*
X133655915Y-155804819D01*
X133686165Y-155854182D01*
X133690707Y-155911898D01*
X133668552Y-155965385D01*
X133624529Y-156002985D01*
X133568234Y-156016500D01*
X131380030Y-156016500D01*
X131328846Y-156016500D01*
X131317562Y-156015968D01*
X131310091Y-156014298D01*
X131302293Y-156014543D01*
X131241983Y-156016439D01*
X131238087Y-156016500D01*
X114379848Y-156016500D01*
X114368563Y-156015968D01*
X114361092Y-156014298D01*
X114353294Y-156014543D01*
X114292970Y-156016439D01*
X114289075Y-156016500D01*
X114261144Y-156016500D01*
X114257289Y-156016986D01*
X114257255Y-156016989D01*
X114257024Y-156017019D01*
X114245405Y-156017933D01*
X114208908Y-156019080D01*
X114208900Y-156019081D01*
X114201111Y-156019326D01*
X114193625Y-156021500D01*
X114193616Y-156021502D01*
X114181496Y-156025023D01*
X114162460Y-156028965D01*
X114149941Y-156030547D01*
X114149931Y-156030549D01*
X114142203Y-156031526D01*
X114134960Y-156034393D01*
X114134950Y-156034396D01*
X114101013Y-156047832D01*
X114089971Y-156051613D01*
X114054900Y-156061803D01*
X114054893Y-156061805D01*
X114047407Y-156063981D01*
X114040697Y-156067949D01*
X114040688Y-156067953D01*
X114029824Y-156074378D01*
X114012365Y-156082931D01*
X114000637Y-156087575D01*
X114000631Y-156087577D01*
X113993383Y-156090448D01*
X113987078Y-156095028D01*
X113987070Y-156095033D01*
X113957537Y-156116489D01*
X113947782Y-156122897D01*
X113916354Y-156141485D01*
X113916348Y-156141489D01*
X113909638Y-156145458D01*
X113904125Y-156150969D01*
X113904118Y-156150976D01*
X113895197Y-156159897D01*
X113880414Y-156172523D01*
X113870206Y-156179940D01*
X113870200Y-156179944D01*
X113863893Y-156184528D01*
X113858926Y-156190530D01*
X113858915Y-156190542D01*
X113835643Y-156218673D01*
X113827783Y-156227311D01*
X109607793Y-160447300D01*
X109599444Y-160454898D01*
X109592982Y-160459000D01*
X109587641Y-160464686D01*
X109587639Y-160464689D01*
X109546339Y-160508668D01*
X109543634Y-160511460D01*
X109523865Y-160531230D01*
X109521481Y-160534302D01*
X109521478Y-160534306D01*
X109521322Y-160534508D01*
X109513752Y-160543370D01*
X109483414Y-160575679D01*
X109479659Y-160582507D01*
X109479658Y-160582510D01*
X109473579Y-160593567D01*
X109462903Y-160609819D01*
X109455168Y-160619791D01*
X109455160Y-160619802D01*
X109450386Y-160625959D01*
X109447291Y-160633110D01*
X109447288Y-160633116D01*
X109432786Y-160666628D01*
X109427648Y-160677115D01*
X109410065Y-160709098D01*
X109410061Y-160709106D01*
X109406305Y-160715940D01*
X109404366Y-160723491D01*
X109404363Y-160723499D01*
X109401225Y-160735722D01*
X109394926Y-160754119D01*
X109386819Y-160772855D01*
X109385599Y-160780553D01*
X109385598Y-160780559D01*
X109379888Y-160816611D01*
X109377520Y-160828045D01*
X109368438Y-160863417D01*
X109368436Y-160863426D01*
X109366500Y-160870970D01*
X109366500Y-160878766D01*
X109366500Y-160891385D01*
X109364972Y-160910783D01*
X109361780Y-160930943D01*
X109362514Y-160938708D01*
X109362514Y-160938711D01*
X109365950Y-160975058D01*
X109366500Y-160986727D01*
X109366500Y-163311393D01*
X109364303Y-163334629D01*
X109364186Y-163335241D01*
X109364185Y-163335250D01*
X109362725Y-163342906D01*
X109363214Y-163350683D01*
X109363214Y-163350689D01*
X109366255Y-163399015D01*
X109366500Y-163406801D01*
X109366500Y-163422856D01*
X109366987Y-163426714D01*
X109366988Y-163426725D01*
X109368512Y-163438787D01*
X109369244Y-163446537D01*
X109372284Y-163494858D01*
X109372285Y-163494863D01*
X109372775Y-163502650D01*
X109375187Y-163510075D01*
X109375188Y-163510077D01*
X109375382Y-163510675D01*
X109380467Y-163533425D01*
X109380545Y-163534047D01*
X109380548Y-163534061D01*
X109381526Y-163541797D01*
X109384397Y-163549048D01*
X109384399Y-163549056D01*
X109402220Y-163594067D01*
X109404859Y-163601395D01*
X109418887Y-163644570D01*
X109422236Y-163654875D01*
X109426752Y-163661992D01*
X109437346Y-163682784D01*
X109440448Y-163690617D01*
X109445030Y-163696924D01*
X109445032Y-163696927D01*
X109473497Y-163736107D01*
X109477868Y-163742538D01*
X109508000Y-163790018D01*
X109514145Y-163795789D01*
X109529575Y-163813290D01*
X109534528Y-163820107D01*
X109540538Y-163825078D01*
X109540540Y-163825081D01*
X109577843Y-163855940D01*
X109583687Y-163861092D01*
X109618993Y-163894247D01*
X109618995Y-163894248D01*
X109624679Y-163899586D01*
X109631509Y-163903341D01*
X109631511Y-163903342D01*
X109632052Y-163903639D01*
X109651366Y-163916764D01*
X109657856Y-163922133D01*
X109664911Y-163925453D01*
X109664913Y-163925454D01*
X109672122Y-163928846D01*
X109708736Y-163946075D01*
X109715659Y-163949602D01*
X109764940Y-163976695D01*
X109773104Y-163978791D01*
X109795056Y-163986694D01*
X109802682Y-163990283D01*
X109853088Y-163999898D01*
X109857915Y-164000819D01*
X109865516Y-164002518D01*
X109919970Y-164016500D01*
X109928393Y-164016500D01*
X109951629Y-164018697D01*
X109952241Y-164018813D01*
X109952242Y-164018813D01*
X109959906Y-164020275D01*
X110016014Y-164016745D01*
X110023801Y-164016500D01*
X112654154Y-164016500D01*
X112665437Y-164017031D01*
X112672909Y-164018702D01*
X112741017Y-164016560D01*
X112744913Y-164016500D01*
X112768958Y-164016500D01*
X112772856Y-164016500D01*
X112776724Y-164016011D01*
X112776947Y-164015983D01*
X112788608Y-164015064D01*
X112832889Y-164013673D01*
X112852490Y-164007977D01*
X112871541Y-164004032D01*
X112891797Y-164001474D01*
X112929118Y-163986697D01*
X112932993Y-163985163D01*
X112944043Y-163981379D01*
X112986593Y-163969018D01*
X113004165Y-163958625D01*
X113021632Y-163950068D01*
X113040617Y-163942552D01*
X113076475Y-163916498D01*
X113086223Y-163910096D01*
X113124362Y-163887542D01*
X113138793Y-163873110D01*
X113153588Y-163860472D01*
X113170107Y-163848472D01*
X113198360Y-163814318D01*
X113206203Y-163805699D01*
X113505719Y-163506183D01*
X113555643Y-163475754D01*
X113613963Y-163471583D01*
X113667707Y-163494599D01*
X113686796Y-163508889D01*
X113823799Y-163559989D01*
X113884362Y-163566500D01*
X115078328Y-163566500D01*
X115081638Y-163566500D01*
X115142201Y-163559989D01*
X115279204Y-163508889D01*
X115396261Y-163421261D01*
X115483889Y-163304204D01*
X115534989Y-163167201D01*
X115541500Y-163106638D01*
X115541500Y-160713500D01*
X115558113Y-160651500D01*
X115603500Y-160606113D01*
X115665500Y-160589500D01*
X120334036Y-160589500D01*
X120390331Y-160603015D01*
X120434354Y-160640615D01*
X120456509Y-160694102D01*
X120451967Y-160751818D01*
X120421717Y-160801181D01*
X116457483Y-164765415D01*
X116417255Y-164792295D01*
X116369802Y-164801734D01*
X116313082Y-164801734D01*
X116306723Y-164803085D01*
X116306719Y-164803086D01*
X116132641Y-164840087D01*
X116132630Y-164840090D01*
X116126281Y-164841440D01*
X116120351Y-164844079D01*
X116120342Y-164844083D01*
X115957751Y-164916473D01*
X115957743Y-164916477D01*
X115951817Y-164919116D01*
X115946568Y-164922929D01*
X115946562Y-164922933D01*
X115802569Y-165027550D01*
X115802560Y-165027557D01*
X115797316Y-165031368D01*
X115792972Y-165036191D01*
X115792969Y-165036195D01*
X115707307Y-165131333D01*
X115669529Y-165173290D01*
X115666283Y-165178910D01*
X115666280Y-165178916D01*
X115577290Y-165333051D01*
X115577287Y-165333056D01*
X115574042Y-165338678D01*
X115572036Y-165344850D01*
X115572034Y-165344856D01*
X115517034Y-165514126D01*
X115517032Y-165514135D01*
X115515027Y-165520306D01*
X115514349Y-165526756D01*
X115514347Y-165526766D01*
X115500893Y-165654782D01*
X115495065Y-165710234D01*
X115495744Y-165716694D01*
X115514347Y-165893701D01*
X115514348Y-165893709D01*
X115515027Y-165900162D01*
X115517032Y-165906334D01*
X115517034Y-165906341D01*
X115534018Y-165958610D01*
X115537377Y-166022708D01*
X115508238Y-166079899D01*
X115451501Y-166142912D01*
X115451492Y-166142923D01*
X115447155Y-166147741D01*
X115443910Y-166153360D01*
X115443908Y-166153364D01*
X115354916Y-166307502D01*
X115354913Y-166307507D01*
X115351668Y-166313129D01*
X115349662Y-166319301D01*
X115349660Y-166319307D01*
X115294660Y-166488577D01*
X115294658Y-166488586D01*
X115292653Y-166494757D01*
X115291975Y-166501207D01*
X115291973Y-166501217D01*
X115274260Y-166669754D01*
X115272691Y-166684685D01*
X115273370Y-166691145D01*
X115291973Y-166868152D01*
X115291974Y-166868160D01*
X115292653Y-166874613D01*
X115294658Y-166880785D01*
X115294660Y-166880792D01*
X115349660Y-167050062D01*
X115349661Y-167050064D01*
X115351668Y-167056241D01*
X115354915Y-167061865D01*
X115354916Y-167061867D01*
X115434283Y-167199335D01*
X115447155Y-167221629D01*
X115574942Y-167363551D01*
X115580192Y-167367365D01*
X115580195Y-167367368D01*
X115656257Y-167422630D01*
X115729443Y-167475803D01*
X115903907Y-167553479D01*
X115910265Y-167554830D01*
X115910267Y-167554831D01*
X115947069Y-167562653D01*
X116090708Y-167593185D01*
X116275179Y-167593185D01*
X116281682Y-167593185D01*
X116468483Y-167553479D01*
X116642947Y-167475803D01*
X116797448Y-167363551D01*
X116925235Y-167221629D01*
X117020722Y-167056241D01*
X117029648Y-167028768D01*
X117059895Y-166979408D01*
X117525281Y-166514022D01*
X117533619Y-166506436D01*
X117540087Y-166502332D01*
X117586775Y-166452611D01*
X117589393Y-166449910D01*
X117609203Y-166430102D01*
X117611733Y-166426840D01*
X117619313Y-166417962D01*
X117649655Y-166385653D01*
X117659491Y-166367759D01*
X117670167Y-166351506D01*
X117682682Y-166335373D01*
X117700275Y-166294717D01*
X117705410Y-166284232D01*
X117726764Y-166245392D01*
X117731842Y-166225615D01*
X117738147Y-166207201D01*
X117741037Y-166200523D01*
X117746250Y-166188477D01*
X117753181Y-166144708D01*
X117755551Y-166133271D01*
X117766569Y-166090362D01*
X117766569Y-166069947D01*
X117768096Y-166050549D01*
X117768134Y-166050304D01*
X117771289Y-166030389D01*
X117767645Y-165991839D01*
X117774426Y-165938167D01*
X117803412Y-165892491D01*
X118052024Y-165643878D01*
X118109705Y-165611244D01*
X118175958Y-165612980D01*
X118227858Y-165646044D01*
X118228253Y-165645606D01*
X118230872Y-165647964D01*
X118231853Y-165648589D01*
X118237429Y-165654782D01*
X118242679Y-165658596D01*
X118242682Y-165658599D01*
X118304860Y-165703774D01*
X118391930Y-165767034D01*
X118397863Y-165769675D01*
X118397864Y-165769676D01*
X118560028Y-165841876D01*
X118566394Y-165844710D01*
X118572752Y-165846061D01*
X118572754Y-165846062D01*
X118607959Y-165853545D01*
X118753195Y-165884416D01*
X118937666Y-165884416D01*
X118944169Y-165884416D01*
X119130970Y-165844710D01*
X119305434Y-165767034D01*
X119459935Y-165654782D01*
X119542396Y-165563200D01*
X129176346Y-165563200D01*
X129176770Y-165568317D01*
X129194061Y-165776999D01*
X129194062Y-165777007D01*
X129194486Y-165782119D01*
X129195743Y-165787086D01*
X129195745Y-165787093D01*
X129239180Y-165958610D01*
X129248412Y-165995067D01*
X129250472Y-165999763D01*
X129334592Y-166191540D01*
X129334595Y-166191545D01*
X129336652Y-166196235D01*
X129391938Y-166280856D01*
X129453998Y-166375847D01*
X129454001Y-166375851D01*
X129456800Y-166380135D01*
X129460265Y-166383899D01*
X129460269Y-166383904D01*
X129602106Y-166537980D01*
X129602109Y-166537983D01*
X129605578Y-166541751D01*
X129778928Y-166676675D01*
X129972121Y-166781227D01*
X130179888Y-166852554D01*
X130396562Y-166888711D01*
X130483807Y-166888711D01*
X130506396Y-166888711D01*
X130546278Y-166888711D01*
X133427574Y-166888711D01*
X133473776Y-166897640D01*
X133513325Y-166923141D01*
X133540523Y-166961539D01*
X133599092Y-167090821D01*
X133658352Y-167221629D01*
X133675639Y-167259786D01*
X133677254Y-167262550D01*
X133677262Y-167262564D01*
X133859165Y-167573739D01*
X133859169Y-167573746D01*
X133860783Y-167576506D01*
X133862676Y-167579089D01*
X133862678Y-167579091D01*
X133928608Y-167669020D01*
X134077694Y-167872376D01*
X134324045Y-168144223D01*
X134378033Y-168192629D01*
X134594802Y-168386987D01*
X134594809Y-168386993D01*
X134597194Y-168389131D01*
X134894209Y-168604471D01*
X134896993Y-168606078D01*
X134896995Y-168606080D01*
X135167318Y-168762187D01*
X135211905Y-168787935D01*
X135214840Y-168789246D01*
X135214846Y-168789249D01*
X135543931Y-168936239D01*
X135546873Y-168937553D01*
X135895521Y-169051721D01*
X136254108Y-169129215D01*
X136618787Y-169169202D01*
X136985646Y-169171254D01*
X137350749Y-169135348D01*
X137710180Y-169061871D01*
X138060083Y-168951610D01*
X138396704Y-168805747D01*
X138716432Y-168625849D01*
X139015838Y-168413844D01*
X139291708Y-168172008D01*
X139541085Y-167902933D01*
X139761292Y-167609508D01*
X139949967Y-167294879D01*
X140105086Y-166962422D01*
X140224986Y-166615703D01*
X140308379Y-166258443D01*
X140354372Y-165894473D01*
X140362470Y-165527697D01*
X140332588Y-165162052D01*
X140265045Y-164801459D01*
X140189766Y-164548072D01*
X140161480Y-164452862D01*
X140161479Y-164452859D01*
X140160566Y-164449786D01*
X140020272Y-164110806D01*
X139919968Y-163925454D01*
X139847196Y-163790979D01*
X139847193Y-163790974D01*
X139845668Y-163788156D01*
X139638627Y-163485297D01*
X139401371Y-163205477D01*
X139136443Y-162951700D01*
X138846687Y-162726686D01*
X138535211Y-162532851D01*
X138532340Y-162531453D01*
X138532334Y-162531450D01*
X138208236Y-162373674D01*
X138208235Y-162373673D01*
X138205356Y-162372272D01*
X138195503Y-162368682D01*
X138049135Y-162315349D01*
X137860661Y-162246674D01*
X137857549Y-162245893D01*
X137857545Y-162245892D01*
X137507933Y-162158183D01*
X137504824Y-162157403D01*
X137501662Y-162156950D01*
X137501650Y-162156948D01*
X137144836Y-162105872D01*
X137144826Y-162105871D01*
X137141661Y-162105418D01*
X137138459Y-162105294D01*
X137138454Y-162105294D01*
X136778272Y-162091398D01*
X136778260Y-162091398D01*
X136775069Y-162091275D01*
X136771877Y-162091482D01*
X136771871Y-162091483D01*
X136412188Y-162114917D01*
X136412186Y-162114917D01*
X136408981Y-162115126D01*
X136405814Y-162115665D01*
X136405808Y-162115666D01*
X136050494Y-162176176D01*
X136050475Y-162176180D01*
X136047323Y-162176717D01*
X136044238Y-162177578D01*
X136044222Y-162177582D01*
X135697075Y-162274519D01*
X135697063Y-162274522D01*
X135693976Y-162275385D01*
X135690994Y-162276561D01*
X135690982Y-162276566D01*
X135355715Y-162408893D01*
X135355701Y-162408899D01*
X135352730Y-162410072D01*
X135349892Y-162411547D01*
X135349885Y-162411551D01*
X135030090Y-162577854D01*
X135030082Y-162577858D01*
X135027245Y-162579334D01*
X135024576Y-162581094D01*
X135024567Y-162581100D01*
X134723691Y-162779589D01*
X134723682Y-162779595D01*
X134721015Y-162781355D01*
X134718543Y-162783381D01*
X134718536Y-162783387D01*
X134439806Y-163011930D01*
X134439794Y-163011940D01*
X134437323Y-163013967D01*
X134435077Y-163016235D01*
X134435059Y-163016252D01*
X134181477Y-163272388D01*
X134181466Y-163272400D01*
X134179213Y-163274676D01*
X134177208Y-163277171D01*
X134177198Y-163277183D01*
X133951468Y-163558174D01*
X133951454Y-163558193D01*
X133949454Y-163560683D01*
X133947717Y-163563373D01*
X133947707Y-163563388D01*
X133752256Y-163866216D01*
X133752251Y-163866223D01*
X133750510Y-163868922D01*
X133749061Y-163871777D01*
X133749050Y-163871797D01*
X133597845Y-164169816D01*
X133552144Y-164219383D01*
X133487264Y-164237711D01*
X130506478Y-164237711D01*
X130506396Y-164237700D01*
X130506396Y-164237689D01*
X130396562Y-164237689D01*
X130391509Y-164238532D01*
X130391499Y-164238533D01*
X130184946Y-164273001D01*
X130184934Y-164273003D01*
X130179888Y-164273846D01*
X130175038Y-164275510D01*
X130175034Y-164275512D01*
X129976973Y-164343507D01*
X129976969Y-164343508D01*
X129972121Y-164345173D01*
X129967615Y-164347611D01*
X129967607Y-164347615D01*
X129783445Y-164447280D01*
X129783440Y-164447282D01*
X129778928Y-164449725D01*
X129774882Y-164452874D01*
X129774873Y-164452880D01*
X129628979Y-164566435D01*
X129605578Y-164584649D01*
X129602115Y-164588410D01*
X129602106Y-164588419D01*
X129460269Y-164742495D01*
X129460260Y-164742505D01*
X129456800Y-164746265D01*
X129454005Y-164750542D01*
X129453998Y-164750552D01*
X129342024Y-164921942D01*
X129336652Y-164930165D01*
X129334597Y-164934848D01*
X129334592Y-164934859D01*
X129251565Y-165124145D01*
X129248412Y-165131333D01*
X129247154Y-165136298D01*
X129247153Y-165136303D01*
X129195745Y-165339306D01*
X129195743Y-165339315D01*
X129194486Y-165344281D01*
X129194062Y-165349390D01*
X129194061Y-165349400D01*
X129180517Y-165512860D01*
X129176346Y-165563200D01*
X119542396Y-165563200D01*
X119587722Y-165512860D01*
X119683209Y-165347472D01*
X119742224Y-165165844D01*
X119759663Y-164999914D01*
X119771063Y-164959495D01*
X119795300Y-164925200D01*
X121150682Y-163569819D01*
X121190911Y-163542939D01*
X121238364Y-163533500D01*
X129492691Y-163533500D01*
X129543126Y-163544220D01*
X129579021Y-163570299D01*
X129579571Y-163569690D01*
X129584400Y-163574038D01*
X129588747Y-163578866D01*
X129593997Y-163582680D01*
X129594000Y-163582683D01*
X129686661Y-163650005D01*
X129743248Y-163691118D01*
X129749181Y-163693759D01*
X129749182Y-163693760D01*
X129893261Y-163757908D01*
X129917712Y-163768794D01*
X129924070Y-163770145D01*
X129924072Y-163770146D01*
X129960874Y-163777968D01*
X130104513Y-163808500D01*
X130288984Y-163808500D01*
X130295487Y-163808500D01*
X130482288Y-163768794D01*
X130656752Y-163691118D01*
X130811253Y-163578866D01*
X130939040Y-163436944D01*
X131034527Y-163271556D01*
X131093542Y-163089928D01*
X131113504Y-162900000D01*
X131093542Y-162710072D01*
X131034527Y-162528444D01*
X130939040Y-162363056D01*
X130811253Y-162221134D01*
X130806003Y-162217319D01*
X130805999Y-162217316D01*
X130662006Y-162112699D01*
X130662004Y-162112697D01*
X130656752Y-162108882D01*
X130650824Y-162106242D01*
X130650816Y-162106238D01*
X130616103Y-162090783D01*
X130563738Y-162046842D01*
X130542615Y-161981829D01*
X130559154Y-161915502D01*
X130560518Y-161913140D01*
X130584527Y-161871556D01*
X130626266Y-161743096D01*
X130655001Y-161695275D01*
X130701792Y-161664891D01*
X130754276Y-161658449D01*
X130754513Y-161658500D01*
X130938984Y-161658500D01*
X130945487Y-161658500D01*
X131132288Y-161618794D01*
X131306752Y-161541118D01*
X131461253Y-161428866D01*
X131589040Y-161286944D01*
X131684527Y-161121556D01*
X131743542Y-160939928D01*
X131757355Y-160808498D01*
X131780358Y-160748575D01*
X131830240Y-160708182D01*
X131906752Y-160674118D01*
X132061253Y-160561866D01*
X132189040Y-160419944D01*
X132284527Y-160254556D01*
X132343542Y-160072928D01*
X132363504Y-159883000D01*
X132343542Y-159693072D01*
X132332515Y-159659137D01*
X132329872Y-159591872D01*
X132362762Y-159533140D01*
X132576087Y-159319816D01*
X132616314Y-159292939D01*
X132663766Y-159283500D01*
X136168154Y-159283500D01*
X136179437Y-159284031D01*
X136186909Y-159285702D01*
X136255017Y-159283560D01*
X136258913Y-159283500D01*
X136282958Y-159283500D01*
X136286856Y-159283500D01*
X136290724Y-159283011D01*
X136290947Y-159282983D01*
X136302608Y-159282064D01*
X136346889Y-159280673D01*
X136366490Y-159274977D01*
X136385541Y-159271032D01*
X136405797Y-159268474D01*
X136437022Y-159256110D01*
X136446993Y-159252163D01*
X136458043Y-159248379D01*
X136500593Y-159236018D01*
X136518165Y-159225625D01*
X136535632Y-159217068D01*
X136554617Y-159209552D01*
X136590475Y-159183498D01*
X136600223Y-159177096D01*
X136638362Y-159154542D01*
X136652793Y-159140110D01*
X136667588Y-159127472D01*
X136684107Y-159115472D01*
X136712360Y-159081318D01*
X136720203Y-159072699D01*
X137134229Y-158658674D01*
X144375000Y-158658674D01*
X144378450Y-158671549D01*
X144391326Y-158675000D01*
X145333674Y-158675000D01*
X145346549Y-158671549D01*
X145350000Y-158658674D01*
X145850000Y-158658674D01*
X145853450Y-158671549D01*
X145866326Y-158675000D01*
X146808673Y-158675000D01*
X146821548Y-158671549D01*
X146824999Y-158658674D01*
X146824999Y-158540671D01*
X146824678Y-158534388D01*
X146815194Y-158441540D01*
X146812376Y-158428377D01*
X146761629Y-158275232D01*
X146755567Y-158262233D01*
X146671109Y-158125305D01*
X146662205Y-158114044D01*
X146548455Y-158000294D01*
X146537194Y-157991390D01*
X146400266Y-157906932D01*
X146387267Y-157900870D01*
X146234125Y-157850124D01*
X146220958Y-157847305D01*
X146128109Y-157837819D01*
X146121832Y-157837500D01*
X145866326Y-157837500D01*
X145853450Y-157840950D01*
X145850000Y-157853826D01*
X145850000Y-158658674D01*
X145350000Y-158658674D01*
X145350000Y-157853827D01*
X145346549Y-157840951D01*
X145333674Y-157837501D01*
X145078171Y-157837501D01*
X145071888Y-157837821D01*
X144979040Y-157847305D01*
X144965877Y-157850123D01*
X144812732Y-157900870D01*
X144799733Y-157906932D01*
X144662805Y-157991390D01*
X144651544Y-158000294D01*
X144537794Y-158114044D01*
X144528890Y-158125305D01*
X144444432Y-158262233D01*
X144438370Y-158275232D01*
X144387624Y-158428374D01*
X144384805Y-158441541D01*
X144375319Y-158534390D01*
X144375000Y-158540668D01*
X144375000Y-158658674D01*
X137134229Y-158658674D01*
X137398084Y-158394819D01*
X137438313Y-158367939D01*
X137485766Y-158358500D01*
X139092328Y-158358500D01*
X139095638Y-158358500D01*
X139156201Y-158351989D01*
X139293204Y-158300889D01*
X139410261Y-158213261D01*
X139497889Y-158096204D01*
X139548989Y-157959201D01*
X139555500Y-157898638D01*
X139555500Y-157261748D01*
X139573773Y-157196958D01*
X139623205Y-157151263D01*
X139689229Y-157138130D01*
X139752385Y-157161430D01*
X139787988Y-157187297D01*
X139787992Y-157187299D01*
X139793248Y-157191118D01*
X139967712Y-157268794D01*
X139974070Y-157270145D01*
X139974072Y-157270146D01*
X140010874Y-157277968D01*
X140154513Y-157308500D01*
X140338984Y-157308500D01*
X140345487Y-157308500D01*
X140532288Y-157268794D01*
X140706752Y-157191118D01*
X140861253Y-157078866D01*
X140989040Y-156936944D01*
X141084527Y-156771556D01*
X141143542Y-156589928D01*
X141163504Y-156400000D01*
X141143542Y-156210072D01*
X141084527Y-156028444D01*
X140989040Y-155863056D01*
X140861253Y-155721134D01*
X140856003Y-155717319D01*
X140855999Y-155717316D01*
X140712006Y-155612699D01*
X140712004Y-155612697D01*
X140706752Y-155608882D01*
X140700821Y-155606241D01*
X140700817Y-155606239D01*
X140538226Y-155533849D01*
X140538219Y-155533846D01*
X140532288Y-155531206D01*
X140525935Y-155529855D01*
X140525927Y-155529853D01*
X140351849Y-155492852D01*
X140351846Y-155492851D01*
X140345487Y-155491500D01*
X140154513Y-155491500D01*
X140148154Y-155492851D01*
X140148150Y-155492852D01*
X139974072Y-155529853D01*
X139974061Y-155529856D01*
X139967712Y-155531206D01*
X139961782Y-155533845D01*
X139961773Y-155533849D01*
X139799182Y-155606239D01*
X139799174Y-155606243D01*
X139793248Y-155608882D01*
X139787998Y-155612695D01*
X139787988Y-155612702D01*
X139752385Y-155638570D01*
X139689229Y-155661870D01*
X139623205Y-155648737D01*
X139573773Y-155603042D01*
X139555500Y-155538252D01*
X139555500Y-155404672D01*
X139555500Y-155401362D01*
X139548989Y-155340799D01*
X139497889Y-155203796D01*
X139410261Y-155086739D01*
X139293204Y-154999111D01*
X139284896Y-154996012D01*
X139284894Y-154996011D01*
X139163463Y-154950719D01*
X139163458Y-154950717D01*
X139156201Y-154948011D01*
X139148497Y-154947182D01*
X139148494Y-154947182D01*
X139098924Y-154941853D01*
X139098918Y-154941852D01*
X139095638Y-154941500D01*
X137398362Y-154941500D01*
X137395082Y-154941852D01*
X137395075Y-154941853D01*
X137345505Y-154947182D01*
X137345500Y-154947182D01*
X137337799Y-154948011D01*
X137330543Y-154950717D01*
X137330536Y-154950719D01*
X137209105Y-154996011D01*
X137209099Y-154996013D01*
X137200796Y-154999111D01*
X137193698Y-155004423D01*
X137193695Y-155004426D01*
X137090835Y-155081426D01*
X137090831Y-155081429D01*
X137083739Y-155086739D01*
X137078429Y-155093831D01*
X137078426Y-155093835D01*
X137001426Y-155196695D01*
X137001423Y-155196698D01*
X136996111Y-155203796D01*
X136993013Y-155212099D01*
X136993011Y-155212105D01*
X136947719Y-155333536D01*
X136947717Y-155333543D01*
X136945011Y-155340799D01*
X136944182Y-155348502D01*
X136942676Y-155354880D01*
X136911232Y-155412466D01*
X136854805Y-155445945D01*
X136789195Y-155445945D01*
X136732768Y-155412466D01*
X136701324Y-155354880D01*
X136699817Y-155348504D01*
X136698989Y-155340799D01*
X136647889Y-155203796D01*
X136560261Y-155086739D01*
X136443204Y-154999111D01*
X136434896Y-154996012D01*
X136434894Y-154996011D01*
X136313463Y-154950719D01*
X136313458Y-154950717D01*
X136306201Y-154948011D01*
X136298497Y-154947182D01*
X136298494Y-154947182D01*
X136248924Y-154941853D01*
X136248918Y-154941852D01*
X136245638Y-154941500D01*
X136242328Y-154941500D01*
X134635766Y-154941500D01*
X134588313Y-154932061D01*
X134548085Y-154905181D01*
X129717385Y-150074480D01*
X129690505Y-150034252D01*
X129681066Y-149986799D01*
X129681066Y-148831814D01*
X129697254Y-148770555D01*
X129741592Y-148725291D01*
X129802504Y-148707840D01*
X129864081Y-148722758D01*
X129972121Y-148781227D01*
X130179888Y-148852554D01*
X130396562Y-148888711D01*
X130483807Y-148888711D01*
X130506396Y-148888711D01*
X130546278Y-148888711D01*
X133427574Y-148888711D01*
X133473776Y-148897640D01*
X133513325Y-148923141D01*
X133540523Y-148961539D01*
X133675639Y-149259786D01*
X133677254Y-149262550D01*
X133677262Y-149262564D01*
X133859165Y-149573739D01*
X133859169Y-149573746D01*
X133860783Y-149576506D01*
X134077694Y-149872376D01*
X134324045Y-150144223D01*
X134420409Y-150230624D01*
X134594802Y-150386987D01*
X134594809Y-150386993D01*
X134597194Y-150389131D01*
X134894209Y-150604471D01*
X134896993Y-150606078D01*
X134896995Y-150606080D01*
X135124869Y-150737673D01*
X135211905Y-150787935D01*
X135214840Y-150789246D01*
X135214846Y-150789249D01*
X135543931Y-150936239D01*
X135546873Y-150937553D01*
X135895521Y-151051721D01*
X136254108Y-151129215D01*
X136618787Y-151169202D01*
X136985646Y-151171254D01*
X137350749Y-151135348D01*
X137710180Y-151061871D01*
X138060083Y-150951610D01*
X138396704Y-150805747D01*
X138716432Y-150625849D01*
X139015838Y-150413844D01*
X139291708Y-150172008D01*
X139541085Y-149902933D01*
X139761292Y-149609508D01*
X139949967Y-149294879D01*
X140105086Y-148962422D01*
X140224986Y-148615703D01*
X140308379Y-148258443D01*
X140354372Y-147894473D01*
X140362470Y-147527697D01*
X140332588Y-147162052D01*
X140265045Y-146801459D01*
X140160566Y-146449786D01*
X140147642Y-146418560D01*
X140055902Y-146196895D01*
X140020272Y-146110806D01*
X139845668Y-145788156D01*
X139638627Y-145485297D01*
X139401371Y-145205477D01*
X139136443Y-144951700D01*
X138846687Y-144726686D01*
X138535211Y-144532851D01*
X138532340Y-144531453D01*
X138532334Y-144531450D01*
X138208236Y-144373674D01*
X138208235Y-144373673D01*
X138205356Y-144372272D01*
X137860661Y-144246674D01*
X137857549Y-144245893D01*
X137857545Y-144245892D01*
X137507933Y-144158183D01*
X137504824Y-144157403D01*
X137501662Y-144156950D01*
X137501650Y-144156948D01*
X137144836Y-144105872D01*
X137144826Y-144105871D01*
X137141661Y-144105418D01*
X137138459Y-144105294D01*
X137138454Y-144105294D01*
X136778272Y-144091398D01*
X136778260Y-144091398D01*
X136775069Y-144091275D01*
X136771877Y-144091482D01*
X136771871Y-144091483D01*
X136412188Y-144114917D01*
X136412186Y-144114917D01*
X136408981Y-144115126D01*
X136405814Y-144115665D01*
X136405808Y-144115666D01*
X136050494Y-144176176D01*
X136050475Y-144176180D01*
X136047323Y-144176717D01*
X136044238Y-144177578D01*
X136044222Y-144177582D01*
X135697075Y-144274519D01*
X135697063Y-144274522D01*
X135693976Y-144275385D01*
X135690994Y-144276561D01*
X135690982Y-144276566D01*
X135355715Y-144408893D01*
X135355701Y-144408899D01*
X135352730Y-144410072D01*
X135349892Y-144411547D01*
X135349885Y-144411551D01*
X135030090Y-144577854D01*
X135030082Y-144577858D01*
X135027245Y-144579334D01*
X135024576Y-144581094D01*
X135024567Y-144581100D01*
X134723691Y-144779589D01*
X134723682Y-144779595D01*
X134721015Y-144781355D01*
X134718543Y-144783381D01*
X134718536Y-144783387D01*
X134439806Y-145011930D01*
X134439794Y-145011940D01*
X134437323Y-145013967D01*
X134435077Y-145016235D01*
X134435059Y-145016252D01*
X134181477Y-145272388D01*
X134181466Y-145272400D01*
X134179213Y-145274676D01*
X134177208Y-145277171D01*
X134177198Y-145277183D01*
X133951468Y-145558174D01*
X133951454Y-145558193D01*
X133949454Y-145560683D01*
X133947717Y-145563373D01*
X133947707Y-145563388D01*
X133752256Y-145866216D01*
X133752251Y-145866223D01*
X133750510Y-145868922D01*
X133749061Y-145871777D01*
X133749050Y-145871797D01*
X133597845Y-146169816D01*
X133552144Y-146219383D01*
X133487264Y-146237711D01*
X130506478Y-146237711D01*
X130506396Y-146237700D01*
X130506396Y-146237689D01*
X130396562Y-146237689D01*
X130391509Y-146238532D01*
X130391499Y-146238533D01*
X130184946Y-146273001D01*
X130184934Y-146273003D01*
X130179888Y-146273846D01*
X130175038Y-146275510D01*
X130175034Y-146275512D01*
X129976973Y-146343507D01*
X129976969Y-146343508D01*
X129972121Y-146345173D01*
X129864081Y-146403641D01*
X129802504Y-146418560D01*
X129741592Y-146401109D01*
X129697254Y-146355845D01*
X129681066Y-146294586D01*
X129681066Y-145213200D01*
X129690505Y-145165747D01*
X129717385Y-145125519D01*
X134548085Y-140294819D01*
X134588313Y-140267939D01*
X134635766Y-140258500D01*
X136242328Y-140258500D01*
X136245638Y-140258500D01*
X136306201Y-140251989D01*
X136443204Y-140200889D01*
X136560261Y-140113261D01*
X136647889Y-139996204D01*
X136698989Y-139859201D01*
X136699817Y-139851493D01*
X136701324Y-139845119D01*
X136732768Y-139787534D01*
X136789194Y-139754054D01*
X136854806Y-139754054D01*
X136911232Y-139787534D01*
X136942676Y-139845119D01*
X136944182Y-139851495D01*
X136945011Y-139859201D01*
X136947717Y-139866458D01*
X136947719Y-139866463D01*
X136993011Y-139987894D01*
X136996111Y-139996204D01*
X137083739Y-140113261D01*
X137200796Y-140200889D01*
X137337799Y-140251989D01*
X137398362Y-140258500D01*
X139092328Y-140258500D01*
X139095638Y-140258500D01*
X139156201Y-140251989D01*
X139293204Y-140200889D01*
X139405000Y-140117199D01*
X139465027Y-140093292D01*
X139528934Y-140102830D01*
X139579366Y-140143224D01*
X139602630Y-140203506D01*
X139605778Y-140233467D01*
X139605779Y-140233475D01*
X139606458Y-140239928D01*
X139608463Y-140246100D01*
X139608465Y-140246107D01*
X139612377Y-140258146D01*
X139665473Y-140421556D01*
X139760960Y-140586944D01*
X139888747Y-140728866D01*
X139893997Y-140732680D01*
X139894000Y-140732683D01*
X140036863Y-140836479D01*
X140043248Y-140841118D01*
X140217712Y-140918794D01*
X140224070Y-140920145D01*
X140224072Y-140920146D01*
X140260874Y-140927968D01*
X140404513Y-140958500D01*
X140588984Y-140958500D01*
X140595487Y-140958500D01*
X140782288Y-140918794D01*
X140956752Y-140841118D01*
X141111253Y-140728866D01*
X141239040Y-140586944D01*
X141334527Y-140421556D01*
X141393542Y-140239928D01*
X141413504Y-140050000D01*
X141393542Y-139860072D01*
X141334527Y-139678444D01*
X141239040Y-139513056D01*
X141111253Y-139371134D01*
X141106003Y-139367319D01*
X141105999Y-139367316D01*
X140962006Y-139262699D01*
X140962004Y-139262697D01*
X140956752Y-139258882D01*
X140950821Y-139256241D01*
X140950817Y-139256239D01*
X140788226Y-139183849D01*
X140788219Y-139183846D01*
X140782288Y-139181206D01*
X140775935Y-139179855D01*
X140775927Y-139179853D01*
X140601849Y-139142852D01*
X140601846Y-139142851D01*
X140595487Y-139141500D01*
X140588984Y-139141500D01*
X140538767Y-139141500D01*
X140491314Y-139132061D01*
X140451086Y-139105181D01*
X139591819Y-138245914D01*
X139564939Y-138205686D01*
X139555500Y-138158233D01*
X139555500Y-137304672D01*
X139555500Y-137301362D01*
X139548989Y-137240799D01*
X139497889Y-137103796D01*
X139410261Y-136986739D01*
X139293204Y-136899111D01*
X139284896Y-136896012D01*
X139284894Y-136896011D01*
X139163463Y-136850719D01*
X139163458Y-136850717D01*
X139156201Y-136848011D01*
X139148497Y-136847182D01*
X139148494Y-136847182D01*
X139098924Y-136841853D01*
X139098918Y-136841852D01*
X139095638Y-136841500D01*
X137398362Y-136841500D01*
X137395082Y-136841852D01*
X137395075Y-136841853D01*
X137345505Y-136847182D01*
X137345500Y-136847182D01*
X137337799Y-136848011D01*
X137330543Y-136850717D01*
X137330536Y-136850719D01*
X137209105Y-136896011D01*
X137209099Y-136896013D01*
X137200796Y-136899111D01*
X137193698Y-136904423D01*
X137193695Y-136904426D01*
X137090835Y-136981426D01*
X137090831Y-136981429D01*
X137083739Y-136986739D01*
X137078429Y-136993831D01*
X137078426Y-136993835D01*
X137001426Y-137096695D01*
X137001423Y-137096698D01*
X136996111Y-137103796D01*
X136993013Y-137112099D01*
X136993011Y-137112105D01*
X136947719Y-137233536D01*
X136947717Y-137233543D01*
X136945011Y-137240799D01*
X136944182Y-137248502D01*
X136942676Y-137254880D01*
X136911232Y-137312466D01*
X136854805Y-137345945D01*
X136789195Y-137345945D01*
X136732768Y-137312466D01*
X136701324Y-137254880D01*
X136699817Y-137248504D01*
X136698989Y-137240799D01*
X136647889Y-137103796D01*
X136560261Y-136986739D01*
X136443204Y-136899111D01*
X136434896Y-136896012D01*
X136434894Y-136896011D01*
X136313463Y-136850719D01*
X136313458Y-136850717D01*
X136306201Y-136848011D01*
X136298497Y-136847182D01*
X136298494Y-136847182D01*
X136248924Y-136841853D01*
X136248918Y-136841852D01*
X136245638Y-136841500D01*
X136242328Y-136841500D01*
X134635767Y-136841500D01*
X134588314Y-136832061D01*
X134548086Y-136805181D01*
X131595553Y-133852648D01*
X144212273Y-133852648D01*
X144213163Y-133863959D01*
X144248308Y-133972125D01*
X144253564Y-133983930D01*
X144344288Y-134141069D01*
X144351883Y-134151523D01*
X144473298Y-134286367D01*
X144482898Y-134295012D01*
X144629697Y-134401668D01*
X144640886Y-134408128D01*
X144806652Y-134481931D01*
X144818937Y-134485923D01*
X144836449Y-134489645D01*
X144847549Y-134489500D01*
X144850000Y-134478672D01*
X145350000Y-134478672D01*
X145352450Y-134489500D01*
X145363550Y-134489645D01*
X145381062Y-134485923D01*
X145393347Y-134481931D01*
X145559113Y-134408128D01*
X145570302Y-134401668D01*
X145717101Y-134295012D01*
X145726701Y-134286367D01*
X145848116Y-134151523D01*
X145855711Y-134141069D01*
X145946435Y-133983930D01*
X145951691Y-133972125D01*
X145986836Y-133863959D01*
X145987726Y-133852648D01*
X145976696Y-133850000D01*
X145366326Y-133850000D01*
X145353450Y-133853450D01*
X145350000Y-133866326D01*
X145350000Y-134478672D01*
X144850000Y-134478672D01*
X144850000Y-133866326D01*
X144846549Y-133853450D01*
X144833674Y-133850000D01*
X144223304Y-133850000D01*
X144212273Y-133852648D01*
X131595553Y-133852648D01*
X129719320Y-131976415D01*
X129692440Y-131936187D01*
X129683001Y-131888734D01*
X129683001Y-130832861D01*
X129699189Y-130771602D01*
X129743527Y-130726338D01*
X129804439Y-130708887D01*
X129866016Y-130723805D01*
X129972121Y-130781227D01*
X130179888Y-130852554D01*
X130396562Y-130888711D01*
X130483807Y-130888711D01*
X130506396Y-130888711D01*
X130546278Y-130888711D01*
X133427574Y-130888711D01*
X133473776Y-130897640D01*
X133513325Y-130923141D01*
X133540523Y-130961539D01*
X133675639Y-131259786D01*
X133677254Y-131262550D01*
X133677262Y-131262564D01*
X133859165Y-131573739D01*
X133859169Y-131573746D01*
X133860783Y-131576506D01*
X133862676Y-131579089D01*
X133862678Y-131579091D01*
X133916984Y-131653165D01*
X134077694Y-131872376D01*
X134324045Y-132144223D01*
X134444540Y-132252260D01*
X134594802Y-132386987D01*
X134594809Y-132386993D01*
X134597194Y-132389131D01*
X134826806Y-132555603D01*
X134879577Y-132593863D01*
X134894209Y-132604471D01*
X134896993Y-132606078D01*
X134896995Y-132606080D01*
X135167318Y-132762187D01*
X135211905Y-132787935D01*
X135214840Y-132789246D01*
X135214846Y-132789249D01*
X135543931Y-132936239D01*
X135546873Y-132937553D01*
X135895521Y-133051721D01*
X136254108Y-133129215D01*
X136618787Y-133169202D01*
X136985646Y-133171254D01*
X137350749Y-133135348D01*
X137710180Y-133061871D01*
X138060083Y-132951610D01*
X138396704Y-132805747D01*
X138716432Y-132625849D01*
X138752937Y-132600000D01*
X144161358Y-132600000D01*
X144162037Y-132606460D01*
X144181190Y-132788693D01*
X144181191Y-132788700D01*
X144181870Y-132795155D01*
X144242508Y-132981780D01*
X144272792Y-133034234D01*
X144279874Y-133046500D01*
X144296486Y-133108498D01*
X144279874Y-133170497D01*
X144253565Y-133216066D01*
X144248308Y-133227873D01*
X144213163Y-133336040D01*
X144212273Y-133347351D01*
X144223304Y-133350000D01*
X144503832Y-133350000D01*
X144542150Y-133356069D01*
X144576713Y-133373679D01*
X144630679Y-133412888D01*
X144809944Y-133492702D01*
X144816302Y-133494053D01*
X144816304Y-133494054D01*
X144857015Y-133502707D01*
X145001885Y-133533500D01*
X145191612Y-133533500D01*
X145198115Y-133533500D01*
X145390056Y-133492702D01*
X145569321Y-133412888D01*
X145623286Y-133373679D01*
X145657850Y-133356069D01*
X145696168Y-133350000D01*
X145976696Y-133350000D01*
X145987726Y-133347351D01*
X145986836Y-133336040D01*
X145951691Y-133227874D01*
X145946437Y-133216074D01*
X145920125Y-133170500D01*
X145903512Y-133108498D01*
X145920124Y-133046502D01*
X145957492Y-132981780D01*
X146018130Y-132795155D01*
X146038642Y-132600000D01*
X146018130Y-132404845D01*
X145957492Y-132218220D01*
X145925032Y-132161998D01*
X145908420Y-132100000D01*
X145925034Y-132037999D01*
X145954241Y-131987411D01*
X145954241Y-131987410D01*
X145957492Y-131981780D01*
X146018130Y-131795155D01*
X146038642Y-131600000D01*
X146018130Y-131404845D01*
X145988622Y-131314028D01*
X145982581Y-131273054D01*
X145990371Y-131232376D01*
X146026989Y-131134201D01*
X146033500Y-131073638D01*
X146033500Y-130126362D01*
X146026989Y-130065799D01*
X145975889Y-129928796D01*
X145888261Y-129811739D01*
X145876850Y-129803197D01*
X145778304Y-129729426D01*
X145778303Y-129729425D01*
X145771204Y-129724111D01*
X145762896Y-129721012D01*
X145762894Y-129721011D01*
X145641463Y-129675719D01*
X145641458Y-129675717D01*
X145634201Y-129673011D01*
X145626497Y-129672182D01*
X145626494Y-129672182D01*
X145576924Y-129666853D01*
X145576918Y-129666852D01*
X145573638Y-129666500D01*
X144626362Y-129666500D01*
X144623082Y-129666852D01*
X144623075Y-129666853D01*
X144573505Y-129672182D01*
X144573500Y-129672182D01*
X144565799Y-129673011D01*
X144558543Y-129675717D01*
X144558536Y-129675719D01*
X144437105Y-129721011D01*
X144437099Y-129721013D01*
X144428796Y-129724111D01*
X144421698Y-129729423D01*
X144421695Y-129729426D01*
X144318835Y-129806426D01*
X144318831Y-129806429D01*
X144311739Y-129811739D01*
X144306429Y-129818831D01*
X144306426Y-129818835D01*
X144229426Y-129921695D01*
X144229423Y-129921698D01*
X144224111Y-129928796D01*
X144221013Y-129937099D01*
X144221011Y-129937105D01*
X144175719Y-130058536D01*
X144175717Y-130058543D01*
X144173011Y-130065799D01*
X144172182Y-130073500D01*
X144172182Y-130073505D01*
X144169316Y-130100165D01*
X144166500Y-130126362D01*
X144166500Y-131073638D01*
X144173011Y-131134201D01*
X144175717Y-131141458D01*
X144175719Y-131141463D01*
X144209628Y-131232375D01*
X144217418Y-131273052D01*
X144211378Y-131314025D01*
X144181870Y-131404845D01*
X144181191Y-131411301D01*
X144181190Y-131411308D01*
X144175471Y-131465724D01*
X144161358Y-131600000D01*
X144162037Y-131606460D01*
X144181190Y-131788693D01*
X144181191Y-131788700D01*
X144181870Y-131795155D01*
X144183878Y-131801335D01*
X144216057Y-131900374D01*
X144242508Y-131981780D01*
X144270851Y-132030871D01*
X144274967Y-132038001D01*
X144291579Y-132100000D01*
X144274966Y-132161999D01*
X144242508Y-132218220D01*
X144240502Y-132224392D01*
X144240500Y-132224398D01*
X144186363Y-132391017D01*
X144181870Y-132404845D01*
X144181191Y-132411297D01*
X144181190Y-132411306D01*
X144166024Y-132555603D01*
X144161358Y-132600000D01*
X138752937Y-132600000D01*
X139015838Y-132413844D01*
X139291708Y-132172008D01*
X139541085Y-131902933D01*
X139761292Y-131609508D01*
X139949967Y-131294879D01*
X140105086Y-130962422D01*
X140224986Y-130615703D01*
X140308379Y-130258443D01*
X140354372Y-129894473D01*
X140362470Y-129527697D01*
X140332588Y-129162052D01*
X140265045Y-128801459D01*
X140160566Y-128449786D01*
X140020272Y-128110806D01*
X139955057Y-127990296D01*
X139847196Y-127790979D01*
X139847193Y-127790974D01*
X139845668Y-127788156D01*
X139638627Y-127485297D01*
X139401371Y-127205477D01*
X139136443Y-126951700D01*
X138846687Y-126726686D01*
X138535211Y-126532851D01*
X138532340Y-126531453D01*
X138532334Y-126531450D01*
X138208236Y-126373674D01*
X138208235Y-126373673D01*
X138205356Y-126372272D01*
X137860661Y-126246674D01*
X137857549Y-126245893D01*
X137857545Y-126245892D01*
X137507933Y-126158183D01*
X137504824Y-126157403D01*
X137501662Y-126156950D01*
X137501650Y-126156948D01*
X137144836Y-126105872D01*
X137144826Y-126105871D01*
X137141661Y-126105418D01*
X137138459Y-126105294D01*
X137138454Y-126105294D01*
X136778272Y-126091398D01*
X136778260Y-126091398D01*
X136775069Y-126091275D01*
X136771877Y-126091482D01*
X136771871Y-126091483D01*
X136412188Y-126114917D01*
X136412186Y-126114917D01*
X136408981Y-126115126D01*
X136405814Y-126115665D01*
X136405808Y-126115666D01*
X136050494Y-126176176D01*
X136050475Y-126176180D01*
X136047323Y-126176717D01*
X136044238Y-126177578D01*
X136044222Y-126177582D01*
X135697075Y-126274519D01*
X135697063Y-126274522D01*
X135693976Y-126275385D01*
X135690994Y-126276561D01*
X135690982Y-126276566D01*
X135355715Y-126408893D01*
X135355701Y-126408899D01*
X135352730Y-126410072D01*
X135349892Y-126411547D01*
X135349885Y-126411551D01*
X135030090Y-126577854D01*
X135030082Y-126577858D01*
X135027245Y-126579334D01*
X135024576Y-126581094D01*
X135024567Y-126581100D01*
X134723691Y-126779589D01*
X134723682Y-126779595D01*
X134721015Y-126781355D01*
X134718543Y-126783381D01*
X134718536Y-126783387D01*
X134439806Y-127011930D01*
X134439794Y-127011940D01*
X134437323Y-127013967D01*
X134435077Y-127016235D01*
X134435059Y-127016252D01*
X134181477Y-127272388D01*
X134181466Y-127272400D01*
X134179213Y-127274676D01*
X134177208Y-127277171D01*
X134177198Y-127277183D01*
X133951468Y-127558174D01*
X133951454Y-127558193D01*
X133949454Y-127560683D01*
X133947717Y-127563373D01*
X133947707Y-127563388D01*
X133752256Y-127866216D01*
X133752251Y-127866223D01*
X133750510Y-127868922D01*
X133749061Y-127871777D01*
X133749050Y-127871797D01*
X133597845Y-128169816D01*
X133552144Y-128219383D01*
X133487264Y-128237711D01*
X130506478Y-128237711D01*
X130506396Y-128237700D01*
X130506396Y-128237689D01*
X130396562Y-128237689D01*
X130391509Y-128238532D01*
X130391499Y-128238533D01*
X130184946Y-128273001D01*
X130184934Y-128273003D01*
X130179888Y-128273846D01*
X130175038Y-128275510D01*
X130175034Y-128275512D01*
X129976973Y-128343507D01*
X129976969Y-128343508D01*
X129972121Y-128345173D01*
X129866016Y-128402594D01*
X129804439Y-128417513D01*
X129743527Y-128400062D01*
X129699189Y-128354798D01*
X129683001Y-128293539D01*
X129683001Y-128188863D01*
X129692440Y-128141410D01*
X129719320Y-128101182D01*
X130270446Y-127550056D01*
X131930397Y-125890103D01*
X131945184Y-125877474D01*
X131961705Y-125865472D01*
X131989958Y-125831318D01*
X131997801Y-125822699D01*
X133359502Y-124461000D01*
X134739716Y-123080785D01*
X134748051Y-123073201D01*
X134754517Y-123069099D01*
X134801190Y-123019395D01*
X134803807Y-123016694D01*
X134823634Y-122996869D01*
X134826159Y-122993612D01*
X134833750Y-122984723D01*
X134864085Y-122952420D01*
X134873922Y-122934524D01*
X134884595Y-122918276D01*
X134897113Y-122902140D01*
X134914714Y-122861463D01*
X134919849Y-122850983D01*
X134937434Y-122818998D01*
X134937433Y-122818998D01*
X134941194Y-122812159D01*
X134946273Y-122792372D01*
X134952569Y-122773984D01*
X134960680Y-122755244D01*
X134967611Y-122711475D01*
X134969981Y-122700038D01*
X134975410Y-122678894D01*
X134980999Y-122657129D01*
X134980999Y-122636714D01*
X134982526Y-122617316D01*
X134982661Y-122616463D01*
X134985719Y-122597156D01*
X134981549Y-122553041D01*
X134980999Y-122541372D01*
X134980999Y-122432500D01*
X134997612Y-122370500D01*
X135042999Y-122325113D01*
X135104999Y-122308500D01*
X135977684Y-122308500D01*
X136039684Y-122325113D01*
X136085071Y-122370501D01*
X136101684Y-122432501D01*
X136085071Y-122494497D01*
X136065473Y-122528444D01*
X136063467Y-122534616D01*
X136063465Y-122534622D01*
X136008465Y-122703892D01*
X136008463Y-122703901D01*
X136006458Y-122710072D01*
X136005780Y-122716522D01*
X136005778Y-122716532D01*
X135989099Y-122875236D01*
X135986496Y-122900000D01*
X135987175Y-122906460D01*
X136005778Y-123083467D01*
X136005779Y-123083475D01*
X136006458Y-123089928D01*
X136008463Y-123096100D01*
X136008465Y-123096107D01*
X136059757Y-123253965D01*
X136065473Y-123271556D01*
X136068720Y-123277180D01*
X136068721Y-123277182D01*
X136130910Y-123384897D01*
X136160960Y-123436944D01*
X136288747Y-123578866D01*
X136293997Y-123582680D01*
X136294000Y-123582683D01*
X136358438Y-123629500D01*
X136443248Y-123691118D01*
X136449181Y-123693759D01*
X136449182Y-123693760D01*
X136585440Y-123754426D01*
X136617712Y-123768794D01*
X136624070Y-123770145D01*
X136624072Y-123770146D01*
X136660874Y-123777968D01*
X136804513Y-123808500D01*
X136988984Y-123808500D01*
X136995487Y-123808500D01*
X137182288Y-123768794D01*
X137356752Y-123691118D01*
X137511253Y-123578866D01*
X137639040Y-123436944D01*
X137734527Y-123271556D01*
X137793542Y-123089928D01*
X137813504Y-122900000D01*
X137793542Y-122710072D01*
X137734527Y-122528444D01*
X137714928Y-122494497D01*
X137698316Y-122432501D01*
X137714929Y-122370501D01*
X137760316Y-122325113D01*
X137822316Y-122308500D01*
X139008234Y-122308500D01*
X139055687Y-122317939D01*
X139095915Y-122344819D01*
X141930181Y-125179085D01*
X141957061Y-125219313D01*
X141966500Y-125266766D01*
X141966500Y-125598243D01*
X141958264Y-125642681D01*
X141934650Y-125681215D01*
X141865910Y-125757559D01*
X141860960Y-125763056D01*
X141857714Y-125768676D01*
X141857711Y-125768682D01*
X141768721Y-125922817D01*
X141768718Y-125922822D01*
X141765473Y-125928444D01*
X141763467Y-125934616D01*
X141763465Y-125934622D01*
X141708465Y-126103892D01*
X141708463Y-126103901D01*
X141706458Y-126110072D01*
X141705780Y-126116522D01*
X141705778Y-126116532D01*
X141691985Y-126247774D01*
X141686496Y-126300000D01*
X141687175Y-126306460D01*
X141705778Y-126483467D01*
X141705779Y-126483475D01*
X141706458Y-126489928D01*
X141708463Y-126496100D01*
X141708465Y-126496107D01*
X141763465Y-126665377D01*
X141765473Y-126671556D01*
X141768720Y-126677180D01*
X141768721Y-126677182D01*
X141828865Y-126781355D01*
X141860960Y-126836944D01*
X141988747Y-126978866D01*
X141993997Y-126982680D01*
X141994000Y-126982683D01*
X142037059Y-127013967D01*
X142143248Y-127091118D01*
X142149181Y-127093759D01*
X142149182Y-127093760D01*
X142288672Y-127155865D01*
X142317712Y-127168794D01*
X142324070Y-127170145D01*
X142324072Y-127170146D01*
X142360874Y-127177968D01*
X142504513Y-127208500D01*
X142688984Y-127208500D01*
X142695487Y-127208500D01*
X142882288Y-127168794D01*
X143056752Y-127091118D01*
X143211253Y-126978866D01*
X143339040Y-126836944D01*
X143434527Y-126671556D01*
X143493542Y-126489928D01*
X143513504Y-126300000D01*
X143493542Y-126110072D01*
X143434527Y-125928444D01*
X143339040Y-125763056D01*
X143265349Y-125681214D01*
X143241736Y-125642681D01*
X143233500Y-125598243D01*
X143233500Y-125506843D01*
X143250113Y-125444843D01*
X143295500Y-125399456D01*
X143357500Y-125382843D01*
X143419500Y-125399456D01*
X143464887Y-125444843D01*
X143497161Y-125500743D01*
X143624948Y-125642665D01*
X143630198Y-125646479D01*
X143630201Y-125646482D01*
X143678007Y-125681215D01*
X143779449Y-125754917D01*
X143785382Y-125757558D01*
X143785383Y-125757559D01*
X143931665Y-125822688D01*
X143953913Y-125832593D01*
X143960271Y-125833944D01*
X143960273Y-125833945D01*
X143997075Y-125841767D01*
X144140714Y-125872299D01*
X144197435Y-125872299D01*
X144244888Y-125881738D01*
X144285116Y-125908618D01*
X144580181Y-126203683D01*
X144607061Y-126243911D01*
X144616500Y-126291364D01*
X144616500Y-127548243D01*
X144608264Y-127592681D01*
X144584650Y-127631214D01*
X144510960Y-127713056D01*
X144507714Y-127718676D01*
X144507711Y-127718682D01*
X144418721Y-127872817D01*
X144418718Y-127872822D01*
X144415473Y-127878444D01*
X144413467Y-127884616D01*
X144413465Y-127884622D01*
X144358465Y-128053892D01*
X144358463Y-128053901D01*
X144356458Y-128060072D01*
X144355780Y-128066522D01*
X144355778Y-128066532D01*
X144342077Y-128196895D01*
X144336496Y-128250000D01*
X144337175Y-128256460D01*
X144355778Y-128433467D01*
X144355779Y-128433475D01*
X144356458Y-128439928D01*
X144358463Y-128446100D01*
X144358465Y-128446107D01*
X144413465Y-128615377D01*
X144415473Y-128621556D01*
X144418720Y-128627180D01*
X144418721Y-128627182D01*
X144501141Y-128769938D01*
X144510960Y-128786944D01*
X144638747Y-128928866D01*
X144643997Y-128932680D01*
X144644000Y-128932683D01*
X144786863Y-129036479D01*
X144793248Y-129041118D01*
X144799181Y-129043759D01*
X144799182Y-129043760D01*
X144915064Y-129095354D01*
X144967712Y-129118794D01*
X144974070Y-129120145D01*
X144974072Y-129120146D01*
X145010874Y-129127968D01*
X145154513Y-129158500D01*
X145338984Y-129158500D01*
X145345487Y-129158500D01*
X145532288Y-129118794D01*
X145706752Y-129041118D01*
X145861253Y-128928866D01*
X145989040Y-128786944D01*
X146084527Y-128621556D01*
X146143542Y-128439928D01*
X146163504Y-128250000D01*
X146143542Y-128060072D01*
X146084527Y-127878444D01*
X145989040Y-127713056D01*
X145915349Y-127631214D01*
X145891736Y-127592681D01*
X145883500Y-127548243D01*
X145883500Y-126781767D01*
X145897015Y-126725472D01*
X145934615Y-126681449D01*
X145988102Y-126659294D01*
X146045818Y-126663836D01*
X146095181Y-126694086D01*
X151576181Y-132175086D01*
X151603061Y-132215314D01*
X151612500Y-132262767D01*
X151612500Y-165841876D01*
X151611968Y-165853160D01*
X151610298Y-165860632D01*
X151610542Y-165868421D01*
X151610542Y-165868430D01*
X151611410Y-165896027D01*
X151605403Y-165938235D01*
X151594244Y-165972581D01*
X151593565Y-165979037D01*
X151593564Y-165979044D01*
X151577355Y-166133271D01*
X151574282Y-166162509D01*
X151574961Y-166168969D01*
X151593564Y-166345976D01*
X151593565Y-166345984D01*
X151594244Y-166352437D01*
X151596249Y-166358609D01*
X151596251Y-166358616D01*
X151644193Y-166506164D01*
X151653259Y-166534065D01*
X151656506Y-166539689D01*
X151656507Y-166539691D01*
X151740219Y-166684685D01*
X151748746Y-166699453D01*
X151876533Y-166841375D01*
X151881783Y-166845189D01*
X151881786Y-166845192D01*
X151989074Y-166923141D01*
X152031034Y-166953627D01*
X152036967Y-166956268D01*
X152036968Y-166956269D01*
X152181972Y-167020829D01*
X152205498Y-167031303D01*
X152211856Y-167032654D01*
X152211858Y-167032655D01*
X152248660Y-167040477D01*
X152392299Y-167071009D01*
X152576770Y-167071009D01*
X152583273Y-167071009D01*
X152770074Y-167031303D01*
X152944538Y-166953627D01*
X153099039Y-166841375D01*
X153226826Y-166699453D01*
X153322313Y-166534065D01*
X153381328Y-166352437D01*
X153382552Y-166340782D01*
X153405555Y-166280856D01*
X153455437Y-166240462D01*
X153582252Y-166184001D01*
X153736753Y-166071749D01*
X153864540Y-165929827D01*
X153960027Y-165764439D01*
X154019042Y-165582811D01*
X154036481Y-165416881D01*
X154047881Y-165376462D01*
X154072118Y-165342167D01*
X154812212Y-164602073D01*
X154820550Y-164594487D01*
X154827018Y-164590383D01*
X154873706Y-164540662D01*
X154876324Y-164537961D01*
X154896134Y-164518153D01*
X154898664Y-164514891D01*
X154906244Y-164506013D01*
X154936586Y-164473704D01*
X154946422Y-164455810D01*
X154957098Y-164439557D01*
X154969613Y-164423424D01*
X154987206Y-164382768D01*
X154992341Y-164372283D01*
X155013695Y-164333443D01*
X155018773Y-164313666D01*
X155025078Y-164295252D01*
X155033181Y-164276528D01*
X155040111Y-164232767D01*
X155042481Y-164221326D01*
X155042980Y-164219383D01*
X155053500Y-164178413D01*
X155053500Y-164157992D01*
X155055027Y-164138595D01*
X155055386Y-164136323D01*
X155058219Y-164118440D01*
X155054049Y-164074333D01*
X155053500Y-164062665D01*
X155053500Y-108912962D01*
X155067968Y-108854834D01*
X155107997Y-108810271D01*
X155164245Y-108789672D01*
X155165206Y-108789568D01*
X155189201Y-108786989D01*
X155283985Y-108751636D01*
X155299166Y-108745974D01*
X155357953Y-108739123D01*
X155413220Y-108760300D01*
X155452376Y-108804681D01*
X155466500Y-108862156D01*
X155466500Y-167298243D01*
X155458264Y-167342681D01*
X155434650Y-167381214D01*
X155360960Y-167463056D01*
X155357714Y-167468676D01*
X155357711Y-167468682D01*
X155268721Y-167622817D01*
X155268718Y-167622822D01*
X155265473Y-167628444D01*
X155263467Y-167634616D01*
X155263465Y-167634622D01*
X155208465Y-167803892D01*
X155208463Y-167803901D01*
X155206458Y-167810072D01*
X155205780Y-167816522D01*
X155205778Y-167816532D01*
X155196698Y-167902933D01*
X155186496Y-168000000D01*
X155187175Y-168006460D01*
X155205778Y-168183467D01*
X155205779Y-168183475D01*
X155206458Y-168189928D01*
X155208463Y-168196100D01*
X155208465Y-168196107D01*
X155237086Y-168284191D01*
X155265473Y-168371556D01*
X155268720Y-168377180D01*
X155268721Y-168377182D01*
X155354455Y-168525678D01*
X155360960Y-168536944D01*
X155488747Y-168678866D01*
X155493997Y-168682680D01*
X155494000Y-168682683D01*
X155563579Y-168733235D01*
X155643248Y-168791118D01*
X155817712Y-168868794D01*
X155824070Y-168870145D01*
X155824072Y-168870146D01*
X155860874Y-168877968D01*
X156004513Y-168908500D01*
X156188984Y-168908500D01*
X156195487Y-168908500D01*
X156382288Y-168868794D01*
X156556752Y-168791118D01*
X156711253Y-168678866D01*
X156839040Y-168536944D01*
X156934527Y-168371556D01*
X156993542Y-168189928D01*
X157013504Y-168000000D01*
X157001641Y-167887130D01*
X156994221Y-167816532D01*
X156994220Y-167816531D01*
X156993542Y-167810072D01*
X156934527Y-167628444D01*
X156839040Y-167463056D01*
X156765349Y-167381214D01*
X156741736Y-167342681D01*
X156733500Y-167298243D01*
X156733500Y-107413835D01*
X156734031Y-107402560D01*
X156735701Y-107395091D01*
X156733560Y-107327000D01*
X156733500Y-107323106D01*
X156733500Y-107299036D01*
X156733500Y-107295144D01*
X156732982Y-107291043D01*
X156732064Y-107279387D01*
X156731879Y-107273500D01*
X156730673Y-107235110D01*
X156724979Y-107215513D01*
X156721031Y-107196449D01*
X156719452Y-107183943D01*
X156719451Y-107183940D01*
X156718474Y-107176203D01*
X156702163Y-107135007D01*
X156698380Y-107123958D01*
X156690721Y-107097595D01*
X156686018Y-107081406D01*
X156675625Y-107063833D01*
X156667063Y-107046355D01*
X156662423Y-107034635D01*
X156659552Y-107027383D01*
X156633512Y-106991543D01*
X156627097Y-106981776D01*
X156608515Y-106950354D01*
X156608512Y-106950350D01*
X156604542Y-106943637D01*
X156590107Y-106929202D01*
X156577469Y-106914405D01*
X156570058Y-106904205D01*
X156570057Y-106904204D01*
X156565472Y-106897893D01*
X156531336Y-106869653D01*
X156522696Y-106861791D01*
X155908695Y-106247790D01*
X155901103Y-106239448D01*
X155897000Y-106232982D01*
X155847316Y-106186326D01*
X155844550Y-106183645D01*
X155827527Y-106166622D01*
X155824770Y-106163865D01*
X155821486Y-106161317D01*
X155812624Y-106153746D01*
X155786009Y-106128754D01*
X155786003Y-106128749D01*
X155780321Y-106123414D01*
X155773488Y-106119658D01*
X155773482Y-106119653D01*
X155762429Y-106113576D01*
X155746174Y-106102899D01*
X155736209Y-106095170D01*
X155736206Y-106095168D01*
X155730041Y-106090386D01*
X155693487Y-106074568D01*
X155689376Y-106072789D01*
X155678884Y-106067649D01*
X155646896Y-106050063D01*
X155646894Y-106050062D01*
X155640060Y-106046305D01*
X155620284Y-106041227D01*
X155601881Y-106034926D01*
X155590309Y-106029918D01*
X155590301Y-106029915D01*
X155583145Y-106026819D01*
X155575440Y-106025598D01*
X155575438Y-106025598D01*
X155539381Y-106019887D01*
X155527955Y-106017521D01*
X155485030Y-106006500D01*
X155477228Y-106006500D01*
X155464615Y-106006500D01*
X155445217Y-106004973D01*
X155432766Y-106003001D01*
X155425057Y-106001780D01*
X155417291Y-106002514D01*
X155417288Y-106002514D01*
X155380942Y-106005950D01*
X155369273Y-106006500D01*
X140243835Y-106006500D01*
X140232560Y-106005968D01*
X140225091Y-106004299D01*
X140217292Y-106004544D01*
X140157001Y-106006439D01*
X140153106Y-106006500D01*
X140125144Y-106006500D01*
X140121290Y-106006986D01*
X140121283Y-106006987D01*
X140121025Y-106007020D01*
X140109403Y-106007934D01*
X140072903Y-106009081D01*
X140072895Y-106009082D01*
X140065110Y-106009327D01*
X140057629Y-106011500D01*
X140057618Y-106011502D01*
X140045505Y-106015022D01*
X140026457Y-106018967D01*
X140013943Y-106020548D01*
X140013942Y-106020548D01*
X140006203Y-106021526D01*
X139998952Y-106024396D01*
X139998947Y-106024398D01*
X139964997Y-106037839D01*
X139953952Y-106041620D01*
X139918902Y-106051803D01*
X139918891Y-106051807D01*
X139911407Y-106053982D01*
X139904694Y-106057951D01*
X139904691Y-106057953D01*
X139893832Y-106064375D01*
X139876370Y-106072929D01*
X139864642Y-106077573D01*
X139864636Y-106077576D01*
X139857383Y-106080448D01*
X139851073Y-106085032D01*
X139851070Y-106085034D01*
X139821541Y-106106488D01*
X139811781Y-106112899D01*
X139780349Y-106131488D01*
X139780346Y-106131490D01*
X139773637Y-106135458D01*
X139768126Y-106140967D01*
X139768119Y-106140974D01*
X139759194Y-106149899D01*
X139744411Y-106162525D01*
X139734207Y-106169939D01*
X139734200Y-106169945D01*
X139727893Y-106174528D01*
X139722924Y-106180533D01*
X139722921Y-106180537D01*
X139699652Y-106208664D01*
X139691792Y-106217301D01*
X139472933Y-106436160D01*
X139421933Y-106466930D01*
X139362468Y-106470368D01*
X139293909Y-106457552D01*
X139293900Y-106457551D01*
X139288277Y-106456500D01*
X139071723Y-106456500D01*
X139066097Y-106457551D01*
X139066093Y-106457552D01*
X138864492Y-106495238D01*
X138864489Y-106495238D01*
X138858855Y-106496292D01*
X138853512Y-106498361D01*
X138853508Y-106498363D01*
X138662264Y-106572451D01*
X138662256Y-106572454D01*
X138656923Y-106574521D01*
X138652056Y-106577534D01*
X138652051Y-106577537D01*
X138477674Y-106685506D01*
X138477664Y-106685512D01*
X138472805Y-106688522D01*
X138468574Y-106692378D01*
X138468570Y-106692382D01*
X138317009Y-106830547D01*
X138316999Y-106830557D01*
X138312769Y-106834414D01*
X138309320Y-106838980D01*
X138309311Y-106838991D01*
X138185717Y-107002656D01*
X138185710Y-107002666D01*
X138182265Y-107007229D01*
X138179715Y-107012349D01*
X138179710Y-107012358D01*
X138088292Y-107195950D01*
X138088288Y-107195958D01*
X138085738Y-107201081D01*
X138084169Y-107206593D01*
X138084169Y-107206595D01*
X138047493Y-107335500D01*
X138026475Y-107409369D01*
X138006494Y-107625000D01*
X138026475Y-107840631D01*
X138085738Y-108048919D01*
X138088290Y-108054045D01*
X138088292Y-108054049D01*
X138179710Y-108237641D01*
X138179712Y-108237645D01*
X138182265Y-108242771D01*
X138185714Y-108247338D01*
X138185717Y-108247343D01*
X138309311Y-108411008D01*
X138309315Y-108411013D01*
X138312769Y-108415586D01*
X138317005Y-108419447D01*
X138317009Y-108419452D01*
X138425573Y-108518420D01*
X138472805Y-108561478D01*
X138477672Y-108564491D01*
X138477674Y-108564493D01*
X138538835Y-108602362D01*
X138656923Y-108675479D01*
X138858855Y-108753708D01*
X139071723Y-108793500D01*
X139282548Y-108793500D01*
X139288277Y-108793500D01*
X139501145Y-108753708D01*
X139703077Y-108675479D01*
X139821165Y-108602362D01*
X143639715Y-108602362D01*
X143647652Y-108610208D01*
X143735853Y-108664819D01*
X143746070Y-108669907D01*
X143935844Y-108743426D01*
X143946828Y-108746551D01*
X144146879Y-108783947D01*
X144158239Y-108785000D01*
X144361761Y-108785000D01*
X144373120Y-108783947D01*
X144573171Y-108746551D01*
X144584155Y-108743426D01*
X144773930Y-108669907D01*
X144784143Y-108664821D01*
X144872347Y-108610207D01*
X144880283Y-108602362D01*
X144874353Y-108592907D01*
X144271542Y-107990095D01*
X144260000Y-107983431D01*
X144248457Y-107990095D01*
X143645645Y-108592907D01*
X143639715Y-108602362D01*
X139821165Y-108602362D01*
X139887195Y-108561478D01*
X140047231Y-108415586D01*
X140177735Y-108242771D01*
X140274262Y-108048919D01*
X140333525Y-107840631D01*
X140353506Y-107625000D01*
X140335334Y-107428897D01*
X140342176Y-107375346D01*
X140371125Y-107329777D01*
X140391088Y-107309814D01*
X140431317Y-107282938D01*
X140478767Y-107273500D01*
X142991768Y-107273500D01*
X143044459Y-107285252D01*
X143087163Y-107318280D01*
X143111785Y-107366325D01*
X143113328Y-107410794D01*
X143114866Y-107410937D01*
X143095559Y-107619291D01*
X143095559Y-107630709D01*
X143114337Y-107833355D01*
X143116435Y-107844577D01*
X143172128Y-108040321D01*
X143176252Y-108050966D01*
X143266970Y-108233151D01*
X143270311Y-108238547D01*
X143280106Y-108245826D01*
X143292271Y-108239173D01*
X144172318Y-107359127D01*
X144227905Y-107327033D01*
X144292093Y-107327033D01*
X144347680Y-107359127D01*
X145227728Y-108239174D01*
X145239891Y-108245827D01*
X145249686Y-108238549D01*
X145253033Y-108233142D01*
X145343747Y-108050966D01*
X145347871Y-108040321D01*
X145403564Y-107844577D01*
X145405662Y-107833355D01*
X145424441Y-107630709D01*
X145424441Y-107619291D01*
X145405134Y-107410937D01*
X145406671Y-107410794D01*
X145408215Y-107366325D01*
X145432837Y-107318280D01*
X145475541Y-107285252D01*
X145528232Y-107273500D01*
X148063084Y-107273500D01*
X148115776Y-107285252D01*
X148158481Y-107318282D01*
X148183102Y-107366328D01*
X148184588Y-107409194D01*
X148186475Y-107409369D01*
X148166494Y-107625000D01*
X148186475Y-107840631D01*
X148245738Y-108048919D01*
X148248290Y-108054045D01*
X148248292Y-108054049D01*
X148339710Y-108237641D01*
X148339712Y-108237645D01*
X148342265Y-108242771D01*
X148345714Y-108247338D01*
X148345717Y-108247343D01*
X148469311Y-108411008D01*
X148469315Y-108411013D01*
X148472769Y-108415586D01*
X148477005Y-108419447D01*
X148477009Y-108419452D01*
X148585573Y-108518420D01*
X148632805Y-108561478D01*
X148637672Y-108564491D01*
X148637674Y-108564493D01*
X148698835Y-108602362D01*
X148816923Y-108675479D01*
X149018855Y-108753708D01*
X149231723Y-108793500D01*
X149442548Y-108793500D01*
X149448277Y-108793500D01*
X149661145Y-108753708D01*
X149863077Y-108675479D01*
X150047195Y-108561478D01*
X150207231Y-108415586D01*
X150337735Y-108242771D01*
X150434262Y-108048919D01*
X150493525Y-107840631D01*
X150513506Y-107625000D01*
X150493525Y-107409369D01*
X150495411Y-107409194D01*
X150496898Y-107366328D01*
X150521519Y-107318282D01*
X150564224Y-107285252D01*
X150616916Y-107273500D01*
X153127500Y-107273500D01*
X153189500Y-107290113D01*
X153234887Y-107335500D01*
X153251500Y-107397500D01*
X153251500Y-108333638D01*
X153258011Y-108394201D01*
X153260717Y-108401458D01*
X153260719Y-108401463D01*
X153265987Y-108415586D01*
X153309111Y-108531204D01*
X153396739Y-108648261D01*
X153513796Y-108735889D01*
X153650799Y-108786989D01*
X153674582Y-108789545D01*
X153675755Y-108789672D01*
X153732003Y-108810271D01*
X153772032Y-108854834D01*
X153786500Y-108912962D01*
X153786500Y-131719828D01*
X153770017Y-131781603D01*
X153724950Y-131826954D01*
X153663281Y-131843826D01*
X153601404Y-131827732D01*
X153555769Y-131782951D01*
X153554972Y-131781603D01*
X153546122Y-131766639D01*
X153537570Y-131749181D01*
X153530052Y-131730193D01*
X153504003Y-131694340D01*
X153497598Y-131684589D01*
X153479014Y-131653165D01*
X153475042Y-131646448D01*
X153460607Y-131632013D01*
X153447970Y-131617217D01*
X153440558Y-131607015D01*
X153440557Y-131607014D01*
X153435972Y-131600703D01*
X153401827Y-131572455D01*
X153393188Y-131564593D01*
X153294319Y-131465724D01*
X153267439Y-131425496D01*
X153258000Y-131378043D01*
X153258000Y-130467656D01*
X153258531Y-130456372D01*
X153260202Y-130448901D01*
X153258060Y-130380792D01*
X153258000Y-130376897D01*
X153258000Y-130352852D01*
X153258000Y-130348954D01*
X153257481Y-130344851D01*
X153256564Y-130333198D01*
X153256523Y-130331902D01*
X153255173Y-130288920D01*
X153249479Y-130269323D01*
X153245531Y-130250259D01*
X153243951Y-130237751D01*
X153242974Y-130230013D01*
X153226662Y-130188815D01*
X153222877Y-130177759D01*
X153212693Y-130142704D01*
X153210518Y-130135217D01*
X153200123Y-130117641D01*
X153191563Y-130100165D01*
X153184052Y-130081193D01*
X153158007Y-130045346D01*
X153151603Y-130035598D01*
X153129042Y-129997447D01*
X153114607Y-129983011D01*
X153101969Y-129968215D01*
X153094558Y-129958015D01*
X153094557Y-129958014D01*
X153089972Y-129951703D01*
X153055836Y-129923463D01*
X153047196Y-129915601D01*
X140089884Y-116958289D01*
X140082292Y-116949947D01*
X140078189Y-116943481D01*
X140028505Y-116896825D01*
X140025739Y-116894144D01*
X140008716Y-116877121D01*
X140005959Y-116874364D01*
X140002675Y-116871816D01*
X139993813Y-116864245D01*
X139967198Y-116839253D01*
X139967192Y-116839248D01*
X139961510Y-116833913D01*
X139954677Y-116830157D01*
X139954671Y-116830152D01*
X139943618Y-116824075D01*
X139927363Y-116813398D01*
X139917398Y-116805669D01*
X139917395Y-116805667D01*
X139911230Y-116800885D01*
X139870565Y-116783288D01*
X139860073Y-116778148D01*
X139828085Y-116760562D01*
X139828083Y-116760561D01*
X139821249Y-116756804D01*
X139801473Y-116751726D01*
X139783070Y-116745425D01*
X139771498Y-116740417D01*
X139771490Y-116740414D01*
X139764334Y-116737318D01*
X139756629Y-116736097D01*
X139756627Y-116736097D01*
X139720570Y-116730386D01*
X139709144Y-116728020D01*
X139666219Y-116716999D01*
X139658417Y-116716999D01*
X139645804Y-116716999D01*
X139626406Y-116715472D01*
X139613955Y-116713500D01*
X139606246Y-116712279D01*
X139598480Y-116713013D01*
X139598477Y-116713013D01*
X139562131Y-116716449D01*
X139550462Y-116716999D01*
X131109266Y-116716999D01*
X131061813Y-116707560D01*
X131021585Y-116680680D01*
X122542511Y-108201606D01*
X127580305Y-108201606D01*
X127588191Y-108212869D01*
X127829684Y-108408425D01*
X127834938Y-108412242D01*
X128154733Y-108619920D01*
X128160354Y-108623166D01*
X128500116Y-108796283D01*
X128506040Y-108798920D01*
X128862044Y-108935578D01*
X128868197Y-108937577D01*
X129236537Y-109036273D01*
X129242879Y-109037621D01*
X129619508Y-109097273D01*
X129625951Y-109097950D01*
X130006756Y-109117908D01*
X130013244Y-109117908D01*
X130394048Y-109097950D01*
X130400491Y-109097273D01*
X130777120Y-109037621D01*
X130783462Y-109036273D01*
X131151802Y-108937577D01*
X131157955Y-108935578D01*
X131513959Y-108798920D01*
X131519883Y-108796283D01*
X131859645Y-108623166D01*
X131865266Y-108619920D01*
X132185061Y-108412242D01*
X132190315Y-108408425D01*
X132431806Y-108212870D01*
X132439693Y-108201606D01*
X132433027Y-108189580D01*
X130021542Y-105778095D01*
X130009999Y-105771431D01*
X129998457Y-105778095D01*
X127586971Y-108189580D01*
X127580305Y-108201606D01*
X122542511Y-108201606D01*
X121474819Y-107133914D01*
X121447939Y-107093686D01*
X121438500Y-107046233D01*
X121438500Y-106119672D01*
X121438500Y-106116362D01*
X121431989Y-106055799D01*
X121380889Y-105918796D01*
X121293261Y-105801739D01*
X121261676Y-105778095D01*
X121183304Y-105719426D01*
X121183303Y-105719425D01*
X121176204Y-105714111D01*
X121167896Y-105711012D01*
X121167894Y-105711011D01*
X121046463Y-105665719D01*
X121046458Y-105665717D01*
X121039201Y-105663011D01*
X121031497Y-105662182D01*
X121031494Y-105662182D01*
X120981924Y-105656853D01*
X120981918Y-105656852D01*
X120978638Y-105656500D01*
X119561362Y-105656500D01*
X119558082Y-105656852D01*
X119558075Y-105656853D01*
X119508505Y-105662182D01*
X119508500Y-105662182D01*
X119500799Y-105663011D01*
X119493543Y-105665717D01*
X119493536Y-105665719D01*
X119372105Y-105711011D01*
X119372099Y-105711013D01*
X119363796Y-105714111D01*
X119356698Y-105719423D01*
X119356695Y-105719426D01*
X119253835Y-105796426D01*
X119253831Y-105796429D01*
X119246739Y-105801739D01*
X119241429Y-105808831D01*
X119241426Y-105808835D01*
X119164426Y-105911695D01*
X119164423Y-105911698D01*
X119159111Y-105918796D01*
X119156013Y-105927099D01*
X119156011Y-105927105D01*
X119110719Y-106048536D01*
X119110717Y-106048543D01*
X119108011Y-106055799D01*
X119107182Y-106063500D01*
X119107182Y-106063505D01*
X119102304Y-106108879D01*
X119101500Y-106116362D01*
X119101500Y-107533638D01*
X119108011Y-107594201D01*
X119110717Y-107601458D01*
X119110719Y-107601463D01*
X119156011Y-107722894D01*
X119159111Y-107731204D01*
X119164425Y-107738303D01*
X119164426Y-107738304D01*
X119237580Y-107836027D01*
X119246739Y-107848261D01*
X119363796Y-107935889D01*
X119500799Y-107986989D01*
X119561362Y-107993500D01*
X120491234Y-107993500D01*
X120538687Y-108002939D01*
X120578915Y-108029819D01*
X130291793Y-117742697D01*
X130299395Y-117751050D01*
X130303499Y-117757517D01*
X130324894Y-117777608D01*
X130356941Y-117826729D01*
X130362827Y-117885084D01*
X130341236Y-117939618D01*
X130296998Y-117978128D01*
X130240010Y-117991999D01*
X123019265Y-117991999D01*
X122971812Y-117982560D01*
X122931584Y-117955680D01*
X121684819Y-116708914D01*
X121657939Y-116668686D01*
X121648500Y-116621233D01*
X121648500Y-115694672D01*
X121648500Y-115691362D01*
X121641989Y-115630799D01*
X121590889Y-115493796D01*
X121503261Y-115376739D01*
X121386204Y-115289111D01*
X121377896Y-115286012D01*
X121377894Y-115286011D01*
X121256463Y-115240719D01*
X121256458Y-115240717D01*
X121249201Y-115238011D01*
X121241497Y-115237182D01*
X121241494Y-115237182D01*
X121191924Y-115231853D01*
X121191918Y-115231852D01*
X121188638Y-115231500D01*
X119771362Y-115231500D01*
X119768082Y-115231852D01*
X119768075Y-115231853D01*
X119718505Y-115237182D01*
X119718500Y-115237182D01*
X119710799Y-115238011D01*
X119703543Y-115240717D01*
X119703536Y-115240719D01*
X119582105Y-115286011D01*
X119582099Y-115286013D01*
X119573796Y-115289111D01*
X119566698Y-115294423D01*
X119566695Y-115294426D01*
X119463835Y-115371426D01*
X119463831Y-115371429D01*
X119456739Y-115376739D01*
X119451429Y-115383831D01*
X119451426Y-115383835D01*
X119374426Y-115486695D01*
X119374423Y-115486698D01*
X119369111Y-115493796D01*
X119366013Y-115502099D01*
X119366011Y-115502105D01*
X119320719Y-115623536D01*
X119320717Y-115623543D01*
X119318011Y-115630799D01*
X119317182Y-115638500D01*
X119317182Y-115638505D01*
X119311853Y-115688075D01*
X119311500Y-115691362D01*
X119311500Y-117108638D01*
X119318011Y-117169201D01*
X119320717Y-117176458D01*
X119320719Y-117176463D01*
X119325987Y-117190586D01*
X119369111Y-117306204D01*
X119456739Y-117423261D01*
X119573796Y-117510889D01*
X119710799Y-117561989D01*
X119771362Y-117568500D01*
X120701234Y-117568500D01*
X120748687Y-117577939D01*
X120788915Y-117604819D01*
X122201800Y-119017705D01*
X122209397Y-119026054D01*
X122213499Y-119032517D01*
X122219181Y-119037852D01*
X122219188Y-119037861D01*
X122263165Y-119079156D01*
X122265963Y-119081867D01*
X122285729Y-119101634D01*
X122288805Y-119104020D01*
X122289002Y-119104173D01*
X122297881Y-119111757D01*
X122330178Y-119142085D01*
X122348064Y-119151917D01*
X122364328Y-119162601D01*
X122374291Y-119170330D01*
X122374294Y-119170332D01*
X122380458Y-119175113D01*
X122387621Y-119178212D01*
X122387622Y-119178213D01*
X122421115Y-119192706D01*
X122431611Y-119197847D01*
X122470439Y-119219194D01*
X122490215Y-119224271D01*
X122508622Y-119230574D01*
X122520190Y-119235580D01*
X122520191Y-119235580D01*
X122527354Y-119238680D01*
X122571120Y-119245611D01*
X122582540Y-119247976D01*
X122625469Y-119258999D01*
X122645884Y-119258999D01*
X122665282Y-119260526D01*
X122685442Y-119263719D01*
X122723975Y-119260076D01*
X122729557Y-119259549D01*
X122741226Y-119258999D01*
X133964500Y-119258999D01*
X134026500Y-119275612D01*
X134071887Y-119320999D01*
X134088500Y-119382999D01*
X134088500Y-120961233D01*
X134079061Y-121008686D01*
X134052183Y-121048911D01*
X133955292Y-121145802D01*
X133955293Y-121145802D01*
X133946942Y-121153400D01*
X133940481Y-121157501D01*
X133935141Y-121163186D01*
X133935139Y-121163189D01*
X133893837Y-121207170D01*
X133891132Y-121209962D01*
X133871364Y-121229731D01*
X133868980Y-121232803D01*
X133868977Y-121232807D01*
X133868821Y-121233009D01*
X133861251Y-121241871D01*
X133830913Y-121274180D01*
X133827158Y-121281008D01*
X133827157Y-121281011D01*
X133821078Y-121292068D01*
X133810402Y-121308320D01*
X133802667Y-121318292D01*
X133802659Y-121318303D01*
X133797885Y-121324460D01*
X133794790Y-121331611D01*
X133794787Y-121331617D01*
X133780285Y-121365129D01*
X133775147Y-121375616D01*
X133757564Y-121407599D01*
X133757560Y-121407607D01*
X133753804Y-121414441D01*
X133751865Y-121421992D01*
X133751862Y-121422000D01*
X133748724Y-121434223D01*
X133742425Y-121452620D01*
X133734318Y-121471356D01*
X133733098Y-121479054D01*
X133733097Y-121479060D01*
X133727387Y-121515112D01*
X133725019Y-121526546D01*
X133715937Y-121561918D01*
X133715935Y-121561927D01*
X133713999Y-121569471D01*
X133713999Y-121577267D01*
X133713999Y-121589886D01*
X133712471Y-121609284D01*
X133709279Y-121629444D01*
X133710013Y-121637209D01*
X133710013Y-121637212D01*
X133713449Y-121673559D01*
X133713999Y-121685228D01*
X133713999Y-122052419D01*
X133695726Y-122117209D01*
X133646294Y-122162904D01*
X133580270Y-122176037D01*
X133517113Y-122152737D01*
X133462006Y-122112699D01*
X133462004Y-122112697D01*
X133456752Y-122108882D01*
X133450821Y-122106241D01*
X133450817Y-122106239D01*
X133288226Y-122033849D01*
X133288219Y-122033846D01*
X133282288Y-122031206D01*
X133275935Y-122029855D01*
X133275927Y-122029853D01*
X133101849Y-121992852D01*
X133101846Y-121992851D01*
X133095487Y-121991500D01*
X132904513Y-121991500D01*
X132898154Y-121992851D01*
X132898150Y-121992852D01*
X132724072Y-122029853D01*
X132724061Y-122029856D01*
X132717712Y-122031206D01*
X132711782Y-122033845D01*
X132711773Y-122033849D01*
X132549182Y-122106239D01*
X132549174Y-122106243D01*
X132543248Y-122108882D01*
X132537999Y-122112695D01*
X132537993Y-122112699D01*
X132394000Y-122217316D01*
X132393991Y-122217323D01*
X132388747Y-122221134D01*
X132384403Y-122225957D01*
X132384400Y-122225961D01*
X132265307Y-122358228D01*
X132260960Y-122363056D01*
X132257714Y-122368676D01*
X132257711Y-122368682D01*
X132168721Y-122522817D01*
X132168718Y-122522822D01*
X132165473Y-122528444D01*
X132163467Y-122534616D01*
X132163465Y-122534622D01*
X132108465Y-122703892D01*
X132108463Y-122703901D01*
X132106458Y-122710072D01*
X132105779Y-122716531D01*
X132105779Y-122716532D01*
X132089018Y-122875996D01*
X132077618Y-122916417D01*
X132053378Y-122950715D01*
X131798911Y-123205183D01*
X131758686Y-123232061D01*
X131711233Y-123241500D01*
X105678848Y-123241500D01*
X105667563Y-123240968D01*
X105660092Y-123239298D01*
X105652294Y-123239543D01*
X105591970Y-123241439D01*
X105588075Y-123241500D01*
X105560144Y-123241500D01*
X105556289Y-123241986D01*
X105556255Y-123241989D01*
X105556024Y-123242019D01*
X105544405Y-123242933D01*
X105507908Y-123244080D01*
X105507900Y-123244081D01*
X105500111Y-123244326D01*
X105492625Y-123246500D01*
X105492616Y-123246502D01*
X105480496Y-123250023D01*
X105461460Y-123253965D01*
X105448941Y-123255547D01*
X105448931Y-123255549D01*
X105441203Y-123256526D01*
X105433960Y-123259393D01*
X105433950Y-123259396D01*
X105400013Y-123272832D01*
X105388971Y-123276613D01*
X105353900Y-123286803D01*
X105353893Y-123286805D01*
X105346407Y-123288981D01*
X105339697Y-123292949D01*
X105339688Y-123292953D01*
X105328824Y-123299378D01*
X105311365Y-123307931D01*
X105299637Y-123312575D01*
X105299631Y-123312577D01*
X105292383Y-123315448D01*
X105286078Y-123320028D01*
X105286070Y-123320033D01*
X105256537Y-123341489D01*
X105246782Y-123347897D01*
X105215354Y-123366485D01*
X105215348Y-123366489D01*
X105208638Y-123370458D01*
X105203125Y-123375969D01*
X105203118Y-123375976D01*
X105194197Y-123384897D01*
X105179414Y-123397523D01*
X105169206Y-123404940D01*
X105169200Y-123404944D01*
X105162893Y-123409528D01*
X105157924Y-123415534D01*
X105157919Y-123415539D01*
X105134642Y-123443675D01*
X105126782Y-123452312D01*
X104923912Y-123655183D01*
X104883687Y-123682061D01*
X104836234Y-123691500D01*
X104832500Y-123691500D01*
X104770500Y-123674887D01*
X104725113Y-123629500D01*
X104708500Y-123567500D01*
X104708500Y-123003835D01*
X104709031Y-122992560D01*
X104710701Y-122985091D01*
X104708560Y-122917000D01*
X104708500Y-122913106D01*
X104708500Y-122889036D01*
X104708500Y-122885144D01*
X104707982Y-122881043D01*
X104707064Y-122869387D01*
X104705673Y-122825110D01*
X104699979Y-122805513D01*
X104696031Y-122786449D01*
X104695587Y-122782933D01*
X104693474Y-122766203D01*
X104677162Y-122725005D01*
X104673377Y-122713949D01*
X104663193Y-122678894D01*
X104661018Y-122671407D01*
X104650623Y-122653831D01*
X104642063Y-122636355D01*
X104638342Y-122626957D01*
X104634552Y-122617383D01*
X104608507Y-122581536D01*
X104602103Y-122571788D01*
X104579542Y-122533637D01*
X104565107Y-122519202D01*
X104552469Y-122504405D01*
X104545058Y-122494205D01*
X104545057Y-122494204D01*
X104540472Y-122487893D01*
X104506336Y-122459653D01*
X104497696Y-122451791D01*
X104194819Y-122148914D01*
X104167939Y-122108686D01*
X104158500Y-122061233D01*
X104158500Y-120454672D01*
X104158500Y-120451362D01*
X104151989Y-120390799D01*
X104100889Y-120253796D01*
X104013261Y-120136739D01*
X103896204Y-120049111D01*
X103887896Y-120046012D01*
X103887894Y-120046011D01*
X103766463Y-120000719D01*
X103766458Y-120000717D01*
X103759201Y-119998011D01*
X103751497Y-119997182D01*
X103751494Y-119997182D01*
X103701924Y-119991853D01*
X103701918Y-119991852D01*
X103698638Y-119991500D01*
X101601362Y-119991500D01*
X101598082Y-119991852D01*
X101598075Y-119991853D01*
X101548505Y-119997182D01*
X101548500Y-119997182D01*
X101540799Y-119998011D01*
X101533543Y-120000717D01*
X101533536Y-120000719D01*
X101412105Y-120046011D01*
X101412099Y-120046013D01*
X101403796Y-120049111D01*
X101396698Y-120054423D01*
X101396695Y-120054426D01*
X101293835Y-120131426D01*
X101293831Y-120131429D01*
X101286739Y-120136739D01*
X101281429Y-120143831D01*
X101281426Y-120143835D01*
X101204426Y-120246695D01*
X101204423Y-120246698D01*
X101199111Y-120253796D01*
X101196013Y-120262099D01*
X101196011Y-120262105D01*
X101150719Y-120383536D01*
X101150717Y-120383543D01*
X101148011Y-120390799D01*
X101147182Y-120398500D01*
X101147182Y-120398505D01*
X101141853Y-120448075D01*
X101141500Y-120451362D01*
X101141500Y-122548638D01*
X100200500Y-122548638D01*
X100200500Y-116400000D01*
X104066494Y-116400000D01*
X104086475Y-116615631D01*
X104145738Y-116823919D01*
X104148290Y-116829045D01*
X104148292Y-116829049D01*
X104239710Y-117012641D01*
X104239712Y-117012645D01*
X104242265Y-117017771D01*
X104245714Y-117022338D01*
X104245717Y-117022343D01*
X104369311Y-117186008D01*
X104369315Y-117186013D01*
X104372769Y-117190586D01*
X104377005Y-117194447D01*
X104377009Y-117194452D01*
X104485573Y-117293420D01*
X104532805Y-117336478D01*
X104537672Y-117339491D01*
X104537674Y-117339493D01*
X104598835Y-117377362D01*
X104716923Y-117450479D01*
X104918855Y-117528708D01*
X105131723Y-117568500D01*
X105342548Y-117568500D01*
X105348277Y-117568500D01*
X105561145Y-117528708D01*
X105763077Y-117450479D01*
X105881165Y-117377362D01*
X109699715Y-117377362D01*
X109707652Y-117385208D01*
X109795853Y-117439819D01*
X109806070Y-117444907D01*
X109995844Y-117518426D01*
X110006828Y-117521551D01*
X110206879Y-117558947D01*
X110218239Y-117560000D01*
X110421761Y-117560000D01*
X110433120Y-117558947D01*
X110633171Y-117521551D01*
X110644155Y-117518426D01*
X110833930Y-117444907D01*
X110844143Y-117439821D01*
X110932347Y-117385207D01*
X110940283Y-117377362D01*
X110934353Y-117367907D01*
X110331542Y-116765095D01*
X110319999Y-116758431D01*
X110308457Y-116765095D01*
X109705645Y-117367907D01*
X109699715Y-117377362D01*
X105881165Y-117377362D01*
X105947195Y-117336478D01*
X106107231Y-117190586D01*
X106237735Y-117017771D01*
X106334262Y-116823919D01*
X106393525Y-116615631D01*
X106412977Y-116405709D01*
X109155559Y-116405709D01*
X109174337Y-116608355D01*
X109176435Y-116619577D01*
X109232128Y-116815321D01*
X109236252Y-116825966D01*
X109326970Y-117008151D01*
X109330311Y-117013547D01*
X109340106Y-117020826D01*
X109352271Y-117014173D01*
X109954903Y-116411542D01*
X109961567Y-116400000D01*
X110678431Y-116400000D01*
X110685095Y-116411542D01*
X111287728Y-117014174D01*
X111299891Y-117020827D01*
X111309686Y-117013549D01*
X111313033Y-117008142D01*
X111403747Y-116825966D01*
X111407871Y-116815321D01*
X111463564Y-116619577D01*
X111465662Y-116608355D01*
X111484441Y-116405709D01*
X111484441Y-116400000D01*
X114226494Y-116400000D01*
X114246475Y-116615631D01*
X114305738Y-116823919D01*
X114308290Y-116829045D01*
X114308292Y-116829049D01*
X114399710Y-117012641D01*
X114399712Y-117012645D01*
X114402265Y-117017771D01*
X114405714Y-117022338D01*
X114405717Y-117022343D01*
X114529311Y-117186008D01*
X114529315Y-117186013D01*
X114532769Y-117190586D01*
X114537005Y-117194447D01*
X114537009Y-117194452D01*
X114645573Y-117293420D01*
X114692805Y-117336478D01*
X114697672Y-117339491D01*
X114697674Y-117339493D01*
X114758835Y-117377362D01*
X114876923Y-117450479D01*
X115078855Y-117528708D01*
X115291723Y-117568500D01*
X115502548Y-117568500D01*
X115508277Y-117568500D01*
X115721145Y-117528708D01*
X115923077Y-117450479D01*
X116107195Y-117336478D01*
X116267231Y-117190586D01*
X116397735Y-117017771D01*
X116494262Y-116823919D01*
X116553525Y-116615631D01*
X116573506Y-116400000D01*
X116553525Y-116184369D01*
X116494262Y-115976081D01*
X116397735Y-115782229D01*
X116331615Y-115694672D01*
X116270688Y-115613991D01*
X116270684Y-115613987D01*
X116267231Y-115609414D01*
X116262994Y-115605551D01*
X116262990Y-115605547D01*
X116111429Y-115467382D01*
X116111430Y-115467382D01*
X116107195Y-115463522D01*
X116102329Y-115460509D01*
X116102325Y-115460506D01*
X115927948Y-115352537D01*
X115923077Y-115349521D01*
X115917739Y-115347453D01*
X115917735Y-115347451D01*
X115726491Y-115273363D01*
X115726490Y-115273362D01*
X115721145Y-115271292D01*
X115715507Y-115270238D01*
X115513906Y-115232552D01*
X115513903Y-115232551D01*
X115508277Y-115231500D01*
X115291723Y-115231500D01*
X115286097Y-115232551D01*
X115286093Y-115232552D01*
X115084492Y-115270238D01*
X115084489Y-115270238D01*
X115078855Y-115271292D01*
X115073512Y-115273361D01*
X115073508Y-115273363D01*
X114882264Y-115347451D01*
X114882256Y-115347454D01*
X114876923Y-115349521D01*
X114872056Y-115352534D01*
X114872051Y-115352537D01*
X114697674Y-115460506D01*
X114697664Y-115460512D01*
X114692805Y-115463522D01*
X114688574Y-115467378D01*
X114688570Y-115467382D01*
X114537009Y-115605547D01*
X114536999Y-115605557D01*
X114532769Y-115609414D01*
X114529320Y-115613980D01*
X114529311Y-115613991D01*
X114405717Y-115777656D01*
X114405710Y-115777666D01*
X114402265Y-115782229D01*
X114399715Y-115787349D01*
X114399710Y-115787358D01*
X114308292Y-115970950D01*
X114308288Y-115970958D01*
X114305738Y-115976081D01*
X114246475Y-116184369D01*
X114226494Y-116400000D01*
X111484441Y-116400000D01*
X111484441Y-116394291D01*
X111465662Y-116191644D01*
X111463564Y-116180422D01*
X111407871Y-115984678D01*
X111403747Y-115974033D01*
X111313034Y-115791859D01*
X111309684Y-115786448D01*
X111299892Y-115779171D01*
X111287727Y-115785825D01*
X110685095Y-116388457D01*
X110678431Y-116400000D01*
X109961567Y-116400000D01*
X109954903Y-116388457D01*
X109352273Y-115785827D01*
X109340106Y-115779172D01*
X109330311Y-115786452D01*
X109326969Y-115791850D01*
X109236252Y-115974033D01*
X109232128Y-115984678D01*
X109176435Y-116180422D01*
X109174337Y-116191644D01*
X109155559Y-116394291D01*
X109155559Y-116405709D01*
X106412977Y-116405709D01*
X106413506Y-116400000D01*
X106393525Y-116184369D01*
X106334262Y-115976081D01*
X106237735Y-115782229D01*
X106171615Y-115694672D01*
X106110688Y-115613991D01*
X106110684Y-115613987D01*
X106107231Y-115609414D01*
X106102994Y-115605551D01*
X106102990Y-115605547D01*
X105951429Y-115467382D01*
X105951430Y-115467382D01*
X105947195Y-115463522D01*
X105942329Y-115460509D01*
X105942325Y-115460506D01*
X105881162Y-115422636D01*
X109699715Y-115422636D01*
X109705645Y-115432091D01*
X110308457Y-116034903D01*
X110320000Y-116041567D01*
X110331542Y-116034903D01*
X110934353Y-115432091D01*
X110940283Y-115422636D01*
X110932346Y-115414790D01*
X110844146Y-115360180D01*
X110833929Y-115355092D01*
X110644155Y-115281573D01*
X110633171Y-115278448D01*
X110433120Y-115241052D01*
X110421761Y-115240000D01*
X110218239Y-115240000D01*
X110206879Y-115241052D01*
X110006828Y-115278448D01*
X109995844Y-115281573D01*
X109806070Y-115355092D01*
X109795853Y-115360180D01*
X109707651Y-115414791D01*
X109699715Y-115422636D01*
X105881162Y-115422636D01*
X105767948Y-115352537D01*
X105763077Y-115349521D01*
X105757739Y-115347453D01*
X105757735Y-115347451D01*
X105566491Y-115273363D01*
X105566490Y-115273362D01*
X105561145Y-115271292D01*
X105555507Y-115270238D01*
X105353906Y-115232552D01*
X105353903Y-115232551D01*
X105348277Y-115231500D01*
X105131723Y-115231500D01*
X105126097Y-115232551D01*
X105126093Y-115232552D01*
X104924492Y-115270238D01*
X104924489Y-115270238D01*
X104918855Y-115271292D01*
X104913512Y-115273361D01*
X104913508Y-115273363D01*
X104722264Y-115347451D01*
X104722256Y-115347454D01*
X104716923Y-115349521D01*
X104712056Y-115352534D01*
X104712051Y-115352537D01*
X104537674Y-115460506D01*
X104537664Y-115460512D01*
X104532805Y-115463522D01*
X104528574Y-115467378D01*
X104528570Y-115467382D01*
X104377009Y-115605547D01*
X104376999Y-115605557D01*
X104372769Y-115609414D01*
X104369320Y-115613980D01*
X104369311Y-115613991D01*
X104245717Y-115777656D01*
X104245710Y-115777666D01*
X104242265Y-115782229D01*
X104239715Y-115787349D01*
X104239710Y-115787358D01*
X104148292Y-115970950D01*
X104148288Y-115970958D01*
X104145738Y-115976081D01*
X104086475Y-116184369D01*
X104066494Y-116400000D01*
X100200500Y-116400000D01*
X100200500Y-106825000D01*
X103856494Y-106825000D01*
X103857023Y-106830709D01*
X103864778Y-106914405D01*
X103876475Y-107040631D01*
X103935738Y-107248919D01*
X103938290Y-107254045D01*
X103938292Y-107254049D01*
X104029710Y-107437641D01*
X104029712Y-107437645D01*
X104032265Y-107442771D01*
X104035714Y-107447338D01*
X104035717Y-107447343D01*
X104159311Y-107611008D01*
X104159315Y-107611013D01*
X104162769Y-107615586D01*
X104167005Y-107619447D01*
X104167009Y-107619452D01*
X104275573Y-107718420D01*
X104322805Y-107761478D01*
X104327672Y-107764491D01*
X104327674Y-107764493D01*
X104388835Y-107802362D01*
X104506923Y-107875479D01*
X104708855Y-107953708D01*
X104921723Y-107993500D01*
X105132548Y-107993500D01*
X105138277Y-107993500D01*
X105351145Y-107953708D01*
X105553077Y-107875479D01*
X105671165Y-107802362D01*
X109489715Y-107802362D01*
X109497652Y-107810208D01*
X109585853Y-107864819D01*
X109596070Y-107869907D01*
X109785844Y-107943426D01*
X109796828Y-107946551D01*
X109996879Y-107983947D01*
X110008239Y-107985000D01*
X110211761Y-107985000D01*
X110223120Y-107983947D01*
X110423171Y-107946551D01*
X110434155Y-107943426D01*
X110623930Y-107869907D01*
X110634143Y-107864821D01*
X110722347Y-107810207D01*
X110730283Y-107802362D01*
X110724353Y-107792907D01*
X110121542Y-107190095D01*
X110110000Y-107183431D01*
X110098457Y-107190095D01*
X109495645Y-107792907D01*
X109489715Y-107802362D01*
X105671165Y-107802362D01*
X105737195Y-107761478D01*
X105897231Y-107615586D01*
X106027735Y-107442771D01*
X106124262Y-107248919D01*
X106183525Y-107040631D01*
X106202977Y-106830709D01*
X108945559Y-106830709D01*
X108964337Y-107033355D01*
X108966435Y-107044577D01*
X109022128Y-107240321D01*
X109026252Y-107250966D01*
X109116970Y-107433151D01*
X109120311Y-107438547D01*
X109130106Y-107445826D01*
X109142271Y-107439173D01*
X109744903Y-106836542D01*
X109751567Y-106825000D01*
X110468431Y-106825000D01*
X110475095Y-106836542D01*
X111077728Y-107439174D01*
X111089891Y-107445827D01*
X111099686Y-107438549D01*
X111103033Y-107433142D01*
X111193747Y-107250966D01*
X111197871Y-107240321D01*
X111253564Y-107044577D01*
X111255662Y-107033355D01*
X111274441Y-106830709D01*
X111274441Y-106825000D01*
X114016494Y-106825000D01*
X114017023Y-106830709D01*
X114024778Y-106914405D01*
X114036475Y-107040631D01*
X114095738Y-107248919D01*
X114098290Y-107254045D01*
X114098292Y-107254049D01*
X114189710Y-107437641D01*
X114189712Y-107437645D01*
X114192265Y-107442771D01*
X114195714Y-107447338D01*
X114195717Y-107447343D01*
X114319311Y-107611008D01*
X114319315Y-107611013D01*
X114322769Y-107615586D01*
X114327005Y-107619447D01*
X114327009Y-107619452D01*
X114435573Y-107718420D01*
X114482805Y-107761478D01*
X114487672Y-107764491D01*
X114487674Y-107764493D01*
X114548835Y-107802362D01*
X114666923Y-107875479D01*
X114868855Y-107953708D01*
X115081723Y-107993500D01*
X115292548Y-107993500D01*
X115298277Y-107993500D01*
X115511145Y-107953708D01*
X115713077Y-107875479D01*
X115897195Y-107761478D01*
X116057231Y-107615586D01*
X116187735Y-107442771D01*
X116284262Y-107248919D01*
X116343525Y-107040631D01*
X116363506Y-106825000D01*
X116343525Y-106609369D01*
X116284262Y-106401081D01*
X116203630Y-106239150D01*
X116190289Y-106212358D01*
X116190288Y-106212357D01*
X116187735Y-106207229D01*
X116184282Y-106202656D01*
X116060688Y-106038991D01*
X116060684Y-106038987D01*
X116057231Y-106034414D01*
X116052994Y-106030551D01*
X116052990Y-106030547D01*
X115901429Y-105892382D01*
X115901430Y-105892382D01*
X115897195Y-105888522D01*
X115892329Y-105885509D01*
X115892325Y-105885506D01*
X115717948Y-105777537D01*
X115713077Y-105774521D01*
X115707739Y-105772453D01*
X115707735Y-105772451D01*
X115516491Y-105698363D01*
X115516490Y-105698362D01*
X115511145Y-105696292D01*
X115505507Y-105695238D01*
X115303906Y-105657552D01*
X115303903Y-105657551D01*
X115298277Y-105656500D01*
X115081723Y-105656500D01*
X115076097Y-105657551D01*
X115076093Y-105657552D01*
X114874492Y-105695238D01*
X114874489Y-105695238D01*
X114868855Y-105696292D01*
X114863512Y-105698361D01*
X114863508Y-105698363D01*
X114672264Y-105772451D01*
X114672256Y-105772454D01*
X114666923Y-105774521D01*
X114662056Y-105777534D01*
X114662051Y-105777537D01*
X114487674Y-105885506D01*
X114487664Y-105885512D01*
X114482805Y-105888522D01*
X114478574Y-105892378D01*
X114478570Y-105892382D01*
X114327009Y-106030547D01*
X114326999Y-106030557D01*
X114322769Y-106034414D01*
X114319320Y-106038980D01*
X114319311Y-106038991D01*
X114195717Y-106202656D01*
X114195710Y-106202666D01*
X114192265Y-106207229D01*
X114189715Y-106212349D01*
X114189710Y-106212358D01*
X114098292Y-106395950D01*
X114098288Y-106395958D01*
X114095738Y-106401081D01*
X114094169Y-106406593D01*
X114094169Y-106406595D01*
X114052001Y-106554802D01*
X114036475Y-106609369D01*
X114016494Y-106825000D01*
X111274441Y-106825000D01*
X111274441Y-106819291D01*
X111255662Y-106616644D01*
X111253564Y-106605422D01*
X111197871Y-106409678D01*
X111193747Y-106399033D01*
X111103034Y-106216859D01*
X111099684Y-106211448D01*
X111089892Y-106204171D01*
X111077727Y-106210825D01*
X110475095Y-106813457D01*
X110468431Y-106825000D01*
X109751567Y-106825000D01*
X109744903Y-106813457D01*
X109142273Y-106210827D01*
X109130106Y-106204172D01*
X109120311Y-106211452D01*
X109116969Y-106216850D01*
X109026252Y-106399033D01*
X109022128Y-106409678D01*
X108966435Y-106605422D01*
X108964337Y-106616644D01*
X108945559Y-106819291D01*
X108945559Y-106830709D01*
X106202977Y-106830709D01*
X106203506Y-106825000D01*
X106183525Y-106609369D01*
X106124262Y-106401081D01*
X106043630Y-106239150D01*
X106030289Y-106212358D01*
X106030288Y-106212357D01*
X106027735Y-106207229D01*
X106024282Y-106202656D01*
X105900688Y-106038991D01*
X105900684Y-106038987D01*
X105897231Y-106034414D01*
X105892994Y-106030551D01*
X105892990Y-106030547D01*
X105741429Y-105892382D01*
X105741430Y-105892382D01*
X105737195Y-105888522D01*
X105732329Y-105885509D01*
X105732325Y-105885506D01*
X105671162Y-105847636D01*
X109489715Y-105847636D01*
X109495645Y-105857091D01*
X110098457Y-106459903D01*
X110110000Y-106466567D01*
X110121542Y-106459903D01*
X110724353Y-105857091D01*
X110730283Y-105847636D01*
X110722346Y-105839790D01*
X110634146Y-105785180D01*
X110623929Y-105780092D01*
X110434155Y-105706573D01*
X110423171Y-105703448D01*
X110223120Y-105666052D01*
X110211761Y-105665000D01*
X110008239Y-105665000D01*
X109996879Y-105666052D01*
X109796828Y-105703448D01*
X109785844Y-105706573D01*
X109596070Y-105780092D01*
X109585853Y-105785180D01*
X109497651Y-105839791D01*
X109489715Y-105847636D01*
X105671162Y-105847636D01*
X105557948Y-105777537D01*
X105553077Y-105774521D01*
X105547739Y-105772453D01*
X105547735Y-105772451D01*
X105356491Y-105698363D01*
X105356490Y-105698362D01*
X105351145Y-105696292D01*
X105345507Y-105695238D01*
X105143906Y-105657552D01*
X105143903Y-105657551D01*
X105138277Y-105656500D01*
X104921723Y-105656500D01*
X104916097Y-105657551D01*
X104916093Y-105657552D01*
X104714492Y-105695238D01*
X104714489Y-105695238D01*
X104708855Y-105696292D01*
X104703512Y-105698361D01*
X104703508Y-105698363D01*
X104512264Y-105772451D01*
X104512256Y-105772454D01*
X104506923Y-105774521D01*
X104502056Y-105777534D01*
X104502051Y-105777537D01*
X104327674Y-105885506D01*
X104327664Y-105885512D01*
X104322805Y-105888522D01*
X104318574Y-105892378D01*
X104318570Y-105892382D01*
X104167009Y-106030547D01*
X104166999Y-106030557D01*
X104162769Y-106034414D01*
X104159320Y-106038980D01*
X104159311Y-106038991D01*
X104035717Y-106202656D01*
X104035710Y-106202666D01*
X104032265Y-106207229D01*
X104029715Y-106212349D01*
X104029710Y-106212358D01*
X103938292Y-106395950D01*
X103938288Y-106395958D01*
X103935738Y-106401081D01*
X103934169Y-106406593D01*
X103934169Y-106406595D01*
X103892001Y-106554802D01*
X103876475Y-106609369D01*
X103856494Y-106825000D01*
X100200500Y-106825000D01*
X100200500Y-105416244D01*
X126305092Y-105416244D01*
X126325049Y-105797048D01*
X126325726Y-105803491D01*
X126385378Y-106180120D01*
X126386726Y-106186462D01*
X126485422Y-106554802D01*
X126487421Y-106560955D01*
X126624079Y-106916959D01*
X126626716Y-106922883D01*
X126799833Y-107262645D01*
X126803079Y-107268266D01*
X127010757Y-107588061D01*
X127014574Y-107593315D01*
X127210129Y-107834807D01*
X127221392Y-107842693D01*
X127233418Y-107836027D01*
X129644904Y-105424542D01*
X129651568Y-105413000D01*
X130368431Y-105413000D01*
X130375095Y-105424542D01*
X132786580Y-107836027D01*
X132798606Y-107842693D01*
X132809870Y-107834806D01*
X133005425Y-107593315D01*
X133009242Y-107588061D01*
X133216920Y-107268266D01*
X133220166Y-107262645D01*
X133393283Y-106922883D01*
X133395920Y-106916959D01*
X133532578Y-106560955D01*
X133534577Y-106554802D01*
X133633273Y-106186462D01*
X133634621Y-106180120D01*
X133694273Y-105803491D01*
X133694950Y-105797048D01*
X133714908Y-105416244D01*
X133714908Y-105409756D01*
X133694950Y-105028951D01*
X133694273Y-105022508D01*
X133634621Y-104645879D01*
X133633273Y-104639537D01*
X133534577Y-104271197D01*
X133532578Y-104265044D01*
X133395920Y-103909040D01*
X133393283Y-103903116D01*
X133220166Y-103563354D01*
X133216920Y-103557733D01*
X133009242Y-103237938D01*
X133005425Y-103232684D01*
X132809869Y-102991191D01*
X132798606Y-102983305D01*
X132786580Y-102989971D01*
X130375095Y-105401457D01*
X130368431Y-105413000D01*
X129651568Y-105413000D01*
X129644904Y-105401457D01*
X127233418Y-102989971D01*
X127221393Y-102983305D01*
X127210127Y-102991194D01*
X127014578Y-103232678D01*
X127010756Y-103237939D01*
X126803079Y-103557733D01*
X126799833Y-103563354D01*
X126626716Y-103903116D01*
X126624079Y-103909040D01*
X126487421Y-104265044D01*
X126485422Y-104271197D01*
X126386726Y-104639537D01*
X126385378Y-104645879D01*
X126325726Y-105022508D01*
X126325049Y-105028951D01*
X126305092Y-105409756D01*
X126305092Y-105416244D01*
X100200500Y-105416244D01*
X100200500Y-102624393D01*
X127580305Y-102624393D01*
X127586971Y-102636418D01*
X129998457Y-105047904D01*
X130009999Y-105054568D01*
X130021542Y-105047904D01*
X132433027Y-102636418D01*
X132439693Y-102624392D01*
X132431807Y-102613129D01*
X132190315Y-102417574D01*
X132185061Y-102413757D01*
X131865266Y-102206079D01*
X131859645Y-102202833D01*
X131519883Y-102029716D01*
X131513959Y-102027079D01*
X131157955Y-101890421D01*
X131151802Y-101888422D01*
X130783462Y-101789726D01*
X130777120Y-101788378D01*
X130400491Y-101728726D01*
X130394048Y-101728049D01*
X130013244Y-101708092D01*
X130006756Y-101708092D01*
X129625951Y-101728049D01*
X129619508Y-101728726D01*
X129242879Y-101788378D01*
X129236537Y-101789726D01*
X128868197Y-101888422D01*
X128862044Y-101890421D01*
X128506040Y-102027079D01*
X128500116Y-102029716D01*
X128160354Y-102202833D01*
X128154733Y-102206079D01*
X127834939Y-102413756D01*
X127829678Y-102417578D01*
X127588194Y-102613127D01*
X127580305Y-102624393D01*
X100200500Y-102624393D01*
X100200500Y-100324500D01*
X100217113Y-100262500D01*
X100262500Y-100217113D01*
X100324500Y-100200500D01*
X159019500Y-100200500D01*
X159081500Y-100217113D01*
G37*
%TD.AperFunction*%
%TD*%
M02*
