%TF.GenerationSoftware,KiCad,Pcbnew,(7.0.0)*%
%TF.CreationDate,2023-03-15T21:07:42-04:00*%
%TF.ProjectId,headunit_controls,68656164-756e-4697-945f-636f6e74726f,rev?*%
%TF.SameCoordinates,Original*%
%TF.FileFunction,Soldermask,Top*%
%TF.FilePolarity,Negative*%
%FSLAX46Y46*%
G04 Gerber Fmt 4.6, Leading zero omitted, Abs format (unit mm)*
G04 Created by KiCad (PCBNEW (7.0.0)) date 2023-03-15 21:07:42*
%MOMM*%
%LPD*%
G01*
G04 APERTURE LIST*
G04 Aperture macros list*
%AMRoundRect*
0 Rectangle with rounded corners*
0 $1 Rounding radius*
0 $2 $3 $4 $5 $6 $7 $8 $9 X,Y pos of 4 corners*
0 Add a 4 corners polygon primitive as box body*
4,1,4,$2,$3,$4,$5,$6,$7,$8,$9,$2,$3,0*
0 Add four circle primitives for the rounded corners*
1,1,$1+$1,$2,$3*
1,1,$1+$1,$4,$5*
1,1,$1+$1,$6,$7*
1,1,$1+$1,$8,$9*
0 Add four rect primitives between the rounded corners*
20,1,$1+$1,$2,$3,$4,$5,0*
20,1,$1+$1,$4,$5,$6,$7,0*
20,1,$1+$1,$6,$7,$8,$9,0*
20,1,$1+$1,$8,$9,$2,$3,0*%
G04 Aperture macros list end*
%ADD10C,2.500000*%
%ADD11RoundRect,0.050000X0.800000X1.200000X-0.800000X1.200000X-0.800000X-1.200000X0.800000X-1.200000X0*%
%ADD12C,6.500000*%
%ADD13RoundRect,0.050000X0.500000X0.750000X-0.500000X0.750000X-0.500000X-0.750000X0.500000X-0.750000X0*%
%ADD14RoundRect,0.050000X-0.425000X-0.425000X0.425000X-0.425000X0.425000X0.425000X-0.425000X0.425000X0*%
%ADD15O,0.950000X0.950000*%
%ADD16RoundRect,0.300000X0.475000X-0.337500X0.475000X0.337500X-0.475000X0.337500X-0.475000X-0.337500X0*%
%ADD17RoundRect,0.287500X0.250000X0.237500X-0.250000X0.237500X-0.250000X-0.237500X0.250000X-0.237500X0*%
%ADD18RoundRect,0.050000X-0.500000X-0.750000X0.500000X-0.750000X0.500000X0.750000X-0.500000X0.750000X0*%
%ADD19RoundRect,0.050000X-1.000000X-1.000000X1.000000X-1.000000X1.000000X1.000000X-1.000000X1.000000X0*%
%ADD20RoundRect,0.050000X-0.800000X-1.200000X0.800000X-1.200000X0.800000X1.200000X-0.800000X1.200000X0*%
%ADD21RoundRect,0.050000X-0.550000X-1.425000X0.550000X-1.425000X0.550000X1.425000X-0.550000X1.425000X0*%
%ADD22RoundRect,0.050000X0.660000X0.660000X-0.660000X0.660000X-0.660000X-0.660000X0.660000X-0.660000X0*%
%ADD23C,1.420000*%
G04 APERTURE END LIST*
D10*
%TO.C,BTR_3*%
X132828082Y-150085510D02*
G75*
G03*
X132869144Y-145155378I4004033J2431888D01*
G01*
X132828083Y-150085509D02*
G75*
G03*
X132878736Y-145134476I4025717J2434589D01*
G01*
%TO.C,BTR_2*%
X132828082Y-132085510D02*
G75*
G03*
X132869144Y-127155378I4004033J2431888D01*
G01*
X132828082Y-132085510D02*
G75*
G03*
X132878736Y-127134476I4025718J2434589D01*
G01*
%TO.C,BTR_1*%
X109219082Y-150085510D02*
G75*
G03*
X109260144Y-145155378I4004033J2431888D01*
G01*
X109219082Y-150085510D02*
G75*
G03*
X109269736Y-145134476I4025718J2434589D01*
G01*
%TO.C,VOL_1*%
X132828082Y-168085510D02*
G75*
G03*
X132869144Y-163155378I4004033J2431888D01*
G01*
X132828083Y-168085509D02*
G75*
G03*
X132878736Y-163134476I4025717J2434589D01*
G01*
%TD*%
D11*
%TO.C,BAS_LED*%
X138247000Y-120600000D03*
X135397000Y-120600000D03*
%TD*%
D12*
%TO.C,M3_1*%
X130010000Y-105413000D03*
%TD*%
D13*
%TO.C,JP1*%
X146300000Y-169300000D03*
X145000000Y-169300000D03*
%TD*%
D11*
%TO.C,TRE_LED*%
X138247000Y-156650000D03*
X135397000Y-156650000D03*
%TD*%
D14*
%TO.C,LCD_CTRL*%
X145100000Y-130600000D03*
D15*
X145099999Y-131599999D03*
X145099999Y-132599999D03*
X145099999Y-133599999D03*
%TD*%
D16*
%TO.C,C1*%
X145600000Y-161000000D03*
X145600000Y-158925000D03*
%TD*%
D17*
%TO.C,R1*%
X144450000Y-174300000D03*
X142625000Y-174300000D03*
%TD*%
D18*
%TO.C,JP2*%
X146250000Y-174800000D03*
X147550000Y-174800000D03*
%TD*%
D19*
%TO.C,LED_VCC_EX*%
X102650000Y-121500000D03*
%TD*%
D20*
%TO.C,Vol_Text_LED*%
X104075000Y-125400000D03*
X106925000Y-125400000D03*
%TD*%
D21*
%TO.C,Vol_Knob_LED*%
X111943000Y-161633000D03*
X114483000Y-161633000D03*
%TD*%
D19*
%TO.C,LED_GND_EX*%
X145600000Y-172050000D03*
%TD*%
D12*
%TO.C,M3_3*%
X125656000Y-170706000D03*
%TD*%
D11*
%TO.C,FAD_LED*%
X138247000Y-138550000D03*
X135397000Y-138550000D03*
%TD*%
D12*
%TO.C,M3_2*%
X103909000Y-130945000D03*
%TD*%
D22*
%TO.C,CD_relay1*%
X120270000Y-106825000D03*
D23*
X115190000Y-106825000D03*
X110110000Y-106825000D03*
X105030000Y-106825000D03*
%TD*%
D22*
%TO.C,Am/fm_button1*%
X154420000Y-107625000D03*
D23*
X149340000Y-107625000D03*
X144260000Y-107625000D03*
X139180000Y-107625000D03*
%TD*%
D22*
%TO.C,Scan_relay1*%
X120480000Y-116400000D03*
D23*
X115400000Y-116400000D03*
X110320000Y-116400000D03*
X105240000Y-116400000D03*
%TD*%
M02*
