M48
; DRILL file {KiCad (7.0.0)} date Wed Mar 15 21:07:44 2023
; FORMAT={-:-/ absolute / inch / decimal}
; #@! TF.CreationDate,2023-03-15T21:07:44-04:00
; #@! TF.GenerationSoftware,Kicad,Pcbnew,(7.0.0)
; #@! TF.FileFunction,MixedPlating,1,2
FMAT,2
INCH
; #@! TA.AperFunction,Plated,PTH,ViaDrill
T1C0.0157
; #@! TA.AperFunction,Plated,PTH,ComponentDrill
T2C0.0197
; #@! TA.AperFunction,Plated,PTH,ComponentDrill
T3C0.0303
; #@! TA.AperFunction,Plated,PTH,ComponentDrill
T4C0.1260
%
G90
G05
T1
X3.9941Y-6.313
X4.0886Y-6.4232
X4.5743Y-6.5624
X4.583Y-6.524
X4.6791Y-6.4951
X5.063Y-6.9488
X5.0827Y-6.252
X5.1083Y-6.3583
X5.1254Y-6.739
X5.126Y-6.4134
X5.1516Y-6.3287
X5.1752Y-6.2946
X5.2103Y-6.8391
X5.2362Y-4.8386
X5.3898Y-4.8386
X5.5217Y-6.1575
X5.5256Y-6.8878
X5.5315Y-5.5138
X5.6142Y-4.9724
X5.6786Y-4.9198
X5.7185Y-5.0492
X5.7756Y-6.4626
X5.8228Y-6.6929
X5.823Y-6.7323
X5.8622Y-6.3189
X5.8642Y-6.2795
X6.0035Y-6.5418
X6.0118Y-7.1752
X6.0225Y-6.4724
X6.0286Y-6.5115
X6.1457Y-6.6142
X6.1496Y-6.9488
T2
X5.7126Y-5.1417
X5.7126Y-5.1811
X5.7126Y-5.2205
X5.7126Y-5.2598
T3
X4.135Y-4.2057
X4.1433Y-4.5827
X4.335Y-4.2057
X4.3433Y-4.5827
X4.535Y-4.2057
X4.5433Y-4.5827
X4.735Y-4.2057
X4.7433Y-4.5827
X5.4795Y-4.2372
X5.6795Y-4.2372
X5.8795Y-4.2372
X6.0795Y-4.2372
T4
X4.0909Y-5.1553
X4.9471Y-6.7207
X5.1185Y-4.1501
T0
M30
