M48
; DRILL file {KiCad (7.0.0)} date Thu Mar 30 12:23:13 2023
; FORMAT={-:-/ absolute / inch / decimal}
; #@! TF.CreationDate,2023-03-30T12:23:13-04:00
; #@! TF.GenerationSoftware,Kicad,Pcbnew,(7.0.0)
; #@! TF.FileFunction,MixedPlating,1,2
FMAT,2
INCH
; #@! TA.AperFunction,Plated,PTH,ViaDrill
T1C0.0157
; #@! TA.AperFunction,Plated,PTH,ComponentDrill
T2C0.0197
; #@! TA.AperFunction,Plated,PTH,ComponentDrill
T3C0.0315
; #@! TA.AperFunction,Plated,PTH,ComponentDrill
T4C0.0394
; #@! TA.AperFunction,Plated,PTH,ComponentDrill
T5C0.0433
; #@! TA.AperFunction,Plated,PTH,ComponentDrill
T6C0.0598
; #@! TA.AperFunction,Plated,PTH,ComponentDrill
T7C0.0787
; #@! TA.AperFunction,Plated,PTH,ComponentDrill
T8C0.1083
; #@! TA.AperFunction,Plated,PTH,ComponentDrill
T9C0.1260
; #@! TA.AperFunction,NonPlated,NPTH,ComponentDrill
T10C0.1102
; #@! TA.AperFunction,NonPlated,NPTH,ComponentDrill
T11C0.1260
%
G90
G05
T1
X3.7717Y-5.3004
X3.8189Y-5.4139
X4.5945Y-4.4213
X4.811Y-5.8504
X4.8583Y-5.9213
X5.2504Y-5.967
X5.2839Y-5.9335
X6.0748Y-3.8583
X6.1299Y-4.5236
X6.1772Y-3.8425
X6.2244Y-3.8504
X6.248Y-5.5492
X6.2756Y-4.0197
X6.3228Y-4.0197
X6.374Y-3.8701
T2
X1.4526Y-2.9726
X1.4803Y-2.9057
X1.4803Y-3.0394
X1.5471Y-2.8781
X1.5471Y-3.067
X1.6139Y-2.9057
X1.6139Y-3.0394
X1.6416Y-2.9726
X3.6929Y-5.8858
X3.7206Y-5.819
X3.7206Y-5.9526
X3.7874Y-5.7913
X3.7874Y-5.9803
X3.8542Y-5.819
X3.8542Y-5.9526
X3.8819Y-5.8858
X6.6457Y-2.8228
X6.6733Y-2.756
X6.6733Y-2.8896
X6.7402Y-2.7283
X6.7402Y-2.9173
X6.807Y-2.756
X6.807Y-2.8896
X6.8346Y-2.8228
X8.4764Y-6.1929
X8.5041Y-6.1261
X8.5041Y-6.2597
X8.5709Y-6.0984
X8.5709Y-6.2874
X8.6377Y-6.1261
X8.6377Y-6.2597
X8.6654Y-6.1929
T3
X5.763Y-3.6142
X6.063Y-3.6142
X6.498Y-4.7362
X6.6902Y-4.7362
T4
X3.2254Y-2.8415
X3.2254Y-2.9415
X3.3254Y-2.8415
X3.3254Y-2.9415
X3.5634Y-3.5016
X3.5634Y-3.6016
X3.5634Y-3.7016
X3.5634Y-3.8016
X3.5634Y-3.9016
X3.5634Y-4.0016
X3.5634Y-4.1016
X3.5634Y-4.2016
X3.5634Y-4.3016
X3.5634Y-4.4016
X3.5634Y-4.5016
X3.5634Y-4.6016
X3.5634Y-4.7016
X3.5634Y-4.8016
X3.5634Y-4.9016
X3.5634Y-5.0016
X3.5634Y-5.1016
X3.5634Y-5.2016
X3.5634Y-5.3016
X3.5634Y-5.4016
X3.6634Y-3.5016
X3.6634Y-3.6016
X3.6634Y-3.7016
X3.6634Y-3.8016
X3.6634Y-3.9016
X3.6634Y-4.0016
X3.6634Y-4.1016
X3.6634Y-4.2016
X3.6634Y-4.3016
X3.6634Y-4.4016
X3.6634Y-4.5016
X3.6634Y-4.6016
X3.6634Y-4.7016
X3.6634Y-4.8016
X3.6634Y-4.9016
X3.6634Y-5.0016
X3.6634Y-5.1016
X3.6634Y-5.2016
X3.6634Y-5.3016
X3.6634Y-5.4016
X3.8118Y-6.1772
X3.9118Y-6.1772
X3.9618Y-6.2772
X3.9665Y-3.5004
X3.9665Y-3.6004
X3.9665Y-3.7004
X3.9665Y-3.8004
X3.9665Y-3.9004
X3.9665Y-4.0004
X3.9665Y-4.1004
X3.9665Y-4.2004
X3.9665Y-4.3004
X3.9665Y-4.4004
X3.9665Y-4.5004
X3.9665Y-4.6004
X3.9665Y-4.7004
X3.9665Y-4.8004
X3.9665Y-4.9004
X3.9665Y-5.0004
X3.9665Y-5.1004
X3.9665Y-5.2004
X3.9665Y-5.3004
X3.9665Y-5.4004
X4.0118Y-6.1772
X4.0618Y-6.2772
X4.0665Y-3.5004
X4.0665Y-3.6004
X4.0665Y-3.7004
X4.0665Y-3.8004
X4.0665Y-3.9004
X4.0665Y-4.0004
X4.0665Y-4.1004
X4.0665Y-4.2004
X4.0665Y-4.3004
X4.0665Y-4.4004
X4.0665Y-4.5004
X4.0665Y-4.6004
X4.0665Y-4.7004
X4.0665Y-4.8004
X4.0665Y-4.9004
X4.0665Y-5.0004
X4.0665Y-5.1004
X4.0665Y-5.2004
X4.0665Y-5.3004
X4.0665Y-5.4004
X4.1118Y-6.1772
X4.1618Y-6.2772
X4.2118Y-6.1772
X4.2618Y-6.2772
X4.3118Y-6.1772
X4.3618Y-6.2772
X4.4118Y-6.1772
X4.4467Y-5.4094
X4.5118Y-6.1772
X4.5136Y-3.7402
X4.5136Y-3.8858
X4.5136Y-4.0315
X4.5136Y-4.1772
X4.5467Y-5.4094
X4.6136Y-3.7402
X4.6136Y-3.8858
X4.6136Y-4.0315
X4.6136Y-4.1772
X4.9217Y-6.1748
X4.9309Y-3.4882
X5.0217Y-6.1748
X5.0309Y-3.4882
X5.0717Y-6.2748
X5.1217Y-6.1748
X5.1317Y-3.4882
X5.1717Y-6.2748
X5.2217Y-6.1748
X5.2317Y-3.4882
X5.2447Y-5.3752
X5.2447Y-5.4752
X5.2717Y-6.2748
X5.3217Y-6.1748
X5.3687Y-4.4134
X5.3687Y-4.5134
X5.3687Y-4.6134
X5.3696Y-3.5141
X5.3696Y-3.6141
X5.3696Y-3.7141
X5.3696Y-3.8141
X5.3696Y-3.9141
X5.3696Y-4.0141
X5.3696Y-4.1141
X5.3696Y-4.2141
X5.3696Y-4.3141
X5.3696Y-4.7141
X5.3696Y-4.8141
X5.3696Y-4.9141
X5.3696Y-5.0141
X5.3696Y-5.1141
X5.3696Y-5.2141
X5.3696Y-5.3141
X5.3696Y-5.4141
X5.3717Y-6.2748
X5.4217Y-6.1748
X5.4687Y-4.4134
X5.4687Y-4.5134
X5.4696Y-3.5141
X5.4696Y-3.6141
X5.4696Y-3.7141
X5.4696Y-3.8141
X5.4696Y-3.9141
X5.4696Y-4.0141
X5.4696Y-4.1141
X5.4696Y-4.2141
X5.4696Y-4.3141
X5.4696Y-4.6141
X5.4696Y-4.7141
X5.4696Y-4.8141
X5.4696Y-4.9141
X5.4696Y-5.0141
X5.4696Y-5.1141
X5.4696Y-5.2141
X5.4696Y-5.3141
X5.4696Y-5.4141
X5.4717Y-6.2748
X5.5217Y-6.1748
X5.6217Y-6.1748
X6.2795Y-5.9252
X6.3795Y-5.9252
X6.4795Y-5.9252
X6.5795Y-5.9252
X6.6795Y-5.9252
X7.685Y-6.0709
X7.785Y-6.0709
T5
X4.3976Y-5.8228
X4.3976Y-6.0
X4.6535Y-5.8228
X4.6535Y-6.0
T6
X4.8748Y-2.878
X5.0748Y-2.878
T7
X7.5492Y-2.8031
X7.5492Y-5.6378
X8.3602Y-2.8031
X8.3602Y-5.6378
T8
X1.3701Y-3.2953
X1.3701Y-5.5787
X3.2992Y-3.2953
X3.2992Y-5.5787
T9
X1.5471Y-2.9726
X3.7874Y-5.8858
X6.7402Y-2.8228
X8.5709Y-6.1929
T10
X4.5163Y-3.3228
X4.5163Y-5.6063
X5.4219Y-3.3228
X5.4219Y-5.6063
T11
X7.5492Y-3.1081
X7.5492Y-5.2974
X8.3602Y-3.1081
X8.3602Y-5.2974
T0
M30
