%TF.GenerationSoftware,KiCad,Pcbnew,(7.0.0)*%
%TF.CreationDate,2023-03-30T12:26:05-04:00*%
%TF.ProjectId,headunit_hub,68656164-756e-4697-945f-6875622e6b69,rev?*%
%TF.SameCoordinates,Original*%
%TF.FileFunction,Copper,L1,Top*%
%TF.FilePolarity,Positive*%
%FSLAX46Y46*%
G04 Gerber Fmt 4.6, Leading zero omitted, Abs format (unit mm)*
G04 Created by KiCad (PCBNEW (7.0.0)) date 2023-03-30 12:26:05*
%MOMM*%
%LPD*%
G01*
G04 APERTURE LIST*
%TA.AperFunction,EtchedComponent*%
%ADD10C,0.010000*%
%TD*%
%TA.AperFunction,SMDPad,CuDef*%
%ADD11R,2.000000X2.000000*%
%TD*%
%TA.AperFunction,SMDPad,CuDef*%
%ADD12R,0.300000X1.300000*%
%TD*%
%TA.AperFunction,SMDPad,CuDef*%
%ADD13R,1.800000X2.200000*%
%TD*%
%TA.AperFunction,ComponentPad*%
%ADD14R,1.700000X1.700000*%
%TD*%
%TA.AperFunction,ComponentPad*%
%ADD15C,1.400000*%
%TD*%
%TA.AperFunction,ComponentPad*%
%ADD16O,1.400000X1.400000*%
%TD*%
%TA.AperFunction,ComponentPad*%
%ADD17O,1.700000X1.700000*%
%TD*%
%TA.AperFunction,ComponentPad*%
%ADD18C,0.800000*%
%TD*%
%TA.AperFunction,ComponentPad*%
%ADD19C,6.400000*%
%TD*%
%TA.AperFunction,ViaPad*%
%ADD20C,0.800000*%
%TD*%
%TA.AperFunction,Conductor*%
%ADD21C,0.250000*%
%TD*%
%TA.AperFunction,Conductor*%
%ADD22C,0.350000*%
%TD*%
G04 APERTURE END LIST*
%TO.C,H3*%
G36*
X122556712Y-84222468D02*
G01*
X122655744Y-84222468D01*
X122672448Y-84412368D01*
X122723459Y-84597587D01*
X122808657Y-84773380D01*
X122927923Y-84935005D01*
X123081138Y-85077715D01*
X123134886Y-85116945D01*
X123220903Y-85167162D01*
X123324066Y-85214184D01*
X123430350Y-85252768D01*
X123525731Y-85277671D01*
X123582337Y-85284221D01*
X123651129Y-85284668D01*
X123651129Y-84797835D01*
X123651129Y-84606528D01*
X123592920Y-84622066D01*
X123470583Y-84638400D01*
X123335149Y-84630405D01*
X123206793Y-84599930D01*
X123163945Y-84582782D01*
X123043581Y-84517587D01*
X122953473Y-84442534D01*
X122881578Y-84346055D01*
X122842774Y-84274292D01*
X122787020Y-84116764D01*
X122771709Y-83956298D01*
X122797026Y-83798449D01*
X122824556Y-83723200D01*
X122885766Y-83621002D01*
X122973475Y-83521807D01*
X123075311Y-83437242D01*
X123178898Y-83378930D01*
X123199064Y-83371330D01*
X123357564Y-83337727D01*
X123515339Y-83341914D01*
X123665645Y-83381296D01*
X123801739Y-83453275D01*
X123916879Y-83555257D01*
X124002269Y-83680589D01*
X124030874Y-83738114D01*
X124049389Y-83778336D01*
X124053295Y-83789420D01*
X124035533Y-83800686D01*
X124002345Y-83811200D01*
X123949059Y-83826255D01*
X123919590Y-83836192D01*
X123888147Y-83829792D01*
X123873122Y-83802192D01*
X123840308Y-83742066D01*
X123782669Y-83673131D01*
X123712194Y-83607484D01*
X123640870Y-83557221D01*
X123619379Y-83546158D01*
X123493660Y-83510947D01*
X123362813Y-83512961D01*
X123235980Y-83549571D01*
X123122307Y-83618148D01*
X123031569Y-83715153D01*
X122996979Y-83768445D01*
X122976537Y-83814457D01*
X122966569Y-83867667D01*
X122963400Y-83942552D01*
X122963212Y-83984464D01*
X122964925Y-84075026D01*
X122972204Y-84137558D01*
X122988257Y-84186294D01*
X123016291Y-84235472D01*
X123021601Y-84243575D01*
X123111889Y-84349092D01*
X123220430Y-84417522D01*
X123351729Y-84451419D01*
X123394789Y-84455160D01*
X123476977Y-84455856D01*
X123550000Y-84450000D01*
X123591781Y-84440767D01*
X123625819Y-84422788D01*
X123644137Y-84394163D01*
X123648059Y-84370648D01*
X123862795Y-84370648D01*
X123862795Y-84797835D01*
X124037420Y-84796640D01*
X124130022Y-84792966D01*
X124215671Y-84784341D01*
X124278129Y-84772495D01*
X124285577Y-84770181D01*
X124356045Y-84726169D01*
X124399512Y-84658563D01*
X124413397Y-84578350D01*
X124395120Y-84496517D01*
X124362083Y-84444473D01*
X124337160Y-84417940D01*
X124310817Y-84400416D01*
X124273724Y-84389641D01*
X124216551Y-84383357D01*
X124129969Y-84379306D01*
X124086917Y-84377866D01*
X123862795Y-84370648D01*
X123648059Y-84370648D01*
X123652836Y-84342006D01*
X123655281Y-84306667D01*
X123661712Y-84194585D01*
X124001931Y-84197109D01*
X124156066Y-84199919D01*
X124274545Y-84206924D01*
X124363972Y-84219858D01*
X124430954Y-84240460D01*
X124482096Y-84270463D01*
X124524004Y-84311606D01*
X124545837Y-84340069D01*
X124570441Y-84381616D01*
X124584854Y-84429044D01*
X124591556Y-84494929D01*
X124593045Y-84579324D01*
X124588344Y-84689458D01*
X124570717Y-84770055D01*
X124534878Y-84833215D01*
X124475543Y-84891039D01*
X124447328Y-84912943D01*
X124416605Y-84931867D01*
X124378286Y-84945057D01*
X124323782Y-84953879D01*
X124244508Y-84959698D01*
X124131877Y-84963880D01*
X124125844Y-84964053D01*
X123862795Y-84971521D01*
X123862795Y-85289379D01*
X123942170Y-85275755D01*
X123997860Y-85260123D01*
X124076801Y-85230405D01*
X124164727Y-85192124D01*
X124193434Y-85178479D01*
X124367382Y-85071284D01*
X124516582Y-84933696D01*
X124637418Y-84771444D01*
X124726276Y-84590259D01*
X124779539Y-84395872D01*
X124794129Y-84226335D01*
X124774391Y-84028921D01*
X124718031Y-83842481D01*
X124629330Y-83670751D01*
X124512568Y-83517464D01*
X124372026Y-83386355D01*
X124211983Y-83281159D01*
X124036721Y-83205608D01*
X123850519Y-83163439D01*
X123657659Y-83158385D01*
X123580423Y-83167462D01*
X123395183Y-83210036D01*
X123234366Y-83276943D01*
X123090992Y-83368788D01*
X122934376Y-83510934D01*
X122812663Y-83672120D01*
X122725732Y-83847600D01*
X122673466Y-84032630D01*
X122655744Y-84222468D01*
X122556712Y-84222468D01*
X122570098Y-84031049D01*
X122625799Y-83826807D01*
X122721644Y-83633909D01*
X122857006Y-83454438D01*
X122899712Y-83409097D01*
X123069616Y-83264219D01*
X123255759Y-83158405D01*
X123458594Y-83091466D01*
X123678575Y-83063214D01*
X123732390Y-83062168D01*
X123945063Y-83082554D01*
X124147127Y-83141479D01*
X124334094Y-83235594D01*
X124501478Y-83361549D01*
X124644790Y-83515996D01*
X124759543Y-83695584D01*
X124838404Y-83887668D01*
X124870195Y-84037372D01*
X124882245Y-84206490D01*
X124874566Y-84377440D01*
X124847175Y-84532641D01*
X124837855Y-84565001D01*
X124751426Y-84773671D01*
X124632567Y-84955725D01*
X124482849Y-85109771D01*
X124303844Y-85234415D01*
X124097122Y-85328263D01*
X123921004Y-85378453D01*
X123878388Y-85396247D01*
X123863621Y-85433388D01*
X123862795Y-85454404D01*
X123860450Y-85491758D01*
X123846136Y-85510384D01*
X123808934Y-85516795D01*
X123756962Y-85517501D01*
X123694281Y-85516012D01*
X123663021Y-85507435D01*
X123652279Y-85485606D01*
X123651129Y-85457660D01*
X123648579Y-85425625D01*
X123634802Y-85405187D01*
X123600603Y-85390814D01*
X123536790Y-85376975D01*
X123508254Y-85371690D01*
X123305160Y-85313692D01*
X123117163Y-85219174D01*
X122948849Y-85092624D01*
X122804809Y-84938532D01*
X122689628Y-84761384D01*
X122607897Y-84565670D01*
X122581637Y-84465240D01*
X122555168Y-84244554D01*
X122556712Y-84222468D01*
G37*
D10*
X122556712Y-84222468D02*
X122655744Y-84222468D01*
X122672448Y-84412368D01*
X122723459Y-84597587D01*
X122808657Y-84773380D01*
X122927923Y-84935005D01*
X123081138Y-85077715D01*
X123134886Y-85116945D01*
X123220903Y-85167162D01*
X123324066Y-85214184D01*
X123430350Y-85252768D01*
X123525731Y-85277671D01*
X123582337Y-85284221D01*
X123651129Y-85284668D01*
X123651129Y-84797835D01*
X123651129Y-84606528D01*
X123592920Y-84622066D01*
X123470583Y-84638400D01*
X123335149Y-84630405D01*
X123206793Y-84599930D01*
X123163945Y-84582782D01*
X123043581Y-84517587D01*
X122953473Y-84442534D01*
X122881578Y-84346055D01*
X122842774Y-84274292D01*
X122787020Y-84116764D01*
X122771709Y-83956298D01*
X122797026Y-83798449D01*
X122824556Y-83723200D01*
X122885766Y-83621002D01*
X122973475Y-83521807D01*
X123075311Y-83437242D01*
X123178898Y-83378930D01*
X123199064Y-83371330D01*
X123357564Y-83337727D01*
X123515339Y-83341914D01*
X123665645Y-83381296D01*
X123801739Y-83453275D01*
X123916879Y-83555257D01*
X124002269Y-83680589D01*
X124030874Y-83738114D01*
X124049389Y-83778336D01*
X124053295Y-83789420D01*
X124035533Y-83800686D01*
X124002345Y-83811200D01*
X123949059Y-83826255D01*
X123919590Y-83836192D01*
X123888147Y-83829792D01*
X123873122Y-83802192D01*
X123840308Y-83742066D01*
X123782669Y-83673131D01*
X123712194Y-83607484D01*
X123640870Y-83557221D01*
X123619379Y-83546158D01*
X123493660Y-83510947D01*
X123362813Y-83512961D01*
X123235980Y-83549571D01*
X123122307Y-83618148D01*
X123031569Y-83715153D01*
X122996979Y-83768445D01*
X122976537Y-83814457D01*
X122966569Y-83867667D01*
X122963400Y-83942552D01*
X122963212Y-83984464D01*
X122964925Y-84075026D01*
X122972204Y-84137558D01*
X122988257Y-84186294D01*
X123016291Y-84235472D01*
X123021601Y-84243575D01*
X123111889Y-84349092D01*
X123220430Y-84417522D01*
X123351729Y-84451419D01*
X123394789Y-84455160D01*
X123476977Y-84455856D01*
X123550000Y-84450000D01*
X123591781Y-84440767D01*
X123625819Y-84422788D01*
X123644137Y-84394163D01*
X123648059Y-84370648D01*
X123862795Y-84370648D01*
X123862795Y-84797835D01*
X124037420Y-84796640D01*
X124130022Y-84792966D01*
X124215671Y-84784341D01*
X124278129Y-84772495D01*
X124285577Y-84770181D01*
X124356045Y-84726169D01*
X124399512Y-84658563D01*
X124413397Y-84578350D01*
X124395120Y-84496517D01*
X124362083Y-84444473D01*
X124337160Y-84417940D01*
X124310817Y-84400416D01*
X124273724Y-84389641D01*
X124216551Y-84383357D01*
X124129969Y-84379306D01*
X124086917Y-84377866D01*
X123862795Y-84370648D01*
X123648059Y-84370648D01*
X123652836Y-84342006D01*
X123655281Y-84306667D01*
X123661712Y-84194585D01*
X124001931Y-84197109D01*
X124156066Y-84199919D01*
X124274545Y-84206924D01*
X124363972Y-84219858D01*
X124430954Y-84240460D01*
X124482096Y-84270463D01*
X124524004Y-84311606D01*
X124545837Y-84340069D01*
X124570441Y-84381616D01*
X124584854Y-84429044D01*
X124591556Y-84494929D01*
X124593045Y-84579324D01*
X124588344Y-84689458D01*
X124570717Y-84770055D01*
X124534878Y-84833215D01*
X124475543Y-84891039D01*
X124447328Y-84912943D01*
X124416605Y-84931867D01*
X124378286Y-84945057D01*
X124323782Y-84953879D01*
X124244508Y-84959698D01*
X124131877Y-84963880D01*
X124125844Y-84964053D01*
X123862795Y-84971521D01*
X123862795Y-85289379D01*
X123942170Y-85275755D01*
X123997860Y-85260123D01*
X124076801Y-85230405D01*
X124164727Y-85192124D01*
X124193434Y-85178479D01*
X124367382Y-85071284D01*
X124516582Y-84933696D01*
X124637418Y-84771444D01*
X124726276Y-84590259D01*
X124779539Y-84395872D01*
X124794129Y-84226335D01*
X124774391Y-84028921D01*
X124718031Y-83842481D01*
X124629330Y-83670751D01*
X124512568Y-83517464D01*
X124372026Y-83386355D01*
X124211983Y-83281159D01*
X124036721Y-83205608D01*
X123850519Y-83163439D01*
X123657659Y-83158385D01*
X123580423Y-83167462D01*
X123395183Y-83210036D01*
X123234366Y-83276943D01*
X123090992Y-83368788D01*
X122934376Y-83510934D01*
X122812663Y-83672120D01*
X122725732Y-83847600D01*
X122673466Y-84032630D01*
X122655744Y-84222468D01*
X122556712Y-84222468D01*
X122570098Y-84031049D01*
X122625799Y-83826807D01*
X122721644Y-83633909D01*
X122857006Y-83454438D01*
X122899712Y-83409097D01*
X123069616Y-83264219D01*
X123255759Y-83158405D01*
X123458594Y-83091466D01*
X123678575Y-83063214D01*
X123732390Y-83062168D01*
X123945063Y-83082554D01*
X124147127Y-83141479D01*
X124334094Y-83235594D01*
X124501478Y-83361549D01*
X124644790Y-83515996D01*
X124759543Y-83695584D01*
X124838404Y-83887668D01*
X124870195Y-84037372D01*
X124882245Y-84206490D01*
X124874566Y-84377440D01*
X124847175Y-84532641D01*
X124837855Y-84565001D01*
X124751426Y-84773671D01*
X124632567Y-84955725D01*
X124482849Y-85109771D01*
X124303844Y-85234415D01*
X124097122Y-85328263D01*
X123921004Y-85378453D01*
X123878388Y-85396247D01*
X123863621Y-85433388D01*
X123862795Y-85454404D01*
X123860450Y-85491758D01*
X123846136Y-85510384D01*
X123808934Y-85516795D01*
X123756962Y-85517501D01*
X123694281Y-85516012D01*
X123663021Y-85507435D01*
X123652279Y-85485606D01*
X123651129Y-85457660D01*
X123648579Y-85425625D01*
X123634802Y-85405187D01*
X123600603Y-85390814D01*
X123536790Y-85376975D01*
X123508254Y-85371690D01*
X123305160Y-85313692D01*
X123117163Y-85219174D01*
X122948849Y-85092624D01*
X122804809Y-84938532D01*
X122689628Y-84761384D01*
X122607897Y-84565670D01*
X122581637Y-84465240D01*
X122555168Y-84244554D01*
X122556712Y-84222468D01*
%TD*%
D11*
%TO.P,Ex1,1,Pin_1*%
%TO.N,Net-(Expansion_1-Pin_1)*%
X147899999Y-90649999D03*
%TD*%
D12*
%TO.P,ToPi,1,Pin_1*%
%TO.N,AMFM_button*%
X150049999Y-80599999D03*
%TO.P,ToPi,2,Pin_2*%
%TO.N,SCAN_button*%
X149549999Y-80599999D03*
%TO.P,ToPi,3,Pin_3*%
%TO.N,CD_button*%
X149049999Y-80599999D03*
%TO.P,ToPi,4,Pin_4*%
%TO.N,unconnected-(ToPi_ribbon1-Pin_4-Pad4)*%
X148549999Y-80599999D03*
%TO.P,ToPi,5,Pin_5*%
%TO.N,Scrn_Brightness*%
X148049999Y-80599999D03*
%TO.P,ToPi,6,Pin_6*%
%TO.N,Net-(Expansion_2-Pin_1)*%
X147549999Y-80599999D03*
%TO.P,ToPi,7,Pin_7*%
%TO.N,Net-(Expansion_1-Pin_1)*%
X147049999Y-80599999D03*
%TO.P,ToPi,8,Pin_8*%
%TO.N,unconnected-(ToPi_ribbon1-Pin_8-Pad8)*%
X146549999Y-80599999D03*
%TO.P,ToPi,9,Pin_9*%
%TO.N,GND*%
X146049999Y-80599999D03*
%TO.P,ToPi,10,Pin_10*%
X145549999Y-80599999D03*
%TO.P,ToPi,11,Pin_11*%
X145049999Y-80599999D03*
%TO.P,ToPi,12,Pin_12*%
X144549999Y-80599999D03*
%TO.P,ToPi,13,Pin_13*%
%TO.N,VCC*%
X144049999Y-80599999D03*
%TO.P,ToPi,14,Pin_14*%
X143549999Y-80599999D03*
%TO.P,ToPi,15,Pin_15*%
X143049999Y-80599999D03*
%TO.P,ToPi,16,Pin_16*%
X142549999Y-80599999D03*
%TO.P,ToPi,17,Pin_17*%
%TO.N,Expansion_7*%
X142049999Y-80599999D03*
%TO.P,ToPi,18,Pin_18*%
%TO.N,Expansion_6*%
X141549999Y-80599999D03*
%TO.P,ToPi,19,Pin_19*%
%TO.N,Expansion_5*%
X141049999Y-80599999D03*
%TO.P,ToPi,20,Pin_20*%
%TO.N,Expansion_4*%
X140549999Y-80599999D03*
D13*
%TO.P,ToPi,MP*%
%TO.N,N/C*%
X151949999Y-77349999D03*
X138649999Y-77349999D03*
%TD*%
D14*
%TO.P,LSCAN,1,Pin_1*%
%TO.N,/LSCAN*%
X161599999Y-94249999D03*
%TD*%
D11*
%TO.P,Ex2,1,Pin_1*%
%TO.N,Net-(Expansion_2-Pin_1)*%
X148699999Y-86149999D03*
%TD*%
D15*
%TO.P,R1,1*%
%TO.N,VCC*%
X161600000Y-80050000D03*
D16*
%TO.P,R1,2*%
%TO.N,/R_to_ActiveLED*%
X166679999Y-80049999D03*
%TD*%
D14*
%TO.P,J5,1,VBUS*%
%TO.N,VCC*%
X185099999Y-84089999D03*
D17*
%TO.P,J5,2,D-*%
%TO.N,Net-(J5-D-)*%
X185099999Y-86629999D03*
%TO.P,J5,3,D+*%
%TO.N,Net-(J5-D+)*%
X185099999Y-89169999D03*
%TO.P,J5,4,GND*%
%TO.N,GND*%
X185099999Y-91709999D03*
%TO.P,J5,5,Shield*%
%TO.N,unconnected-(J5-Shield-Pad5)*%
X185099999Y-94249999D03*
%TD*%
D18*
%TO.P,H4,1,1*%
%TO.N,GND*%
X106550000Y-100250000D03*
X107252944Y-98552944D03*
X107252944Y-101947056D03*
X108950000Y-97850000D03*
D19*
X108950000Y-100250000D03*
D18*
X108950000Y-102650000D03*
X110647056Y-98552944D03*
X110647056Y-101947056D03*
X111350000Y-100250000D03*
%TD*%
D14*
%TO.P,J6,1,Pin_1*%
%TO.N,VCC*%
X162799999Y-83759999D03*
D17*
%TO.P,J6,2,Pin_2*%
%TO.N,GND*%
X165339999Y-83759999D03*
%TO.P,J6,3,Pin_3*%
%TO.N,VCC*%
X162799999Y-86299999D03*
%TO.P,J6,4,Pin_4*%
%TO.N,GND*%
X165339999Y-86299999D03*
%TO.P,J6,5,Pin_5*%
%TO.N,VCC*%
X162799999Y-88839999D03*
%TO.P,J6,6,Pin_6*%
%TO.N,GND*%
X165339999Y-88839999D03*
%TD*%
D18*
%TO.P,H2,1,1*%
%TO.N,GND*%
X179950000Y-101750000D03*
X180652944Y-100052944D03*
X180652944Y-103447056D03*
X182350000Y-99350000D03*
D19*
X182350000Y-101750000D03*
D18*
X182350000Y-104150000D03*
X184047056Y-100052944D03*
X184047056Y-103447056D03*
X184750000Y-101750000D03*
%TD*%
%TO.P,H5,1,1*%
%TO.N,GND*%
X179500000Y-77850000D03*
X180202944Y-76152944D03*
X180202944Y-79547056D03*
X181900000Y-75450000D03*
D19*
X181900000Y-77850000D03*
D18*
X181900000Y-80250000D03*
X183597056Y-76152944D03*
X183597056Y-79547056D03*
X184300000Y-77850000D03*
%TD*%
D17*
%TO.P,J1,1*%
%TO.N,GND*%
X167574999Y-101834999D03*
%TO.P,J1,2*%
X166304999Y-99294999D03*
%TO.P,J1,3*%
X165034999Y-101834999D03*
%TO.P,J1,4*%
%TO.N,Net-(J5-D-)*%
X163764999Y-99294999D03*
%TO.P,J1,5*%
%TO.N,Net-(J5-D+)*%
X162494999Y-101834999D03*
%TO.P,J1,6*%
%TO.N,/LSCAN*%
X161224999Y-99294999D03*
%TO.P,J1,7*%
%TO.N,VCC*%
X159954999Y-101834999D03*
%TO.P,J1,8*%
X158684999Y-99294999D03*
%TO.P,J1,9*%
%TO.N,GND*%
X171384999Y-99294999D03*
%TO.P,J1,10*%
%TO.N,/R_to_ActiveLED*%
X168844999Y-99294999D03*
%TO.P,J1,11*%
%TO.N,unconnected-(J1-Pad11)*%
X156144999Y-99294999D03*
%TO.P,J1,12*%
%TO.N,unconnected-(J1-Pad12)*%
X153604999Y-99294999D03*
%TO.P,J1,SH*%
%TO.N,GND*%
X157414999Y-101834999D03*
%TD*%
D18*
%TO.P,H1,1,1*%
%TO.N,GND*%
X106350000Y-77700000D03*
X107052944Y-76002944D03*
X107052944Y-79397056D03*
X108750000Y-75300000D03*
D19*
X108750000Y-77700000D03*
D18*
X108750000Y-80100000D03*
X110447056Y-76002944D03*
X110447056Y-79397056D03*
X111150000Y-77700000D03*
%TD*%
D17*
%TO.P,J3,1*%
%TO.N,AMFM_button*%
X138064999Y-101834999D03*
%TO.P,J3,2*%
%TO.N,SCAN_button*%
X136794999Y-99294999D03*
%TO.P,J3,3*%
%TO.N,CD_button*%
X135524999Y-101834999D03*
%TO.P,J3,4*%
%TO.N,Scrn_Brightness*%
X134254999Y-99294999D03*
%TO.P,J3,5*%
%TO.N,Expansion_7*%
X132984999Y-101834999D03*
%TO.P,J3,6*%
%TO.N,Expansion_6*%
X131714999Y-99294999D03*
%TO.P,J3,7*%
%TO.N,Expansion_5*%
X130444999Y-101834999D03*
%TO.P,J3,8*%
%TO.N,Expansion_4*%
X129174999Y-99294999D03*
%TO.P,J3,9*%
%TO.N,unconnected-(J3-Pad9)*%
X141874999Y-99294999D03*
%TO.P,J3,10*%
%TO.N,unconnected-(J3-Pad10)*%
X139334999Y-99294999D03*
%TO.P,J3,11*%
%TO.N,unconnected-(J3-Pad11)*%
X126634999Y-99294999D03*
%TO.P,J3,12*%
%TO.N,unconnected-(J3-Pad12)*%
X124094999Y-99294999D03*
%TO.P,J3,SH*%
%TO.N,GND*%
X127904999Y-101834999D03*
%TD*%
D20*
%TO.N,GND*%
X143650000Y-85700000D03*
X143650000Y-83150000D03*
X145550000Y-85900000D03*
X145250000Y-84450000D03*
%TO.N,Net-(J5-D-)*%
X171300000Y-103450000D03*
%TO.N,Net-(J5-D+)*%
X173350000Y-104350000D03*
%TD*%
D21*
%TO.N,Net-(Expansion_1-Pin_1)*%
X147900000Y-90650000D02*
X147050000Y-89800000D01*
X147050000Y-89800000D02*
X147050000Y-80600000D01*
%TO.N,Net-(Expansion_2-Pin_1)*%
X147550000Y-85000000D02*
X147550000Y-80600000D01*
X148700000Y-86150000D02*
X147550000Y-85000000D01*
%TO.N,AMFM_button*%
X138065000Y-101835000D02*
X140893464Y-101835000D01*
X140893464Y-101835000D02*
X150705002Y-92023462D01*
X150705002Y-81255002D02*
X150050000Y-80600000D01*
X150705002Y-92023462D02*
X150705002Y-81255002D01*
%TO.N,SCAN_button*%
X150328501Y-82182501D02*
X149550000Y-81404000D01*
X149308158Y-92279000D02*
X150328501Y-91258657D01*
X136795000Y-99295000D02*
X143811000Y-92279000D01*
X143811000Y-92279000D02*
X149308158Y-92279000D01*
X150328501Y-91258657D02*
X150328501Y-82182501D01*
X149550000Y-81404000D02*
X149550000Y-80600000D01*
%TO.N,CD_button*%
X140323916Y-102937000D02*
X151150000Y-92110916D01*
X151150000Y-92110916D02*
X151150000Y-80396000D01*
X149052000Y-79698000D02*
X149050000Y-79700000D01*
X151150000Y-80396000D02*
X150452000Y-79698000D01*
X135525000Y-101835000D02*
X136627000Y-102937000D01*
X149050000Y-79700000D02*
X149050000Y-80600000D01*
X150452000Y-79698000D02*
X149052000Y-79698000D01*
X136627000Y-102937000D02*
X140323916Y-102937000D01*
%TO.N,Scrn_Brightness*%
X149952000Y-83402000D02*
X148050000Y-81500000D01*
X148050000Y-81500000D02*
X148050000Y-80600000D01*
X134255000Y-99295000D02*
X141648000Y-91902000D01*
X149952000Y-91102000D02*
X149952000Y-83402000D01*
X141648000Y-91902000D02*
X149152000Y-91902000D01*
X149152000Y-91902000D02*
X149952000Y-91102000D01*
%TO.N,Expansion_7*%
X142050000Y-89941536D02*
X132985000Y-99006536D01*
X132985000Y-99006536D02*
X132985000Y-101835000D01*
X142050000Y-80600000D02*
X142050000Y-89941536D01*
%TO.N,Expansion_6*%
X141550000Y-80600000D02*
X141550000Y-89460000D01*
X141550000Y-89460000D02*
X131715000Y-99295000D01*
%TO.N,VCC*%
X143550000Y-80600000D02*
X143550000Y-79250000D01*
X143350000Y-79250000D02*
X143050000Y-79550000D01*
X143050000Y-79550000D02*
X143050000Y-80600000D01*
X144050000Y-80600000D02*
X144050000Y-79750000D01*
D22*
X160800000Y-79250000D02*
X161600000Y-80050000D01*
X162800000Y-81250000D02*
X161600000Y-80050000D01*
X162800000Y-86300000D02*
X162800000Y-88840000D01*
X143550000Y-79250000D02*
X160800000Y-79250000D01*
D21*
X142550000Y-80050000D02*
X143350000Y-79250000D01*
X142550000Y-80600000D02*
X143050000Y-80600000D01*
D22*
X158685000Y-92955000D02*
X162800000Y-88840000D01*
X159955000Y-101835000D02*
X159955000Y-100565000D01*
D21*
X142550000Y-80600000D02*
X142550000Y-80050000D01*
D22*
X162800000Y-83760000D02*
X162800000Y-86300000D01*
D21*
X144050000Y-79750000D02*
X143550000Y-79250000D01*
D22*
X158685000Y-99295000D02*
X158685000Y-92955000D01*
X162800000Y-83760000D02*
X162800000Y-81250000D01*
D21*
X143550000Y-79250000D02*
X143350000Y-79250000D01*
D22*
X159955000Y-100565000D02*
X158685000Y-99295000D01*
D21*
X143550000Y-80600000D02*
X144050000Y-80600000D01*
%TO.N,Expansion_5*%
X141050000Y-87953158D02*
X130445000Y-98558158D01*
X130445000Y-98558158D02*
X130445000Y-101835000D01*
X141050000Y-80600000D02*
X141050000Y-87953158D01*
%TO.N,Expansion_4*%
X129175000Y-99295000D02*
X140550000Y-87920000D01*
X140550000Y-87920000D02*
X140550000Y-80600000D01*
%TO.N,GND*%
X165340000Y-83760000D02*
X165340000Y-86300000D01*
X145550000Y-84150000D02*
X145550000Y-80600000D01*
X145550000Y-80600000D02*
X146050000Y-80600000D01*
X145250000Y-84450000D02*
X144550000Y-83750000D01*
X167575000Y-101835000D02*
X174975000Y-101835000D01*
X145250000Y-84450000D02*
X145550000Y-84150000D01*
X145050000Y-84250000D02*
X145050000Y-80600000D01*
X145250000Y-84450000D02*
X145050000Y-84250000D01*
X166305000Y-99295000D02*
X166305000Y-100565000D01*
X144550000Y-80600000D02*
X145050000Y-80600000D01*
X144550000Y-83750000D02*
X144550000Y-80600000D01*
X166305000Y-100565000D02*
X167575000Y-101835000D01*
X174975000Y-101835000D02*
X185100000Y-91710000D01*
X145050000Y-80600000D02*
X145550000Y-80600000D01*
X165340000Y-86300000D02*
X165340000Y-88840000D01*
X165035000Y-101835000D02*
X166305000Y-100565000D01*
X146050000Y-83650000D02*
X146050000Y-80600000D01*
X145250000Y-84450000D02*
X146050000Y-83650000D01*
%TO.N,Net-(J5-D-)*%
X163765000Y-99295000D02*
X163765000Y-102123464D01*
X165091536Y-103450000D02*
X171300000Y-103450000D01*
X163765000Y-102123464D02*
X165091536Y-103450000D01*
%TO.N,/LSCAN*%
X161225000Y-94625000D02*
X161600000Y-94250000D01*
X161225000Y-99295000D02*
X161225000Y-94625000D01*
%TO.N,Net-(J5-D+)*%
X165010000Y-104350000D02*
X173350000Y-104350000D01*
X162495000Y-101835000D02*
X165010000Y-104350000D01*
%TO.N,/R_to_ActiveLED*%
X168845000Y-82215000D02*
X168845000Y-99295000D01*
X166680000Y-80050000D02*
X168845000Y-82215000D01*
%TD*%
%TA.AperFunction,Conductor*%
%TO.N,GND*%
G36*
X145828500Y-80466881D02*
G01*
X145874619Y-80513000D01*
X145891500Y-80576000D01*
X145891500Y-80624000D01*
X145874619Y-80687000D01*
X145828500Y-80733119D01*
X145765500Y-80750000D01*
X145716590Y-80750000D01*
X145703506Y-80753506D01*
X145700000Y-80766590D01*
X145700000Y-81741410D01*
X145703506Y-81754493D01*
X145716590Y-81758000D01*
X145745224Y-81758000D01*
X145751932Y-81757640D01*
X145786528Y-81753920D01*
X145813472Y-81753920D01*
X145848067Y-81757640D01*
X145854776Y-81758000D01*
X145883410Y-81758000D01*
X145896493Y-81754493D01*
X145903262Y-81729234D01*
X145932749Y-81675986D01*
X145983757Y-81642774D01*
X146044383Y-81637349D01*
X146100476Y-81660974D01*
X146153795Y-81700888D01*
X146153584Y-81701171D01*
X146186040Y-81728624D01*
X146195407Y-81747336D01*
X146202220Y-81754149D01*
X146216590Y-81758000D01*
X146245223Y-81758000D01*
X146251936Y-81757640D01*
X146277030Y-81754942D01*
X146345554Y-81766884D01*
X146397301Y-81813365D01*
X146416500Y-81880220D01*
X146416500Y-89468497D01*
X146408555Y-89512529D01*
X146398011Y-89540799D01*
X146397168Y-89548635D01*
X146397167Y-89548642D01*
X146391860Y-89598011D01*
X146391500Y-89601362D01*
X146391500Y-89604731D01*
X146391500Y-91142500D01*
X146374619Y-91205500D01*
X146328500Y-91251619D01*
X146265500Y-91268500D01*
X141923132Y-91268500D01*
X141865929Y-91254767D01*
X141821196Y-91216561D01*
X141798683Y-91162211D01*
X141803299Y-91103564D01*
X141834036Y-91053405D01*
X141958525Y-90928914D01*
X142442269Y-90445170D01*
X142450537Y-90437648D01*
X142457018Y-90433536D01*
X142503660Y-90383865D01*
X142506352Y-90381087D01*
X142526135Y-90361306D01*
X142528613Y-90358110D01*
X142536308Y-90349099D01*
X142566586Y-90316857D01*
X142576348Y-90299098D01*
X142587195Y-90282586D01*
X142599614Y-90266577D01*
X142617179Y-90225982D01*
X142622388Y-90215350D01*
X142643695Y-90176596D01*
X142648733Y-90156970D01*
X142655134Y-90138273D01*
X142663181Y-90119681D01*
X142670096Y-90076013D01*
X142672504Y-90064389D01*
X142681529Y-90029241D01*
X142683500Y-90021566D01*
X142683500Y-90001312D01*
X142685051Y-89981601D01*
X142686980Y-89969421D01*
X142688220Y-89961593D01*
X142684058Y-89917574D01*
X142683500Y-89905717D01*
X142683500Y-81880725D01*
X142702699Y-81813870D01*
X142754446Y-81767389D01*
X142822968Y-81755447D01*
X142851362Y-81758500D01*
X143245271Y-81758500D01*
X143248638Y-81758500D01*
X143286532Y-81754426D01*
X143313468Y-81754426D01*
X143351362Y-81758500D01*
X143745271Y-81758500D01*
X143748638Y-81758500D01*
X143786532Y-81754426D01*
X143813468Y-81754426D01*
X143851362Y-81758500D01*
X144245271Y-81758500D01*
X144248638Y-81758500D01*
X144288886Y-81754173D01*
X144315820Y-81754173D01*
X144348065Y-81757640D01*
X144354777Y-81758000D01*
X144383410Y-81758000D01*
X144397779Y-81754149D01*
X144404591Y-81747337D01*
X144413958Y-81728625D01*
X144446415Y-81701171D01*
X144446204Y-81700889D01*
X144446205Y-81700888D01*
X144499521Y-81660975D01*
X144555615Y-81637349D01*
X144616240Y-81642774D01*
X144667248Y-81675985D01*
X144696737Y-81729232D01*
X144703506Y-81754493D01*
X144716590Y-81758000D01*
X144745224Y-81758000D01*
X144751932Y-81757640D01*
X144786528Y-81753920D01*
X144813472Y-81753920D01*
X144848067Y-81757640D01*
X144854776Y-81758000D01*
X144883410Y-81758000D01*
X144896493Y-81754493D01*
X144900000Y-81741410D01*
X145200000Y-81741410D01*
X145203506Y-81754493D01*
X145216590Y-81758000D01*
X145245224Y-81758000D01*
X145251932Y-81757640D01*
X145286528Y-81753920D01*
X145313472Y-81753920D01*
X145348067Y-81757640D01*
X145354776Y-81758000D01*
X145383410Y-81758000D01*
X145396493Y-81754493D01*
X145400000Y-81741410D01*
X145400000Y-80766590D01*
X145396493Y-80753506D01*
X145383410Y-80750000D01*
X145216590Y-80750000D01*
X145203506Y-80753506D01*
X145200000Y-80766590D01*
X145200000Y-81741410D01*
X144900000Y-81741410D01*
X144900000Y-80766590D01*
X144896493Y-80753506D01*
X144883410Y-80750000D01*
X144834500Y-80750000D01*
X144771500Y-80733119D01*
X144725381Y-80687000D01*
X144708500Y-80624000D01*
X144708500Y-80576000D01*
X144725381Y-80513000D01*
X144771500Y-80466881D01*
X144834500Y-80450000D01*
X145765500Y-80450000D01*
X145828500Y-80466881D01*
G37*
%TD.AperFunction*%
%TA.AperFunction,Conductor*%
G36*
X186636500Y-73267381D02*
G01*
X186682619Y-73313500D01*
X186699500Y-73376500D01*
X186699500Y-83101388D01*
X186684973Y-83160122D01*
X186644743Y-83205313D01*
X186588085Y-83226541D01*
X186528064Y-83218911D01*
X186478520Y-83184182D01*
X186452223Y-83132984D01*
X186451989Y-83130799D01*
X186400889Y-82993796D01*
X186313261Y-82876739D01*
X186306049Y-82871340D01*
X186203417Y-82794510D01*
X186203414Y-82794508D01*
X186196204Y-82789111D01*
X186187766Y-82785964D01*
X186187763Y-82785962D01*
X186066580Y-82740763D01*
X186066578Y-82740762D01*
X186059201Y-82738011D01*
X186051373Y-82737169D01*
X186051367Y-82737168D01*
X186001988Y-82731860D01*
X186001985Y-82731859D01*
X185998638Y-82731500D01*
X184201362Y-82731500D01*
X184198015Y-82731859D01*
X184198011Y-82731860D01*
X184148632Y-82737168D01*
X184148625Y-82737169D01*
X184140799Y-82738011D01*
X184133423Y-82740761D01*
X184133419Y-82740763D01*
X184012236Y-82785962D01*
X184012230Y-82785965D01*
X184003796Y-82789111D01*
X183996588Y-82794506D01*
X183996582Y-82794510D01*
X183893950Y-82871340D01*
X183893946Y-82871343D01*
X183886739Y-82876739D01*
X183881343Y-82883946D01*
X183881340Y-82883950D01*
X183804510Y-82986582D01*
X183804506Y-82986588D01*
X183799111Y-82993796D01*
X183795965Y-83002230D01*
X183795962Y-83002236D01*
X183750763Y-83123419D01*
X183750761Y-83123423D01*
X183748011Y-83130799D01*
X183747169Y-83138625D01*
X183747168Y-83138632D01*
X183742272Y-83184182D01*
X183741500Y-83191362D01*
X183741500Y-84988638D01*
X183741859Y-84991985D01*
X183741860Y-84991988D01*
X183747168Y-85041367D01*
X183747169Y-85041373D01*
X183748011Y-85049201D01*
X183750762Y-85056578D01*
X183750763Y-85056580D01*
X183795962Y-85177763D01*
X183795964Y-85177766D01*
X183799111Y-85186204D01*
X183804508Y-85193414D01*
X183804510Y-85193417D01*
X183872049Y-85283638D01*
X183886739Y-85303261D01*
X183893950Y-85308659D01*
X183937825Y-85341504D01*
X184003796Y-85390889D01*
X184012235Y-85394036D01*
X184012236Y-85394037D01*
X184118806Y-85433786D01*
X184169140Y-85468350D01*
X184197314Y-85522520D01*
X184196711Y-85583576D01*
X184167474Y-85637180D01*
X184027806Y-85788899D01*
X184027802Y-85788902D01*
X184024278Y-85792732D01*
X184021430Y-85797090D01*
X184021427Y-85797095D01*
X183904479Y-85976098D01*
X183901140Y-85981209D01*
X183899048Y-85985978D01*
X183899046Y-85985982D01*
X183812799Y-86182606D01*
X183812796Y-86182614D01*
X183810704Y-86187384D01*
X183809423Y-86192440D01*
X183809422Y-86192445D01*
X183756717Y-86400573D01*
X183755436Y-86405632D01*
X183755006Y-86410820D01*
X183755005Y-86410827D01*
X183742929Y-86556565D01*
X183736844Y-86630000D01*
X183737274Y-86635189D01*
X183747101Y-86753790D01*
X183755436Y-86854368D01*
X183756717Y-86859426D01*
X183792542Y-87000898D01*
X183810704Y-87072616D01*
X183812797Y-87077389D01*
X183812799Y-87077393D01*
X183888147Y-87249170D01*
X183901140Y-87278791D01*
X184024278Y-87467268D01*
X184059475Y-87505502D01*
X184173227Y-87629069D01*
X184173231Y-87629073D01*
X184176760Y-87632906D01*
X184354424Y-87771189D01*
X184359002Y-87773666D01*
X184359009Y-87773671D01*
X184387680Y-87789187D01*
X184435951Y-87835503D01*
X184453710Y-87900000D01*
X184435951Y-87964497D01*
X184387680Y-88010813D01*
X184359009Y-88026328D01*
X184358993Y-88026338D01*
X184354424Y-88028811D01*
X184350313Y-88032010D01*
X184350311Y-88032012D01*
X184180878Y-88163888D01*
X184180872Y-88163893D01*
X184176760Y-88167094D01*
X184173237Y-88170919D01*
X184173227Y-88170930D01*
X184027806Y-88328899D01*
X184027802Y-88328902D01*
X184024278Y-88332732D01*
X184021430Y-88337090D01*
X184021427Y-88337095D01*
X183903992Y-88516843D01*
X183901140Y-88521209D01*
X183899048Y-88525978D01*
X183899046Y-88525982D01*
X183812799Y-88722606D01*
X183812796Y-88722614D01*
X183810704Y-88727384D01*
X183809423Y-88732440D01*
X183809422Y-88732445D01*
X183756717Y-88940573D01*
X183755436Y-88945632D01*
X183755006Y-88950820D01*
X183755005Y-88950827D01*
X183742929Y-89096565D01*
X183736844Y-89170000D01*
X183737274Y-89175189D01*
X183747101Y-89293790D01*
X183755436Y-89394368D01*
X183756717Y-89399426D01*
X183807005Y-89598011D01*
X183810704Y-89612616D01*
X183812797Y-89617389D01*
X183812799Y-89617393D01*
X183888147Y-89789170D01*
X183901140Y-89818791D01*
X184024278Y-90007268D01*
X184044506Y-90029241D01*
X184173227Y-90169069D01*
X184173231Y-90169073D01*
X184176760Y-90172906D01*
X184354424Y-90311189D01*
X184359000Y-90313665D01*
X184359004Y-90313668D01*
X184369582Y-90319392D01*
X184388205Y-90329470D01*
X184436476Y-90375784D01*
X184454237Y-90440281D01*
X184436479Y-90504779D01*
X184388209Y-90551096D01*
X184359285Y-90566749D01*
X184350588Y-90572431D01*
X184181211Y-90704262D01*
X184173567Y-90711299D01*
X184028210Y-90869200D01*
X184021822Y-90877406D01*
X183904431Y-91057086D01*
X183899488Y-91066221D01*
X183813270Y-91262776D01*
X183809900Y-91272591D01*
X183766986Y-91442056D01*
X183766751Y-91453434D01*
X183777840Y-91456000D01*
X185228000Y-91456000D01*
X185291000Y-91472881D01*
X185337119Y-91519000D01*
X185354000Y-91582000D01*
X185354000Y-91838000D01*
X185337119Y-91901000D01*
X185291000Y-91947119D01*
X185228000Y-91964000D01*
X183777840Y-91964000D01*
X183766751Y-91966565D01*
X183766986Y-91977943D01*
X183809900Y-92147408D01*
X183813270Y-92157223D01*
X183899488Y-92353778D01*
X183904431Y-92362913D01*
X184021822Y-92542593D01*
X184028210Y-92550799D01*
X184173567Y-92708700D01*
X184181211Y-92715737D01*
X184350588Y-92847568D01*
X184359281Y-92853247D01*
X184388206Y-92868901D01*
X184436478Y-92915217D01*
X184454237Y-92979715D01*
X184436478Y-93044212D01*
X184388207Y-93090528D01*
X184376701Y-93096755D01*
X184359000Y-93106334D01*
X184358994Y-93106337D01*
X184354424Y-93108811D01*
X184350313Y-93112010D01*
X184350311Y-93112012D01*
X184180878Y-93243888D01*
X184180872Y-93243893D01*
X184176760Y-93247094D01*
X184173237Y-93250919D01*
X184173227Y-93250930D01*
X184027806Y-93408899D01*
X184027802Y-93408902D01*
X184024278Y-93412732D01*
X184021430Y-93417090D01*
X184021427Y-93417095D01*
X183903992Y-93596843D01*
X183901140Y-93601209D01*
X183899048Y-93605978D01*
X183899046Y-93605982D01*
X183812799Y-93802606D01*
X183812796Y-93802614D01*
X183810704Y-93807384D01*
X183755436Y-94025632D01*
X183755006Y-94030820D01*
X183755005Y-94030827D01*
X183744037Y-94163190D01*
X183736844Y-94250000D01*
X183737274Y-94255189D01*
X183747101Y-94373790D01*
X183755436Y-94474368D01*
X183810704Y-94692616D01*
X183901140Y-94898791D01*
X184024278Y-95087268D01*
X184027806Y-95091100D01*
X184173227Y-95249069D01*
X184173231Y-95249073D01*
X184176760Y-95252906D01*
X184354424Y-95391189D01*
X184552426Y-95498342D01*
X184557355Y-95500034D01*
X184557357Y-95500035D01*
X184658895Y-95534893D01*
X184765365Y-95571444D01*
X184987431Y-95608500D01*
X185207358Y-95608500D01*
X185212569Y-95608500D01*
X185434635Y-95571444D01*
X185647574Y-95498342D01*
X185845576Y-95391189D01*
X186023240Y-95252906D01*
X186175722Y-95087268D01*
X186298860Y-94898791D01*
X186389296Y-94692616D01*
X186444564Y-94474368D01*
X186447930Y-94433746D01*
X186468977Y-94373790D01*
X186516607Y-94331728D01*
X186578707Y-94318260D01*
X186639483Y-94336810D01*
X186683477Y-94382661D01*
X186699500Y-94444152D01*
X186699500Y-106123500D01*
X186682619Y-106186500D01*
X186636500Y-106232619D01*
X186573500Y-106249500D01*
X103926500Y-106249500D01*
X103863500Y-106232619D01*
X103817381Y-106186500D01*
X103800500Y-106123500D01*
X103800500Y-103046820D01*
X106517835Y-103046820D01*
X106525850Y-103058267D01*
X106764929Y-103251869D01*
X106770272Y-103255751D01*
X107090685Y-103463830D01*
X107096394Y-103467126D01*
X107436811Y-103640578D01*
X107442835Y-103643260D01*
X107799501Y-103780170D01*
X107805784Y-103782212D01*
X108174815Y-103881094D01*
X108181265Y-103882465D01*
X108558629Y-103942233D01*
X108565167Y-103942920D01*
X108946699Y-103962916D01*
X108953301Y-103962916D01*
X109334832Y-103942920D01*
X109341370Y-103942233D01*
X109718734Y-103882465D01*
X109725184Y-103881094D01*
X110094215Y-103782212D01*
X110100498Y-103780170D01*
X110457164Y-103643260D01*
X110463188Y-103640578D01*
X110803605Y-103467126D01*
X110809314Y-103463830D01*
X111129728Y-103255751D01*
X111135064Y-103251874D01*
X111374150Y-103058265D01*
X111382164Y-103046821D01*
X111375389Y-103034599D01*
X108961729Y-100620939D01*
X108950000Y-100614167D01*
X108938270Y-100620939D01*
X106524609Y-103034599D01*
X106517835Y-103046820D01*
X103800500Y-103046820D01*
X103800500Y-100253301D01*
X105237084Y-100253301D01*
X105257079Y-100634832D01*
X105257766Y-100641370D01*
X105317534Y-101018734D01*
X105318905Y-101025184D01*
X105417787Y-101394215D01*
X105419829Y-101400498D01*
X105556739Y-101757164D01*
X105559421Y-101763188D01*
X105732873Y-102103605D01*
X105736169Y-102109314D01*
X105944248Y-102429727D01*
X105948130Y-102435070D01*
X106141731Y-102674148D01*
X106153178Y-102682163D01*
X106165399Y-102675389D01*
X108579060Y-100261729D01*
X108585832Y-100250000D01*
X109314167Y-100250000D01*
X109320939Y-100261729D01*
X111734599Y-102675389D01*
X111746821Y-102682164D01*
X111758265Y-102674150D01*
X111951874Y-102435064D01*
X111955751Y-102429728D01*
X112163830Y-102109314D01*
X112167126Y-102103605D01*
X112173261Y-102091565D01*
X126571751Y-102091565D01*
X126571986Y-102102943D01*
X126614900Y-102272408D01*
X126618270Y-102282223D01*
X126704488Y-102478778D01*
X126709431Y-102487913D01*
X126826822Y-102667593D01*
X126833210Y-102675799D01*
X126978567Y-102833700D01*
X126986211Y-102840737D01*
X127155588Y-102972568D01*
X127164281Y-102978247D01*
X127353042Y-103080400D01*
X127362559Y-103084575D01*
X127565557Y-103154264D01*
X127575627Y-103156814D01*
X127637461Y-103167132D01*
X127648598Y-103166556D01*
X127651000Y-103155664D01*
X127651000Y-102105590D01*
X127647493Y-102092506D01*
X127634410Y-102089000D01*
X126582840Y-102089000D01*
X126571751Y-102091565D01*
X112173261Y-102091565D01*
X112340578Y-101763188D01*
X112343260Y-101757164D01*
X112480170Y-101400498D01*
X112482212Y-101394215D01*
X112581094Y-101025184D01*
X112582465Y-101018734D01*
X112642233Y-100641370D01*
X112642920Y-100634832D01*
X112662916Y-100253301D01*
X112662916Y-100246699D01*
X112642920Y-99865167D01*
X112642233Y-99858629D01*
X112582465Y-99481265D01*
X112581094Y-99474815D01*
X112532913Y-99295000D01*
X122731844Y-99295000D01*
X122732274Y-99300189D01*
X122747278Y-99481265D01*
X122750436Y-99519368D01*
X122805704Y-99737616D01*
X122807797Y-99742389D01*
X122807799Y-99742393D01*
X122867747Y-99879060D01*
X122896140Y-99943791D01*
X123019278Y-100132268D01*
X123022806Y-100136100D01*
X123168227Y-100294069D01*
X123168231Y-100294073D01*
X123171760Y-100297906D01*
X123349424Y-100436189D01*
X123547426Y-100543342D01*
X123552355Y-100545034D01*
X123552357Y-100545035D01*
X123653895Y-100579892D01*
X123760365Y-100616444D01*
X123982431Y-100653500D01*
X124202358Y-100653500D01*
X124207569Y-100653500D01*
X124429635Y-100616444D01*
X124642574Y-100543342D01*
X124840576Y-100436189D01*
X125018240Y-100297906D01*
X125170722Y-100132268D01*
X125259518Y-99996354D01*
X125305030Y-99954457D01*
X125365000Y-99939271D01*
X125424970Y-99954457D01*
X125470481Y-99996354D01*
X125559278Y-100132268D01*
X125562806Y-100136100D01*
X125708227Y-100294069D01*
X125708231Y-100294073D01*
X125711760Y-100297906D01*
X125889424Y-100436189D01*
X126087426Y-100543342D01*
X126092355Y-100545034D01*
X126092357Y-100545035D01*
X126193895Y-100579892D01*
X126300365Y-100616444D01*
X126522431Y-100653500D01*
X126742358Y-100653500D01*
X126747569Y-100653500D01*
X126752715Y-100652641D01*
X126752718Y-100652641D01*
X126857294Y-100635191D01*
X126918945Y-100640299D01*
X126970734Y-100674134D01*
X127000177Y-100728541D01*
X127000178Y-100790403D01*
X126970735Y-100844809D01*
X126833205Y-100994207D01*
X126826822Y-101002406D01*
X126709431Y-101182086D01*
X126704488Y-101191221D01*
X126618270Y-101387776D01*
X126614900Y-101397591D01*
X126571986Y-101567056D01*
X126571751Y-101578434D01*
X126582840Y-101581000D01*
X127634410Y-101581000D01*
X127647493Y-101577493D01*
X127651000Y-101564410D01*
X127651000Y-100514336D01*
X127648529Y-100503131D01*
X127583127Y-100480393D01*
X127539423Y-100425275D01*
X127532077Y-100355317D01*
X127563378Y-100292324D01*
X127710722Y-100132268D01*
X127799518Y-99996354D01*
X127845030Y-99954457D01*
X127905000Y-99939271D01*
X127964970Y-99954457D01*
X128010481Y-99996354D01*
X128099278Y-100132268D01*
X128102806Y-100136100D01*
X128246620Y-100292323D01*
X128277922Y-100355317D01*
X128270576Y-100425275D01*
X128226872Y-100480393D01*
X128161470Y-100503131D01*
X128159000Y-100514336D01*
X128159000Y-103155664D01*
X128161401Y-103166556D01*
X128172538Y-103167132D01*
X128234372Y-103156814D01*
X128244442Y-103154264D01*
X128447440Y-103084575D01*
X128456957Y-103080400D01*
X128645718Y-102978247D01*
X128654411Y-102972568D01*
X128823788Y-102840737D01*
X128831432Y-102833700D01*
X128976789Y-102675799D01*
X128983181Y-102667587D01*
X129069218Y-102535899D01*
X129114732Y-102494000D01*
X129174701Y-102478814D01*
X129234670Y-102494000D01*
X129280183Y-102535898D01*
X129369278Y-102672268D01*
X129419727Y-102727069D01*
X129518227Y-102834069D01*
X129518231Y-102834073D01*
X129521760Y-102837906D01*
X129699424Y-102976189D01*
X129897426Y-103083342D01*
X129902355Y-103085034D01*
X129902357Y-103085035D01*
X130003895Y-103119893D01*
X130110365Y-103156444D01*
X130332431Y-103193500D01*
X130552358Y-103193500D01*
X130557569Y-103193500D01*
X130779635Y-103156444D01*
X130992574Y-103083342D01*
X131190576Y-102976189D01*
X131368240Y-102837906D01*
X131520722Y-102672268D01*
X131609518Y-102536354D01*
X131655030Y-102494457D01*
X131715000Y-102479271D01*
X131774970Y-102494457D01*
X131820481Y-102536354D01*
X131909278Y-102672268D01*
X131959727Y-102727069D01*
X132058227Y-102834069D01*
X132058231Y-102834073D01*
X132061760Y-102837906D01*
X132239424Y-102976189D01*
X132437426Y-103083342D01*
X132442355Y-103085034D01*
X132442357Y-103085035D01*
X132543895Y-103119893D01*
X132650365Y-103156444D01*
X132872431Y-103193500D01*
X133092358Y-103193500D01*
X133097569Y-103193500D01*
X133319635Y-103156444D01*
X133532574Y-103083342D01*
X133730576Y-102976189D01*
X133908240Y-102837906D01*
X134060722Y-102672268D01*
X134149518Y-102536354D01*
X134195030Y-102494457D01*
X134255000Y-102479271D01*
X134314970Y-102494457D01*
X134360481Y-102536354D01*
X134449278Y-102672268D01*
X134499727Y-102727069D01*
X134598227Y-102834069D01*
X134598231Y-102834073D01*
X134601760Y-102837906D01*
X134779424Y-102976189D01*
X134977426Y-103083342D01*
X134982355Y-103085034D01*
X134982357Y-103085035D01*
X135083895Y-103119893D01*
X135190365Y-103156444D01*
X135412431Y-103193500D01*
X135632358Y-103193500D01*
X135637569Y-103193500D01*
X135859635Y-103156444D01*
X135862956Y-103155303D01*
X135926790Y-103155960D01*
X135982441Y-103188345D01*
X136123342Y-103329246D01*
X136130884Y-103337533D01*
X136135000Y-103344018D01*
X136140779Y-103349444D01*
X136140780Y-103349446D01*
X136184667Y-103390658D01*
X136187509Y-103393413D01*
X136207230Y-103413134D01*
X136210414Y-103415604D01*
X136219437Y-103423309D01*
X136251679Y-103453586D01*
X136258628Y-103457406D01*
X136269429Y-103463344D01*
X136285959Y-103474202D01*
X136295694Y-103481754D01*
X136295697Y-103481756D01*
X136301959Y-103486613D01*
X136342536Y-103504172D01*
X136353171Y-103509381D01*
X136391940Y-103530695D01*
X136411566Y-103535734D01*
X136430259Y-103542134D01*
X136448855Y-103550181D01*
X136492518Y-103557095D01*
X136504129Y-103559500D01*
X136546970Y-103570500D01*
X136567231Y-103570500D01*
X136586939Y-103572050D01*
X136606943Y-103575219D01*
X136614835Y-103574473D01*
X136620062Y-103573979D01*
X136650954Y-103571058D01*
X136662811Y-103570500D01*
X140245149Y-103570500D01*
X140256332Y-103571027D01*
X140263825Y-103572702D01*
X140331901Y-103570562D01*
X140335861Y-103570500D01*
X140359810Y-103570500D01*
X140363772Y-103570500D01*
X140367772Y-103569994D01*
X140379615Y-103569061D01*
X140423805Y-103567673D01*
X140443249Y-103562023D01*
X140462618Y-103558012D01*
X140482713Y-103555474D01*
X140523831Y-103539193D01*
X140535033Y-103535357D01*
X140577509Y-103523018D01*
X140594955Y-103512699D01*
X140612685Y-103504013D01*
X140631533Y-103496552D01*
X140667303Y-103470561D01*
X140677214Y-103464051D01*
X140715278Y-103441542D01*
X140729604Y-103427215D01*
X140744633Y-103414378D01*
X140761023Y-103402472D01*
X140789210Y-103368397D01*
X140797188Y-103359630D01*
X142065253Y-102091565D01*
X156081751Y-102091565D01*
X156081986Y-102102943D01*
X156124900Y-102272408D01*
X156128270Y-102282223D01*
X156214488Y-102478778D01*
X156219431Y-102487913D01*
X156336822Y-102667593D01*
X156343210Y-102675799D01*
X156488567Y-102833700D01*
X156496211Y-102840737D01*
X156665588Y-102972568D01*
X156674281Y-102978247D01*
X156863042Y-103080400D01*
X156872559Y-103084575D01*
X157075557Y-103154264D01*
X157085627Y-103156814D01*
X157147461Y-103167132D01*
X157158598Y-103166556D01*
X157161000Y-103155664D01*
X157161000Y-102105590D01*
X157157493Y-102092506D01*
X157144410Y-102089000D01*
X156092840Y-102089000D01*
X156081751Y-102091565D01*
X142065253Y-102091565D01*
X151542264Y-92614555D01*
X151550535Y-92607029D01*
X151557018Y-92602916D01*
X151603660Y-92553245D01*
X151606352Y-92550467D01*
X151626135Y-92530686D01*
X151628613Y-92527490D01*
X151636308Y-92518479D01*
X151666586Y-92486237D01*
X151676348Y-92468478D01*
X151687195Y-92451966D01*
X151699614Y-92435957D01*
X151717179Y-92395362D01*
X151722388Y-92384730D01*
X151743695Y-92345976D01*
X151748733Y-92326350D01*
X151755134Y-92307653D01*
X151763181Y-92289061D01*
X151770096Y-92245393D01*
X151772504Y-92233769D01*
X151781529Y-92198621D01*
X151783500Y-92190946D01*
X151783500Y-92170692D01*
X151785051Y-92150981D01*
X151786980Y-92138801D01*
X151788220Y-92130973D01*
X151784058Y-92086954D01*
X151783500Y-92075097D01*
X151783500Y-80474767D01*
X151784027Y-80463583D01*
X151785702Y-80456091D01*
X151783562Y-80388014D01*
X151783500Y-80384055D01*
X151783500Y-80360108D01*
X151783500Y-80356144D01*
X151782994Y-80352147D01*
X151782061Y-80340297D01*
X151781748Y-80330327D01*
X151780673Y-80296111D01*
X151775020Y-80276657D01*
X151771012Y-80257298D01*
X151769467Y-80245068D01*
X151768474Y-80237203D01*
X151765556Y-80229833D01*
X151765555Y-80229829D01*
X151752196Y-80196089D01*
X151748350Y-80184855D01*
X151738230Y-80150020D01*
X151738229Y-80150018D01*
X151736018Y-80142407D01*
X151731982Y-80135582D01*
X151725708Y-80124973D01*
X151716997Y-80107187D01*
X151716470Y-80105855D01*
X151708396Y-80045651D01*
X151729429Y-79988665D01*
X151774681Y-79948142D01*
X151833633Y-79933500D01*
X160261363Y-79933500D01*
X160324363Y-79950381D01*
X160370482Y-79996500D01*
X160384864Y-80050176D01*
X160386884Y-80050000D01*
X160395634Y-80150020D01*
X160405314Y-80260655D01*
X160460044Y-80464910D01*
X160462366Y-80469890D01*
X160462367Y-80469892D01*
X160544870Y-80646821D01*
X160549411Y-80656558D01*
X160552563Y-80661059D01*
X160552565Y-80661063D01*
X160667539Y-80825264D01*
X160667543Y-80825268D01*
X160670699Y-80829776D01*
X160820224Y-80979301D01*
X160824732Y-80982457D01*
X160824735Y-80982460D01*
X160958912Y-81076411D01*
X160993442Y-81100589D01*
X161185090Y-81189956D01*
X161389345Y-81244686D01*
X161600000Y-81263116D01*
X161605475Y-81262637D01*
X161605486Y-81262637D01*
X161768139Y-81248406D01*
X161822215Y-81255525D01*
X161868216Y-81284831D01*
X162079595Y-81496210D01*
X162106909Y-81537087D01*
X162116500Y-81585305D01*
X162116500Y-82275500D01*
X162099619Y-82338500D01*
X162053500Y-82384619D01*
X161990500Y-82401500D01*
X161901362Y-82401500D01*
X161898015Y-82401859D01*
X161898011Y-82401860D01*
X161848632Y-82407168D01*
X161848625Y-82407169D01*
X161840799Y-82408011D01*
X161833423Y-82410761D01*
X161833419Y-82410763D01*
X161712236Y-82455962D01*
X161712230Y-82455965D01*
X161703796Y-82459111D01*
X161696588Y-82464506D01*
X161696582Y-82464510D01*
X161593950Y-82541340D01*
X161593946Y-82541343D01*
X161586739Y-82546739D01*
X161581343Y-82553946D01*
X161581340Y-82553950D01*
X161504510Y-82656582D01*
X161504506Y-82656588D01*
X161499111Y-82663796D01*
X161495965Y-82672230D01*
X161495962Y-82672236D01*
X161450763Y-82793419D01*
X161450761Y-82793423D01*
X161448011Y-82800799D01*
X161447169Y-82808625D01*
X161447168Y-82808632D01*
X161441860Y-82858011D01*
X161441500Y-82861362D01*
X161441500Y-84658638D01*
X161441859Y-84661985D01*
X161441860Y-84661988D01*
X161447168Y-84711367D01*
X161447169Y-84711373D01*
X161448011Y-84719201D01*
X161450762Y-84726578D01*
X161450763Y-84726580D01*
X161495962Y-84847763D01*
X161495964Y-84847766D01*
X161499111Y-84856204D01*
X161504508Y-84863414D01*
X161504510Y-84863417D01*
X161555536Y-84931579D01*
X161586739Y-84973261D01*
X161593950Y-84978659D01*
X161688182Y-85049201D01*
X161703796Y-85060889D01*
X161712235Y-85064036D01*
X161712236Y-85064037D01*
X161818806Y-85103786D01*
X161869140Y-85138350D01*
X161897314Y-85192520D01*
X161896711Y-85253576D01*
X161867474Y-85307180D01*
X161727806Y-85458899D01*
X161727802Y-85458902D01*
X161724278Y-85462732D01*
X161721430Y-85467090D01*
X161721427Y-85467095D01*
X161603992Y-85646843D01*
X161601140Y-85651209D01*
X161599048Y-85655978D01*
X161599046Y-85655982D01*
X161512799Y-85852606D01*
X161512796Y-85852614D01*
X161510704Y-85857384D01*
X161509423Y-85862440D01*
X161509422Y-85862445D01*
X161465799Y-86034710D01*
X161455436Y-86075632D01*
X161455006Y-86080820D01*
X161455005Y-86080827D01*
X161446176Y-86187384D01*
X161436844Y-86300000D01*
X161437274Y-86305189D01*
X161446027Y-86410827D01*
X161455436Y-86524368D01*
X161463828Y-86557506D01*
X161499471Y-86698260D01*
X161510704Y-86742616D01*
X161512797Y-86747389D01*
X161512799Y-86747393D01*
X161561941Y-86859426D01*
X161601140Y-86948791D01*
X161724278Y-87137268D01*
X161727806Y-87141100D01*
X161873227Y-87299069D01*
X161873231Y-87299073D01*
X161876760Y-87302906D01*
X162054424Y-87441189D01*
X162059010Y-87443671D01*
X162059419Y-87443938D01*
X162101315Y-87489451D01*
X162116500Y-87549419D01*
X162116500Y-87590581D01*
X162101315Y-87650549D01*
X162059419Y-87696062D01*
X162059010Y-87696329D01*
X162054424Y-87698811D01*
X162050312Y-87702010D01*
X162050305Y-87702016D01*
X161880878Y-87833888D01*
X161880872Y-87833893D01*
X161876760Y-87837094D01*
X161873237Y-87840919D01*
X161873227Y-87840930D01*
X161727806Y-87998899D01*
X161727802Y-87998902D01*
X161724278Y-88002732D01*
X161721430Y-88007090D01*
X161721427Y-88007095D01*
X161603992Y-88186843D01*
X161601140Y-88191209D01*
X161599048Y-88195978D01*
X161599046Y-88195982D01*
X161512799Y-88392606D01*
X161512796Y-88392614D01*
X161510704Y-88397384D01*
X161509423Y-88402440D01*
X161509422Y-88402445D01*
X161467141Y-88569410D01*
X161455436Y-88615632D01*
X161455006Y-88620820D01*
X161455005Y-88620827D01*
X161446176Y-88727384D01*
X161436844Y-88840000D01*
X161437274Y-88845189D01*
X161451386Y-89015500D01*
X161455436Y-89064368D01*
X161463589Y-89096565D01*
X161468894Y-89117512D01*
X161468229Y-89181892D01*
X161435845Y-89237538D01*
X158218995Y-92454388D01*
X158213456Y-92459603D01*
X158175342Y-92493370D01*
X158175338Y-92493374D01*
X158169635Y-92498427D01*
X158136385Y-92546597D01*
X158131877Y-92552723D01*
X158100476Y-92592804D01*
X158100473Y-92592808D01*
X158095777Y-92598803D01*
X158092651Y-92605747D01*
X158092646Y-92605756D01*
X158091902Y-92607411D01*
X158080712Y-92627253D01*
X158079674Y-92628756D01*
X158079669Y-92628764D01*
X158075346Y-92635029D01*
X158072647Y-92642144D01*
X158072644Y-92642151D01*
X158054589Y-92689759D01*
X158051677Y-92696789D01*
X158030783Y-92743213D01*
X158030780Y-92743219D01*
X158027656Y-92750163D01*
X158026282Y-92757654D01*
X158026279Y-92757667D01*
X158025953Y-92759449D01*
X158019838Y-92781389D01*
X158016487Y-92790226D01*
X158015568Y-92797790D01*
X158015568Y-92797792D01*
X158009430Y-92848337D01*
X158008287Y-92855848D01*
X157997736Y-92913428D01*
X157998196Y-92921034D01*
X157998196Y-92921036D01*
X158001270Y-92971851D01*
X158001500Y-92979459D01*
X158001500Y-98045581D01*
X157986315Y-98105549D01*
X157944419Y-98151062D01*
X157944010Y-98151329D01*
X157939424Y-98153811D01*
X157935312Y-98157010D01*
X157935305Y-98157016D01*
X157765878Y-98288888D01*
X157765872Y-98288893D01*
X157761760Y-98292094D01*
X157758237Y-98295919D01*
X157758227Y-98295930D01*
X157612806Y-98453899D01*
X157612802Y-98453902D01*
X157609278Y-98457732D01*
X157606430Y-98462090D01*
X157606427Y-98462095D01*
X157520483Y-98593643D01*
X157474969Y-98635542D01*
X157415000Y-98650728D01*
X157355031Y-98635542D01*
X157309517Y-98593643D01*
X157269813Y-98532872D01*
X157220722Y-98457732D01*
X157159001Y-98390686D01*
X157071772Y-98295930D01*
X157071767Y-98295925D01*
X157068240Y-98292094D01*
X156890576Y-98153811D01*
X156885997Y-98151333D01*
X156885994Y-98151331D01*
X156697159Y-98049139D01*
X156697156Y-98049137D01*
X156692574Y-98046658D01*
X156687650Y-98044967D01*
X156687642Y-98044964D01*
X156484565Y-97975248D01*
X156484559Y-97975246D01*
X156479635Y-97973556D01*
X156474498Y-97972698D01*
X156474495Y-97972698D01*
X156262706Y-97937357D01*
X156262703Y-97937356D01*
X156257569Y-97936500D01*
X156032431Y-97936500D01*
X156027297Y-97937356D01*
X156027293Y-97937357D01*
X155815504Y-97972698D01*
X155815498Y-97972699D01*
X155810365Y-97973556D01*
X155805443Y-97975245D01*
X155805434Y-97975248D01*
X155602357Y-98044964D01*
X155602344Y-98044969D01*
X155597426Y-98046658D01*
X155592847Y-98049135D01*
X155592840Y-98049139D01*
X155404005Y-98151331D01*
X155403997Y-98151336D01*
X155399424Y-98153811D01*
X155395313Y-98157010D01*
X155395311Y-98157012D01*
X155225878Y-98288888D01*
X155225872Y-98288893D01*
X155221760Y-98292094D01*
X155218237Y-98295919D01*
X155218227Y-98295930D01*
X155072806Y-98453899D01*
X155072802Y-98453902D01*
X155069278Y-98457732D01*
X155066430Y-98462090D01*
X155066427Y-98462095D01*
X154980483Y-98593643D01*
X154934969Y-98635542D01*
X154875000Y-98650728D01*
X154815031Y-98635542D01*
X154769517Y-98593643D01*
X154729813Y-98532872D01*
X154680722Y-98457732D01*
X154619001Y-98390686D01*
X154531772Y-98295930D01*
X154531767Y-98295925D01*
X154528240Y-98292094D01*
X154350576Y-98153811D01*
X154345997Y-98151333D01*
X154345994Y-98151331D01*
X154157159Y-98049139D01*
X154157156Y-98049137D01*
X154152574Y-98046658D01*
X154147650Y-98044967D01*
X154147642Y-98044964D01*
X153944565Y-97975248D01*
X153944559Y-97975246D01*
X153939635Y-97973556D01*
X153934498Y-97972698D01*
X153934495Y-97972698D01*
X153722706Y-97937357D01*
X153722703Y-97937356D01*
X153717569Y-97936500D01*
X153492431Y-97936500D01*
X153487297Y-97937356D01*
X153487293Y-97937357D01*
X153275504Y-97972698D01*
X153275498Y-97972699D01*
X153270365Y-97973556D01*
X153265443Y-97975245D01*
X153265434Y-97975248D01*
X153062357Y-98044964D01*
X153062344Y-98044969D01*
X153057426Y-98046658D01*
X153052847Y-98049135D01*
X153052840Y-98049139D01*
X152864005Y-98151331D01*
X152863997Y-98151336D01*
X152859424Y-98153811D01*
X152855313Y-98157010D01*
X152855311Y-98157012D01*
X152685878Y-98288888D01*
X152685872Y-98288893D01*
X152681760Y-98292094D01*
X152678237Y-98295919D01*
X152678227Y-98295930D01*
X152532806Y-98453899D01*
X152532802Y-98453902D01*
X152529278Y-98457732D01*
X152526430Y-98462090D01*
X152526427Y-98462095D01*
X152409696Y-98640766D01*
X152406140Y-98646209D01*
X152404048Y-98650978D01*
X152404046Y-98650982D01*
X152317799Y-98847606D01*
X152317796Y-98847614D01*
X152315704Y-98852384D01*
X152314423Y-98857440D01*
X152314422Y-98857445D01*
X152272141Y-99024410D01*
X152260436Y-99070632D01*
X152260006Y-99075820D01*
X152260005Y-99075827D01*
X152257523Y-99105784D01*
X152241844Y-99295000D01*
X152242274Y-99300189D01*
X152257278Y-99481265D01*
X152260436Y-99519368D01*
X152315704Y-99737616D01*
X152317797Y-99742389D01*
X152317799Y-99742393D01*
X152377747Y-99879060D01*
X152406140Y-99943791D01*
X152529278Y-100132268D01*
X152532806Y-100136100D01*
X152678227Y-100294069D01*
X152678231Y-100294073D01*
X152681760Y-100297906D01*
X152859424Y-100436189D01*
X153057426Y-100543342D01*
X153062355Y-100545034D01*
X153062357Y-100545035D01*
X153163895Y-100579892D01*
X153270365Y-100616444D01*
X153492431Y-100653500D01*
X153712358Y-100653500D01*
X153717569Y-100653500D01*
X153939635Y-100616444D01*
X154152574Y-100543342D01*
X154350576Y-100436189D01*
X154528240Y-100297906D01*
X154680722Y-100132268D01*
X154769518Y-99996354D01*
X154815030Y-99954457D01*
X154875000Y-99939271D01*
X154934970Y-99954457D01*
X154980481Y-99996354D01*
X155069278Y-100132268D01*
X155072806Y-100136100D01*
X155218227Y-100294069D01*
X155218231Y-100294073D01*
X155221760Y-100297906D01*
X155399424Y-100436189D01*
X155597426Y-100543342D01*
X155602355Y-100545034D01*
X155602357Y-100545035D01*
X155703895Y-100579892D01*
X155810365Y-100616444D01*
X156032431Y-100653500D01*
X156252358Y-100653500D01*
X156257569Y-100653500D01*
X156262715Y-100652641D01*
X156262718Y-100652641D01*
X156367294Y-100635191D01*
X156428945Y-100640299D01*
X156480734Y-100674134D01*
X156510177Y-100728541D01*
X156510178Y-100790403D01*
X156480735Y-100844809D01*
X156343205Y-100994207D01*
X156336822Y-101002406D01*
X156219431Y-101182086D01*
X156214488Y-101191221D01*
X156128270Y-101387776D01*
X156124900Y-101397591D01*
X156081986Y-101567056D01*
X156081751Y-101578434D01*
X156092840Y-101581000D01*
X157144410Y-101581000D01*
X157157493Y-101577493D01*
X157161000Y-101564410D01*
X157161000Y-100514336D01*
X157158529Y-100503131D01*
X157093127Y-100480393D01*
X157049423Y-100425275D01*
X157042077Y-100355317D01*
X157073378Y-100292324D01*
X157220722Y-100132268D01*
X157309518Y-99996354D01*
X157355030Y-99954457D01*
X157415000Y-99939271D01*
X157474970Y-99954457D01*
X157520481Y-99996354D01*
X157609278Y-100132268D01*
X157612806Y-100136100D01*
X157756620Y-100292323D01*
X157787922Y-100355317D01*
X157780576Y-100425275D01*
X157736872Y-100480393D01*
X157671470Y-100503131D01*
X157669000Y-100514336D01*
X157669000Y-103155664D01*
X157671401Y-103166556D01*
X157682538Y-103167132D01*
X157744372Y-103156814D01*
X157754442Y-103154264D01*
X157957440Y-103084575D01*
X157966957Y-103080400D01*
X158155718Y-102978247D01*
X158164411Y-102972568D01*
X158333788Y-102840737D01*
X158341432Y-102833700D01*
X158486789Y-102675799D01*
X158493181Y-102667587D01*
X158579218Y-102535899D01*
X158624732Y-102494000D01*
X158684701Y-102478814D01*
X158744670Y-102494000D01*
X158790183Y-102535898D01*
X158879278Y-102672268D01*
X158929727Y-102727069D01*
X159028227Y-102834069D01*
X159028231Y-102834073D01*
X159031760Y-102837906D01*
X159209424Y-102976189D01*
X159407426Y-103083342D01*
X159412355Y-103085034D01*
X159412357Y-103085035D01*
X159513895Y-103119893D01*
X159620365Y-103156444D01*
X159842431Y-103193500D01*
X160062358Y-103193500D01*
X160067569Y-103193500D01*
X160289635Y-103156444D01*
X160502574Y-103083342D01*
X160700576Y-102976189D01*
X160878240Y-102837906D01*
X161030722Y-102672268D01*
X161119518Y-102536354D01*
X161165030Y-102494457D01*
X161225000Y-102479271D01*
X161284970Y-102494457D01*
X161330481Y-102536354D01*
X161419278Y-102672268D01*
X161469727Y-102727069D01*
X161568227Y-102834069D01*
X161568231Y-102834073D01*
X161571760Y-102837906D01*
X161749424Y-102976189D01*
X161947426Y-103083342D01*
X161952355Y-103085034D01*
X161952357Y-103085035D01*
X162053895Y-103119893D01*
X162160365Y-103156444D01*
X162382431Y-103193500D01*
X162602358Y-103193500D01*
X162607569Y-103193500D01*
X162829635Y-103156444D01*
X162832956Y-103155303D01*
X162896790Y-103155960D01*
X162952440Y-103188344D01*
X163736816Y-103972721D01*
X164506347Y-104742252D01*
X164513886Y-104750535D01*
X164518000Y-104757018D01*
X164523782Y-104762447D01*
X164523784Y-104762450D01*
X164567649Y-104803642D01*
X164570491Y-104806396D01*
X164590230Y-104826135D01*
X164593360Y-104828563D01*
X164593432Y-104828619D01*
X164602440Y-104836313D01*
X164634679Y-104866586D01*
X164641627Y-104870405D01*
X164641629Y-104870407D01*
X164652426Y-104876343D01*
X164668950Y-104887197D01*
X164678694Y-104894755D01*
X164678697Y-104894757D01*
X164684959Y-104899614D01*
X164692232Y-104902761D01*
X164725535Y-104917172D01*
X164736200Y-104922397D01*
X164774940Y-104943695D01*
X164794560Y-104948732D01*
X164813252Y-104955130D01*
X164831855Y-104963181D01*
X164875525Y-104970097D01*
X164887125Y-104972498D01*
X164929970Y-104983500D01*
X164950224Y-104983500D01*
X164969934Y-104985050D01*
X164989943Y-104988220D01*
X165033961Y-104984058D01*
X165045819Y-104983500D01*
X172641800Y-104983500D01*
X172693047Y-104994392D01*
X172728724Y-105020312D01*
X172729420Y-105019540D01*
X172734331Y-105023962D01*
X172738747Y-105028866D01*
X172893248Y-105141118D01*
X173067712Y-105218794D01*
X173254513Y-105258500D01*
X173438884Y-105258500D01*
X173445487Y-105258500D01*
X173632288Y-105218794D01*
X173806752Y-105141118D01*
X173961253Y-105028866D01*
X174089040Y-104886944D01*
X174184527Y-104721556D01*
X174241303Y-104546820D01*
X179917835Y-104546820D01*
X179925850Y-104558267D01*
X180164929Y-104751869D01*
X180170272Y-104755751D01*
X180490685Y-104963830D01*
X180496394Y-104967126D01*
X180836811Y-105140578D01*
X180842835Y-105143260D01*
X181199501Y-105280170D01*
X181205784Y-105282212D01*
X181574815Y-105381094D01*
X181581265Y-105382465D01*
X181958629Y-105442233D01*
X181965167Y-105442920D01*
X182346699Y-105462916D01*
X182353301Y-105462916D01*
X182734832Y-105442920D01*
X182741370Y-105442233D01*
X183118734Y-105382465D01*
X183125184Y-105381094D01*
X183494215Y-105282212D01*
X183500498Y-105280170D01*
X183857164Y-105143260D01*
X183863188Y-105140578D01*
X184203605Y-104967126D01*
X184209314Y-104963830D01*
X184529728Y-104755751D01*
X184535064Y-104751874D01*
X184774150Y-104558265D01*
X184782164Y-104546821D01*
X184775389Y-104534599D01*
X182361729Y-102120939D01*
X182350000Y-102114167D01*
X182338270Y-102120939D01*
X179924609Y-104534599D01*
X179917835Y-104546820D01*
X174241303Y-104546820D01*
X174243542Y-104539928D01*
X174263504Y-104350000D01*
X174243542Y-104160072D01*
X174184527Y-103978444D01*
X174089040Y-103813056D01*
X173961253Y-103671134D01*
X173955911Y-103667253D01*
X173955908Y-103667250D01*
X173832142Y-103577329D01*
X173806752Y-103558882D01*
X173632288Y-103481206D01*
X173625835Y-103479834D01*
X173625831Y-103479833D01*
X173451943Y-103442872D01*
X173451940Y-103442871D01*
X173445487Y-103441500D01*
X173254513Y-103441500D01*
X173248060Y-103442871D01*
X173248056Y-103442872D01*
X173074168Y-103479833D01*
X173074161Y-103479835D01*
X173067712Y-103481206D01*
X173061682Y-103483890D01*
X173061681Y-103483891D01*
X172899278Y-103556197D01*
X172899275Y-103556198D01*
X172893248Y-103558882D01*
X172887907Y-103562762D01*
X172887906Y-103562763D01*
X172744086Y-103667254D01*
X172744080Y-103667259D01*
X172738747Y-103671134D01*
X172734333Y-103676035D01*
X172729420Y-103680460D01*
X172728724Y-103679687D01*
X172693047Y-103705608D01*
X172641800Y-103716500D01*
X172325431Y-103716500D01*
X172258661Y-103697354D01*
X172212183Y-103645735D01*
X172200121Y-103577329D01*
X172200422Y-103574473D01*
X172213504Y-103450000D01*
X172193542Y-103260072D01*
X172134527Y-103078444D01*
X172039040Y-102913056D01*
X171911253Y-102771134D01*
X171905911Y-102767253D01*
X171905908Y-102767250D01*
X171793103Y-102685293D01*
X171756752Y-102658882D01*
X171582288Y-102581206D01*
X171575835Y-102579834D01*
X171575831Y-102579833D01*
X171401943Y-102542872D01*
X171401940Y-102542871D01*
X171395487Y-102541500D01*
X171204513Y-102541500D01*
X171198060Y-102542871D01*
X171198056Y-102542872D01*
X171024168Y-102579833D01*
X171024161Y-102579835D01*
X171017712Y-102581206D01*
X171011682Y-102583890D01*
X171011681Y-102583891D01*
X170849278Y-102656197D01*
X170849275Y-102656198D01*
X170843248Y-102658882D01*
X170837907Y-102662762D01*
X170837906Y-102662763D01*
X170694086Y-102767254D01*
X170694080Y-102767259D01*
X170688747Y-102771134D01*
X170684333Y-102776035D01*
X170679420Y-102780460D01*
X170678724Y-102779687D01*
X170643047Y-102805608D01*
X170591800Y-102816500D01*
X168788720Y-102816500D01*
X168724222Y-102798741D01*
X168677906Y-102750469D01*
X168662828Y-102685293D01*
X168683237Y-102621584D01*
X168770568Y-102487913D01*
X168775511Y-102478778D01*
X168861729Y-102282223D01*
X168865099Y-102272408D01*
X168908013Y-102102943D01*
X168908248Y-102091565D01*
X168897160Y-102089000D01*
X164907000Y-102089000D01*
X164844000Y-102072119D01*
X164797881Y-102026000D01*
X164781000Y-101963000D01*
X164781000Y-101753301D01*
X178637084Y-101753301D01*
X178657079Y-102134832D01*
X178657766Y-102141370D01*
X178717534Y-102518734D01*
X178718905Y-102525184D01*
X178817787Y-102894215D01*
X178819829Y-102900498D01*
X178956739Y-103257164D01*
X178959421Y-103263188D01*
X179132873Y-103603605D01*
X179136169Y-103609314D01*
X179344248Y-103929727D01*
X179348130Y-103935070D01*
X179541731Y-104174148D01*
X179553178Y-104182163D01*
X179565399Y-104175389D01*
X181979060Y-101761729D01*
X181985832Y-101750000D01*
X182714167Y-101750000D01*
X182720939Y-101761729D01*
X185134599Y-104175389D01*
X185146821Y-104182164D01*
X185158265Y-104174150D01*
X185351874Y-103935064D01*
X185355751Y-103929728D01*
X185563830Y-103609314D01*
X185567126Y-103603605D01*
X185740578Y-103263188D01*
X185743260Y-103257164D01*
X185880170Y-102900498D01*
X185882212Y-102894215D01*
X185981094Y-102525184D01*
X185982465Y-102518734D01*
X186042233Y-102141370D01*
X186042920Y-102134832D01*
X186062916Y-101753301D01*
X186062916Y-101746699D01*
X186042920Y-101365167D01*
X186042233Y-101358629D01*
X185982465Y-100981265D01*
X185981094Y-100974815D01*
X185882212Y-100605784D01*
X185880170Y-100599501D01*
X185743260Y-100242835D01*
X185740578Y-100236811D01*
X185567127Y-99896397D01*
X185563830Y-99890686D01*
X185355753Y-99570275D01*
X185351865Y-99564924D01*
X185158267Y-99325850D01*
X185146820Y-99317835D01*
X185134599Y-99324609D01*
X182720939Y-101738270D01*
X182714167Y-101750000D01*
X181985832Y-101750000D01*
X181979060Y-101738270D01*
X179565399Y-99324609D01*
X179553177Y-99317834D01*
X179541734Y-99325847D01*
X179348123Y-99564938D01*
X179344251Y-99570267D01*
X179136169Y-99890686D01*
X179132872Y-99896397D01*
X178959421Y-100236811D01*
X178956739Y-100242835D01*
X178819829Y-100599501D01*
X178817787Y-100605784D01*
X178718905Y-100974815D01*
X178717534Y-100981265D01*
X178657766Y-101358629D01*
X178657079Y-101365167D01*
X178637084Y-101746699D01*
X178637084Y-101753301D01*
X164781000Y-101753301D01*
X164781000Y-100514336D01*
X164778529Y-100503131D01*
X164713127Y-100480393D01*
X164669423Y-100425275D01*
X164662077Y-100355317D01*
X164693378Y-100292324D01*
X164840722Y-100132268D01*
X164929817Y-99995896D01*
X164975328Y-99954001D01*
X165035297Y-99938814D01*
X165095267Y-99954000D01*
X165140781Y-99995898D01*
X165226822Y-100127592D01*
X165233210Y-100135799D01*
X165377270Y-100292290D01*
X165408572Y-100355283D01*
X165401226Y-100425240D01*
X165357523Y-100480358D01*
X165291424Y-100503339D01*
X165289000Y-100514336D01*
X165289000Y-101564410D01*
X165292506Y-101577493D01*
X165305590Y-101581000D01*
X167304410Y-101581000D01*
X167317493Y-101577493D01*
X167321000Y-101564410D01*
X167321000Y-100514336D01*
X167318575Y-100503340D01*
X167252476Y-100480358D01*
X167208773Y-100425240D01*
X167201427Y-100355283D01*
X167232729Y-100292289D01*
X167376794Y-100135792D01*
X167383181Y-100127587D01*
X167469218Y-99995899D01*
X167514732Y-99954000D01*
X167574701Y-99938814D01*
X167634670Y-99954000D01*
X167680183Y-99995898D01*
X167769278Y-100132268D01*
X167772806Y-100136100D01*
X167916620Y-100292323D01*
X167947922Y-100355317D01*
X167940576Y-100425275D01*
X167896872Y-100480393D01*
X167831470Y-100503131D01*
X167829000Y-100514336D01*
X167829000Y-101564410D01*
X167832506Y-101577493D01*
X167845590Y-101581000D01*
X168897160Y-101581000D01*
X168908248Y-101578434D01*
X168908013Y-101567056D01*
X168865099Y-101397591D01*
X168861729Y-101387776D01*
X168775511Y-101191221D01*
X168770568Y-101182086D01*
X168653177Y-101002406D01*
X168646789Y-100994200D01*
X168509265Y-100844809D01*
X168479822Y-100790403D01*
X168479822Y-100728541D01*
X168509265Y-100674135D01*
X168561054Y-100640299D01*
X168622704Y-100635190D01*
X168732431Y-100653500D01*
X168952358Y-100653500D01*
X168957569Y-100653500D01*
X169179635Y-100616444D01*
X169392574Y-100543342D01*
X169590576Y-100436189D01*
X169768240Y-100297906D01*
X169920722Y-100132268D01*
X170009817Y-99995896D01*
X170055328Y-99954001D01*
X170115297Y-99938814D01*
X170175267Y-99954000D01*
X170220781Y-99995898D01*
X170306822Y-100127592D01*
X170313210Y-100135799D01*
X170458567Y-100293700D01*
X170466211Y-100300737D01*
X170635588Y-100432568D01*
X170644281Y-100438247D01*
X170833042Y-100540400D01*
X170842559Y-100544575D01*
X171045557Y-100614264D01*
X171055627Y-100616814D01*
X171117461Y-100627132D01*
X171128598Y-100626556D01*
X171131000Y-100615664D01*
X171639000Y-100615664D01*
X171641401Y-100626556D01*
X171652538Y-100627132D01*
X171714372Y-100616814D01*
X171724442Y-100614264D01*
X171927440Y-100544575D01*
X171936957Y-100540400D01*
X172125718Y-100438247D01*
X172134411Y-100432568D01*
X172303788Y-100300737D01*
X172311432Y-100293700D01*
X172456789Y-100135799D01*
X172463177Y-100127593D01*
X172580568Y-99947913D01*
X172585511Y-99938778D01*
X172671729Y-99742223D01*
X172675099Y-99732408D01*
X172718013Y-99562943D01*
X172718248Y-99551565D01*
X172707160Y-99549000D01*
X171655590Y-99549000D01*
X171642506Y-99552506D01*
X171639000Y-99565590D01*
X171639000Y-100615664D01*
X171131000Y-100615664D01*
X171131000Y-99024410D01*
X171639000Y-99024410D01*
X171642506Y-99037493D01*
X171655590Y-99041000D01*
X172707160Y-99041000D01*
X172718248Y-99038434D01*
X172718013Y-99027056D01*
X172699304Y-98953177D01*
X179917834Y-98953177D01*
X179924609Y-98965399D01*
X182338270Y-101379060D01*
X182349999Y-101385832D01*
X182361729Y-101379060D01*
X184775389Y-98965399D01*
X184782163Y-98953178D01*
X184774148Y-98941731D01*
X184535070Y-98748130D01*
X184529727Y-98744248D01*
X184209314Y-98536169D01*
X184203605Y-98532873D01*
X183863188Y-98359421D01*
X183857164Y-98356739D01*
X183500498Y-98219829D01*
X183494215Y-98217787D01*
X183125184Y-98118905D01*
X183118734Y-98117534D01*
X182741370Y-98057766D01*
X182734832Y-98057079D01*
X182353301Y-98037084D01*
X182346699Y-98037084D01*
X181965167Y-98057079D01*
X181958629Y-98057766D01*
X181581265Y-98117534D01*
X181574815Y-98118905D01*
X181205784Y-98217787D01*
X181199501Y-98219829D01*
X180842835Y-98356739D01*
X180836811Y-98359421D01*
X180496397Y-98532872D01*
X180490686Y-98536169D01*
X180170267Y-98744251D01*
X180164938Y-98748123D01*
X179925847Y-98941734D01*
X179917834Y-98953177D01*
X172699304Y-98953177D01*
X172675099Y-98857591D01*
X172671729Y-98847776D01*
X172585511Y-98651221D01*
X172580568Y-98642086D01*
X172463177Y-98462406D01*
X172456789Y-98454200D01*
X172311432Y-98296299D01*
X172303788Y-98289262D01*
X172134411Y-98157431D01*
X172125718Y-98151752D01*
X171936957Y-98049599D01*
X171927440Y-98045424D01*
X171724442Y-97975735D01*
X171714372Y-97973185D01*
X171652538Y-97962867D01*
X171641401Y-97963443D01*
X171639000Y-97974336D01*
X171639000Y-99024410D01*
X171131000Y-99024410D01*
X171131000Y-97974336D01*
X171128598Y-97963443D01*
X171117461Y-97962867D01*
X171055627Y-97973185D01*
X171045557Y-97975735D01*
X170842559Y-98045424D01*
X170833042Y-98049599D01*
X170644281Y-98151752D01*
X170635588Y-98157431D01*
X170466211Y-98289262D01*
X170458567Y-98296299D01*
X170313210Y-98454200D01*
X170306816Y-98462415D01*
X170220780Y-98594101D01*
X170175267Y-98635999D01*
X170115297Y-98651185D01*
X170055328Y-98635998D01*
X170009816Y-98594101D01*
X169920722Y-98457732D01*
X169859001Y-98390686D01*
X169771772Y-98295930D01*
X169771767Y-98295925D01*
X169768240Y-98292094D01*
X169590576Y-98153811D01*
X169586003Y-98151336D01*
X169585995Y-98151331D01*
X169544531Y-98128893D01*
X169496259Y-98082577D01*
X169478500Y-98018079D01*
X169478500Y-82293763D01*
X169479027Y-82282579D01*
X169480701Y-82275091D01*
X169478561Y-82207032D01*
X169478500Y-82203075D01*
X169478500Y-82179100D01*
X169478500Y-82175144D01*
X169477993Y-82171134D01*
X169477061Y-82159294D01*
X169475673Y-82115110D01*
X169470020Y-82095656D01*
X169466012Y-82076297D01*
X169463474Y-82056203D01*
X169447197Y-82015093D01*
X169443351Y-82003860D01*
X169433229Y-81969019D01*
X169431018Y-81961407D01*
X169420707Y-81943973D01*
X169412008Y-81926215D01*
X169407469Y-81914751D01*
X169404552Y-81907383D01*
X169378561Y-81871610D01*
X169372050Y-81861698D01*
X169349542Y-81823637D01*
X169335217Y-81809312D01*
X169322376Y-81794277D01*
X169315134Y-81784309D01*
X169315131Y-81784306D01*
X169310472Y-81777893D01*
X169297164Y-81766884D01*
X169276405Y-81749710D01*
X169267626Y-81741721D01*
X168172725Y-80646820D01*
X179467835Y-80646820D01*
X179475850Y-80658267D01*
X179714929Y-80851869D01*
X179720272Y-80855751D01*
X180040685Y-81063830D01*
X180046394Y-81067126D01*
X180386811Y-81240578D01*
X180392835Y-81243260D01*
X180749501Y-81380170D01*
X180755784Y-81382212D01*
X181124815Y-81481094D01*
X181131265Y-81482465D01*
X181508629Y-81542233D01*
X181515167Y-81542920D01*
X181896699Y-81562916D01*
X181903301Y-81562916D01*
X182284832Y-81542920D01*
X182291370Y-81542233D01*
X182668734Y-81482465D01*
X182675184Y-81481094D01*
X183044215Y-81382212D01*
X183050498Y-81380170D01*
X183407164Y-81243260D01*
X183413188Y-81240578D01*
X183753605Y-81067126D01*
X183759314Y-81063830D01*
X184079728Y-80855751D01*
X184085064Y-80851874D01*
X184324150Y-80658265D01*
X184332164Y-80646821D01*
X184325389Y-80634599D01*
X181911729Y-78220939D01*
X181900000Y-78214167D01*
X181888270Y-78220939D01*
X179474609Y-80634599D01*
X179467835Y-80646820D01*
X168172725Y-80646820D01*
X167907442Y-80381537D01*
X167876367Y-80330327D01*
X167872453Y-80270554D01*
X167873262Y-80265969D01*
X167874686Y-80260655D01*
X167893116Y-80050000D01*
X167874686Y-79839345D01*
X167819956Y-79635090D01*
X167730589Y-79443442D01*
X167609301Y-79270224D01*
X167459776Y-79120699D01*
X167455268Y-79117543D01*
X167455264Y-79117539D01*
X167291063Y-79002565D01*
X167291059Y-79002563D01*
X167286558Y-78999411D01*
X167281579Y-78997089D01*
X167281577Y-78997088D01*
X167099892Y-78912367D01*
X167099890Y-78912366D01*
X167094910Y-78910044D01*
X167089601Y-78908621D01*
X167089600Y-78908621D01*
X166895969Y-78856738D01*
X166895970Y-78856738D01*
X166890655Y-78855314D01*
X166885179Y-78854834D01*
X166885174Y-78854834D01*
X166685475Y-78837363D01*
X166680000Y-78836884D01*
X166674525Y-78837363D01*
X166474825Y-78854834D01*
X166474818Y-78854835D01*
X166469345Y-78855314D01*
X166464031Y-78856737D01*
X166464030Y-78856738D01*
X166270399Y-78908621D01*
X166270394Y-78908622D01*
X166265090Y-78910044D01*
X166260112Y-78912364D01*
X166260107Y-78912367D01*
X166078422Y-78997088D01*
X166078414Y-78997092D01*
X166073442Y-78999411D01*
X166068945Y-79002559D01*
X166068936Y-79002565D01*
X165904735Y-79117539D01*
X165904725Y-79117547D01*
X165900224Y-79120699D01*
X165896334Y-79124588D01*
X165896328Y-79124594D01*
X165754594Y-79266328D01*
X165754588Y-79266334D01*
X165750699Y-79270224D01*
X165747547Y-79274725D01*
X165747539Y-79274735D01*
X165632565Y-79438936D01*
X165632559Y-79438945D01*
X165629411Y-79443442D01*
X165627092Y-79448414D01*
X165627088Y-79448422D01*
X165542367Y-79630107D01*
X165542364Y-79630112D01*
X165540044Y-79635090D01*
X165538622Y-79640394D01*
X165538621Y-79640399D01*
X165486902Y-79833419D01*
X165485314Y-79839345D01*
X165484835Y-79844818D01*
X165484834Y-79844825D01*
X165474855Y-79958893D01*
X165466884Y-80050000D01*
X165467363Y-80055475D01*
X165475634Y-80150020D01*
X165485314Y-80260655D01*
X165540044Y-80464910D01*
X165542366Y-80469890D01*
X165542367Y-80469892D01*
X165624870Y-80646821D01*
X165629411Y-80656558D01*
X165632563Y-80661059D01*
X165632565Y-80661063D01*
X165747539Y-80825264D01*
X165747543Y-80825268D01*
X165750699Y-80829776D01*
X165900224Y-80979301D01*
X165904732Y-80982457D01*
X165904735Y-80982460D01*
X166038912Y-81076411D01*
X166073442Y-81100589D01*
X166265090Y-81189956D01*
X166469345Y-81244686D01*
X166680000Y-81263116D01*
X166890655Y-81244686D01*
X166895971Y-81243261D01*
X166900556Y-81242453D01*
X166960328Y-81246367D01*
X167011538Y-81277442D01*
X168174595Y-82440499D01*
X168201909Y-82481376D01*
X168211500Y-82529594D01*
X168211500Y-98018079D01*
X168193741Y-98082577D01*
X168145469Y-98128893D01*
X168104004Y-98151331D01*
X168103991Y-98151339D01*
X168099424Y-98153811D01*
X168095313Y-98157010D01*
X168095311Y-98157012D01*
X167925878Y-98288888D01*
X167925872Y-98288893D01*
X167921760Y-98292094D01*
X167918237Y-98295919D01*
X167918227Y-98295930D01*
X167772806Y-98453899D01*
X167772802Y-98453902D01*
X167769278Y-98457732D01*
X167680184Y-98594101D01*
X167634670Y-98635999D01*
X167574701Y-98651185D01*
X167514732Y-98635999D01*
X167469218Y-98594101D01*
X167383177Y-98462407D01*
X167376789Y-98454200D01*
X167231432Y-98296299D01*
X167223788Y-98289262D01*
X167054411Y-98157431D01*
X167045718Y-98151752D01*
X166856957Y-98049599D01*
X166847440Y-98045424D01*
X166644442Y-97975735D01*
X166634372Y-97973185D01*
X166572538Y-97962867D01*
X166561401Y-97963443D01*
X166559000Y-97974336D01*
X166559000Y-100615664D01*
X166561424Y-100626660D01*
X166627520Y-100649639D01*
X166671226Y-100704756D01*
X166678572Y-100774715D01*
X166647271Y-100837709D01*
X166503205Y-100994207D01*
X166496822Y-101002407D01*
X166410483Y-101134558D01*
X166364969Y-101176456D01*
X166305000Y-101191642D01*
X166245031Y-101176456D01*
X166199517Y-101134558D01*
X166113177Y-101002407D01*
X166106789Y-100994200D01*
X165962729Y-100837709D01*
X165931427Y-100774715D01*
X165938773Y-100704756D01*
X165982479Y-100649639D01*
X166048575Y-100626660D01*
X166051000Y-100615664D01*
X166051000Y-97974336D01*
X166048598Y-97963443D01*
X166037461Y-97962867D01*
X165975627Y-97973185D01*
X165965557Y-97975735D01*
X165762559Y-98045424D01*
X165753042Y-98049599D01*
X165564281Y-98151752D01*
X165555588Y-98157431D01*
X165386211Y-98289262D01*
X165378567Y-98296299D01*
X165233210Y-98454200D01*
X165226816Y-98462415D01*
X165140780Y-98594101D01*
X165095267Y-98635999D01*
X165035297Y-98651185D01*
X164975328Y-98635998D01*
X164929816Y-98594101D01*
X164840722Y-98457732D01*
X164779001Y-98390686D01*
X164691772Y-98295930D01*
X164691767Y-98295925D01*
X164688240Y-98292094D01*
X164510576Y-98153811D01*
X164505997Y-98151333D01*
X164505994Y-98151331D01*
X164317159Y-98049139D01*
X164317156Y-98049137D01*
X164312574Y-98046658D01*
X164307650Y-98044967D01*
X164307642Y-98044964D01*
X164104565Y-97975248D01*
X164104559Y-97975246D01*
X164099635Y-97973556D01*
X164094498Y-97972698D01*
X164094495Y-97972698D01*
X163882706Y-97937357D01*
X163882703Y-97937356D01*
X163877569Y-97936500D01*
X163652431Y-97936500D01*
X163647297Y-97937356D01*
X163647293Y-97937357D01*
X163435504Y-97972698D01*
X163435498Y-97972699D01*
X163430365Y-97973556D01*
X163425443Y-97975245D01*
X163425434Y-97975248D01*
X163222357Y-98044964D01*
X163222344Y-98044969D01*
X163217426Y-98046658D01*
X163212847Y-98049135D01*
X163212840Y-98049139D01*
X163024005Y-98151331D01*
X163023997Y-98151336D01*
X163019424Y-98153811D01*
X163015313Y-98157010D01*
X163015311Y-98157012D01*
X162845878Y-98288888D01*
X162845872Y-98288893D01*
X162841760Y-98292094D01*
X162838237Y-98295919D01*
X162838227Y-98295930D01*
X162692806Y-98453899D01*
X162692802Y-98453902D01*
X162689278Y-98457732D01*
X162686430Y-98462090D01*
X162686427Y-98462095D01*
X162600483Y-98593643D01*
X162554969Y-98635542D01*
X162495000Y-98650728D01*
X162435031Y-98635542D01*
X162389517Y-98593643D01*
X162349813Y-98532872D01*
X162300722Y-98457732D01*
X162239001Y-98390686D01*
X162151772Y-98295930D01*
X162151767Y-98295925D01*
X162148240Y-98292094D01*
X161970576Y-98153811D01*
X161966003Y-98151336D01*
X161965995Y-98151331D01*
X161924531Y-98128893D01*
X161876259Y-98082577D01*
X161858500Y-98018079D01*
X161858500Y-95734500D01*
X161875381Y-95671500D01*
X161921500Y-95625381D01*
X161984500Y-95608500D01*
X162495269Y-95608500D01*
X162498638Y-95608500D01*
X162559201Y-95601989D01*
X162696204Y-95550889D01*
X162813261Y-95463261D01*
X162900889Y-95346204D01*
X162951989Y-95209201D01*
X162958500Y-95148638D01*
X162958500Y-93351362D01*
X162951989Y-93290799D01*
X162900889Y-93153796D01*
X162843726Y-93077436D01*
X162818659Y-93043950D01*
X162813261Y-93036739D01*
X162789283Y-93018789D01*
X162703417Y-92954510D01*
X162703414Y-92954508D01*
X162696204Y-92949111D01*
X162687766Y-92945964D01*
X162687763Y-92945962D01*
X162566580Y-92900763D01*
X162566578Y-92900762D01*
X162559201Y-92898011D01*
X162551373Y-92897169D01*
X162551367Y-92897168D01*
X162501988Y-92891860D01*
X162501985Y-92891859D01*
X162498638Y-92891500D01*
X160701362Y-92891500D01*
X160698015Y-92891859D01*
X160698011Y-92891860D01*
X160648632Y-92897168D01*
X160648625Y-92897169D01*
X160640799Y-92898011D01*
X160633423Y-92900761D01*
X160633419Y-92900763D01*
X160512236Y-92945962D01*
X160512230Y-92945965D01*
X160503796Y-92949111D01*
X160496588Y-92954506D01*
X160496582Y-92954510D01*
X160393950Y-93031340D01*
X160393946Y-93031343D01*
X160386739Y-93036739D01*
X160381343Y-93043946D01*
X160381340Y-93043950D01*
X160304510Y-93146582D01*
X160304506Y-93146588D01*
X160299111Y-93153796D01*
X160295965Y-93162230D01*
X160295962Y-93162236D01*
X160250763Y-93283419D01*
X160250761Y-93283423D01*
X160248011Y-93290799D01*
X160247169Y-93298625D01*
X160247168Y-93298632D01*
X160241860Y-93348011D01*
X160241500Y-93351362D01*
X160241500Y-95148638D01*
X160241859Y-95151985D01*
X160241860Y-95151988D01*
X160247168Y-95201367D01*
X160247169Y-95201373D01*
X160248011Y-95209201D01*
X160250762Y-95216578D01*
X160250763Y-95216580D01*
X160295962Y-95337763D01*
X160295964Y-95337766D01*
X160299111Y-95346204D01*
X160304508Y-95353414D01*
X160304510Y-95353417D01*
X160330389Y-95387987D01*
X160386739Y-95463261D01*
X160503796Y-95550889D01*
X160512236Y-95554036D01*
X160520151Y-95558359D01*
X160519615Y-95559340D01*
X160552452Y-95579896D01*
X160581327Y-95621486D01*
X160591500Y-95671085D01*
X160591500Y-98018079D01*
X160573741Y-98082577D01*
X160525469Y-98128893D01*
X160484004Y-98151331D01*
X160483991Y-98151339D01*
X160479424Y-98153811D01*
X160475313Y-98157010D01*
X160475311Y-98157012D01*
X160305878Y-98288888D01*
X160305872Y-98288893D01*
X160301760Y-98292094D01*
X160298237Y-98295919D01*
X160298227Y-98295930D01*
X160152806Y-98453899D01*
X160152802Y-98453902D01*
X160149278Y-98457732D01*
X160146430Y-98462090D01*
X160146427Y-98462095D01*
X160060483Y-98593643D01*
X160014969Y-98635542D01*
X159955000Y-98650728D01*
X159895031Y-98635542D01*
X159849517Y-98593643D01*
X159809813Y-98532872D01*
X159760722Y-98457732D01*
X159699001Y-98390686D01*
X159611772Y-98295930D01*
X159611767Y-98295925D01*
X159608240Y-98292094D01*
X159515395Y-98219829D01*
X159434694Y-98157016D01*
X159434692Y-98157014D01*
X159430576Y-98153811D01*
X159425989Y-98151328D01*
X159425581Y-98151062D01*
X159383685Y-98105549D01*
X159368500Y-98045581D01*
X159368500Y-93290305D01*
X159378091Y-93242087D01*
X159405405Y-93201210D01*
X160152227Y-92454388D01*
X162402198Y-90204415D01*
X162452851Y-90173519D01*
X162512030Y-90169231D01*
X162682282Y-90197641D01*
X162682284Y-90197641D01*
X162687431Y-90198500D01*
X162907358Y-90198500D01*
X162912569Y-90198500D01*
X163134635Y-90161444D01*
X163347574Y-90088342D01*
X163545576Y-89981189D01*
X163723240Y-89842906D01*
X163875722Y-89677268D01*
X163964817Y-89540896D01*
X164010328Y-89499001D01*
X164070297Y-89483814D01*
X164130267Y-89499000D01*
X164175781Y-89540898D01*
X164261822Y-89672592D01*
X164268210Y-89680799D01*
X164413567Y-89838700D01*
X164421211Y-89845737D01*
X164590588Y-89977568D01*
X164599281Y-89983247D01*
X164788042Y-90085400D01*
X164797559Y-90089575D01*
X165000557Y-90159264D01*
X165010627Y-90161814D01*
X165072461Y-90172132D01*
X165083598Y-90171556D01*
X165086000Y-90160664D01*
X165594000Y-90160664D01*
X165596401Y-90171556D01*
X165607538Y-90172132D01*
X165669372Y-90161814D01*
X165679442Y-90159264D01*
X165882440Y-90089575D01*
X165891957Y-90085400D01*
X166080718Y-89983247D01*
X166089411Y-89977568D01*
X166258788Y-89845737D01*
X166266432Y-89838700D01*
X166411789Y-89680799D01*
X166418177Y-89672593D01*
X166535568Y-89492913D01*
X166540511Y-89483778D01*
X166626729Y-89287223D01*
X166630099Y-89277408D01*
X166673013Y-89107943D01*
X166673248Y-89096565D01*
X166662160Y-89094000D01*
X165610590Y-89094000D01*
X165597506Y-89097506D01*
X165594000Y-89110590D01*
X165594000Y-90160664D01*
X165086000Y-90160664D01*
X165086000Y-88569410D01*
X165594000Y-88569410D01*
X165597506Y-88582493D01*
X165610590Y-88586000D01*
X166662160Y-88586000D01*
X166673248Y-88583434D01*
X166673013Y-88572056D01*
X166630099Y-88402591D01*
X166626729Y-88392776D01*
X166540511Y-88196221D01*
X166535568Y-88187086D01*
X166418177Y-88007406D01*
X166411789Y-87999200D01*
X166266432Y-87841299D01*
X166258788Y-87834262D01*
X166089411Y-87702431D01*
X166080718Y-87696752D01*
X166051267Y-87680814D01*
X166002995Y-87634498D01*
X165985236Y-87570000D01*
X166002995Y-87505502D01*
X166051267Y-87459186D01*
X166080718Y-87443247D01*
X166089411Y-87437568D01*
X166258788Y-87305737D01*
X166266432Y-87298700D01*
X166411789Y-87140799D01*
X166418177Y-87132593D01*
X166535568Y-86952913D01*
X166540511Y-86943778D01*
X166626729Y-86747223D01*
X166630099Y-86737408D01*
X166673013Y-86567943D01*
X166673248Y-86556565D01*
X166662160Y-86554000D01*
X165610590Y-86554000D01*
X165597506Y-86557506D01*
X165594000Y-86570590D01*
X165594000Y-88569410D01*
X165086000Y-88569410D01*
X165086000Y-86029410D01*
X165594000Y-86029410D01*
X165597506Y-86042493D01*
X165610590Y-86046000D01*
X166662160Y-86046000D01*
X166673248Y-86043434D01*
X166673013Y-86032056D01*
X166630099Y-85862591D01*
X166626729Y-85852776D01*
X166540511Y-85656221D01*
X166535568Y-85647086D01*
X166418177Y-85467406D01*
X166411789Y-85459200D01*
X166266432Y-85301299D01*
X166258788Y-85294262D01*
X166089411Y-85162431D01*
X166080718Y-85156752D01*
X166051267Y-85140814D01*
X166002995Y-85094498D01*
X165985236Y-85030000D01*
X166002995Y-84965502D01*
X166051267Y-84919186D01*
X166080718Y-84903247D01*
X166089411Y-84897568D01*
X166258788Y-84765737D01*
X166266432Y-84758700D01*
X166411789Y-84600799D01*
X166418177Y-84592593D01*
X166535568Y-84412913D01*
X166540511Y-84403778D01*
X166626729Y-84207223D01*
X166630099Y-84197408D01*
X166673013Y-84027943D01*
X166673248Y-84016565D01*
X166662160Y-84014000D01*
X165610590Y-84014000D01*
X165597506Y-84017506D01*
X165594000Y-84030590D01*
X165594000Y-86029410D01*
X165086000Y-86029410D01*
X165086000Y-83489410D01*
X165594000Y-83489410D01*
X165597506Y-83502493D01*
X165610590Y-83506000D01*
X166662160Y-83506000D01*
X166673248Y-83503434D01*
X166673013Y-83492056D01*
X166630099Y-83322591D01*
X166626729Y-83312776D01*
X166540511Y-83116221D01*
X166535568Y-83107086D01*
X166418177Y-82927406D01*
X166411789Y-82919200D01*
X166266432Y-82761299D01*
X166258788Y-82754262D01*
X166089411Y-82622431D01*
X166080718Y-82616752D01*
X165891957Y-82514599D01*
X165882440Y-82510424D01*
X165679442Y-82440735D01*
X165669372Y-82438185D01*
X165607538Y-82427867D01*
X165596401Y-82428443D01*
X165594000Y-82439336D01*
X165594000Y-83489410D01*
X165086000Y-83489410D01*
X165086000Y-82439336D01*
X165083598Y-82428443D01*
X165072461Y-82427867D01*
X165010627Y-82438185D01*
X165000557Y-82440735D01*
X164797559Y-82510424D01*
X164788042Y-82514599D01*
X164599281Y-82616752D01*
X164590588Y-82622431D01*
X164421211Y-82754262D01*
X164413572Y-82761295D01*
X164355950Y-82823889D01*
X164302478Y-82858288D01*
X164239016Y-82862198D01*
X164181726Y-82834622D01*
X164145194Y-82782582D01*
X164144630Y-82781071D01*
X164118618Y-82711330D01*
X164104038Y-82672238D01*
X164104037Y-82672236D01*
X164100889Y-82663796D01*
X164093137Y-82653441D01*
X164018659Y-82553950D01*
X164013261Y-82546739D01*
X163990358Y-82529594D01*
X163903417Y-82464510D01*
X163903414Y-82464508D01*
X163896204Y-82459111D01*
X163887766Y-82455964D01*
X163887763Y-82455962D01*
X163766580Y-82410763D01*
X163766578Y-82410762D01*
X163759201Y-82408011D01*
X163751373Y-82407169D01*
X163751367Y-82407168D01*
X163701988Y-82401860D01*
X163701985Y-82401859D01*
X163698638Y-82401500D01*
X163695269Y-82401500D01*
X163609500Y-82401500D01*
X163546500Y-82384619D01*
X163500381Y-82338500D01*
X163483500Y-82275500D01*
X163483500Y-81274459D01*
X163483730Y-81266851D01*
X163484415Y-81255525D01*
X163487264Y-81208428D01*
X163476711Y-81150848D01*
X163475567Y-81143324D01*
X163469432Y-81092798D01*
X163468513Y-81085226D01*
X163465166Y-81076403D01*
X163459043Y-81054437D01*
X163457344Y-81045163D01*
X163433314Y-80991773D01*
X163430410Y-80984760D01*
X163412357Y-80937157D01*
X163409654Y-80930029D01*
X163405325Y-80923758D01*
X163405324Y-80923755D01*
X163404299Y-80922271D01*
X163393091Y-80902398D01*
X163389223Y-80893803D01*
X163353121Y-80847722D01*
X163348611Y-80841592D01*
X163319695Y-80799700D01*
X163319694Y-80799699D01*
X163315365Y-80793427D01*
X163271543Y-80754604D01*
X163266002Y-80749387D01*
X162834831Y-80318216D01*
X162805525Y-80272215D01*
X162798406Y-80218139D01*
X162812637Y-80055486D01*
X162812637Y-80055475D01*
X162813116Y-80050000D01*
X162794686Y-79839345D01*
X162739956Y-79635090D01*
X162650589Y-79443442D01*
X162529301Y-79270224D01*
X162379776Y-79120699D01*
X162375268Y-79117543D01*
X162375264Y-79117539D01*
X162211063Y-79002565D01*
X162211059Y-79002563D01*
X162206558Y-78999411D01*
X162201579Y-78997089D01*
X162201577Y-78997088D01*
X162019892Y-78912367D01*
X162019890Y-78912366D01*
X162014910Y-78910044D01*
X162009601Y-78908621D01*
X162009600Y-78908621D01*
X161815969Y-78856738D01*
X161815970Y-78856738D01*
X161810655Y-78855314D01*
X161805179Y-78854834D01*
X161805174Y-78854834D01*
X161605475Y-78837363D01*
X161600000Y-78836884D01*
X161594525Y-78837363D01*
X161594524Y-78837363D01*
X161431859Y-78851594D01*
X161377783Y-78844474D01*
X161331783Y-78815168D01*
X161300604Y-78783989D01*
X161295387Y-78778447D01*
X161261629Y-78740342D01*
X161261628Y-78740341D01*
X161256573Y-78734635D01*
X161208398Y-78701382D01*
X161202268Y-78696871D01*
X161162198Y-78665478D01*
X161162195Y-78665476D01*
X161156197Y-78660777D01*
X161149248Y-78657649D01*
X161149246Y-78657648D01*
X161147594Y-78656905D01*
X161127739Y-78645707D01*
X161126243Y-78644674D01*
X161126236Y-78644670D01*
X161119971Y-78640346D01*
X161079451Y-78624979D01*
X161065237Y-78619588D01*
X161058207Y-78616676D01*
X161011781Y-78595781D01*
X161011779Y-78595780D01*
X161004837Y-78592656D01*
X160997350Y-78591283D01*
X160997338Y-78591280D01*
X160995551Y-78590953D01*
X160973603Y-78584834D01*
X160971903Y-78584189D01*
X160971891Y-78584186D01*
X160964774Y-78581487D01*
X160957217Y-78580569D01*
X160957212Y-78580568D01*
X160906661Y-78574430D01*
X160899140Y-78573285D01*
X160849070Y-78564109D01*
X160849061Y-78564108D01*
X160841572Y-78562736D01*
X160833965Y-78563196D01*
X160833963Y-78563196D01*
X160783149Y-78566270D01*
X160775541Y-78566500D01*
X153484500Y-78566500D01*
X153421500Y-78549619D01*
X153375381Y-78503500D01*
X153358500Y-78440500D01*
X153358500Y-77853301D01*
X178187084Y-77853301D01*
X178207079Y-78234832D01*
X178207766Y-78241370D01*
X178267534Y-78618734D01*
X178268905Y-78625184D01*
X178367787Y-78994215D01*
X178369829Y-79000498D01*
X178506739Y-79357164D01*
X178509421Y-79363188D01*
X178682873Y-79703605D01*
X178686169Y-79709314D01*
X178894248Y-80029727D01*
X178898130Y-80035070D01*
X179091731Y-80274148D01*
X179103178Y-80282163D01*
X179115399Y-80275389D01*
X181529060Y-77861729D01*
X181535832Y-77849999D01*
X182264167Y-77849999D01*
X182270939Y-77861729D01*
X184684599Y-80275389D01*
X184696821Y-80282164D01*
X184708265Y-80274150D01*
X184901874Y-80035064D01*
X184905751Y-80029728D01*
X185113830Y-79709314D01*
X185117126Y-79703605D01*
X185290578Y-79363188D01*
X185293260Y-79357164D01*
X185430170Y-79000498D01*
X185432212Y-78994215D01*
X185531094Y-78625184D01*
X185532465Y-78618734D01*
X185592233Y-78241370D01*
X185592920Y-78234832D01*
X185612916Y-77853301D01*
X185612916Y-77846699D01*
X185592920Y-77465167D01*
X185592233Y-77458629D01*
X185532465Y-77081265D01*
X185531094Y-77074815D01*
X185432212Y-76705784D01*
X185430170Y-76699501D01*
X185293260Y-76342835D01*
X185290578Y-76336811D01*
X185117127Y-75996397D01*
X185113830Y-75990686D01*
X184905753Y-75670275D01*
X184901865Y-75664924D01*
X184708267Y-75425850D01*
X184696820Y-75417835D01*
X184684599Y-75424609D01*
X182270939Y-77838270D01*
X182264167Y-77849999D01*
X181535832Y-77849999D01*
X181529060Y-77838270D01*
X179115399Y-75424609D01*
X179103177Y-75417834D01*
X179091734Y-75425847D01*
X178898123Y-75664938D01*
X178894251Y-75670267D01*
X178686169Y-75990686D01*
X178682872Y-75996397D01*
X178509421Y-76336811D01*
X178506739Y-76342835D01*
X178369829Y-76699501D01*
X178367787Y-76705784D01*
X178268905Y-77074815D01*
X178267534Y-77081265D01*
X178207766Y-77458629D01*
X178207079Y-77465167D01*
X178187084Y-77846699D01*
X178187084Y-77853301D01*
X153358500Y-77853301D01*
X153358500Y-76204731D01*
X153358500Y-76201362D01*
X153351989Y-76140799D01*
X153300889Y-76003796D01*
X153295350Y-75996397D01*
X153218659Y-75893950D01*
X153213261Y-75886739D01*
X153151742Y-75840686D01*
X153103417Y-75804510D01*
X153103414Y-75804508D01*
X153096204Y-75799111D01*
X153087766Y-75795964D01*
X153087763Y-75795962D01*
X152966580Y-75750763D01*
X152966578Y-75750762D01*
X152959201Y-75748011D01*
X152951373Y-75747169D01*
X152951367Y-75747168D01*
X152901988Y-75741860D01*
X152901985Y-75741859D01*
X152898638Y-75741500D01*
X151001362Y-75741500D01*
X150998015Y-75741859D01*
X150998011Y-75741860D01*
X150948632Y-75747168D01*
X150948625Y-75747169D01*
X150940799Y-75748011D01*
X150933423Y-75750761D01*
X150933419Y-75750763D01*
X150812236Y-75795962D01*
X150812230Y-75795965D01*
X150803796Y-75799111D01*
X150796588Y-75804506D01*
X150796582Y-75804510D01*
X150693950Y-75881340D01*
X150693946Y-75881343D01*
X150686739Y-75886739D01*
X150681343Y-75893946D01*
X150681340Y-75893950D01*
X150604510Y-75996582D01*
X150604506Y-75996588D01*
X150599111Y-76003796D01*
X150595965Y-76012230D01*
X150595962Y-76012236D01*
X150550763Y-76133419D01*
X150550761Y-76133423D01*
X150548011Y-76140799D01*
X150547169Y-76148625D01*
X150547168Y-76148632D01*
X150541860Y-76198011D01*
X150541500Y-76201362D01*
X150541500Y-76204731D01*
X150541500Y-78440500D01*
X150524619Y-78503500D01*
X150478500Y-78549619D01*
X150415500Y-78566500D01*
X143508656Y-78566500D01*
X143504879Y-78566958D01*
X143504872Y-78566959D01*
X143392794Y-78580568D01*
X143392793Y-78580568D01*
X143385226Y-78581487D01*
X143378101Y-78584188D01*
X143378101Y-78584189D01*
X143308328Y-78610650D01*
X143267614Y-78618775D01*
X143258036Y-78619076D01*
X143258030Y-78619076D01*
X143250111Y-78619326D01*
X143242500Y-78621536D01*
X143242493Y-78621538D01*
X143230648Y-78624979D01*
X143211303Y-78628985D01*
X143199072Y-78630530D01*
X143199059Y-78630533D01*
X143191203Y-78631526D01*
X143150094Y-78647801D01*
X143138872Y-78651643D01*
X143110887Y-78659773D01*
X143110880Y-78659776D01*
X143096406Y-78663982D01*
X143096407Y-78663982D01*
X143084109Y-78671254D01*
X143084103Y-78671256D01*
X143078960Y-78674298D01*
X143061221Y-78682989D01*
X143049749Y-78687531D01*
X143049746Y-78687532D01*
X143042383Y-78690448D01*
X143035976Y-78695102D01*
X143035972Y-78695105D01*
X143006611Y-78716437D01*
X142996693Y-78722951D01*
X142965465Y-78741419D01*
X142965457Y-78741425D01*
X142958638Y-78745458D01*
X142953036Y-78751058D01*
X142953029Y-78751065D01*
X142944308Y-78759786D01*
X142929287Y-78772615D01*
X142919307Y-78779866D01*
X142919298Y-78779873D01*
X142912893Y-78784528D01*
X142907847Y-78790627D01*
X142907841Y-78790633D01*
X142884707Y-78818597D01*
X142876719Y-78827375D01*
X142657738Y-79046355D01*
X142649458Y-79053889D01*
X142642982Y-79058000D01*
X142637561Y-79063773D01*
X142596370Y-79107636D01*
X142593621Y-79110472D01*
X142573867Y-79130228D01*
X142573862Y-79130233D01*
X142299498Y-79404596D01*
X142258621Y-79431909D01*
X142210403Y-79441500D01*
X141851362Y-79441500D01*
X141848020Y-79441859D01*
X141848005Y-79441860D01*
X141813465Y-79445573D01*
X141786535Y-79445573D01*
X141751994Y-79441860D01*
X141751980Y-79441859D01*
X141748638Y-79441500D01*
X141351362Y-79441500D01*
X141348020Y-79441859D01*
X141348005Y-79441860D01*
X141313465Y-79445573D01*
X141286535Y-79445573D01*
X141251994Y-79441860D01*
X141251980Y-79441859D01*
X141248638Y-79441500D01*
X140851362Y-79441500D01*
X140848020Y-79441859D01*
X140848005Y-79441860D01*
X140813465Y-79445573D01*
X140786535Y-79445573D01*
X140751994Y-79441860D01*
X140751980Y-79441859D01*
X140748638Y-79441500D01*
X140351362Y-79441500D01*
X140348015Y-79441859D01*
X140348011Y-79441860D01*
X140298632Y-79447168D01*
X140298625Y-79447169D01*
X140290799Y-79448011D01*
X140283423Y-79450761D01*
X140283419Y-79450763D01*
X140162236Y-79495962D01*
X140162230Y-79495965D01*
X140153796Y-79499111D01*
X140146588Y-79504506D01*
X140146582Y-79504510D01*
X140043950Y-79581340D01*
X140043946Y-79581343D01*
X140036739Y-79586739D01*
X140031343Y-79593946D01*
X140031340Y-79593950D01*
X139954510Y-79696582D01*
X139954506Y-79696588D01*
X139949111Y-79703796D01*
X139945965Y-79712230D01*
X139945962Y-79712236D01*
X139900763Y-79833419D01*
X139900761Y-79833423D01*
X139898011Y-79840799D01*
X139897169Y-79848625D01*
X139897168Y-79848632D01*
X139891860Y-79898011D01*
X139891500Y-79901362D01*
X139891500Y-81298638D01*
X139891859Y-81301985D01*
X139891860Y-81301988D01*
X139897167Y-81351357D01*
X139897168Y-81351362D01*
X139898011Y-81359201D01*
X139900768Y-81366592D01*
X139908555Y-81387470D01*
X139916500Y-81431503D01*
X139916500Y-87605405D01*
X139906909Y-87653623D01*
X139879595Y-87694500D01*
X129632439Y-97941654D01*
X129576790Y-97974039D01*
X129512956Y-97974696D01*
X129509635Y-97973556D01*
X129504501Y-97972699D01*
X129504500Y-97972699D01*
X129292706Y-97937357D01*
X129292703Y-97937356D01*
X129287569Y-97936500D01*
X129062431Y-97936500D01*
X129057297Y-97937356D01*
X129057293Y-97937357D01*
X128845504Y-97972698D01*
X128845498Y-97972699D01*
X128840365Y-97973556D01*
X128835443Y-97975245D01*
X128835434Y-97975248D01*
X128632357Y-98044964D01*
X128632344Y-98044969D01*
X128627426Y-98046658D01*
X128622847Y-98049135D01*
X128622840Y-98049139D01*
X128434005Y-98151331D01*
X128433997Y-98151336D01*
X128429424Y-98153811D01*
X128425313Y-98157010D01*
X128425311Y-98157012D01*
X128255878Y-98288888D01*
X128255872Y-98288893D01*
X128251760Y-98292094D01*
X128248237Y-98295919D01*
X128248227Y-98295930D01*
X128102806Y-98453899D01*
X128102802Y-98453902D01*
X128099278Y-98457732D01*
X128096430Y-98462090D01*
X128096427Y-98462095D01*
X128010483Y-98593643D01*
X127964969Y-98635542D01*
X127905000Y-98650728D01*
X127845031Y-98635542D01*
X127799517Y-98593643D01*
X127759813Y-98532872D01*
X127710722Y-98457732D01*
X127649001Y-98390686D01*
X127561772Y-98295930D01*
X127561767Y-98295925D01*
X127558240Y-98292094D01*
X127380576Y-98153811D01*
X127375997Y-98151333D01*
X127375994Y-98151331D01*
X127187159Y-98049139D01*
X127187156Y-98049137D01*
X127182574Y-98046658D01*
X127177650Y-98044967D01*
X127177642Y-98044964D01*
X126974565Y-97975248D01*
X126974559Y-97975246D01*
X126969635Y-97973556D01*
X126964498Y-97972698D01*
X126964495Y-97972698D01*
X126752706Y-97937357D01*
X126752703Y-97937356D01*
X126747569Y-97936500D01*
X126522431Y-97936500D01*
X126517297Y-97937356D01*
X126517293Y-97937357D01*
X126305504Y-97972698D01*
X126305498Y-97972699D01*
X126300365Y-97973556D01*
X126295443Y-97975245D01*
X126295434Y-97975248D01*
X126092357Y-98044964D01*
X126092344Y-98044969D01*
X126087426Y-98046658D01*
X126082847Y-98049135D01*
X126082840Y-98049139D01*
X125894005Y-98151331D01*
X125893997Y-98151336D01*
X125889424Y-98153811D01*
X125885313Y-98157010D01*
X125885311Y-98157012D01*
X125715878Y-98288888D01*
X125715872Y-98288893D01*
X125711760Y-98292094D01*
X125708237Y-98295919D01*
X125708227Y-98295930D01*
X125562806Y-98453899D01*
X125562802Y-98453902D01*
X125559278Y-98457732D01*
X125556430Y-98462090D01*
X125556427Y-98462095D01*
X125470483Y-98593643D01*
X125424969Y-98635542D01*
X125365000Y-98650728D01*
X125305031Y-98635542D01*
X125259517Y-98593643D01*
X125219813Y-98532872D01*
X125170722Y-98457732D01*
X125109001Y-98390686D01*
X125021772Y-98295930D01*
X125021767Y-98295925D01*
X125018240Y-98292094D01*
X124840576Y-98153811D01*
X124835997Y-98151333D01*
X124835994Y-98151331D01*
X124647159Y-98049139D01*
X124647156Y-98049137D01*
X124642574Y-98046658D01*
X124637650Y-98044967D01*
X124637642Y-98044964D01*
X124434565Y-97975248D01*
X124434559Y-97975246D01*
X124429635Y-97973556D01*
X124424498Y-97972698D01*
X124424495Y-97972698D01*
X124212706Y-97937357D01*
X124212703Y-97937356D01*
X124207569Y-97936500D01*
X123982431Y-97936500D01*
X123977297Y-97937356D01*
X123977293Y-97937357D01*
X123765504Y-97972698D01*
X123765498Y-97972699D01*
X123760365Y-97973556D01*
X123755443Y-97975245D01*
X123755434Y-97975248D01*
X123552357Y-98044964D01*
X123552344Y-98044969D01*
X123547426Y-98046658D01*
X123542847Y-98049135D01*
X123542840Y-98049139D01*
X123354005Y-98151331D01*
X123353997Y-98151336D01*
X123349424Y-98153811D01*
X123345313Y-98157010D01*
X123345311Y-98157012D01*
X123175878Y-98288888D01*
X123175872Y-98288893D01*
X123171760Y-98292094D01*
X123168237Y-98295919D01*
X123168227Y-98295930D01*
X123022806Y-98453899D01*
X123022802Y-98453902D01*
X123019278Y-98457732D01*
X123016430Y-98462090D01*
X123016427Y-98462095D01*
X122899696Y-98640766D01*
X122896140Y-98646209D01*
X122894048Y-98650978D01*
X122894046Y-98650982D01*
X122807799Y-98847606D01*
X122807796Y-98847614D01*
X122805704Y-98852384D01*
X122804423Y-98857440D01*
X122804422Y-98857445D01*
X122762141Y-99024410D01*
X122750436Y-99070632D01*
X122750006Y-99075820D01*
X122750005Y-99075827D01*
X122747523Y-99105784D01*
X122731844Y-99295000D01*
X112532913Y-99295000D01*
X112482212Y-99105784D01*
X112480170Y-99099501D01*
X112343260Y-98742835D01*
X112340578Y-98736811D01*
X112167127Y-98396397D01*
X112163830Y-98390686D01*
X111955753Y-98070275D01*
X111951865Y-98064924D01*
X111758267Y-97825850D01*
X111746820Y-97817835D01*
X111734599Y-97824609D01*
X109320939Y-100238270D01*
X109314167Y-100250000D01*
X108585832Y-100250000D01*
X108579060Y-100238270D01*
X106165399Y-97824609D01*
X106153177Y-97817834D01*
X106141734Y-97825847D01*
X105948123Y-98064938D01*
X105944251Y-98070267D01*
X105736169Y-98390686D01*
X105732872Y-98396397D01*
X105559421Y-98736811D01*
X105556739Y-98742835D01*
X105419829Y-99099501D01*
X105417787Y-99105784D01*
X105318905Y-99474815D01*
X105317534Y-99481265D01*
X105257766Y-99858629D01*
X105257079Y-99865167D01*
X105237084Y-100246699D01*
X105237084Y-100253301D01*
X103800500Y-100253301D01*
X103800500Y-97453177D01*
X106517834Y-97453177D01*
X106524609Y-97465399D01*
X108938270Y-99879060D01*
X108949999Y-99885832D01*
X108961729Y-99879060D01*
X111375389Y-97465399D01*
X111382163Y-97453178D01*
X111374148Y-97441731D01*
X111135070Y-97248130D01*
X111129727Y-97244248D01*
X110809314Y-97036169D01*
X110803605Y-97032873D01*
X110463188Y-96859421D01*
X110457164Y-96856739D01*
X110100498Y-96719829D01*
X110094215Y-96717787D01*
X109725184Y-96618905D01*
X109718734Y-96617534D01*
X109341370Y-96557766D01*
X109334832Y-96557079D01*
X108953301Y-96537084D01*
X108946699Y-96537084D01*
X108565167Y-96557079D01*
X108558629Y-96557766D01*
X108181265Y-96617534D01*
X108174815Y-96618905D01*
X107805784Y-96717787D01*
X107799501Y-96719829D01*
X107442835Y-96856739D01*
X107436811Y-96859421D01*
X107096397Y-97032872D01*
X107090686Y-97036169D01*
X106770267Y-97244251D01*
X106764938Y-97248123D01*
X106525847Y-97441734D01*
X106517834Y-97453177D01*
X103800500Y-97453177D01*
X103800500Y-84245378D01*
X122040357Y-84245378D01*
X122040684Y-84249867D01*
X122040685Y-84249874D01*
X122040785Y-84251244D01*
X122041086Y-84263357D01*
X122041053Y-84264736D01*
X122041053Y-84264753D01*
X122040949Y-84269242D01*
X122041484Y-84273707D01*
X122041485Y-84273716D01*
X122042315Y-84280631D01*
X122042357Y-84281341D01*
X122042409Y-84281700D01*
X122042792Y-84284609D01*
X122042838Y-84285000D01*
X122042839Y-84285003D01*
X122043212Y-84288110D01*
X122043212Y-84296020D01*
X122043212Y-84296298D01*
X122043176Y-84296298D01*
X122042642Y-84300364D01*
X122044369Y-84300238D01*
X122047763Y-84346652D01*
X122047763Y-84346655D01*
X122048421Y-84355642D01*
X122051582Y-84364079D01*
X122051916Y-84365599D01*
X122053940Y-84377569D01*
X122071553Y-84524412D01*
X122071647Y-84525214D01*
X122075549Y-84559611D01*
X122075966Y-84561208D01*
X122076164Y-84562854D01*
X122077192Y-84566687D01*
X122077193Y-84566689D01*
X122085153Y-84596352D01*
X122085359Y-84597130D01*
X122110939Y-84694961D01*
X122119903Y-84729661D01*
X122120196Y-84730363D01*
X122120389Y-84731100D01*
X122122044Y-84735032D01*
X122122045Y-84735033D01*
X122134148Y-84763777D01*
X122134081Y-84763804D01*
X122134291Y-84764116D01*
X122188131Y-84893040D01*
X122191489Y-84902436D01*
X122192646Y-84910185D01*
X122196432Y-84918360D01*
X122196433Y-84918363D01*
X122218549Y-84966117D01*
X122220483Y-84970511D01*
X122228201Y-84988993D01*
X122228206Y-84989004D01*
X122229938Y-84993150D01*
X122232242Y-84997009D01*
X122233838Y-85000173D01*
X122235530Y-85003375D01*
X122237216Y-85006424D01*
X122239107Y-85010507D01*
X122241557Y-85014276D01*
X122241562Y-85014284D01*
X122252502Y-85031109D01*
X122255030Y-85035164D01*
X122286627Y-85088068D01*
X122292371Y-85093385D01*
X122298233Y-85101443D01*
X122335268Y-85158402D01*
X122339234Y-85165308D01*
X122341367Y-85171673D01*
X122346520Y-85179063D01*
X122346522Y-85179067D01*
X122377659Y-85223722D01*
X122379936Y-85227102D01*
X122391333Y-85244630D01*
X122394325Y-85249231D01*
X122397282Y-85252608D01*
X122399606Y-85255677D01*
X122402028Y-85258670D01*
X122404602Y-85262362D01*
X122418158Y-85276864D01*
X122422630Y-85281648D01*
X122425368Y-85284674D01*
X122461230Y-85325620D01*
X122461232Y-85325622D01*
X122467169Y-85332400D01*
X122472831Y-85335996D01*
X122478581Y-85341504D01*
X122524816Y-85390965D01*
X122529762Y-85396883D01*
X122532893Y-85402646D01*
X122539254Y-85409034D01*
X122539255Y-85409035D01*
X122577841Y-85447783D01*
X122580571Y-85450612D01*
X122598798Y-85470110D01*
X122602313Y-85472931D01*
X122604986Y-85475410D01*
X122607734Y-85477801D01*
X122610906Y-85480986D01*
X122628209Y-85493996D01*
X122632158Y-85496965D01*
X122635302Y-85499407D01*
X122663803Y-85522281D01*
X122685022Y-85539310D01*
X122691083Y-85541806D01*
X122697502Y-85546095D01*
X122751277Y-85586526D01*
X122758339Y-85592451D01*
X122762991Y-85598245D01*
X122770387Y-85603399D01*
X122814082Y-85633851D01*
X122817761Y-85636515D01*
X122834321Y-85648966D01*
X122834328Y-85648970D01*
X122837925Y-85651675D01*
X122841873Y-85653841D01*
X122845647Y-85656278D01*
X122845635Y-85656296D01*
X122846127Y-85656601D01*
X122846139Y-85656583D01*
X122849999Y-85658882D01*
X122853695Y-85661458D01*
X122876244Y-85672794D01*
X122880203Y-85674875D01*
X122934848Y-85704863D01*
X122942103Y-85706456D01*
X122950547Y-85710151D01*
X123009966Y-85740025D01*
X123020698Y-85746096D01*
X123021082Y-85746339D01*
X123027937Y-85752190D01*
X123082254Y-85776510D01*
X123087297Y-85778904D01*
X123107313Y-85788968D01*
X123112413Y-85790675D01*
X123123923Y-85795165D01*
X123128843Y-85797369D01*
X123150389Y-85803521D01*
X123155743Y-85805181D01*
X123212152Y-85824067D01*
X123218216Y-85824294D01*
X123254688Y-85837398D01*
X123276466Y-85854804D01*
X123277063Y-85854091D01*
X123277065Y-85854092D01*
X123277066Y-85854094D01*
X123278005Y-85854879D01*
X123279597Y-85856398D01*
X123280936Y-85858354D01*
X123335452Y-85902900D01*
X123336370Y-85903658D01*
X123390366Y-85948787D01*
X123393026Y-85949945D01*
X123395278Y-85951785D01*
X123402798Y-85954960D01*
X123402800Y-85954961D01*
X123434222Y-85968227D01*
X123460118Y-85979160D01*
X123461294Y-85979663D01*
X123491735Y-85992916D01*
X123493958Y-85993526D01*
X123496182Y-85994386D01*
X123531311Y-86009218D01*
X123535338Y-86009678D01*
X123536344Y-86010167D01*
X123544975Y-86011617D01*
X123544976Y-86011618D01*
X123550402Y-86012530D01*
X123577198Y-86017033D01*
X123589013Y-86019641D01*
X123589472Y-86019732D01*
X123593825Y-86020927D01*
X123598297Y-86021488D01*
X123598298Y-86021489D01*
X123617068Y-86023847D01*
X123622249Y-86024607D01*
X123645373Y-86028495D01*
X123649873Y-86028601D01*
X123650326Y-86028645D01*
X123662408Y-86029544D01*
X123703521Y-86034710D01*
X123712541Y-86033248D01*
X123714139Y-86032990D01*
X123732572Y-86031379D01*
X123743569Y-86031229D01*
X123746499Y-86031378D01*
X123749434Y-86032152D01*
X123769169Y-86031601D01*
X123775637Y-86031589D01*
X123781481Y-86031728D01*
X123785960Y-86031191D01*
X123787647Y-86031111D01*
X123790074Y-86031018D01*
X123818758Y-86030219D01*
X123820428Y-86030185D01*
X123852630Y-86029749D01*
X123856266Y-86029175D01*
X123859949Y-86029073D01*
X123864395Y-86028306D01*
X123868880Y-86027860D01*
X123868882Y-86027883D01*
X123870209Y-86027729D01*
X123876605Y-86028269D01*
X123923138Y-86018760D01*
X123928684Y-86017757D01*
X123961839Y-86012530D01*
X123965216Y-86010931D01*
X123969532Y-86010188D01*
X123973825Y-86008795D01*
X123978204Y-86007715D01*
X123978235Y-86007844D01*
X123984027Y-86006317D01*
X124021275Y-85998707D01*
X124037310Y-85990212D01*
X124057444Y-85981692D01*
X124074703Y-85976098D01*
X124106109Y-85954654D01*
X124118160Y-85947380D01*
X124151757Y-85929584D01*
X124164749Y-85916914D01*
X124181663Y-85903071D01*
X124196652Y-85892839D01*
X124220737Y-85863424D01*
X124224796Y-85859001D01*
X124224696Y-85858912D01*
X124227684Y-85855550D01*
X124230915Y-85852401D01*
X124236448Y-85845199D01*
X124284269Y-85807239D01*
X124307992Y-85796469D01*
X124308178Y-85796385D01*
X124374104Y-85766913D01*
X124375043Y-85766111D01*
X124376000Y-85765595D01*
X124450730Y-85731669D01*
X124460407Y-85727866D01*
X124468339Y-85726425D01*
X124523112Y-85698914D01*
X124527518Y-85696809D01*
X124549552Y-85686807D01*
X124553349Y-85684378D01*
X124555441Y-85683242D01*
X124561057Y-85680048D01*
X124563111Y-85678824D01*
X124567136Y-85676804D01*
X124587006Y-85662967D01*
X124591029Y-85660281D01*
X124642694Y-85627243D01*
X124647986Y-85621161D01*
X124656204Y-85614783D01*
X124716672Y-85572678D01*
X124726712Y-85566368D01*
X124729530Y-85564776D01*
X124737936Y-85561505D01*
X124784121Y-85525892D01*
X124788999Y-85522316D01*
X124806417Y-85510189D01*
X124811225Y-85505699D01*
X124820278Y-85498013D01*
X124825489Y-85493996D01*
X124840270Y-85478785D01*
X124844610Y-85474532D01*
X124887232Y-85434744D01*
X124891823Y-85426981D01*
X124893849Y-85424461D01*
X124901697Y-85415583D01*
X124950050Y-85365833D01*
X124958575Y-85357841D01*
X124961846Y-85355047D01*
X124969466Y-85350228D01*
X125007671Y-85306769D01*
X125011920Y-85302173D01*
X125026397Y-85287280D01*
X125030519Y-85281607D01*
X125037828Y-85272469D01*
X125042465Y-85267196D01*
X125053822Y-85249798D01*
X125057385Y-85244630D01*
X125072577Y-85223722D01*
X125091385Y-85197838D01*
X125094417Y-85189339D01*
X125096416Y-85185551D01*
X125102341Y-85175483D01*
X125142022Y-85114705D01*
X125148966Y-85105149D01*
X125155377Y-85099181D01*
X125186058Y-85047465D01*
X125188887Y-85042922D01*
X125201477Y-85023641D01*
X125203488Y-85019319D01*
X125209362Y-85008186D01*
X125211789Y-85004098D01*
X125216805Y-84991988D01*
X125220596Y-84982833D01*
X125222762Y-84977904D01*
X125248127Y-84923407D01*
X125249434Y-84914750D01*
X125253406Y-84903616D01*
X125308558Y-84770461D01*
X125310074Y-84766957D01*
X125311545Y-84763691D01*
X125311556Y-84763675D01*
X125311639Y-84763712D01*
X125311681Y-84763493D01*
X125311963Y-84763086D01*
X125312353Y-84761899D01*
X125321133Y-84742407D01*
X125322379Y-84738078D01*
X125323535Y-84734930D01*
X125324598Y-84731736D01*
X125326324Y-84727570D01*
X125332998Y-84701415D01*
X125333973Y-84697823D01*
X125337354Y-84686081D01*
X125338707Y-84681694D01*
X125346477Y-84658053D01*
X125347259Y-84653618D01*
X125348356Y-84649252D01*
X125348359Y-84649252D01*
X125348602Y-84648206D01*
X125348599Y-84648206D01*
X125349533Y-84643796D01*
X125350781Y-84639468D01*
X125353120Y-84622575D01*
X125353664Y-84620446D01*
X125353613Y-84619019D01*
X125354195Y-84614818D01*
X125354923Y-84610194D01*
X125357366Y-84596352D01*
X125379541Y-84470704D01*
X125379798Y-84469298D01*
X125385901Y-84437170D01*
X125386051Y-84433822D01*
X125386634Y-84430521D01*
X125387673Y-84397941D01*
X125387735Y-84396334D01*
X125388578Y-84377569D01*
X125394845Y-84238034D01*
X125395036Y-84234758D01*
X125397057Y-84206626D01*
X125396735Y-84202117D01*
X125396736Y-84199755D01*
X125396672Y-84197363D01*
X125396876Y-84192846D01*
X125394122Y-84164818D01*
X125393839Y-84161472D01*
X125393567Y-84157649D01*
X125382476Y-84002002D01*
X125380122Y-83966627D01*
X125379871Y-83965448D01*
X125379786Y-83964245D01*
X125377601Y-83954190D01*
X125372295Y-83929766D01*
X125372212Y-83929382D01*
X125355600Y-83851155D01*
X125354082Y-83841536D01*
X125354382Y-83833826D01*
X125339274Y-83773855D01*
X125338207Y-83769252D01*
X125334010Y-83749486D01*
X125333074Y-83745077D01*
X125331518Y-83740843D01*
X125330350Y-83736790D01*
X125329792Y-83734982D01*
X125328477Y-83730990D01*
X125327376Y-83726617D01*
X125317980Y-83703732D01*
X125316266Y-83699324D01*
X125302047Y-83660618D01*
X125294951Y-83641300D01*
X125290358Y-83635101D01*
X125286184Y-83626286D01*
X125280824Y-83613231D01*
X125261790Y-83566871D01*
X125258731Y-83558116D01*
X125257689Y-83550726D01*
X125231972Y-83494024D01*
X125230177Y-83489867D01*
X125220620Y-83466588D01*
X125218333Y-83462706D01*
X125216332Y-83458677D01*
X125216349Y-83458668D01*
X125216046Y-83458084D01*
X125216029Y-83458094D01*
X125213887Y-83454147D01*
X125212024Y-83450039D01*
X125198466Y-83428822D01*
X125196093Y-83424955D01*
X125169076Y-83379092D01*
X125169074Y-83379089D01*
X125164503Y-83371330D01*
X125159056Y-83366226D01*
X125153648Y-83358680D01*
X125116105Y-83299926D01*
X125111455Y-83291719D01*
X125109086Y-83284560D01*
X125103957Y-83277147D01*
X125103956Y-83277144D01*
X125073746Y-83233478D01*
X125071188Y-83229632D01*
X125060147Y-83212352D01*
X125060144Y-83212348D01*
X125057723Y-83208559D01*
X125054786Y-83205151D01*
X125052097Y-83201540D01*
X125052105Y-83201533D01*
X125051569Y-83200841D01*
X125051561Y-83200848D01*
X125048743Y-83197339D01*
X125046184Y-83193640D01*
X125029178Y-83175312D01*
X125026103Y-83171874D01*
X124991420Y-83131636D01*
X124991418Y-83131634D01*
X124985541Y-83124816D01*
X124979207Y-83120722D01*
X124972428Y-83114153D01*
X124954237Y-83094549D01*
X124926629Y-83064795D01*
X124920993Y-83058022D01*
X124917557Y-83051692D01*
X124911202Y-83045305D01*
X124911199Y-83045301D01*
X124873344Y-83007257D01*
X124870298Y-83004087D01*
X124855978Y-82988654D01*
X124855970Y-82988646D01*
X124852913Y-82985352D01*
X124849416Y-82982524D01*
X124846125Y-82979450D01*
X124846124Y-82979450D01*
X124842752Y-82976513D01*
X124839576Y-82973321D01*
X124835982Y-82970616D01*
X124835979Y-82970614D01*
X124819124Y-82957931D01*
X124815655Y-82955225D01*
X124773949Y-82921500D01*
X124773950Y-82921500D01*
X124766945Y-82915836D01*
X124760297Y-82913069D01*
X124752977Y-82908155D01*
X124700126Y-82868385D01*
X124693087Y-82862474D01*
X124688453Y-82856697D01*
X124681065Y-82851543D01*
X124681061Y-82851539D01*
X124637313Y-82821018D01*
X124633646Y-82818361D01*
X124617097Y-82805908D01*
X124613504Y-82803204D01*
X124609561Y-82801038D01*
X124605779Y-82798594D01*
X124605791Y-82798573D01*
X124605349Y-82798299D01*
X124605338Y-82798319D01*
X124601461Y-82796006D01*
X124597780Y-82793439D01*
X124575215Y-82782080D01*
X124571248Y-82779993D01*
X124516602Y-82749977D01*
X124509366Y-82748383D01*
X124500952Y-82744697D01*
X124442178Y-82715112D01*
X124432961Y-82709861D01*
X124426791Y-82704534D01*
X124418592Y-82700808D01*
X124418586Y-82700804D01*
X124371156Y-82679250D01*
X124366635Y-82677086D01*
X124349222Y-82668321D01*
X124345207Y-82666300D01*
X124340948Y-82664871D01*
X124339201Y-82664143D01*
X124331942Y-82661285D01*
X124330211Y-82660643D01*
X124326139Y-82658793D01*
X124321837Y-82657538D01*
X124321820Y-82657532D01*
X124303076Y-82652065D01*
X124298302Y-82650569D01*
X124248930Y-82634014D01*
X124248921Y-82634012D01*
X124240385Y-82631150D01*
X124232236Y-82630840D01*
X124221914Y-82628399D01*
X124201449Y-82622431D01*
X124158198Y-82609818D01*
X124146603Y-82605815D01*
X124145855Y-82605515D01*
X124138049Y-82601005D01*
X124080411Y-82586999D01*
X124074907Y-82585529D01*
X124053564Y-82579306D01*
X124049115Y-82578674D01*
X124049104Y-82578672D01*
X124048050Y-82578523D01*
X124036034Y-82576216D01*
X124034991Y-82575962D01*
X124034971Y-82575958D01*
X124030617Y-82574901D01*
X124026152Y-82574472D01*
X124026147Y-82574472D01*
X124008489Y-82572779D01*
X124002819Y-82572105D01*
X123953020Y-82565040D01*
X123953018Y-82565040D01*
X123944102Y-82563775D01*
X123935190Y-82565072D01*
X123934364Y-82565074D01*
X123922114Y-82564499D01*
X123790227Y-82551858D01*
X123786780Y-82551479D01*
X123759128Y-82548051D01*
X123754628Y-82548138D01*
X123751917Y-82547997D01*
X123749282Y-82547933D01*
X123744831Y-82547507D01*
X123740360Y-82547718D01*
X123740349Y-82547718D01*
X123717011Y-82548821D01*
X123713513Y-82548937D01*
X123679637Y-82549595D01*
X123675298Y-82549605D01*
X123654085Y-82549286D01*
X123654076Y-82549286D01*
X123649589Y-82549219D01*
X123645133Y-82549791D01*
X123640775Y-82550037D01*
X123636379Y-82550437D01*
X123631879Y-82550525D01*
X123627435Y-82551252D01*
X123627426Y-82551253D01*
X123606544Y-82554670D01*
X123602248Y-82555298D01*
X123465184Y-82572901D01*
X123453318Y-82573858D01*
X123450347Y-82573956D01*
X123441392Y-82572971D01*
X123432523Y-82574547D01*
X123432520Y-82574548D01*
X123383911Y-82583191D01*
X123377911Y-82584109D01*
X123361221Y-82586253D01*
X123361210Y-82586255D01*
X123356758Y-82586827D01*
X123352428Y-82588027D01*
X123352415Y-82588030D01*
X123350507Y-82588559D01*
X123338943Y-82591185D01*
X123336968Y-82591536D01*
X123336948Y-82591541D01*
X123332541Y-82592325D01*
X123328285Y-82593729D01*
X123328275Y-82593732D01*
X123312300Y-82599004D01*
X123306491Y-82600767D01*
X123258903Y-82613965D01*
X123258901Y-82613965D01*
X123250221Y-82616373D01*
X123242570Y-82621127D01*
X123239850Y-82622321D01*
X123228733Y-82626582D01*
X123164859Y-82647661D01*
X123154262Y-82650651D01*
X123145794Y-82652645D01*
X123136830Y-82653441D01*
X123128450Y-82656730D01*
X123128449Y-82656731D01*
X123084587Y-82673950D01*
X123078042Y-82676312D01*
X123064230Y-82680871D01*
X123064217Y-82680875D01*
X123059958Y-82682282D01*
X123055950Y-82684275D01*
X123055924Y-82684286D01*
X123052105Y-82686186D01*
X123042074Y-82690640D01*
X123038114Y-82692195D01*
X123038103Y-82692199D01*
X123033919Y-82693843D01*
X123030013Y-82696063D01*
X123030001Y-82696069D01*
X123017375Y-82703246D01*
X123011229Y-82706518D01*
X122969034Y-82727506D01*
X122969026Y-82727511D01*
X122960969Y-82731519D01*
X122954362Y-82737637D01*
X122947212Y-82742576D01*
X122937882Y-82748434D01*
X122878766Y-82782038D01*
X122867938Y-82787521D01*
X122866517Y-82788156D01*
X122857859Y-82790625D01*
X122850248Y-82795431D01*
X122850244Y-82795433D01*
X122807981Y-82822122D01*
X122802979Y-82825121D01*
X122787838Y-82833728D01*
X122787828Y-82833734D01*
X122783924Y-82835954D01*
X122780374Y-82838706D01*
X122780359Y-82838717D01*
X122779271Y-82839562D01*
X122769359Y-82846512D01*
X122768178Y-82847257D01*
X122768166Y-82847265D01*
X122764380Y-82849657D01*
X122760969Y-82852565D01*
X122760964Y-82852569D01*
X122747708Y-82863872D01*
X122743184Y-82867552D01*
X122703679Y-82898193D01*
X122703676Y-82898195D01*
X122696563Y-82903713D01*
X122691288Y-82911014D01*
X122690207Y-82912134D01*
X122681358Y-82920448D01*
X122574669Y-83011420D01*
X122571417Y-83014100D01*
X122554620Y-83027478D01*
X122554603Y-83027492D01*
X122551093Y-83030289D01*
X122548013Y-83033557D01*
X122544938Y-83036388D01*
X122541999Y-83039280D01*
X122538587Y-83042191D01*
X122535622Y-83045557D01*
X122535614Y-83045566D01*
X122521401Y-83061708D01*
X122518561Y-83064826D01*
X122490566Y-83094549D01*
X122487622Y-83097572D01*
X122472344Y-83112741D01*
X122472338Y-83112747D01*
X122469153Y-83115910D01*
X122466446Y-83119498D01*
X122463720Y-83122622D01*
X122461103Y-83125830D01*
X122458028Y-83129096D01*
X122455452Y-83132759D01*
X122455441Y-83132774D01*
X122443073Y-83150368D01*
X122440592Y-83153774D01*
X122355032Y-83267216D01*
X122347604Y-83276097D01*
X122340907Y-83281528D01*
X122335793Y-83288939D01*
X122335793Y-83288940D01*
X122306670Y-83331150D01*
X122303561Y-83335459D01*
X122292274Y-83350425D01*
X122292266Y-83350436D01*
X122289564Y-83354020D01*
X122287400Y-83357948D01*
X122287392Y-83357961D01*
X122287358Y-83358025D01*
X122280716Y-83368769D01*
X122280676Y-83368825D01*
X122280665Y-83368843D01*
X122278122Y-83372530D01*
X122276129Y-83376540D01*
X122276117Y-83376561D01*
X122267787Y-83393325D01*
X122265324Y-83398030D01*
X122240574Y-83442972D01*
X122240571Y-83442978D01*
X122236229Y-83450864D01*
X122234364Y-83459284D01*
X122229740Y-83469900D01*
X122198491Y-83532792D01*
X122192952Y-83542776D01*
X122189785Y-83547918D01*
X122184027Y-83554832D01*
X122180448Y-83563085D01*
X122180445Y-83563092D01*
X122161286Y-83607288D01*
X122158524Y-83613231D01*
X122151593Y-83627181D01*
X122151589Y-83627189D01*
X122149595Y-83631204D01*
X122148194Y-83635453D01*
X122148186Y-83635474D01*
X122147176Y-83638540D01*
X122143127Y-83649178D01*
X122141844Y-83652138D01*
X122141841Y-83652145D01*
X122140054Y-83656269D01*
X122138870Y-83660608D01*
X122138867Y-83660618D01*
X122134768Y-83675643D01*
X122132881Y-83681913D01*
X122117811Y-83727645D01*
X122117809Y-83727654D01*
X122114991Y-83736207D01*
X122114695Y-83745207D01*
X122113645Y-83751131D01*
X122111143Y-83762271D01*
X122094006Y-83825112D01*
X122090571Y-83835805D01*
X122088043Y-83842614D01*
X122083741Y-83850524D01*
X122081841Y-83859324D01*
X122081838Y-83859333D01*
X122071782Y-83905913D01*
X122070182Y-83912470D01*
X122065028Y-83931371D01*
X122064476Y-83935816D01*
X122064472Y-83935838D01*
X122064015Y-83939527D01*
X122062140Y-83950579D01*
X122061360Y-83954190D01*
X122061357Y-83954207D01*
X122060411Y-83958593D01*
X122060097Y-83963071D01*
X122060097Y-83963077D01*
X122059045Y-83978122D01*
X122058393Y-83984842D01*
X122053046Y-84027943D01*
X122051415Y-84041088D01*
X122052868Y-84049975D01*
X122053009Y-84057247D01*
X122052726Y-84068472D01*
X122049293Y-84117554D01*
X122046870Y-84131052D01*
X122047032Y-84131076D01*
X122045750Y-84139991D01*
X122043212Y-84148638D01*
X122043212Y-84157649D01*
X122043212Y-84171207D01*
X122043177Y-84174164D01*
X122042155Y-84217704D01*
X122041884Y-84223527D01*
X122040357Y-84245378D01*
X103800500Y-84245378D01*
X103800500Y-80496820D01*
X106317835Y-80496820D01*
X106325850Y-80508267D01*
X106564929Y-80701869D01*
X106570272Y-80705751D01*
X106890685Y-80913830D01*
X106896394Y-80917126D01*
X107236811Y-81090578D01*
X107242835Y-81093260D01*
X107599501Y-81230170D01*
X107605784Y-81232212D01*
X107974815Y-81331094D01*
X107981265Y-81332465D01*
X108358629Y-81392233D01*
X108365167Y-81392920D01*
X108746699Y-81412916D01*
X108753301Y-81412916D01*
X109134832Y-81392920D01*
X109141370Y-81392233D01*
X109518734Y-81332465D01*
X109525184Y-81331094D01*
X109894215Y-81232212D01*
X109900498Y-81230170D01*
X110257164Y-81093260D01*
X110263188Y-81090578D01*
X110603605Y-80917126D01*
X110609314Y-80913830D01*
X110929728Y-80705751D01*
X110935064Y-80701874D01*
X111174150Y-80508265D01*
X111182164Y-80496821D01*
X111175389Y-80484599D01*
X108761729Y-78070939D01*
X108750000Y-78064167D01*
X108738270Y-78070939D01*
X106324609Y-80484599D01*
X106317835Y-80496820D01*
X103800500Y-80496820D01*
X103800500Y-77703301D01*
X105037084Y-77703301D01*
X105057079Y-78084832D01*
X105057766Y-78091370D01*
X105117532Y-78468720D01*
X105118905Y-78475184D01*
X105217787Y-78844215D01*
X105219829Y-78850498D01*
X105356739Y-79207164D01*
X105359421Y-79213188D01*
X105532873Y-79553605D01*
X105536169Y-79559314D01*
X105744248Y-79879727D01*
X105748130Y-79885070D01*
X105941731Y-80124148D01*
X105953178Y-80132163D01*
X105965399Y-80125389D01*
X108379060Y-77711729D01*
X108385832Y-77700000D01*
X109114167Y-77700000D01*
X109120939Y-77711729D01*
X111534599Y-80125389D01*
X111546821Y-80132164D01*
X111558265Y-80124150D01*
X111751874Y-79885064D01*
X111755751Y-79879728D01*
X111963830Y-79559314D01*
X111967126Y-79553605D01*
X112140578Y-79213188D01*
X112143260Y-79207164D01*
X112280170Y-78850498D01*
X112282212Y-78844215D01*
X112374809Y-78498638D01*
X137241500Y-78498638D01*
X137241859Y-78501985D01*
X137241860Y-78501988D01*
X137247168Y-78551367D01*
X137247169Y-78551373D01*
X137248011Y-78559201D01*
X137250762Y-78566578D01*
X137250763Y-78566580D01*
X137295962Y-78687763D01*
X137295964Y-78687766D01*
X137299111Y-78696204D01*
X137304508Y-78703414D01*
X137304510Y-78703417D01*
X137369800Y-78790633D01*
X137386739Y-78813261D01*
X137503796Y-78900889D01*
X137640799Y-78951989D01*
X137701362Y-78958500D01*
X139595269Y-78958500D01*
X139598638Y-78958500D01*
X139659201Y-78951989D01*
X139796204Y-78900889D01*
X139913261Y-78813261D01*
X140000889Y-78696204D01*
X140051989Y-78559201D01*
X140058500Y-78498638D01*
X140058500Y-76201362D01*
X140051989Y-76140799D01*
X140000889Y-76003796D01*
X139995350Y-75996397D01*
X139918659Y-75893950D01*
X139913261Y-75886739D01*
X139851742Y-75840686D01*
X139803417Y-75804510D01*
X139803414Y-75804508D01*
X139796204Y-75799111D01*
X139787766Y-75795964D01*
X139787763Y-75795962D01*
X139666580Y-75750763D01*
X139666578Y-75750762D01*
X139659201Y-75748011D01*
X139651373Y-75747169D01*
X139651367Y-75747168D01*
X139601988Y-75741860D01*
X139601985Y-75741859D01*
X139598638Y-75741500D01*
X137701362Y-75741500D01*
X137698015Y-75741859D01*
X137698011Y-75741860D01*
X137648632Y-75747168D01*
X137648625Y-75747169D01*
X137640799Y-75748011D01*
X137633423Y-75750761D01*
X137633419Y-75750763D01*
X137512236Y-75795962D01*
X137512230Y-75795965D01*
X137503796Y-75799111D01*
X137496588Y-75804506D01*
X137496582Y-75804510D01*
X137393950Y-75881340D01*
X137393946Y-75881343D01*
X137386739Y-75886739D01*
X137381343Y-75893946D01*
X137381340Y-75893950D01*
X137304510Y-75996582D01*
X137304506Y-75996588D01*
X137299111Y-76003796D01*
X137295965Y-76012230D01*
X137295962Y-76012236D01*
X137250763Y-76133419D01*
X137250761Y-76133423D01*
X137248011Y-76140799D01*
X137247169Y-76148625D01*
X137247168Y-76148632D01*
X137241860Y-76198011D01*
X137241500Y-76201362D01*
X137241500Y-78498638D01*
X112374809Y-78498638D01*
X112381094Y-78475184D01*
X112382468Y-78468720D01*
X112442233Y-78091370D01*
X112442920Y-78084832D01*
X112462916Y-77703301D01*
X112462916Y-77696699D01*
X112442920Y-77315167D01*
X112442233Y-77308629D01*
X112382465Y-76931265D01*
X112381094Y-76924815D01*
X112282212Y-76555784D01*
X112280170Y-76549501D01*
X112143260Y-76192835D01*
X112140578Y-76186811D01*
X111967127Y-75846397D01*
X111963830Y-75840686D01*
X111755753Y-75520275D01*
X111751865Y-75514924D01*
X111558267Y-75275850D01*
X111546820Y-75267835D01*
X111534599Y-75274609D01*
X109120939Y-77688270D01*
X109114167Y-77700000D01*
X108385832Y-77700000D01*
X108379060Y-77688270D01*
X105965399Y-75274609D01*
X105953177Y-75267834D01*
X105941734Y-75275847D01*
X105748123Y-75514938D01*
X105744251Y-75520267D01*
X105536169Y-75840686D01*
X105532872Y-75846397D01*
X105359421Y-76186811D01*
X105356739Y-76192835D01*
X105219829Y-76549501D01*
X105217787Y-76555784D01*
X105118905Y-76924815D01*
X105117534Y-76931265D01*
X105057766Y-77308629D01*
X105057079Y-77315167D01*
X105037084Y-77696699D01*
X105037084Y-77703301D01*
X103800500Y-77703301D01*
X103800500Y-74903177D01*
X106317834Y-74903177D01*
X106324609Y-74915399D01*
X108738270Y-77329060D01*
X108750000Y-77335832D01*
X108761729Y-77329060D01*
X111037611Y-75053177D01*
X179467834Y-75053177D01*
X179474609Y-75065399D01*
X181888270Y-77479060D01*
X181900000Y-77485832D01*
X181911729Y-77479060D01*
X184325389Y-75065399D01*
X184332163Y-75053178D01*
X184324148Y-75041731D01*
X184085070Y-74848130D01*
X184079727Y-74844248D01*
X183759314Y-74636169D01*
X183753605Y-74632873D01*
X183413188Y-74459421D01*
X183407164Y-74456739D01*
X183050498Y-74319829D01*
X183044215Y-74317787D01*
X182675184Y-74218905D01*
X182668734Y-74217534D01*
X182291370Y-74157766D01*
X182284832Y-74157079D01*
X181903301Y-74137084D01*
X181896699Y-74137084D01*
X181515167Y-74157079D01*
X181508629Y-74157766D01*
X181131265Y-74217534D01*
X181124815Y-74218905D01*
X180755784Y-74317787D01*
X180749501Y-74319829D01*
X180392835Y-74456739D01*
X180386811Y-74459421D01*
X180046397Y-74632872D01*
X180040686Y-74636169D01*
X179720267Y-74844251D01*
X179714938Y-74848123D01*
X179475847Y-75041734D01*
X179467834Y-75053177D01*
X111037611Y-75053177D01*
X111175389Y-74915399D01*
X111182163Y-74903178D01*
X111174148Y-74891731D01*
X110935070Y-74698130D01*
X110929727Y-74694248D01*
X110609314Y-74486169D01*
X110603605Y-74482873D01*
X110263188Y-74309421D01*
X110257164Y-74306739D01*
X109900498Y-74169829D01*
X109894215Y-74167787D01*
X109525184Y-74068905D01*
X109518734Y-74067534D01*
X109141370Y-74007766D01*
X109134832Y-74007079D01*
X108753301Y-73987084D01*
X108746699Y-73987084D01*
X108365167Y-74007079D01*
X108358629Y-74007766D01*
X107981265Y-74067534D01*
X107974815Y-74068905D01*
X107605784Y-74167787D01*
X107599501Y-74169829D01*
X107242835Y-74306739D01*
X107236811Y-74309421D01*
X106896397Y-74482872D01*
X106890686Y-74486169D01*
X106570267Y-74694251D01*
X106564938Y-74698123D01*
X106325847Y-74891734D01*
X106317834Y-74903177D01*
X103800500Y-74903177D01*
X103800500Y-73376500D01*
X103817381Y-73313500D01*
X103863500Y-73267381D01*
X103926500Y-73250500D01*
X186573500Y-73250500D01*
X186636500Y-73267381D01*
G37*
%TD.AperFunction*%
%TD*%
M02*
