%TF.GenerationSoftware,KiCad,Pcbnew,(7.0.0)*%
%TF.CreationDate,2023-03-30T12:26:05-04:00*%
%TF.ProjectId,headunit_hub,68656164-756e-4697-945f-6875622e6b69,rev?*%
%TF.SameCoordinates,Original*%
%TF.FileFunction,Copper,L2,Bot*%
%TF.FilePolarity,Positive*%
%FSLAX46Y46*%
G04 Gerber Fmt 4.6, Leading zero omitted, Abs format (unit mm)*
G04 Created by KiCad (PCBNEW (7.0.0)) date 2023-03-30 12:26:05*
%MOMM*%
%LPD*%
G01*
G04 APERTURE LIST*
%TA.AperFunction,ComponentPad*%
%ADD10R,1.700000X1.700000*%
%TD*%
%TA.AperFunction,ComponentPad*%
%ADD11C,1.400000*%
%TD*%
%TA.AperFunction,ComponentPad*%
%ADD12O,1.400000X1.400000*%
%TD*%
%TA.AperFunction,ComponentPad*%
%ADD13O,1.700000X1.700000*%
%TD*%
%TA.AperFunction,ComponentPad*%
%ADD14C,0.800000*%
%TD*%
%TA.AperFunction,ComponentPad*%
%ADD15C,6.400000*%
%TD*%
%TA.AperFunction,ViaPad*%
%ADD16C,0.800000*%
%TD*%
%TA.AperFunction,Conductor*%
%ADD17C,0.350000*%
%TD*%
%TA.AperFunction,Conductor*%
%ADD18C,0.250000*%
%TD*%
G04 APERTURE END LIST*
D10*
%TO.P,LSCAN,1,Pin_1*%
%TO.N,/LSCAN*%
X161599999Y-94249999D03*
%TD*%
D11*
%TO.P,R1,1*%
%TO.N,VCC*%
X161600000Y-80050000D03*
D12*
%TO.P,R1,2*%
%TO.N,/R_to_ActiveLED*%
X166679999Y-80049999D03*
%TD*%
D10*
%TO.P,J5,1,VBUS*%
%TO.N,VCC*%
X185099999Y-84089999D03*
D13*
%TO.P,J5,2,D-*%
%TO.N,Net-(J5-D-)*%
X185099999Y-86629999D03*
%TO.P,J5,3,D+*%
%TO.N,Net-(J5-D+)*%
X185099999Y-89169999D03*
%TO.P,J5,4,GND*%
%TO.N,GND*%
X185099999Y-91709999D03*
%TO.P,J5,5,Shield*%
%TO.N,unconnected-(J5-Shield-Pad5)*%
X185099999Y-94249999D03*
%TD*%
D14*
%TO.P,H4,1,1*%
%TO.N,GND*%
X106550000Y-100250000D03*
X107252944Y-98552944D03*
X107252944Y-101947056D03*
X108950000Y-97850000D03*
D15*
X108950000Y-100250000D03*
D14*
X108950000Y-102650000D03*
X110647056Y-98552944D03*
X110647056Y-101947056D03*
X111350000Y-100250000D03*
%TD*%
D10*
%TO.P,J6,1,Pin_1*%
%TO.N,VCC*%
X162799999Y-83759999D03*
D13*
%TO.P,J6,2,Pin_2*%
%TO.N,GND*%
X165339999Y-83759999D03*
%TO.P,J6,3,Pin_3*%
%TO.N,VCC*%
X162799999Y-86299999D03*
%TO.P,J6,4,Pin_4*%
%TO.N,GND*%
X165339999Y-86299999D03*
%TO.P,J6,5,Pin_5*%
%TO.N,VCC*%
X162799999Y-88839999D03*
%TO.P,J6,6,Pin_6*%
%TO.N,GND*%
X165339999Y-88839999D03*
%TD*%
D14*
%TO.P,H2,1,1*%
%TO.N,GND*%
X179950000Y-101750000D03*
X180652944Y-100052944D03*
X180652944Y-103447056D03*
X182350000Y-99350000D03*
D15*
X182350000Y-101750000D03*
D14*
X182350000Y-104150000D03*
X184047056Y-100052944D03*
X184047056Y-103447056D03*
X184750000Y-101750000D03*
%TD*%
%TO.P,H5,1,1*%
%TO.N,GND*%
X179500000Y-77850000D03*
X180202944Y-76152944D03*
X180202944Y-79547056D03*
X181900000Y-75450000D03*
D15*
X181900000Y-77850000D03*
D14*
X181900000Y-80250000D03*
X183597056Y-76152944D03*
X183597056Y-79547056D03*
X184300000Y-77850000D03*
%TD*%
D13*
%TO.P,J1,1*%
%TO.N,GND*%
X167574999Y-101834999D03*
%TO.P,J1,2*%
X166304999Y-99294999D03*
%TO.P,J1,3*%
X165034999Y-101834999D03*
%TO.P,J1,4*%
%TO.N,Net-(J5-D-)*%
X163764999Y-99294999D03*
%TO.P,J1,5*%
%TO.N,Net-(J5-D+)*%
X162494999Y-101834999D03*
%TO.P,J1,6*%
%TO.N,/LSCAN*%
X161224999Y-99294999D03*
%TO.P,J1,7*%
%TO.N,VCC*%
X159954999Y-101834999D03*
%TO.P,J1,8*%
X158684999Y-99294999D03*
%TO.P,J1,9*%
%TO.N,GND*%
X171384999Y-99294999D03*
%TO.P,J1,10*%
%TO.N,/R_to_ActiveLED*%
X168844999Y-99294999D03*
%TO.P,J1,11*%
%TO.N,unconnected-(J1-Pad11)*%
X156144999Y-99294999D03*
%TO.P,J1,12*%
%TO.N,unconnected-(J1-Pad12)*%
X153604999Y-99294999D03*
%TO.P,J1,SH*%
%TO.N,GND*%
X157414999Y-101834999D03*
%TD*%
D14*
%TO.P,H1,1,1*%
%TO.N,GND*%
X106350000Y-77700000D03*
X107052944Y-76002944D03*
X107052944Y-79397056D03*
X108750000Y-75300000D03*
D15*
X108750000Y-77700000D03*
D14*
X108750000Y-80100000D03*
X110447056Y-76002944D03*
X110447056Y-79397056D03*
X111150000Y-77700000D03*
%TD*%
D13*
%TO.P,J3,1*%
%TO.N,AMFM_button*%
X138064999Y-101834999D03*
%TO.P,J3,2*%
%TO.N,SCAN_button*%
X136794999Y-99294999D03*
%TO.P,J3,3*%
%TO.N,CD_button*%
X135524999Y-101834999D03*
%TO.P,J3,4*%
%TO.N,Scrn_Brightness*%
X134254999Y-99294999D03*
%TO.P,J3,5*%
%TO.N,Expansion_7*%
X132984999Y-101834999D03*
%TO.P,J3,6*%
%TO.N,Expansion_6*%
X131714999Y-99294999D03*
%TO.P,J3,7*%
%TO.N,Expansion_5*%
X130444999Y-101834999D03*
%TO.P,J3,8*%
%TO.N,Expansion_4*%
X129174999Y-99294999D03*
%TO.P,J3,9*%
%TO.N,unconnected-(J3-Pad9)*%
X141874999Y-99294999D03*
%TO.P,J3,10*%
%TO.N,unconnected-(J3-Pad10)*%
X139334999Y-99294999D03*
%TO.P,J3,11*%
%TO.N,unconnected-(J3-Pad11)*%
X126634999Y-99294999D03*
%TO.P,J3,12*%
%TO.N,unconnected-(J3-Pad12)*%
X124094999Y-99294999D03*
%TO.P,J3,SH*%
%TO.N,GND*%
X127904999Y-101834999D03*
%TD*%
D16*
%TO.N,GND*%
X143650000Y-85700000D03*
X143650000Y-83150000D03*
X145550000Y-85900000D03*
X145250000Y-84450000D03*
%TO.N,Net-(J5-D-)*%
X171300000Y-103450000D03*
%TO.N,Net-(J5-D+)*%
X173350000Y-104350000D03*
%TD*%
D17*
%TO.N,VCC*%
X162800000Y-83600000D02*
X164100000Y-82300000D01*
X164100000Y-82300000D02*
X183310000Y-82300000D01*
X162800000Y-83760000D02*
X162800000Y-83600000D01*
X183310000Y-82300000D02*
X185100000Y-84090000D01*
D18*
%TO.N,GND*%
X164238000Y-84862000D02*
X145662000Y-84862000D01*
X165340000Y-83760000D02*
X164238000Y-84862000D01*
X166305000Y-100565000D02*
X165035000Y-101835000D01*
X171385000Y-94885000D02*
X171385000Y-99295000D01*
X165035000Y-101835000D02*
X167575000Y-101835000D01*
X166305000Y-100565000D02*
X167575000Y-101835000D01*
X165340000Y-88840000D02*
X171385000Y-94885000D01*
X166305000Y-99295000D02*
X166305000Y-100565000D01*
X145662000Y-84862000D02*
X145250000Y-84450000D01*
%TO.N,Net-(J5-D-)*%
X172700000Y-102050000D02*
X172700000Y-99030000D01*
X172700000Y-99030000D02*
X185100000Y-86630000D01*
X171300000Y-103450000D02*
X172700000Y-102050000D01*
%TO.N,Net-(J5-D+)*%
X173350000Y-100920000D02*
X185100000Y-89170000D01*
X173350000Y-104350000D02*
X173350000Y-100920000D01*
%TD*%
%TA.AperFunction,Conductor*%
%TO.N,GND*%
G36*
X186636500Y-73267381D02*
G01*
X186682619Y-73313500D01*
X186699500Y-73376500D01*
X186699500Y-83101388D01*
X186684973Y-83160122D01*
X186644743Y-83205313D01*
X186588085Y-83226541D01*
X186528064Y-83218911D01*
X186478520Y-83184182D01*
X186452223Y-83132984D01*
X186451989Y-83130799D01*
X186400889Y-82993796D01*
X186393181Y-82983500D01*
X186318659Y-82883950D01*
X186313261Y-82876739D01*
X186292720Y-82861362D01*
X186203417Y-82794510D01*
X186203414Y-82794508D01*
X186196204Y-82789111D01*
X186187766Y-82785964D01*
X186187763Y-82785962D01*
X186066580Y-82740763D01*
X186066578Y-82740762D01*
X186059201Y-82738011D01*
X186051373Y-82737169D01*
X186051367Y-82737168D01*
X186001988Y-82731860D01*
X186001985Y-82731859D01*
X185998638Y-82731500D01*
X185995269Y-82731500D01*
X184760305Y-82731500D01*
X184712087Y-82721909D01*
X184671210Y-82694595D01*
X183810604Y-81833989D01*
X183805387Y-81828447D01*
X183771629Y-81790342D01*
X183771628Y-81790341D01*
X183766573Y-81784635D01*
X183718398Y-81751382D01*
X183712268Y-81746871D01*
X183672198Y-81715478D01*
X183672195Y-81715476D01*
X183666197Y-81710777D01*
X183659248Y-81707649D01*
X183659246Y-81707648D01*
X183657594Y-81706905D01*
X183637739Y-81695707D01*
X183636243Y-81694674D01*
X183636236Y-81694670D01*
X183629971Y-81690346D01*
X183592914Y-81676292D01*
X183575237Y-81669588D01*
X183568207Y-81666676D01*
X183521781Y-81645781D01*
X183521779Y-81645780D01*
X183514837Y-81642656D01*
X183507350Y-81641283D01*
X183507338Y-81641280D01*
X183505551Y-81640953D01*
X183483603Y-81634834D01*
X183481903Y-81634189D01*
X183481891Y-81634186D01*
X183474774Y-81631487D01*
X183467217Y-81630569D01*
X183467212Y-81630568D01*
X183416661Y-81624430D01*
X183409140Y-81623285D01*
X183359070Y-81614109D01*
X183359061Y-81614108D01*
X183351572Y-81612736D01*
X183343965Y-81613196D01*
X183343963Y-81613196D01*
X183293149Y-81616270D01*
X183285541Y-81616500D01*
X183114674Y-81616500D01*
X183048278Y-81597586D01*
X183001814Y-81546524D01*
X182989233Y-81478642D01*
X183014311Y-81414320D01*
X183069520Y-81372869D01*
X183407164Y-81243260D01*
X183413188Y-81240578D01*
X183753605Y-81067126D01*
X183759314Y-81063830D01*
X184079728Y-80855751D01*
X184085064Y-80851874D01*
X184324150Y-80658265D01*
X184332164Y-80646821D01*
X184325389Y-80634599D01*
X181911729Y-78220939D01*
X181900000Y-78214167D01*
X181888270Y-78220939D01*
X179474609Y-80634599D01*
X179467835Y-80646820D01*
X179475850Y-80658267D01*
X179714929Y-80851869D01*
X179720272Y-80855751D01*
X180040685Y-81063830D01*
X180046394Y-81067126D01*
X180386811Y-81240578D01*
X180392835Y-81243260D01*
X180730480Y-81372869D01*
X180785689Y-81414320D01*
X180810767Y-81478642D01*
X180798186Y-81546524D01*
X180751722Y-81597586D01*
X180685326Y-81616500D01*
X164124460Y-81616500D01*
X164116852Y-81616270D01*
X164066036Y-81613196D01*
X164066034Y-81613196D01*
X164058428Y-81612736D01*
X164000848Y-81623287D01*
X163993337Y-81624430D01*
X163942792Y-81630568D01*
X163942790Y-81630568D01*
X163935226Y-81631487D01*
X163928098Y-81634189D01*
X163928098Y-81634190D01*
X163926389Y-81634838D01*
X163904449Y-81640953D01*
X163902667Y-81641279D01*
X163902654Y-81641282D01*
X163895163Y-81642656D01*
X163888219Y-81645780D01*
X163888213Y-81645783D01*
X163841789Y-81666677D01*
X163834759Y-81669589D01*
X163787151Y-81687644D01*
X163787144Y-81687647D01*
X163780029Y-81690346D01*
X163773764Y-81694669D01*
X163773756Y-81694674D01*
X163772253Y-81695712D01*
X163752411Y-81706902D01*
X163750756Y-81707646D01*
X163750747Y-81707651D01*
X163743803Y-81710777D01*
X163737808Y-81715473D01*
X163737804Y-81715476D01*
X163697723Y-81746877D01*
X163691601Y-81751382D01*
X163643427Y-81784635D01*
X163638374Y-81790338D01*
X163638370Y-81790342D01*
X163604611Y-81828447D01*
X163599397Y-81833986D01*
X163068790Y-82364595D01*
X163027912Y-82391909D01*
X162979694Y-82401500D01*
X161901362Y-82401500D01*
X161898015Y-82401859D01*
X161898011Y-82401860D01*
X161848632Y-82407168D01*
X161848625Y-82407169D01*
X161840799Y-82408011D01*
X161833423Y-82410761D01*
X161833419Y-82410763D01*
X161712236Y-82455962D01*
X161712230Y-82455965D01*
X161703796Y-82459111D01*
X161696588Y-82464506D01*
X161696582Y-82464510D01*
X161593950Y-82541340D01*
X161593946Y-82541343D01*
X161586739Y-82546739D01*
X161581343Y-82553946D01*
X161581340Y-82553950D01*
X161504510Y-82656582D01*
X161504506Y-82656588D01*
X161499111Y-82663796D01*
X161495965Y-82672230D01*
X161495962Y-82672236D01*
X161450763Y-82793419D01*
X161450761Y-82793423D01*
X161448011Y-82800799D01*
X161447169Y-82808625D01*
X161447168Y-82808632D01*
X161441860Y-82858011D01*
X161441500Y-82861362D01*
X161441500Y-84658638D01*
X161441859Y-84661985D01*
X161441860Y-84661988D01*
X161447168Y-84711367D01*
X161447169Y-84711373D01*
X161448011Y-84719201D01*
X161450762Y-84726578D01*
X161450763Y-84726580D01*
X161495962Y-84847763D01*
X161495964Y-84847766D01*
X161499111Y-84856204D01*
X161504508Y-84863414D01*
X161504510Y-84863417D01*
X161571915Y-84953459D01*
X161586739Y-84973261D01*
X161593950Y-84978659D01*
X161688182Y-85049201D01*
X161703796Y-85060889D01*
X161712235Y-85064036D01*
X161712236Y-85064037D01*
X161818806Y-85103786D01*
X161869140Y-85138350D01*
X161897314Y-85192520D01*
X161896711Y-85253576D01*
X161867474Y-85307180D01*
X161727806Y-85458899D01*
X161727802Y-85458902D01*
X161724278Y-85462732D01*
X161721430Y-85467090D01*
X161721427Y-85467095D01*
X161603992Y-85646843D01*
X161601140Y-85651209D01*
X161599048Y-85655978D01*
X161599046Y-85655982D01*
X161512799Y-85852606D01*
X161512796Y-85852614D01*
X161510704Y-85857384D01*
X161509423Y-85862440D01*
X161509422Y-85862445D01*
X161467141Y-86029410D01*
X161455436Y-86075632D01*
X161455006Y-86080820D01*
X161455005Y-86080827D01*
X161446176Y-86187384D01*
X161436844Y-86300000D01*
X161437274Y-86305189D01*
X161446027Y-86410827D01*
X161455436Y-86524368D01*
X161463828Y-86557506D01*
X161499471Y-86698260D01*
X161510704Y-86742616D01*
X161512797Y-86747389D01*
X161512799Y-86747393D01*
X161561941Y-86859426D01*
X161601140Y-86948791D01*
X161724278Y-87137268D01*
X161727806Y-87141100D01*
X161873227Y-87299069D01*
X161873231Y-87299073D01*
X161876760Y-87302906D01*
X162054424Y-87441189D01*
X162059002Y-87443666D01*
X162059009Y-87443671D01*
X162087680Y-87459187D01*
X162135951Y-87505503D01*
X162153710Y-87570000D01*
X162135951Y-87634497D01*
X162087680Y-87680813D01*
X162059009Y-87696328D01*
X162058993Y-87696338D01*
X162054424Y-87698811D01*
X162050313Y-87702010D01*
X162050311Y-87702012D01*
X161880878Y-87833888D01*
X161880872Y-87833893D01*
X161876760Y-87837094D01*
X161873237Y-87840919D01*
X161873227Y-87840930D01*
X161727806Y-87998899D01*
X161727802Y-87998902D01*
X161724278Y-88002732D01*
X161721430Y-88007090D01*
X161721427Y-88007095D01*
X161603992Y-88186843D01*
X161601140Y-88191209D01*
X161599048Y-88195978D01*
X161599046Y-88195982D01*
X161512799Y-88392606D01*
X161512796Y-88392614D01*
X161510704Y-88397384D01*
X161509423Y-88402440D01*
X161509422Y-88402445D01*
X161467141Y-88569410D01*
X161455436Y-88615632D01*
X161455006Y-88620820D01*
X161455005Y-88620827D01*
X161446176Y-88727384D01*
X161436844Y-88840000D01*
X161437274Y-88845189D01*
X161446027Y-88950827D01*
X161455436Y-89064368D01*
X161463828Y-89097506D01*
X161499471Y-89238260D01*
X161510704Y-89282616D01*
X161512797Y-89287389D01*
X161512799Y-89287393D01*
X161561941Y-89399426D01*
X161601140Y-89488791D01*
X161724278Y-89677268D01*
X161727806Y-89681100D01*
X161873227Y-89839069D01*
X161873231Y-89839073D01*
X161876760Y-89842906D01*
X162054424Y-89981189D01*
X162252426Y-90088342D01*
X162257355Y-90090034D01*
X162257357Y-90090035D01*
X162358895Y-90124892D01*
X162465365Y-90161444D01*
X162687431Y-90198500D01*
X162907358Y-90198500D01*
X162912569Y-90198500D01*
X163134635Y-90161444D01*
X163347574Y-90088342D01*
X163545576Y-89981189D01*
X163723240Y-89842906D01*
X163875722Y-89677268D01*
X163964817Y-89540896D01*
X164010328Y-89499001D01*
X164070297Y-89483814D01*
X164130267Y-89499000D01*
X164175781Y-89540898D01*
X164261822Y-89672592D01*
X164268210Y-89680799D01*
X164413567Y-89838700D01*
X164421211Y-89845737D01*
X164590588Y-89977568D01*
X164599281Y-89983247D01*
X164788042Y-90085400D01*
X164797559Y-90089575D01*
X165000557Y-90159264D01*
X165010627Y-90161814D01*
X165072461Y-90172132D01*
X165083598Y-90171556D01*
X165086000Y-90160664D01*
X165594000Y-90160664D01*
X165596401Y-90171556D01*
X165607538Y-90172132D01*
X165669372Y-90161814D01*
X165679442Y-90159264D01*
X165882440Y-90089575D01*
X165891957Y-90085400D01*
X166080718Y-89983247D01*
X166089411Y-89977568D01*
X166258788Y-89845737D01*
X166266432Y-89838700D01*
X166411789Y-89680799D01*
X166418177Y-89672593D01*
X166535568Y-89492913D01*
X166540511Y-89483778D01*
X166626729Y-89287223D01*
X166630099Y-89277408D01*
X166673013Y-89107943D01*
X166673248Y-89096565D01*
X166662160Y-89094000D01*
X165610590Y-89094000D01*
X165597506Y-89097506D01*
X165594000Y-89110590D01*
X165594000Y-90160664D01*
X165086000Y-90160664D01*
X165086000Y-88569410D01*
X165594000Y-88569410D01*
X165597506Y-88582493D01*
X165610590Y-88586000D01*
X166662160Y-88586000D01*
X166673248Y-88583434D01*
X166673013Y-88572056D01*
X166630099Y-88402591D01*
X166626729Y-88392776D01*
X166540511Y-88196221D01*
X166535568Y-88187086D01*
X166418177Y-88007406D01*
X166411789Y-87999200D01*
X166266432Y-87841299D01*
X166258788Y-87834262D01*
X166089411Y-87702431D01*
X166080718Y-87696752D01*
X166051267Y-87680814D01*
X166002995Y-87634498D01*
X165985236Y-87570000D01*
X166002995Y-87505502D01*
X166051267Y-87459186D01*
X166080718Y-87443247D01*
X166089411Y-87437568D01*
X166258788Y-87305737D01*
X166266432Y-87298700D01*
X166411789Y-87140799D01*
X166418177Y-87132593D01*
X166535568Y-86952913D01*
X166540511Y-86943778D01*
X166626729Y-86747223D01*
X166630099Y-86737408D01*
X166673013Y-86567943D01*
X166673248Y-86556565D01*
X166662160Y-86554000D01*
X165610590Y-86554000D01*
X165597506Y-86557506D01*
X165594000Y-86570590D01*
X165594000Y-88569410D01*
X165086000Y-88569410D01*
X165086000Y-86029410D01*
X165594000Y-86029410D01*
X165597506Y-86042493D01*
X165610590Y-86046000D01*
X166662160Y-86046000D01*
X166673248Y-86043434D01*
X166673013Y-86032056D01*
X166630099Y-85862591D01*
X166626729Y-85852776D01*
X166540511Y-85656221D01*
X166535568Y-85647086D01*
X166418177Y-85467406D01*
X166411789Y-85459200D01*
X166266432Y-85301299D01*
X166258788Y-85294262D01*
X166089411Y-85162431D01*
X166080718Y-85156752D01*
X166051267Y-85140814D01*
X166002995Y-85094498D01*
X165985236Y-85030000D01*
X166002995Y-84965502D01*
X166051267Y-84919186D01*
X166080718Y-84903247D01*
X166089411Y-84897568D01*
X166258788Y-84765737D01*
X166266432Y-84758700D01*
X166411789Y-84600799D01*
X166418177Y-84592593D01*
X166535568Y-84412913D01*
X166540511Y-84403778D01*
X166626729Y-84207223D01*
X166630099Y-84197408D01*
X166673013Y-84027943D01*
X166673248Y-84016565D01*
X166662160Y-84014000D01*
X165610590Y-84014000D01*
X165597506Y-84017506D01*
X165594000Y-84030590D01*
X165594000Y-86029410D01*
X165086000Y-86029410D01*
X165086000Y-83632000D01*
X165102881Y-83569000D01*
X165149000Y-83522881D01*
X165212000Y-83506000D01*
X166662160Y-83506000D01*
X166673248Y-83503434D01*
X166673013Y-83492056D01*
X166630099Y-83322591D01*
X166626729Y-83312776D01*
X166559765Y-83160114D01*
X166549582Y-83099095D01*
X166569669Y-83040585D01*
X166615183Y-82998686D01*
X166675152Y-82983500D01*
X182974695Y-82983500D01*
X183022913Y-82993091D01*
X183063790Y-83020405D01*
X183704595Y-83661210D01*
X183731909Y-83702087D01*
X183741500Y-83750305D01*
X183741500Y-84988638D01*
X183741859Y-84991985D01*
X183741860Y-84991988D01*
X183747168Y-85041367D01*
X183747169Y-85041373D01*
X183748011Y-85049201D01*
X183750762Y-85056578D01*
X183750763Y-85056580D01*
X183795962Y-85177763D01*
X183795964Y-85177766D01*
X183799111Y-85186204D01*
X183804508Y-85193414D01*
X183804510Y-85193417D01*
X183849545Y-85253576D01*
X183886739Y-85303261D01*
X184003796Y-85390889D01*
X184012235Y-85394036D01*
X184012236Y-85394037D01*
X184118806Y-85433786D01*
X184169140Y-85468350D01*
X184197314Y-85522520D01*
X184196711Y-85583576D01*
X184167474Y-85637180D01*
X184027806Y-85788899D01*
X184027802Y-85788902D01*
X184024278Y-85792732D01*
X184021430Y-85797090D01*
X184021427Y-85797095D01*
X183903992Y-85976843D01*
X183901140Y-85981209D01*
X183899048Y-85985978D01*
X183899046Y-85985982D01*
X183812799Y-86182606D01*
X183812796Y-86182614D01*
X183810704Y-86187384D01*
X183809423Y-86192440D01*
X183809422Y-86192445D01*
X183756717Y-86400573D01*
X183755436Y-86405632D01*
X183755006Y-86410820D01*
X183755005Y-86410827D01*
X183742929Y-86556565D01*
X183736844Y-86630000D01*
X183737274Y-86635189D01*
X183747101Y-86753790D01*
X183755436Y-86854368D01*
X183781932Y-86959000D01*
X183783182Y-86963934D01*
X183782517Y-87028314D01*
X183750133Y-87083960D01*
X172512788Y-98321304D01*
X172454625Y-98354353D01*
X172387741Y-98352971D01*
X172330993Y-98317547D01*
X172311436Y-98296303D01*
X172303788Y-98289262D01*
X172134411Y-98157431D01*
X172125718Y-98151752D01*
X171936957Y-98049599D01*
X171927440Y-98045424D01*
X171724442Y-97975735D01*
X171714372Y-97973185D01*
X171652538Y-97962867D01*
X171641401Y-97963443D01*
X171639000Y-97974336D01*
X171639000Y-100615664D01*
X171641401Y-100626556D01*
X171652538Y-100627132D01*
X171714372Y-100616814D01*
X171724442Y-100614264D01*
X171899588Y-100554137D01*
X171958666Y-100548626D01*
X172013716Y-100570765D01*
X172052529Y-100615644D01*
X172066500Y-100673310D01*
X172066500Y-101735405D01*
X172056909Y-101783623D01*
X172029595Y-101824501D01*
X171349499Y-102504596D01*
X171308622Y-102531909D01*
X171260404Y-102541500D01*
X171204513Y-102541500D01*
X171198060Y-102542871D01*
X171198056Y-102542872D01*
X171024168Y-102579833D01*
X171024161Y-102579835D01*
X171017712Y-102581206D01*
X171011682Y-102583890D01*
X171011681Y-102583891D01*
X170849278Y-102656197D01*
X170849275Y-102656198D01*
X170843248Y-102658882D01*
X170837907Y-102662762D01*
X170837906Y-102662763D01*
X170694091Y-102767250D01*
X170694083Y-102767256D01*
X170688747Y-102771134D01*
X170684330Y-102776039D01*
X170684325Y-102776044D01*
X170628625Y-102837906D01*
X170560960Y-102913056D01*
X170557661Y-102918769D01*
X170557658Y-102918774D01*
X170477123Y-103058265D01*
X170465473Y-103078444D01*
X170463434Y-103084718D01*
X170463430Y-103084728D01*
X170408497Y-103253794D01*
X170408495Y-103253801D01*
X170406458Y-103260072D01*
X170386496Y-103450000D01*
X170406458Y-103639928D01*
X170408495Y-103646200D01*
X170408497Y-103646205D01*
X170463430Y-103815271D01*
X170463433Y-103815278D01*
X170465473Y-103821556D01*
X170535146Y-103942233D01*
X170556052Y-103978444D01*
X170560960Y-103986944D01*
X170688747Y-104128866D01*
X170843248Y-104241118D01*
X171017712Y-104318794D01*
X171204513Y-104358500D01*
X171388884Y-104358500D01*
X171395487Y-104358500D01*
X171582288Y-104318794D01*
X171756752Y-104241118D01*
X171911253Y-104128866D01*
X172039040Y-103986944D01*
X172134527Y-103821556D01*
X172193542Y-103639928D01*
X172210907Y-103474705D01*
X172222491Y-103433633D01*
X172247119Y-103398784D01*
X172428966Y-103216937D01*
X172501405Y-103144500D01*
X172551564Y-103113763D01*
X172610211Y-103109147D01*
X172664561Y-103131660D01*
X172702767Y-103176393D01*
X172716500Y-103233596D01*
X172716500Y-103647476D01*
X172708131Y-103692630D01*
X172684138Y-103731783D01*
X172610960Y-103813056D01*
X172607661Y-103818769D01*
X172607658Y-103818774D01*
X172540515Y-103935070D01*
X172515473Y-103978444D01*
X172513434Y-103984718D01*
X172513430Y-103984728D01*
X172458497Y-104153794D01*
X172458495Y-104153801D01*
X172456458Y-104160072D01*
X172455768Y-104166633D01*
X172455768Y-104166635D01*
X172454978Y-104174150D01*
X172436496Y-104350000D01*
X172456458Y-104539928D01*
X172458495Y-104546200D01*
X172458497Y-104546205D01*
X172513430Y-104715271D01*
X172513433Y-104715278D01*
X172515473Y-104721556D01*
X172610960Y-104886944D01*
X172738747Y-105028866D01*
X172893248Y-105141118D01*
X173067712Y-105218794D01*
X173254513Y-105258500D01*
X173438884Y-105258500D01*
X173445487Y-105258500D01*
X173632288Y-105218794D01*
X173806752Y-105141118D01*
X173961253Y-105028866D01*
X174089040Y-104886944D01*
X174184527Y-104721556D01*
X174241303Y-104546820D01*
X179917835Y-104546820D01*
X179925850Y-104558267D01*
X180164929Y-104751869D01*
X180170272Y-104755751D01*
X180490685Y-104963830D01*
X180496394Y-104967126D01*
X180836811Y-105140578D01*
X180842835Y-105143260D01*
X181199501Y-105280170D01*
X181205784Y-105282212D01*
X181574815Y-105381094D01*
X181581265Y-105382465D01*
X181958629Y-105442233D01*
X181965167Y-105442920D01*
X182346699Y-105462916D01*
X182353301Y-105462916D01*
X182734832Y-105442920D01*
X182741370Y-105442233D01*
X183118734Y-105382465D01*
X183125184Y-105381094D01*
X183494215Y-105282212D01*
X183500498Y-105280170D01*
X183857164Y-105143260D01*
X183863188Y-105140578D01*
X184203605Y-104967126D01*
X184209314Y-104963830D01*
X184529728Y-104755751D01*
X184535064Y-104751874D01*
X184774150Y-104558265D01*
X184782164Y-104546821D01*
X184775389Y-104534599D01*
X182361729Y-102120939D01*
X182350000Y-102114167D01*
X182338270Y-102120939D01*
X179924609Y-104534599D01*
X179917835Y-104546820D01*
X174241303Y-104546820D01*
X174243542Y-104539928D01*
X174263504Y-104350000D01*
X174243542Y-104160072D01*
X174184527Y-103978444D01*
X174089040Y-103813056D01*
X174015861Y-103731783D01*
X173991869Y-103692630D01*
X173983500Y-103647476D01*
X173983500Y-101753301D01*
X178637084Y-101753301D01*
X178657079Y-102134832D01*
X178657766Y-102141370D01*
X178717534Y-102518734D01*
X178718905Y-102525184D01*
X178817787Y-102894215D01*
X178819829Y-102900498D01*
X178956739Y-103257164D01*
X178959421Y-103263188D01*
X179132873Y-103603605D01*
X179136169Y-103609314D01*
X179344248Y-103929727D01*
X179348130Y-103935070D01*
X179541731Y-104174148D01*
X179553178Y-104182163D01*
X179565399Y-104175389D01*
X181979060Y-101761729D01*
X181985832Y-101750000D01*
X182714167Y-101750000D01*
X182720939Y-101761729D01*
X185134599Y-104175389D01*
X185146821Y-104182164D01*
X185158265Y-104174150D01*
X185351874Y-103935064D01*
X185355751Y-103929728D01*
X185563830Y-103609314D01*
X185567126Y-103603605D01*
X185740578Y-103263188D01*
X185743260Y-103257164D01*
X185880170Y-102900498D01*
X185882212Y-102894215D01*
X185981094Y-102525184D01*
X185982465Y-102518734D01*
X186042233Y-102141370D01*
X186042920Y-102134832D01*
X186062916Y-101753301D01*
X186062916Y-101746699D01*
X186042920Y-101365167D01*
X186042233Y-101358629D01*
X185982465Y-100981265D01*
X185981094Y-100974815D01*
X185882212Y-100605784D01*
X185880170Y-100599501D01*
X185743260Y-100242835D01*
X185740578Y-100236811D01*
X185567127Y-99896397D01*
X185563830Y-99890686D01*
X185355753Y-99570275D01*
X185351865Y-99564924D01*
X185158267Y-99325850D01*
X185146820Y-99317835D01*
X185134599Y-99324609D01*
X182720939Y-101738270D01*
X182714167Y-101750000D01*
X181985832Y-101750000D01*
X181979060Y-101738270D01*
X179565399Y-99324609D01*
X179553177Y-99317834D01*
X179541734Y-99325847D01*
X179348123Y-99564938D01*
X179344251Y-99570267D01*
X179136169Y-99890686D01*
X179132872Y-99896397D01*
X178959421Y-100236811D01*
X178956739Y-100242835D01*
X178819829Y-100599501D01*
X178817787Y-100605784D01*
X178718905Y-100974815D01*
X178717534Y-100981265D01*
X178657766Y-101358629D01*
X178657079Y-101365167D01*
X178637084Y-101746699D01*
X178637084Y-101753301D01*
X173983500Y-101753301D01*
X173983500Y-101234594D01*
X173993091Y-101186376D01*
X174020405Y-101145499D01*
X175600980Y-99564924D01*
X176212727Y-98953177D01*
X179917834Y-98953177D01*
X179924609Y-98965399D01*
X182338270Y-101379060D01*
X182349999Y-101385832D01*
X182361729Y-101379060D01*
X184775389Y-98965399D01*
X184782163Y-98953178D01*
X184774148Y-98941731D01*
X184535070Y-98748130D01*
X184529727Y-98744248D01*
X184209314Y-98536169D01*
X184203605Y-98532873D01*
X183863188Y-98359421D01*
X183857164Y-98356739D01*
X183500498Y-98219829D01*
X183494215Y-98217787D01*
X183125184Y-98118905D01*
X183118734Y-98117534D01*
X182741370Y-98057766D01*
X182734832Y-98057079D01*
X182353301Y-98037084D01*
X182346699Y-98037084D01*
X181965167Y-98057079D01*
X181958629Y-98057766D01*
X181581265Y-98117534D01*
X181574815Y-98118905D01*
X181205784Y-98217787D01*
X181199501Y-98219829D01*
X180842835Y-98356739D01*
X180836811Y-98359421D01*
X180496397Y-98532872D01*
X180490686Y-98536169D01*
X180170267Y-98744251D01*
X180164938Y-98748123D01*
X179925847Y-98941734D01*
X179917834Y-98953177D01*
X176212727Y-98953177D01*
X183673258Y-91492645D01*
X183727680Y-91460606D01*
X183763456Y-91459697D01*
X183763456Y-91456000D01*
X185228000Y-91456000D01*
X185291000Y-91472881D01*
X185337119Y-91519000D01*
X185354000Y-91582000D01*
X185354000Y-91838000D01*
X185337119Y-91901000D01*
X185291000Y-91947119D01*
X185228000Y-91964000D01*
X183777840Y-91964000D01*
X183766751Y-91966565D01*
X183766986Y-91977943D01*
X183809900Y-92147408D01*
X183813270Y-92157223D01*
X183899488Y-92353778D01*
X183904431Y-92362913D01*
X184021822Y-92542593D01*
X184028210Y-92550799D01*
X184173567Y-92708700D01*
X184181211Y-92715737D01*
X184350588Y-92847568D01*
X184359281Y-92853247D01*
X184388206Y-92868901D01*
X184436478Y-92915217D01*
X184454237Y-92979715D01*
X184436478Y-93044212D01*
X184388207Y-93090528D01*
X184376701Y-93096755D01*
X184359000Y-93106334D01*
X184358994Y-93106337D01*
X184354424Y-93108811D01*
X184350313Y-93112010D01*
X184350311Y-93112012D01*
X184180878Y-93243888D01*
X184180872Y-93243893D01*
X184176760Y-93247094D01*
X184173237Y-93250919D01*
X184173227Y-93250930D01*
X184027806Y-93408899D01*
X184027802Y-93408902D01*
X184024278Y-93412732D01*
X184021430Y-93417090D01*
X184021427Y-93417095D01*
X183903992Y-93596843D01*
X183901140Y-93601209D01*
X183899048Y-93605978D01*
X183899046Y-93605982D01*
X183812799Y-93802606D01*
X183812796Y-93802614D01*
X183810704Y-93807384D01*
X183755436Y-94025632D01*
X183755006Y-94030820D01*
X183755005Y-94030827D01*
X183744037Y-94163190D01*
X183736844Y-94250000D01*
X183737274Y-94255189D01*
X183747101Y-94373790D01*
X183755436Y-94474368D01*
X183810704Y-94692616D01*
X183901140Y-94898791D01*
X184024278Y-95087268D01*
X184027806Y-95091100D01*
X184173227Y-95249069D01*
X184173231Y-95249073D01*
X184176760Y-95252906D01*
X184354424Y-95391189D01*
X184552426Y-95498342D01*
X184557355Y-95500034D01*
X184557357Y-95500035D01*
X184658895Y-95534893D01*
X184765365Y-95571444D01*
X184987431Y-95608500D01*
X185207358Y-95608500D01*
X185212569Y-95608500D01*
X185434635Y-95571444D01*
X185647574Y-95498342D01*
X185845576Y-95391189D01*
X186023240Y-95252906D01*
X186175722Y-95087268D01*
X186298860Y-94898791D01*
X186389296Y-94692616D01*
X186444564Y-94474368D01*
X186447930Y-94433746D01*
X186468977Y-94373790D01*
X186516607Y-94331728D01*
X186578707Y-94318260D01*
X186639483Y-94336810D01*
X186683477Y-94382661D01*
X186699500Y-94444152D01*
X186699500Y-106123500D01*
X186682619Y-106186500D01*
X186636500Y-106232619D01*
X186573500Y-106249500D01*
X103926500Y-106249500D01*
X103863500Y-106232619D01*
X103817381Y-106186500D01*
X103800500Y-106123500D01*
X103800500Y-103046820D01*
X106517835Y-103046820D01*
X106525850Y-103058267D01*
X106764929Y-103251869D01*
X106770272Y-103255751D01*
X107090685Y-103463830D01*
X107096394Y-103467126D01*
X107436811Y-103640578D01*
X107442835Y-103643260D01*
X107799501Y-103780170D01*
X107805784Y-103782212D01*
X108174815Y-103881094D01*
X108181265Y-103882465D01*
X108558629Y-103942233D01*
X108565167Y-103942920D01*
X108946699Y-103962916D01*
X108953301Y-103962916D01*
X109334832Y-103942920D01*
X109341370Y-103942233D01*
X109718734Y-103882465D01*
X109725184Y-103881094D01*
X110094215Y-103782212D01*
X110100498Y-103780170D01*
X110457164Y-103643260D01*
X110463188Y-103640578D01*
X110803605Y-103467126D01*
X110809314Y-103463830D01*
X111129728Y-103255751D01*
X111135064Y-103251874D01*
X111374150Y-103058265D01*
X111382164Y-103046821D01*
X111375389Y-103034599D01*
X108961729Y-100620939D01*
X108950000Y-100614167D01*
X108938270Y-100620939D01*
X106524609Y-103034599D01*
X106517835Y-103046820D01*
X103800500Y-103046820D01*
X103800500Y-100253301D01*
X105237084Y-100253301D01*
X105257079Y-100634832D01*
X105257766Y-100641370D01*
X105317534Y-101018734D01*
X105318905Y-101025184D01*
X105417787Y-101394215D01*
X105419829Y-101400498D01*
X105556739Y-101757164D01*
X105559421Y-101763188D01*
X105732873Y-102103605D01*
X105736169Y-102109314D01*
X105944248Y-102429727D01*
X105948130Y-102435070D01*
X106141731Y-102674148D01*
X106153178Y-102682163D01*
X106165399Y-102675389D01*
X108579060Y-100261729D01*
X108585832Y-100250000D01*
X109314167Y-100250000D01*
X109320939Y-100261729D01*
X111734599Y-102675389D01*
X111746821Y-102682164D01*
X111758265Y-102674150D01*
X111951874Y-102435064D01*
X111955751Y-102429728D01*
X112163830Y-102109314D01*
X112167126Y-102103605D01*
X112173261Y-102091565D01*
X126571751Y-102091565D01*
X126571986Y-102102943D01*
X126614900Y-102272408D01*
X126618270Y-102282223D01*
X126704488Y-102478778D01*
X126709431Y-102487913D01*
X126826822Y-102667593D01*
X126833210Y-102675799D01*
X126978567Y-102833700D01*
X126986211Y-102840737D01*
X127155588Y-102972568D01*
X127164281Y-102978247D01*
X127353042Y-103080400D01*
X127362559Y-103084575D01*
X127565557Y-103154264D01*
X127575627Y-103156814D01*
X127637461Y-103167132D01*
X127648598Y-103166556D01*
X127651000Y-103155664D01*
X127651000Y-102105590D01*
X127647493Y-102092506D01*
X127634410Y-102089000D01*
X126582840Y-102089000D01*
X126571751Y-102091565D01*
X112173261Y-102091565D01*
X112340578Y-101763188D01*
X112343260Y-101757164D01*
X112480170Y-101400498D01*
X112482212Y-101394215D01*
X112581094Y-101025184D01*
X112582465Y-101018734D01*
X112642233Y-100641370D01*
X112642920Y-100634832D01*
X112662916Y-100253301D01*
X112662916Y-100246699D01*
X112642920Y-99865167D01*
X112642233Y-99858629D01*
X112582465Y-99481265D01*
X112581094Y-99474815D01*
X112532913Y-99295000D01*
X122731844Y-99295000D01*
X122732274Y-99300189D01*
X122747278Y-99481265D01*
X122750436Y-99519368D01*
X122805704Y-99737616D01*
X122807797Y-99742389D01*
X122807799Y-99742393D01*
X122867747Y-99879060D01*
X122896140Y-99943791D01*
X123019278Y-100132268D01*
X123022806Y-100136100D01*
X123168227Y-100294069D01*
X123168231Y-100294073D01*
X123171760Y-100297906D01*
X123349424Y-100436189D01*
X123547426Y-100543342D01*
X123552355Y-100545034D01*
X123552357Y-100545035D01*
X123653895Y-100579892D01*
X123760365Y-100616444D01*
X123982431Y-100653500D01*
X124202358Y-100653500D01*
X124207569Y-100653500D01*
X124429635Y-100616444D01*
X124642574Y-100543342D01*
X124840576Y-100436189D01*
X125018240Y-100297906D01*
X125170722Y-100132268D01*
X125259518Y-99996354D01*
X125305030Y-99954457D01*
X125365000Y-99939271D01*
X125424970Y-99954457D01*
X125470481Y-99996354D01*
X125559278Y-100132268D01*
X125562806Y-100136100D01*
X125708227Y-100294069D01*
X125708231Y-100294073D01*
X125711760Y-100297906D01*
X125889424Y-100436189D01*
X126087426Y-100543342D01*
X126092355Y-100545034D01*
X126092357Y-100545035D01*
X126193895Y-100579892D01*
X126300365Y-100616444D01*
X126522431Y-100653500D01*
X126742358Y-100653500D01*
X126747569Y-100653500D01*
X126752715Y-100652641D01*
X126752718Y-100652641D01*
X126857294Y-100635191D01*
X126918945Y-100640299D01*
X126970734Y-100674134D01*
X127000177Y-100728541D01*
X127000178Y-100790403D01*
X126970735Y-100844809D01*
X126833205Y-100994207D01*
X126826822Y-101002406D01*
X126709431Y-101182086D01*
X126704488Y-101191221D01*
X126618270Y-101387776D01*
X126614900Y-101397591D01*
X126571986Y-101567056D01*
X126571751Y-101578434D01*
X126582840Y-101581000D01*
X127634410Y-101581000D01*
X127647493Y-101577493D01*
X127651000Y-101564410D01*
X127651000Y-100514336D01*
X127648529Y-100503131D01*
X127583127Y-100480393D01*
X127539423Y-100425275D01*
X127532077Y-100355317D01*
X127563378Y-100292324D01*
X127710722Y-100132268D01*
X127799518Y-99996354D01*
X127845030Y-99954457D01*
X127905000Y-99939271D01*
X127964970Y-99954457D01*
X128010481Y-99996354D01*
X128099278Y-100132268D01*
X128102806Y-100136100D01*
X128246620Y-100292323D01*
X128277922Y-100355317D01*
X128270576Y-100425275D01*
X128226872Y-100480393D01*
X128161470Y-100503131D01*
X128159000Y-100514336D01*
X128159000Y-103155664D01*
X128161401Y-103166556D01*
X128172538Y-103167132D01*
X128234372Y-103156814D01*
X128244442Y-103154264D01*
X128447440Y-103084575D01*
X128456957Y-103080400D01*
X128645718Y-102978247D01*
X128654411Y-102972568D01*
X128823788Y-102840737D01*
X128831432Y-102833700D01*
X128976789Y-102675799D01*
X128983181Y-102667587D01*
X129069218Y-102535899D01*
X129114732Y-102494000D01*
X129174701Y-102478814D01*
X129234670Y-102494000D01*
X129280183Y-102535898D01*
X129369278Y-102672268D01*
X129372806Y-102676100D01*
X129518227Y-102834069D01*
X129518231Y-102834073D01*
X129521760Y-102837906D01*
X129699424Y-102976189D01*
X129897426Y-103083342D01*
X129902355Y-103085034D01*
X129902357Y-103085035D01*
X129972593Y-103109147D01*
X130110365Y-103156444D01*
X130332431Y-103193500D01*
X130552358Y-103193500D01*
X130557569Y-103193500D01*
X130779635Y-103156444D01*
X130992574Y-103083342D01*
X131190576Y-102976189D01*
X131368240Y-102837906D01*
X131520722Y-102672268D01*
X131609518Y-102536354D01*
X131655030Y-102494457D01*
X131715000Y-102479271D01*
X131774970Y-102494457D01*
X131820481Y-102536354D01*
X131909278Y-102672268D01*
X131912806Y-102676100D01*
X132058227Y-102834069D01*
X132058231Y-102834073D01*
X132061760Y-102837906D01*
X132239424Y-102976189D01*
X132437426Y-103083342D01*
X132442355Y-103085034D01*
X132442357Y-103085035D01*
X132512593Y-103109147D01*
X132650365Y-103156444D01*
X132872431Y-103193500D01*
X133092358Y-103193500D01*
X133097569Y-103193500D01*
X133319635Y-103156444D01*
X133532574Y-103083342D01*
X133730576Y-102976189D01*
X133908240Y-102837906D01*
X134060722Y-102672268D01*
X134149518Y-102536354D01*
X134195030Y-102494457D01*
X134255000Y-102479271D01*
X134314970Y-102494457D01*
X134360481Y-102536354D01*
X134449278Y-102672268D01*
X134452806Y-102676100D01*
X134598227Y-102834069D01*
X134598231Y-102834073D01*
X134601760Y-102837906D01*
X134779424Y-102976189D01*
X134977426Y-103083342D01*
X134982355Y-103085034D01*
X134982357Y-103085035D01*
X135052593Y-103109147D01*
X135190365Y-103156444D01*
X135412431Y-103193500D01*
X135632358Y-103193500D01*
X135637569Y-103193500D01*
X135859635Y-103156444D01*
X136072574Y-103083342D01*
X136270576Y-102976189D01*
X136448240Y-102837906D01*
X136600722Y-102672268D01*
X136689518Y-102536354D01*
X136735030Y-102494457D01*
X136795000Y-102479271D01*
X136854970Y-102494457D01*
X136900481Y-102536354D01*
X136989278Y-102672268D01*
X136992806Y-102676100D01*
X137138227Y-102834069D01*
X137138231Y-102834073D01*
X137141760Y-102837906D01*
X137319424Y-102976189D01*
X137517426Y-103083342D01*
X137522355Y-103085034D01*
X137522357Y-103085035D01*
X137592593Y-103109147D01*
X137730365Y-103156444D01*
X137952431Y-103193500D01*
X138172358Y-103193500D01*
X138177569Y-103193500D01*
X138399635Y-103156444D01*
X138612574Y-103083342D01*
X138810576Y-102976189D01*
X138988240Y-102837906D01*
X139140722Y-102672268D01*
X139263860Y-102483791D01*
X139354296Y-102277616D01*
X139401411Y-102091565D01*
X156081751Y-102091565D01*
X156081986Y-102102943D01*
X156124900Y-102272408D01*
X156128270Y-102282223D01*
X156214488Y-102478778D01*
X156219431Y-102487913D01*
X156336822Y-102667593D01*
X156343210Y-102675799D01*
X156488567Y-102833700D01*
X156496211Y-102840737D01*
X156665588Y-102972568D01*
X156674281Y-102978247D01*
X156863042Y-103080400D01*
X156872559Y-103084575D01*
X157075557Y-103154264D01*
X157085627Y-103156814D01*
X157147461Y-103167132D01*
X157158598Y-103166556D01*
X157161000Y-103155664D01*
X157161000Y-102105590D01*
X157157493Y-102092506D01*
X157144410Y-102089000D01*
X156092840Y-102089000D01*
X156081751Y-102091565D01*
X139401411Y-102091565D01*
X139409564Y-102059368D01*
X139428156Y-101835000D01*
X139409564Y-101610632D01*
X139354296Y-101392384D01*
X139263860Y-101186209D01*
X139140722Y-100997732D01*
X139000068Y-100844943D01*
X138970626Y-100790538D01*
X138970625Y-100728675D01*
X139000069Y-100674269D01*
X139051858Y-100640433D01*
X139113509Y-100635325D01*
X139217281Y-100652641D01*
X139217285Y-100652641D01*
X139222431Y-100653500D01*
X139442358Y-100653500D01*
X139447569Y-100653500D01*
X139669635Y-100616444D01*
X139882574Y-100543342D01*
X140080576Y-100436189D01*
X140258240Y-100297906D01*
X140410722Y-100132268D01*
X140499518Y-99996354D01*
X140545030Y-99954457D01*
X140605000Y-99939271D01*
X140664970Y-99954457D01*
X140710481Y-99996354D01*
X140799278Y-100132268D01*
X140802806Y-100136100D01*
X140948227Y-100294069D01*
X140948231Y-100294073D01*
X140951760Y-100297906D01*
X141129424Y-100436189D01*
X141327426Y-100543342D01*
X141332355Y-100545034D01*
X141332357Y-100545035D01*
X141433895Y-100579892D01*
X141540365Y-100616444D01*
X141762431Y-100653500D01*
X141982358Y-100653500D01*
X141987569Y-100653500D01*
X142209635Y-100616444D01*
X142422574Y-100543342D01*
X142620576Y-100436189D01*
X142798240Y-100297906D01*
X142950722Y-100132268D01*
X143073860Y-99943791D01*
X143164296Y-99737616D01*
X143219564Y-99519368D01*
X143238156Y-99295000D01*
X152241844Y-99295000D01*
X152242274Y-99300189D01*
X152257278Y-99481265D01*
X152260436Y-99519368D01*
X152315704Y-99737616D01*
X152317797Y-99742389D01*
X152317799Y-99742393D01*
X152377747Y-99879060D01*
X152406140Y-99943791D01*
X152529278Y-100132268D01*
X152532806Y-100136100D01*
X152678227Y-100294069D01*
X152678231Y-100294073D01*
X152681760Y-100297906D01*
X152859424Y-100436189D01*
X153057426Y-100543342D01*
X153062355Y-100545034D01*
X153062357Y-100545035D01*
X153163895Y-100579892D01*
X153270365Y-100616444D01*
X153492431Y-100653500D01*
X153712358Y-100653500D01*
X153717569Y-100653500D01*
X153939635Y-100616444D01*
X154152574Y-100543342D01*
X154350576Y-100436189D01*
X154528240Y-100297906D01*
X154680722Y-100132268D01*
X154769518Y-99996354D01*
X154815030Y-99954457D01*
X154875000Y-99939271D01*
X154934970Y-99954457D01*
X154980481Y-99996354D01*
X155069278Y-100132268D01*
X155072806Y-100136100D01*
X155218227Y-100294069D01*
X155218231Y-100294073D01*
X155221760Y-100297906D01*
X155399424Y-100436189D01*
X155597426Y-100543342D01*
X155602355Y-100545034D01*
X155602357Y-100545035D01*
X155703895Y-100579892D01*
X155810365Y-100616444D01*
X156032431Y-100653500D01*
X156252358Y-100653500D01*
X156257569Y-100653500D01*
X156262715Y-100652641D01*
X156262718Y-100652641D01*
X156367294Y-100635191D01*
X156428945Y-100640299D01*
X156480734Y-100674134D01*
X156510177Y-100728541D01*
X156510178Y-100790403D01*
X156480735Y-100844809D01*
X156343205Y-100994207D01*
X156336822Y-101002406D01*
X156219431Y-101182086D01*
X156214488Y-101191221D01*
X156128270Y-101387776D01*
X156124900Y-101397591D01*
X156081986Y-101567056D01*
X156081751Y-101578434D01*
X156092840Y-101581000D01*
X157144410Y-101581000D01*
X157157493Y-101577493D01*
X157161000Y-101564410D01*
X157161000Y-100514336D01*
X157158529Y-100503131D01*
X157093127Y-100480393D01*
X157049423Y-100425275D01*
X157042077Y-100355317D01*
X157073378Y-100292324D01*
X157220722Y-100132268D01*
X157309518Y-99996354D01*
X157355030Y-99954457D01*
X157415000Y-99939271D01*
X157474970Y-99954457D01*
X157520481Y-99996354D01*
X157609278Y-100132268D01*
X157612806Y-100136100D01*
X157756620Y-100292323D01*
X157787922Y-100355317D01*
X157780576Y-100425275D01*
X157736872Y-100480393D01*
X157671470Y-100503131D01*
X157669000Y-100514336D01*
X157669000Y-103155664D01*
X157671401Y-103166556D01*
X157682538Y-103167132D01*
X157744372Y-103156814D01*
X157754442Y-103154264D01*
X157957440Y-103084575D01*
X157966957Y-103080400D01*
X158155718Y-102978247D01*
X158164411Y-102972568D01*
X158333788Y-102840737D01*
X158341432Y-102833700D01*
X158486789Y-102675799D01*
X158493181Y-102667587D01*
X158579218Y-102535899D01*
X158624732Y-102494000D01*
X158684701Y-102478814D01*
X158744670Y-102494000D01*
X158790183Y-102535898D01*
X158879278Y-102672268D01*
X158882806Y-102676100D01*
X159028227Y-102834069D01*
X159028231Y-102834073D01*
X159031760Y-102837906D01*
X159209424Y-102976189D01*
X159407426Y-103083342D01*
X159412355Y-103085034D01*
X159412357Y-103085035D01*
X159482593Y-103109147D01*
X159620365Y-103156444D01*
X159842431Y-103193500D01*
X160062358Y-103193500D01*
X160067569Y-103193500D01*
X160289635Y-103156444D01*
X160502574Y-103083342D01*
X160700576Y-102976189D01*
X160878240Y-102837906D01*
X161030722Y-102672268D01*
X161119518Y-102536354D01*
X161165030Y-102494457D01*
X161225000Y-102479271D01*
X161284970Y-102494457D01*
X161330481Y-102536354D01*
X161419278Y-102672268D01*
X161422806Y-102676100D01*
X161568227Y-102834069D01*
X161568231Y-102834073D01*
X161571760Y-102837906D01*
X161749424Y-102976189D01*
X161947426Y-103083342D01*
X161952355Y-103085034D01*
X161952357Y-103085035D01*
X162022593Y-103109147D01*
X162160365Y-103156444D01*
X162382431Y-103193500D01*
X162602358Y-103193500D01*
X162607569Y-103193500D01*
X162829635Y-103156444D01*
X163042574Y-103083342D01*
X163240576Y-102976189D01*
X163418240Y-102837906D01*
X163570722Y-102672268D01*
X163659817Y-102535896D01*
X163705328Y-102494001D01*
X163765297Y-102478814D01*
X163825267Y-102494000D01*
X163870781Y-102535898D01*
X163956822Y-102667592D01*
X163963210Y-102675799D01*
X164108567Y-102833700D01*
X164116211Y-102840737D01*
X164285588Y-102972568D01*
X164294281Y-102978247D01*
X164483042Y-103080400D01*
X164492559Y-103084575D01*
X164695557Y-103154264D01*
X164705627Y-103156814D01*
X164767461Y-103167132D01*
X164778598Y-103166556D01*
X164781000Y-103155664D01*
X165289000Y-103155664D01*
X165291401Y-103166556D01*
X165302538Y-103167132D01*
X165364372Y-103156814D01*
X165374442Y-103154264D01*
X165577440Y-103084575D01*
X165586957Y-103080400D01*
X165775718Y-102978247D01*
X165784411Y-102972568D01*
X165953788Y-102840737D01*
X165961432Y-102833700D01*
X166106789Y-102675799D01*
X166113177Y-102667593D01*
X166199517Y-102535441D01*
X166245031Y-102493543D01*
X166305000Y-102478357D01*
X166364969Y-102493543D01*
X166410483Y-102535441D01*
X166496822Y-102667593D01*
X166503210Y-102675799D01*
X166648567Y-102833700D01*
X166656211Y-102840737D01*
X166825588Y-102972568D01*
X166834281Y-102978247D01*
X167023042Y-103080400D01*
X167032559Y-103084575D01*
X167235557Y-103154264D01*
X167245627Y-103156814D01*
X167307461Y-103167132D01*
X167318598Y-103166556D01*
X167321000Y-103155664D01*
X167829000Y-103155664D01*
X167831401Y-103166556D01*
X167842538Y-103167132D01*
X167904372Y-103156814D01*
X167914442Y-103154264D01*
X168117440Y-103084575D01*
X168126957Y-103080400D01*
X168315718Y-102978247D01*
X168324411Y-102972568D01*
X168493788Y-102840737D01*
X168501432Y-102833700D01*
X168646789Y-102675799D01*
X168653177Y-102667593D01*
X168770568Y-102487913D01*
X168775511Y-102478778D01*
X168861729Y-102282223D01*
X168865099Y-102272408D01*
X168908013Y-102102943D01*
X168908248Y-102091565D01*
X168897160Y-102089000D01*
X167845590Y-102089000D01*
X167832506Y-102092506D01*
X167829000Y-102105590D01*
X167829000Y-103155664D01*
X167321000Y-103155664D01*
X167321000Y-102105590D01*
X167317493Y-102092506D01*
X167304410Y-102089000D01*
X165305590Y-102089000D01*
X165292506Y-102092506D01*
X165289000Y-102105590D01*
X165289000Y-103155664D01*
X164781000Y-103155664D01*
X164781000Y-100514336D01*
X164778529Y-100503131D01*
X164713127Y-100480393D01*
X164669423Y-100425275D01*
X164662077Y-100355317D01*
X164693378Y-100292324D01*
X164840722Y-100132268D01*
X164929817Y-99995896D01*
X164975328Y-99954001D01*
X165035297Y-99938814D01*
X165095267Y-99954000D01*
X165140781Y-99995898D01*
X165226822Y-100127592D01*
X165233210Y-100135799D01*
X165377270Y-100292290D01*
X165408572Y-100355283D01*
X165401226Y-100425240D01*
X165357523Y-100480358D01*
X165291424Y-100503339D01*
X165289000Y-100514336D01*
X165289000Y-101564410D01*
X165292506Y-101577493D01*
X165305590Y-101581000D01*
X167304410Y-101581000D01*
X167317493Y-101577493D01*
X167321000Y-101564410D01*
X167321000Y-100514336D01*
X167318575Y-100503340D01*
X167252476Y-100480358D01*
X167208773Y-100425240D01*
X167201427Y-100355283D01*
X167232729Y-100292289D01*
X167376794Y-100135792D01*
X167383181Y-100127587D01*
X167469218Y-99995899D01*
X167514732Y-99954000D01*
X167574701Y-99938814D01*
X167634670Y-99954000D01*
X167680183Y-99995898D01*
X167769278Y-100132268D01*
X167772806Y-100136100D01*
X167916620Y-100292323D01*
X167947922Y-100355317D01*
X167940576Y-100425275D01*
X167896872Y-100480393D01*
X167831470Y-100503131D01*
X167829000Y-100514336D01*
X167829000Y-101564410D01*
X167832506Y-101577493D01*
X167845590Y-101581000D01*
X168897160Y-101581000D01*
X168908248Y-101578434D01*
X168908013Y-101567056D01*
X168865099Y-101397591D01*
X168861729Y-101387776D01*
X168775511Y-101191221D01*
X168770568Y-101182086D01*
X168653177Y-101002406D01*
X168646789Y-100994200D01*
X168509265Y-100844809D01*
X168479822Y-100790403D01*
X168479822Y-100728541D01*
X168509265Y-100674135D01*
X168561054Y-100640299D01*
X168622704Y-100635190D01*
X168732431Y-100653500D01*
X168952358Y-100653500D01*
X168957569Y-100653500D01*
X169179635Y-100616444D01*
X169392574Y-100543342D01*
X169590576Y-100436189D01*
X169768240Y-100297906D01*
X169920722Y-100132268D01*
X170009817Y-99995896D01*
X170055328Y-99954001D01*
X170115297Y-99938814D01*
X170175267Y-99954000D01*
X170220781Y-99995898D01*
X170306822Y-100127592D01*
X170313210Y-100135799D01*
X170458567Y-100293700D01*
X170466211Y-100300737D01*
X170635588Y-100432568D01*
X170644281Y-100438247D01*
X170833042Y-100540400D01*
X170842559Y-100544575D01*
X171045557Y-100614264D01*
X171055627Y-100616814D01*
X171117461Y-100627132D01*
X171128598Y-100626556D01*
X171131000Y-100615664D01*
X171131000Y-97974336D01*
X171128598Y-97963443D01*
X171117461Y-97962867D01*
X171055627Y-97973185D01*
X171045557Y-97975735D01*
X170842559Y-98045424D01*
X170833042Y-98049599D01*
X170644281Y-98151752D01*
X170635588Y-98157431D01*
X170466211Y-98289262D01*
X170458567Y-98296299D01*
X170313210Y-98454200D01*
X170306816Y-98462415D01*
X170220780Y-98594101D01*
X170175267Y-98635999D01*
X170115297Y-98651185D01*
X170055328Y-98635998D01*
X170009816Y-98594101D01*
X169920722Y-98457732D01*
X169859001Y-98390686D01*
X169771772Y-98295930D01*
X169771767Y-98295925D01*
X169768240Y-98292094D01*
X169590576Y-98153811D01*
X169585997Y-98151333D01*
X169585994Y-98151331D01*
X169397159Y-98049139D01*
X169397156Y-98049137D01*
X169392574Y-98046658D01*
X169387650Y-98044967D01*
X169387642Y-98044964D01*
X169184565Y-97975248D01*
X169184559Y-97975246D01*
X169179635Y-97973556D01*
X169174498Y-97972698D01*
X169174495Y-97972698D01*
X168962706Y-97937357D01*
X168962703Y-97937356D01*
X168957569Y-97936500D01*
X168732431Y-97936500D01*
X168727297Y-97937356D01*
X168727293Y-97937357D01*
X168515504Y-97972698D01*
X168515498Y-97972699D01*
X168510365Y-97973556D01*
X168505443Y-97975245D01*
X168505434Y-97975248D01*
X168302357Y-98044964D01*
X168302344Y-98044969D01*
X168297426Y-98046658D01*
X168292847Y-98049135D01*
X168292840Y-98049139D01*
X168104005Y-98151331D01*
X168103997Y-98151336D01*
X168099424Y-98153811D01*
X168095313Y-98157010D01*
X168095311Y-98157012D01*
X167925878Y-98288888D01*
X167925872Y-98288893D01*
X167921760Y-98292094D01*
X167918237Y-98295919D01*
X167918227Y-98295930D01*
X167772806Y-98453899D01*
X167772802Y-98453902D01*
X167769278Y-98457732D01*
X167680184Y-98594101D01*
X167634670Y-98635999D01*
X167574701Y-98651185D01*
X167514732Y-98635999D01*
X167469218Y-98594101D01*
X167383177Y-98462407D01*
X167376789Y-98454200D01*
X167231432Y-98296299D01*
X167223788Y-98289262D01*
X167054411Y-98157431D01*
X167045718Y-98151752D01*
X166856957Y-98049599D01*
X166847440Y-98045424D01*
X166644442Y-97975735D01*
X166634372Y-97973185D01*
X166572538Y-97962867D01*
X166561401Y-97963443D01*
X166559000Y-97974336D01*
X166559000Y-100615664D01*
X166561424Y-100626660D01*
X166627520Y-100649639D01*
X166671226Y-100704756D01*
X166678572Y-100774715D01*
X166647271Y-100837709D01*
X166503205Y-100994207D01*
X166496822Y-101002407D01*
X166410483Y-101134558D01*
X166364969Y-101176456D01*
X166305000Y-101191642D01*
X166245031Y-101176456D01*
X166199517Y-101134558D01*
X166113177Y-101002407D01*
X166106789Y-100994200D01*
X165962729Y-100837709D01*
X165931427Y-100774715D01*
X165938773Y-100704756D01*
X165982479Y-100649639D01*
X166048575Y-100626660D01*
X166051000Y-100615664D01*
X166051000Y-97974336D01*
X166048598Y-97963443D01*
X166037461Y-97962867D01*
X165975627Y-97973185D01*
X165965557Y-97975735D01*
X165762559Y-98045424D01*
X165753042Y-98049599D01*
X165564281Y-98151752D01*
X165555588Y-98157431D01*
X165386211Y-98289262D01*
X165378567Y-98296299D01*
X165233210Y-98454200D01*
X165226816Y-98462415D01*
X165140780Y-98594101D01*
X165095267Y-98635999D01*
X165035297Y-98651185D01*
X164975328Y-98635998D01*
X164929816Y-98594101D01*
X164840722Y-98457732D01*
X164779001Y-98390686D01*
X164691772Y-98295930D01*
X164691767Y-98295925D01*
X164688240Y-98292094D01*
X164510576Y-98153811D01*
X164505997Y-98151333D01*
X164505994Y-98151331D01*
X164317159Y-98049139D01*
X164317156Y-98049137D01*
X164312574Y-98046658D01*
X164307650Y-98044967D01*
X164307642Y-98044964D01*
X164104565Y-97975248D01*
X164104559Y-97975246D01*
X164099635Y-97973556D01*
X164094498Y-97972698D01*
X164094495Y-97972698D01*
X163882706Y-97937357D01*
X163882703Y-97937356D01*
X163877569Y-97936500D01*
X163652431Y-97936500D01*
X163647297Y-97937356D01*
X163647293Y-97937357D01*
X163435504Y-97972698D01*
X163435498Y-97972699D01*
X163430365Y-97973556D01*
X163425443Y-97975245D01*
X163425434Y-97975248D01*
X163222357Y-98044964D01*
X163222344Y-98044969D01*
X163217426Y-98046658D01*
X163212847Y-98049135D01*
X163212840Y-98049139D01*
X163024005Y-98151331D01*
X163023997Y-98151336D01*
X163019424Y-98153811D01*
X163015313Y-98157010D01*
X163015311Y-98157012D01*
X162845878Y-98288888D01*
X162845872Y-98288893D01*
X162841760Y-98292094D01*
X162838237Y-98295919D01*
X162838227Y-98295930D01*
X162692806Y-98453899D01*
X162692802Y-98453902D01*
X162689278Y-98457732D01*
X162686430Y-98462090D01*
X162686427Y-98462095D01*
X162600483Y-98593643D01*
X162554969Y-98635542D01*
X162495000Y-98650728D01*
X162435031Y-98635542D01*
X162389517Y-98593643D01*
X162383827Y-98584934D01*
X162300722Y-98457732D01*
X162239001Y-98390686D01*
X162151772Y-98295930D01*
X162151767Y-98295925D01*
X162148240Y-98292094D01*
X161970576Y-98153811D01*
X161965997Y-98151333D01*
X161965994Y-98151331D01*
X161777159Y-98049139D01*
X161777156Y-98049137D01*
X161772574Y-98046658D01*
X161767650Y-98044967D01*
X161767642Y-98044964D01*
X161564565Y-97975248D01*
X161564559Y-97975246D01*
X161559635Y-97973556D01*
X161554498Y-97972698D01*
X161554495Y-97972698D01*
X161342706Y-97937357D01*
X161342703Y-97937356D01*
X161337569Y-97936500D01*
X161112431Y-97936500D01*
X161107297Y-97937356D01*
X161107293Y-97937357D01*
X160895504Y-97972698D01*
X160895498Y-97972699D01*
X160890365Y-97973556D01*
X160885443Y-97975245D01*
X160885434Y-97975248D01*
X160682357Y-98044964D01*
X160682344Y-98044969D01*
X160677426Y-98046658D01*
X160672847Y-98049135D01*
X160672840Y-98049139D01*
X160484005Y-98151331D01*
X160483997Y-98151336D01*
X160479424Y-98153811D01*
X160475313Y-98157010D01*
X160475311Y-98157012D01*
X160305878Y-98288888D01*
X160305872Y-98288893D01*
X160301760Y-98292094D01*
X160298237Y-98295919D01*
X160298227Y-98295930D01*
X160152806Y-98453899D01*
X160152802Y-98453902D01*
X160149278Y-98457732D01*
X160146430Y-98462090D01*
X160146427Y-98462095D01*
X160060483Y-98593643D01*
X160014969Y-98635542D01*
X159955000Y-98650728D01*
X159895031Y-98635542D01*
X159849517Y-98593643D01*
X159843827Y-98584934D01*
X159760722Y-98457732D01*
X159699001Y-98390686D01*
X159611772Y-98295930D01*
X159611767Y-98295925D01*
X159608240Y-98292094D01*
X159430576Y-98153811D01*
X159425997Y-98151333D01*
X159425994Y-98151331D01*
X159237159Y-98049139D01*
X159237156Y-98049137D01*
X159232574Y-98046658D01*
X159227650Y-98044967D01*
X159227642Y-98044964D01*
X159024565Y-97975248D01*
X159024559Y-97975246D01*
X159019635Y-97973556D01*
X159014498Y-97972698D01*
X159014495Y-97972698D01*
X158802706Y-97937357D01*
X158802703Y-97937356D01*
X158797569Y-97936500D01*
X158572431Y-97936500D01*
X158567297Y-97937356D01*
X158567293Y-97937357D01*
X158355504Y-97972698D01*
X158355498Y-97972699D01*
X158350365Y-97973556D01*
X158345443Y-97975245D01*
X158345434Y-97975248D01*
X158142357Y-98044964D01*
X158142344Y-98044969D01*
X158137426Y-98046658D01*
X158132847Y-98049135D01*
X158132840Y-98049139D01*
X157944005Y-98151331D01*
X157943997Y-98151336D01*
X157939424Y-98153811D01*
X157935313Y-98157010D01*
X157935311Y-98157012D01*
X157765878Y-98288888D01*
X157765872Y-98288893D01*
X157761760Y-98292094D01*
X157758237Y-98295919D01*
X157758227Y-98295930D01*
X157612806Y-98453899D01*
X157612802Y-98453902D01*
X157609278Y-98457732D01*
X157606430Y-98462090D01*
X157606427Y-98462095D01*
X157520483Y-98593643D01*
X157474969Y-98635542D01*
X157415000Y-98650728D01*
X157355031Y-98635542D01*
X157309517Y-98593643D01*
X157303827Y-98584934D01*
X157220722Y-98457732D01*
X157159001Y-98390686D01*
X157071772Y-98295930D01*
X157071767Y-98295925D01*
X157068240Y-98292094D01*
X156890576Y-98153811D01*
X156885997Y-98151333D01*
X156885994Y-98151331D01*
X156697159Y-98049139D01*
X156697156Y-98049137D01*
X156692574Y-98046658D01*
X156687650Y-98044967D01*
X156687642Y-98044964D01*
X156484565Y-97975248D01*
X156484559Y-97975246D01*
X156479635Y-97973556D01*
X156474498Y-97972698D01*
X156474495Y-97972698D01*
X156262706Y-97937357D01*
X156262703Y-97937356D01*
X156257569Y-97936500D01*
X156032431Y-97936500D01*
X156027297Y-97937356D01*
X156027293Y-97937357D01*
X155815504Y-97972698D01*
X155815498Y-97972699D01*
X155810365Y-97973556D01*
X155805443Y-97975245D01*
X155805434Y-97975248D01*
X155602357Y-98044964D01*
X155602344Y-98044969D01*
X155597426Y-98046658D01*
X155592847Y-98049135D01*
X155592840Y-98049139D01*
X155404005Y-98151331D01*
X155403997Y-98151336D01*
X155399424Y-98153811D01*
X155395313Y-98157010D01*
X155395311Y-98157012D01*
X155225878Y-98288888D01*
X155225872Y-98288893D01*
X155221760Y-98292094D01*
X155218237Y-98295919D01*
X155218227Y-98295930D01*
X155072806Y-98453899D01*
X155072802Y-98453902D01*
X155069278Y-98457732D01*
X155066430Y-98462090D01*
X155066427Y-98462095D01*
X154980483Y-98593643D01*
X154934969Y-98635542D01*
X154875000Y-98650728D01*
X154815031Y-98635542D01*
X154769517Y-98593643D01*
X154763827Y-98584934D01*
X154680722Y-98457732D01*
X154619001Y-98390686D01*
X154531772Y-98295930D01*
X154531767Y-98295925D01*
X154528240Y-98292094D01*
X154350576Y-98153811D01*
X154345997Y-98151333D01*
X154345994Y-98151331D01*
X154157159Y-98049139D01*
X154157156Y-98049137D01*
X154152574Y-98046658D01*
X154147650Y-98044967D01*
X154147642Y-98044964D01*
X153944565Y-97975248D01*
X153944559Y-97975246D01*
X153939635Y-97973556D01*
X153934498Y-97972698D01*
X153934495Y-97972698D01*
X153722706Y-97937357D01*
X153722703Y-97937356D01*
X153717569Y-97936500D01*
X153492431Y-97936500D01*
X153487297Y-97937356D01*
X153487293Y-97937357D01*
X153275504Y-97972698D01*
X153275498Y-97972699D01*
X153270365Y-97973556D01*
X153265443Y-97975245D01*
X153265434Y-97975248D01*
X153062357Y-98044964D01*
X153062344Y-98044969D01*
X153057426Y-98046658D01*
X153052847Y-98049135D01*
X153052840Y-98049139D01*
X152864005Y-98151331D01*
X152863997Y-98151336D01*
X152859424Y-98153811D01*
X152855313Y-98157010D01*
X152855311Y-98157012D01*
X152685878Y-98288888D01*
X152685872Y-98288893D01*
X152681760Y-98292094D01*
X152678237Y-98295919D01*
X152678227Y-98295930D01*
X152532806Y-98453899D01*
X152532802Y-98453902D01*
X152529278Y-98457732D01*
X152526430Y-98462090D01*
X152526427Y-98462095D01*
X152408992Y-98641843D01*
X152406140Y-98646209D01*
X152404048Y-98650978D01*
X152404046Y-98650982D01*
X152317799Y-98847606D01*
X152317796Y-98847614D01*
X152315704Y-98852384D01*
X152314423Y-98857440D01*
X152314422Y-98857445D01*
X152263160Y-99059875D01*
X152260436Y-99070632D01*
X152260006Y-99075820D01*
X152260005Y-99075827D01*
X152257523Y-99105784D01*
X152241844Y-99295000D01*
X143238156Y-99295000D01*
X143219564Y-99070632D01*
X143164296Y-98852384D01*
X143073860Y-98646209D01*
X142950722Y-98457732D01*
X142889001Y-98390686D01*
X142801772Y-98295930D01*
X142801767Y-98295925D01*
X142798240Y-98292094D01*
X142620576Y-98153811D01*
X142615997Y-98151333D01*
X142615994Y-98151331D01*
X142427159Y-98049139D01*
X142427156Y-98049137D01*
X142422574Y-98046658D01*
X142417650Y-98044967D01*
X142417642Y-98044964D01*
X142214565Y-97975248D01*
X142214559Y-97975246D01*
X142209635Y-97973556D01*
X142204498Y-97972698D01*
X142204495Y-97972698D01*
X141992706Y-97937357D01*
X141992703Y-97937356D01*
X141987569Y-97936500D01*
X141762431Y-97936500D01*
X141757297Y-97937356D01*
X141757293Y-97937357D01*
X141545504Y-97972698D01*
X141545498Y-97972699D01*
X141540365Y-97973556D01*
X141535443Y-97975245D01*
X141535434Y-97975248D01*
X141332357Y-98044964D01*
X141332344Y-98044969D01*
X141327426Y-98046658D01*
X141322847Y-98049135D01*
X141322840Y-98049139D01*
X141134005Y-98151331D01*
X141133997Y-98151336D01*
X141129424Y-98153811D01*
X141125313Y-98157010D01*
X141125311Y-98157012D01*
X140955878Y-98288888D01*
X140955872Y-98288893D01*
X140951760Y-98292094D01*
X140948237Y-98295919D01*
X140948227Y-98295930D01*
X140802806Y-98453899D01*
X140802802Y-98453902D01*
X140799278Y-98457732D01*
X140796430Y-98462090D01*
X140796427Y-98462095D01*
X140710483Y-98593643D01*
X140664969Y-98635542D01*
X140605000Y-98650728D01*
X140545031Y-98635542D01*
X140499517Y-98593643D01*
X140493827Y-98584934D01*
X140410722Y-98457732D01*
X140349001Y-98390686D01*
X140261772Y-98295930D01*
X140261767Y-98295925D01*
X140258240Y-98292094D01*
X140080576Y-98153811D01*
X140075997Y-98151333D01*
X140075994Y-98151331D01*
X139887159Y-98049139D01*
X139887156Y-98049137D01*
X139882574Y-98046658D01*
X139877650Y-98044967D01*
X139877642Y-98044964D01*
X139674565Y-97975248D01*
X139674559Y-97975246D01*
X139669635Y-97973556D01*
X139664498Y-97972698D01*
X139664495Y-97972698D01*
X139452706Y-97937357D01*
X139452703Y-97937356D01*
X139447569Y-97936500D01*
X139222431Y-97936500D01*
X139217297Y-97937356D01*
X139217293Y-97937357D01*
X139005504Y-97972698D01*
X139005498Y-97972699D01*
X139000365Y-97973556D01*
X138995443Y-97975245D01*
X138995434Y-97975248D01*
X138792357Y-98044964D01*
X138792344Y-98044969D01*
X138787426Y-98046658D01*
X138782847Y-98049135D01*
X138782840Y-98049139D01*
X138594005Y-98151331D01*
X138593997Y-98151336D01*
X138589424Y-98153811D01*
X138585313Y-98157010D01*
X138585311Y-98157012D01*
X138415878Y-98288888D01*
X138415872Y-98288893D01*
X138411760Y-98292094D01*
X138408237Y-98295919D01*
X138408227Y-98295930D01*
X138262806Y-98453899D01*
X138262802Y-98453902D01*
X138259278Y-98457732D01*
X138256430Y-98462090D01*
X138256427Y-98462095D01*
X138170483Y-98593643D01*
X138124969Y-98635542D01*
X138065000Y-98650728D01*
X138005031Y-98635542D01*
X137959517Y-98593643D01*
X137953827Y-98584934D01*
X137870722Y-98457732D01*
X137809001Y-98390686D01*
X137721772Y-98295930D01*
X137721767Y-98295925D01*
X137718240Y-98292094D01*
X137540576Y-98153811D01*
X137535997Y-98151333D01*
X137535994Y-98151331D01*
X137347159Y-98049139D01*
X137347156Y-98049137D01*
X137342574Y-98046658D01*
X137337650Y-98044967D01*
X137337642Y-98044964D01*
X137134565Y-97975248D01*
X137134559Y-97975246D01*
X137129635Y-97973556D01*
X137124498Y-97972698D01*
X137124495Y-97972698D01*
X136912706Y-97937357D01*
X136912703Y-97937356D01*
X136907569Y-97936500D01*
X136682431Y-97936500D01*
X136677297Y-97937356D01*
X136677293Y-97937357D01*
X136465504Y-97972698D01*
X136465498Y-97972699D01*
X136460365Y-97973556D01*
X136455443Y-97975245D01*
X136455434Y-97975248D01*
X136252357Y-98044964D01*
X136252344Y-98044969D01*
X136247426Y-98046658D01*
X136242847Y-98049135D01*
X136242840Y-98049139D01*
X136054005Y-98151331D01*
X136053997Y-98151336D01*
X136049424Y-98153811D01*
X136045313Y-98157010D01*
X136045311Y-98157012D01*
X135875878Y-98288888D01*
X135875872Y-98288893D01*
X135871760Y-98292094D01*
X135868237Y-98295919D01*
X135868227Y-98295930D01*
X135722806Y-98453899D01*
X135722802Y-98453902D01*
X135719278Y-98457732D01*
X135716430Y-98462090D01*
X135716427Y-98462095D01*
X135630483Y-98593643D01*
X135584969Y-98635542D01*
X135525000Y-98650728D01*
X135465031Y-98635542D01*
X135419517Y-98593643D01*
X135413827Y-98584934D01*
X135330722Y-98457732D01*
X135269001Y-98390686D01*
X135181772Y-98295930D01*
X135181767Y-98295925D01*
X135178240Y-98292094D01*
X135000576Y-98153811D01*
X134995997Y-98151333D01*
X134995994Y-98151331D01*
X134807159Y-98049139D01*
X134807156Y-98049137D01*
X134802574Y-98046658D01*
X134797650Y-98044967D01*
X134797642Y-98044964D01*
X134594565Y-97975248D01*
X134594559Y-97975246D01*
X134589635Y-97973556D01*
X134584498Y-97972698D01*
X134584495Y-97972698D01*
X134372706Y-97937357D01*
X134372703Y-97937356D01*
X134367569Y-97936500D01*
X134142431Y-97936500D01*
X134137297Y-97937356D01*
X134137293Y-97937357D01*
X133925504Y-97972698D01*
X133925498Y-97972699D01*
X133920365Y-97973556D01*
X133915443Y-97975245D01*
X133915434Y-97975248D01*
X133712357Y-98044964D01*
X133712344Y-98044969D01*
X133707426Y-98046658D01*
X133702847Y-98049135D01*
X133702840Y-98049139D01*
X133514005Y-98151331D01*
X133513997Y-98151336D01*
X133509424Y-98153811D01*
X133505313Y-98157010D01*
X133505311Y-98157012D01*
X133335878Y-98288888D01*
X133335872Y-98288893D01*
X133331760Y-98292094D01*
X133328237Y-98295919D01*
X133328227Y-98295930D01*
X133182806Y-98453899D01*
X133182802Y-98453902D01*
X133179278Y-98457732D01*
X133176430Y-98462090D01*
X133176427Y-98462095D01*
X133090483Y-98593643D01*
X133044969Y-98635542D01*
X132985000Y-98650728D01*
X132925031Y-98635542D01*
X132879517Y-98593643D01*
X132873827Y-98584934D01*
X132790722Y-98457732D01*
X132729001Y-98390686D01*
X132641772Y-98295930D01*
X132641767Y-98295925D01*
X132638240Y-98292094D01*
X132460576Y-98153811D01*
X132455997Y-98151333D01*
X132455994Y-98151331D01*
X132267159Y-98049139D01*
X132267156Y-98049137D01*
X132262574Y-98046658D01*
X132257650Y-98044967D01*
X132257642Y-98044964D01*
X132054565Y-97975248D01*
X132054559Y-97975246D01*
X132049635Y-97973556D01*
X132044498Y-97972698D01*
X132044495Y-97972698D01*
X131832706Y-97937357D01*
X131832703Y-97937356D01*
X131827569Y-97936500D01*
X131602431Y-97936500D01*
X131597297Y-97937356D01*
X131597293Y-97937357D01*
X131385504Y-97972698D01*
X131385498Y-97972699D01*
X131380365Y-97973556D01*
X131375443Y-97975245D01*
X131375434Y-97975248D01*
X131172357Y-98044964D01*
X131172344Y-98044969D01*
X131167426Y-98046658D01*
X131162847Y-98049135D01*
X131162840Y-98049139D01*
X130974005Y-98151331D01*
X130973997Y-98151336D01*
X130969424Y-98153811D01*
X130965313Y-98157010D01*
X130965311Y-98157012D01*
X130795878Y-98288888D01*
X130795872Y-98288893D01*
X130791760Y-98292094D01*
X130788237Y-98295919D01*
X130788227Y-98295930D01*
X130642806Y-98453899D01*
X130642802Y-98453902D01*
X130639278Y-98457732D01*
X130636430Y-98462090D01*
X130636427Y-98462095D01*
X130550483Y-98593643D01*
X130504969Y-98635542D01*
X130445000Y-98650728D01*
X130385031Y-98635542D01*
X130339517Y-98593643D01*
X130333827Y-98584934D01*
X130250722Y-98457732D01*
X130189001Y-98390686D01*
X130101772Y-98295930D01*
X130101767Y-98295925D01*
X130098240Y-98292094D01*
X129920576Y-98153811D01*
X129915997Y-98151333D01*
X129915994Y-98151331D01*
X129727159Y-98049139D01*
X129727156Y-98049137D01*
X129722574Y-98046658D01*
X129717650Y-98044967D01*
X129717642Y-98044964D01*
X129514565Y-97975248D01*
X129514559Y-97975246D01*
X129509635Y-97973556D01*
X129504498Y-97972698D01*
X129504495Y-97972698D01*
X129292706Y-97937357D01*
X129292703Y-97937356D01*
X129287569Y-97936500D01*
X129062431Y-97936500D01*
X129057297Y-97937356D01*
X129057293Y-97937357D01*
X128845504Y-97972698D01*
X128845498Y-97972699D01*
X128840365Y-97973556D01*
X128835443Y-97975245D01*
X128835434Y-97975248D01*
X128632357Y-98044964D01*
X128632344Y-98044969D01*
X128627426Y-98046658D01*
X128622847Y-98049135D01*
X128622840Y-98049139D01*
X128434005Y-98151331D01*
X128433997Y-98151336D01*
X128429424Y-98153811D01*
X128425313Y-98157010D01*
X128425311Y-98157012D01*
X128255878Y-98288888D01*
X128255872Y-98288893D01*
X128251760Y-98292094D01*
X128248237Y-98295919D01*
X128248227Y-98295930D01*
X128102806Y-98453899D01*
X128102802Y-98453902D01*
X128099278Y-98457732D01*
X128096430Y-98462090D01*
X128096427Y-98462095D01*
X128010483Y-98593643D01*
X127964969Y-98635542D01*
X127905000Y-98650728D01*
X127845031Y-98635542D01*
X127799517Y-98593643D01*
X127793827Y-98584934D01*
X127710722Y-98457732D01*
X127649001Y-98390686D01*
X127561772Y-98295930D01*
X127561767Y-98295925D01*
X127558240Y-98292094D01*
X127380576Y-98153811D01*
X127375997Y-98151333D01*
X127375994Y-98151331D01*
X127187159Y-98049139D01*
X127187156Y-98049137D01*
X127182574Y-98046658D01*
X127177650Y-98044967D01*
X127177642Y-98044964D01*
X126974565Y-97975248D01*
X126974559Y-97975246D01*
X126969635Y-97973556D01*
X126964498Y-97972698D01*
X126964495Y-97972698D01*
X126752706Y-97937357D01*
X126752703Y-97937356D01*
X126747569Y-97936500D01*
X126522431Y-97936500D01*
X126517297Y-97937356D01*
X126517293Y-97937357D01*
X126305504Y-97972698D01*
X126305498Y-97972699D01*
X126300365Y-97973556D01*
X126295443Y-97975245D01*
X126295434Y-97975248D01*
X126092357Y-98044964D01*
X126092344Y-98044969D01*
X126087426Y-98046658D01*
X126082847Y-98049135D01*
X126082840Y-98049139D01*
X125894005Y-98151331D01*
X125893997Y-98151336D01*
X125889424Y-98153811D01*
X125885313Y-98157010D01*
X125885311Y-98157012D01*
X125715878Y-98288888D01*
X125715872Y-98288893D01*
X125711760Y-98292094D01*
X125708237Y-98295919D01*
X125708227Y-98295930D01*
X125562806Y-98453899D01*
X125562802Y-98453902D01*
X125559278Y-98457732D01*
X125556430Y-98462090D01*
X125556427Y-98462095D01*
X125470483Y-98593643D01*
X125424969Y-98635542D01*
X125365000Y-98650728D01*
X125305031Y-98635542D01*
X125259517Y-98593643D01*
X125253827Y-98584934D01*
X125170722Y-98457732D01*
X125109001Y-98390686D01*
X125021772Y-98295930D01*
X125021767Y-98295925D01*
X125018240Y-98292094D01*
X124840576Y-98153811D01*
X124835997Y-98151333D01*
X124835994Y-98151331D01*
X124647159Y-98049139D01*
X124647156Y-98049137D01*
X124642574Y-98046658D01*
X124637650Y-98044967D01*
X124637642Y-98044964D01*
X124434565Y-97975248D01*
X124434559Y-97975246D01*
X124429635Y-97973556D01*
X124424498Y-97972698D01*
X124424495Y-97972698D01*
X124212706Y-97937357D01*
X124212703Y-97937356D01*
X124207569Y-97936500D01*
X123982431Y-97936500D01*
X123977297Y-97937356D01*
X123977293Y-97937357D01*
X123765504Y-97972698D01*
X123765498Y-97972699D01*
X123760365Y-97973556D01*
X123755443Y-97975245D01*
X123755434Y-97975248D01*
X123552357Y-98044964D01*
X123552344Y-98044969D01*
X123547426Y-98046658D01*
X123542847Y-98049135D01*
X123542840Y-98049139D01*
X123354005Y-98151331D01*
X123353997Y-98151336D01*
X123349424Y-98153811D01*
X123345313Y-98157010D01*
X123345311Y-98157012D01*
X123175878Y-98288888D01*
X123175872Y-98288893D01*
X123171760Y-98292094D01*
X123168237Y-98295919D01*
X123168227Y-98295930D01*
X123022806Y-98453899D01*
X123022802Y-98453902D01*
X123019278Y-98457732D01*
X123016430Y-98462090D01*
X123016427Y-98462095D01*
X122898992Y-98641843D01*
X122896140Y-98646209D01*
X122894048Y-98650978D01*
X122894046Y-98650982D01*
X122807799Y-98847606D01*
X122807796Y-98847614D01*
X122805704Y-98852384D01*
X122804423Y-98857440D01*
X122804422Y-98857445D01*
X122753160Y-99059875D01*
X122750436Y-99070632D01*
X122750006Y-99075820D01*
X122750005Y-99075827D01*
X122747523Y-99105784D01*
X122731844Y-99295000D01*
X112532913Y-99295000D01*
X112482212Y-99105784D01*
X112480170Y-99099501D01*
X112343260Y-98742835D01*
X112340578Y-98736811D01*
X112167127Y-98396397D01*
X112163830Y-98390686D01*
X111955753Y-98070275D01*
X111951865Y-98064924D01*
X111758267Y-97825850D01*
X111746820Y-97817835D01*
X111734599Y-97824609D01*
X109320939Y-100238270D01*
X109314167Y-100250000D01*
X108585832Y-100250000D01*
X108579060Y-100238270D01*
X106165399Y-97824609D01*
X106153177Y-97817834D01*
X106141734Y-97825847D01*
X105948123Y-98064938D01*
X105944251Y-98070267D01*
X105736169Y-98390686D01*
X105732872Y-98396397D01*
X105559421Y-98736811D01*
X105556739Y-98742835D01*
X105419829Y-99099501D01*
X105417787Y-99105784D01*
X105318905Y-99474815D01*
X105317534Y-99481265D01*
X105257766Y-99858629D01*
X105257079Y-99865167D01*
X105237084Y-100246699D01*
X105237084Y-100253301D01*
X103800500Y-100253301D01*
X103800500Y-97453177D01*
X106517834Y-97453177D01*
X106524609Y-97465399D01*
X108938270Y-99879060D01*
X108949999Y-99885832D01*
X108961729Y-99879060D01*
X111375389Y-97465399D01*
X111382163Y-97453178D01*
X111374148Y-97441731D01*
X111135070Y-97248130D01*
X111129727Y-97244248D01*
X110809314Y-97036169D01*
X110803605Y-97032873D01*
X110463188Y-96859421D01*
X110457164Y-96856739D01*
X110100498Y-96719829D01*
X110094215Y-96717787D01*
X109725184Y-96618905D01*
X109718734Y-96617534D01*
X109341370Y-96557766D01*
X109334832Y-96557079D01*
X108953301Y-96537084D01*
X108946699Y-96537084D01*
X108565167Y-96557079D01*
X108558629Y-96557766D01*
X108181265Y-96617534D01*
X108174815Y-96618905D01*
X107805784Y-96717787D01*
X107799501Y-96719829D01*
X107442835Y-96856739D01*
X107436811Y-96859421D01*
X107096397Y-97032872D01*
X107090686Y-97036169D01*
X106770267Y-97244251D01*
X106764938Y-97248123D01*
X106525847Y-97441734D01*
X106517834Y-97453177D01*
X103800500Y-97453177D01*
X103800500Y-95148638D01*
X160241500Y-95148638D01*
X160241859Y-95151985D01*
X160241860Y-95151988D01*
X160247168Y-95201367D01*
X160247169Y-95201373D01*
X160248011Y-95209201D01*
X160250762Y-95216578D01*
X160250763Y-95216580D01*
X160295962Y-95337763D01*
X160295964Y-95337766D01*
X160299111Y-95346204D01*
X160304508Y-95353414D01*
X160304510Y-95353417D01*
X160330389Y-95387987D01*
X160386739Y-95463261D01*
X160503796Y-95550889D01*
X160640799Y-95601989D01*
X160701362Y-95608500D01*
X162495269Y-95608500D01*
X162498638Y-95608500D01*
X162559201Y-95601989D01*
X162696204Y-95550889D01*
X162813261Y-95463261D01*
X162900889Y-95346204D01*
X162951989Y-95209201D01*
X162958500Y-95148638D01*
X162958500Y-93351362D01*
X162951989Y-93290799D01*
X162900889Y-93153796D01*
X162813261Y-93036739D01*
X162806049Y-93031340D01*
X162703417Y-92954510D01*
X162703414Y-92954508D01*
X162696204Y-92949111D01*
X162687766Y-92945964D01*
X162687763Y-92945962D01*
X162566580Y-92900763D01*
X162566578Y-92900762D01*
X162559201Y-92898011D01*
X162551373Y-92897169D01*
X162551367Y-92897168D01*
X162501988Y-92891860D01*
X162501985Y-92891859D01*
X162498638Y-92891500D01*
X160701362Y-92891500D01*
X160698015Y-92891859D01*
X160698011Y-92891860D01*
X160648632Y-92897168D01*
X160648625Y-92897169D01*
X160640799Y-92898011D01*
X160633423Y-92900761D01*
X160633419Y-92900763D01*
X160512236Y-92945962D01*
X160512230Y-92945965D01*
X160503796Y-92949111D01*
X160496588Y-92954506D01*
X160496582Y-92954510D01*
X160393950Y-93031340D01*
X160393946Y-93031343D01*
X160386739Y-93036739D01*
X160381343Y-93043946D01*
X160381340Y-93043950D01*
X160304510Y-93146582D01*
X160304506Y-93146588D01*
X160299111Y-93153796D01*
X160295965Y-93162230D01*
X160295962Y-93162236D01*
X160250763Y-93283419D01*
X160250761Y-93283423D01*
X160248011Y-93290799D01*
X160247169Y-93298625D01*
X160247168Y-93298632D01*
X160241860Y-93348011D01*
X160241500Y-93351362D01*
X160241500Y-95148638D01*
X103800500Y-95148638D01*
X103800500Y-80496820D01*
X106317835Y-80496820D01*
X106325850Y-80508267D01*
X106564929Y-80701869D01*
X106570272Y-80705751D01*
X106890685Y-80913830D01*
X106896394Y-80917126D01*
X107236811Y-81090578D01*
X107242835Y-81093260D01*
X107599501Y-81230170D01*
X107605784Y-81232212D01*
X107974815Y-81331094D01*
X107981265Y-81332465D01*
X108358629Y-81392233D01*
X108365167Y-81392920D01*
X108746699Y-81412916D01*
X108753301Y-81412916D01*
X109134832Y-81392920D01*
X109141370Y-81392233D01*
X109518734Y-81332465D01*
X109525184Y-81331094D01*
X109894215Y-81232212D01*
X109900498Y-81230170D01*
X110257164Y-81093260D01*
X110263188Y-81090578D01*
X110603605Y-80917126D01*
X110609314Y-80913830D01*
X110929728Y-80705751D01*
X110935064Y-80701874D01*
X111174150Y-80508265D01*
X111182164Y-80496821D01*
X111175389Y-80484599D01*
X108761729Y-78070939D01*
X108750000Y-78064167D01*
X108738270Y-78070939D01*
X106324609Y-80484599D01*
X106317835Y-80496820D01*
X103800500Y-80496820D01*
X103800500Y-77703301D01*
X105037084Y-77703301D01*
X105057079Y-78084832D01*
X105057766Y-78091370D01*
X105117534Y-78468734D01*
X105118905Y-78475184D01*
X105217787Y-78844215D01*
X105219829Y-78850498D01*
X105356739Y-79207164D01*
X105359421Y-79213188D01*
X105532873Y-79553605D01*
X105536169Y-79559314D01*
X105744248Y-79879727D01*
X105748130Y-79885070D01*
X105941731Y-80124148D01*
X105953178Y-80132163D01*
X105965399Y-80125389D01*
X108379060Y-77711729D01*
X108385832Y-77700000D01*
X109114167Y-77700000D01*
X109120939Y-77711729D01*
X111534599Y-80125389D01*
X111546821Y-80132164D01*
X111558265Y-80124150D01*
X111618311Y-80050000D01*
X160386884Y-80050000D01*
X160405314Y-80260655D01*
X160460044Y-80464910D01*
X160462366Y-80469890D01*
X160462367Y-80469892D01*
X160544870Y-80646821D01*
X160549411Y-80656558D01*
X160552563Y-80661059D01*
X160552565Y-80661063D01*
X160667539Y-80825264D01*
X160667543Y-80825268D01*
X160670699Y-80829776D01*
X160820224Y-80979301D01*
X160824732Y-80982457D01*
X160824735Y-80982460D01*
X160979145Y-81090578D01*
X160993442Y-81100589D01*
X161185090Y-81189956D01*
X161389345Y-81244686D01*
X161600000Y-81263116D01*
X161810655Y-81244686D01*
X162014910Y-81189956D01*
X162206558Y-81100589D01*
X162379776Y-80979301D01*
X162529301Y-80829776D01*
X162650589Y-80656558D01*
X162739956Y-80464910D01*
X162794686Y-80260655D01*
X162813116Y-80050000D01*
X165466884Y-80050000D01*
X165485314Y-80260655D01*
X165540044Y-80464910D01*
X165542366Y-80469890D01*
X165542367Y-80469892D01*
X165624870Y-80646821D01*
X165629411Y-80656558D01*
X165632563Y-80661059D01*
X165632565Y-80661063D01*
X165747539Y-80825264D01*
X165747543Y-80825268D01*
X165750699Y-80829776D01*
X165900224Y-80979301D01*
X165904732Y-80982457D01*
X165904735Y-80982460D01*
X166059145Y-81090578D01*
X166073442Y-81100589D01*
X166265090Y-81189956D01*
X166469345Y-81244686D01*
X166680000Y-81263116D01*
X166890655Y-81244686D01*
X167094910Y-81189956D01*
X167286558Y-81100589D01*
X167459776Y-80979301D01*
X167609301Y-80829776D01*
X167730589Y-80656558D01*
X167819956Y-80464910D01*
X167874686Y-80260655D01*
X167893116Y-80050000D01*
X167874686Y-79839345D01*
X167819956Y-79635090D01*
X167730589Y-79443442D01*
X167609301Y-79270224D01*
X167459776Y-79120699D01*
X167455268Y-79117543D01*
X167455264Y-79117539D01*
X167291063Y-79002565D01*
X167291059Y-79002563D01*
X167286558Y-78999411D01*
X167281579Y-78997089D01*
X167281577Y-78997088D01*
X167099892Y-78912367D01*
X167099890Y-78912366D01*
X167094910Y-78910044D01*
X167089601Y-78908621D01*
X167089600Y-78908621D01*
X166895969Y-78856738D01*
X166895970Y-78856738D01*
X166890655Y-78855314D01*
X166885179Y-78854834D01*
X166885174Y-78854834D01*
X166685475Y-78837363D01*
X166680000Y-78836884D01*
X166674525Y-78837363D01*
X166474825Y-78854834D01*
X166474818Y-78854835D01*
X166469345Y-78855314D01*
X166464031Y-78856737D01*
X166464030Y-78856738D01*
X166270399Y-78908621D01*
X166270394Y-78908622D01*
X166265090Y-78910044D01*
X166260112Y-78912364D01*
X166260107Y-78912367D01*
X166078422Y-78997088D01*
X166078414Y-78997092D01*
X166073442Y-78999411D01*
X166068945Y-79002559D01*
X166068936Y-79002565D01*
X165904735Y-79117539D01*
X165904725Y-79117547D01*
X165900224Y-79120699D01*
X165896334Y-79124588D01*
X165896328Y-79124594D01*
X165754594Y-79266328D01*
X165754588Y-79266334D01*
X165750699Y-79270224D01*
X165747547Y-79274725D01*
X165747539Y-79274735D01*
X165632565Y-79438936D01*
X165632559Y-79438945D01*
X165629411Y-79443442D01*
X165627092Y-79448414D01*
X165627088Y-79448422D01*
X165542367Y-79630107D01*
X165542364Y-79630112D01*
X165540044Y-79635090D01*
X165538622Y-79640394D01*
X165538621Y-79640399D01*
X165486738Y-79834030D01*
X165485314Y-79839345D01*
X165484835Y-79844818D01*
X165484834Y-79844825D01*
X165468658Y-80029727D01*
X165466884Y-80050000D01*
X162813116Y-80050000D01*
X162794686Y-79839345D01*
X162739956Y-79635090D01*
X162650589Y-79443442D01*
X162529301Y-79270224D01*
X162379776Y-79120699D01*
X162375268Y-79117543D01*
X162375264Y-79117539D01*
X162211063Y-79002565D01*
X162211059Y-79002563D01*
X162206558Y-78999411D01*
X162201579Y-78997089D01*
X162201577Y-78997088D01*
X162019892Y-78912367D01*
X162019890Y-78912366D01*
X162014910Y-78910044D01*
X162009601Y-78908621D01*
X162009600Y-78908621D01*
X161815969Y-78856738D01*
X161815970Y-78856738D01*
X161810655Y-78855314D01*
X161805179Y-78854834D01*
X161805174Y-78854834D01*
X161605475Y-78837363D01*
X161600000Y-78836884D01*
X161594525Y-78837363D01*
X161394825Y-78854834D01*
X161394818Y-78854835D01*
X161389345Y-78855314D01*
X161384031Y-78856737D01*
X161384030Y-78856738D01*
X161190399Y-78908621D01*
X161190394Y-78908622D01*
X161185090Y-78910044D01*
X161180112Y-78912364D01*
X161180107Y-78912367D01*
X160998422Y-78997088D01*
X160998414Y-78997092D01*
X160993442Y-78999411D01*
X160988945Y-79002559D01*
X160988936Y-79002565D01*
X160824735Y-79117539D01*
X160824725Y-79117547D01*
X160820224Y-79120699D01*
X160816334Y-79124588D01*
X160816328Y-79124594D01*
X160674594Y-79266328D01*
X160674588Y-79266334D01*
X160670699Y-79270224D01*
X160667547Y-79274725D01*
X160667539Y-79274735D01*
X160552565Y-79438936D01*
X160552559Y-79438945D01*
X160549411Y-79443442D01*
X160547092Y-79448414D01*
X160547088Y-79448422D01*
X160462367Y-79630107D01*
X160462364Y-79630112D01*
X160460044Y-79635090D01*
X160458622Y-79640394D01*
X160458621Y-79640399D01*
X160406738Y-79834030D01*
X160405314Y-79839345D01*
X160404835Y-79844818D01*
X160404834Y-79844825D01*
X160388658Y-80029727D01*
X160386884Y-80050000D01*
X111618311Y-80050000D01*
X111751874Y-79885064D01*
X111755751Y-79879728D01*
X111963830Y-79559314D01*
X111967126Y-79553605D01*
X112140578Y-79213188D01*
X112143260Y-79207164D01*
X112280170Y-78850498D01*
X112282212Y-78844215D01*
X112381094Y-78475184D01*
X112382465Y-78468734D01*
X112442233Y-78091370D01*
X112442920Y-78084832D01*
X112455055Y-77853301D01*
X178187084Y-77853301D01*
X178207079Y-78234832D01*
X178207766Y-78241370D01*
X178267534Y-78618734D01*
X178268905Y-78625184D01*
X178367787Y-78994215D01*
X178369829Y-79000498D01*
X178506739Y-79357164D01*
X178509421Y-79363188D01*
X178682873Y-79703605D01*
X178686169Y-79709314D01*
X178894248Y-80029727D01*
X178898130Y-80035070D01*
X179091731Y-80274148D01*
X179103178Y-80282163D01*
X179115399Y-80275389D01*
X181529060Y-77861729D01*
X181535832Y-77849999D01*
X182264167Y-77849999D01*
X182270939Y-77861729D01*
X184684599Y-80275389D01*
X184696821Y-80282164D01*
X184708265Y-80274150D01*
X184901874Y-80035064D01*
X184905751Y-80029728D01*
X185113830Y-79709314D01*
X185117126Y-79703605D01*
X185290578Y-79363188D01*
X185293260Y-79357164D01*
X185430170Y-79000498D01*
X185432212Y-78994215D01*
X185531094Y-78625184D01*
X185532465Y-78618734D01*
X185592233Y-78241370D01*
X185592920Y-78234832D01*
X185612916Y-77853301D01*
X185612916Y-77846699D01*
X185592920Y-77465167D01*
X185592233Y-77458629D01*
X185532465Y-77081265D01*
X185531094Y-77074815D01*
X185432212Y-76705784D01*
X185430170Y-76699501D01*
X185293260Y-76342835D01*
X185290578Y-76336811D01*
X185117127Y-75996397D01*
X185113830Y-75990686D01*
X184905753Y-75670275D01*
X184901865Y-75664924D01*
X184708267Y-75425850D01*
X184696820Y-75417835D01*
X184684599Y-75424609D01*
X182270939Y-77838270D01*
X182264167Y-77849999D01*
X181535832Y-77849999D01*
X181529060Y-77838270D01*
X179115399Y-75424609D01*
X179103177Y-75417834D01*
X179091734Y-75425847D01*
X178898123Y-75664938D01*
X178894251Y-75670267D01*
X178686169Y-75990686D01*
X178682872Y-75996397D01*
X178509421Y-76336811D01*
X178506739Y-76342835D01*
X178369829Y-76699501D01*
X178367787Y-76705784D01*
X178268905Y-77074815D01*
X178267534Y-77081265D01*
X178207766Y-77458629D01*
X178207079Y-77465167D01*
X178187084Y-77846699D01*
X178187084Y-77853301D01*
X112455055Y-77853301D01*
X112462916Y-77703301D01*
X112462916Y-77696699D01*
X112442920Y-77315167D01*
X112442233Y-77308629D01*
X112382465Y-76931265D01*
X112381094Y-76924815D01*
X112282212Y-76555784D01*
X112280170Y-76549501D01*
X112143260Y-76192835D01*
X112140578Y-76186811D01*
X111967127Y-75846397D01*
X111963830Y-75840686D01*
X111755753Y-75520275D01*
X111751865Y-75514924D01*
X111558267Y-75275850D01*
X111546820Y-75267835D01*
X111534599Y-75274609D01*
X109120939Y-77688270D01*
X109114167Y-77700000D01*
X108385832Y-77700000D01*
X108379060Y-77688270D01*
X105965399Y-75274609D01*
X105953177Y-75267834D01*
X105941734Y-75275847D01*
X105748123Y-75514938D01*
X105744251Y-75520267D01*
X105536169Y-75840686D01*
X105532872Y-75846397D01*
X105359421Y-76186811D01*
X105356739Y-76192835D01*
X105219829Y-76549501D01*
X105217787Y-76555784D01*
X105118905Y-76924815D01*
X105117534Y-76931265D01*
X105057766Y-77308629D01*
X105057079Y-77315167D01*
X105037084Y-77696699D01*
X105037084Y-77703301D01*
X103800500Y-77703301D01*
X103800500Y-74903177D01*
X106317834Y-74903177D01*
X106324609Y-74915399D01*
X108738270Y-77329060D01*
X108750000Y-77335832D01*
X108761729Y-77329060D01*
X111037611Y-75053177D01*
X179467834Y-75053177D01*
X179474609Y-75065399D01*
X181888270Y-77479060D01*
X181900000Y-77485832D01*
X181911729Y-77479060D01*
X184325389Y-75065399D01*
X184332163Y-75053178D01*
X184324148Y-75041731D01*
X184085070Y-74848130D01*
X184079727Y-74844248D01*
X183759314Y-74636169D01*
X183753605Y-74632873D01*
X183413188Y-74459421D01*
X183407164Y-74456739D01*
X183050498Y-74319829D01*
X183044215Y-74317787D01*
X182675184Y-74218905D01*
X182668734Y-74217534D01*
X182291370Y-74157766D01*
X182284832Y-74157079D01*
X181903301Y-74137084D01*
X181896699Y-74137084D01*
X181515167Y-74157079D01*
X181508629Y-74157766D01*
X181131265Y-74217534D01*
X181124815Y-74218905D01*
X180755784Y-74317787D01*
X180749501Y-74319829D01*
X180392835Y-74456739D01*
X180386811Y-74459421D01*
X180046397Y-74632872D01*
X180040686Y-74636169D01*
X179720267Y-74844251D01*
X179714938Y-74848123D01*
X179475847Y-75041734D01*
X179467834Y-75053177D01*
X111037611Y-75053177D01*
X111175389Y-74915399D01*
X111182163Y-74903178D01*
X111174148Y-74891731D01*
X110935070Y-74698130D01*
X110929727Y-74694248D01*
X110609314Y-74486169D01*
X110603605Y-74482873D01*
X110263188Y-74309421D01*
X110257164Y-74306739D01*
X109900498Y-74169829D01*
X109894215Y-74167787D01*
X109525184Y-74068905D01*
X109518734Y-74067534D01*
X109141370Y-74007766D01*
X109134832Y-74007079D01*
X108753301Y-73987084D01*
X108746699Y-73987084D01*
X108365167Y-74007079D01*
X108358629Y-74007766D01*
X107981265Y-74067534D01*
X107974815Y-74068905D01*
X107605784Y-74167787D01*
X107599501Y-74169829D01*
X107242835Y-74306739D01*
X107236811Y-74309421D01*
X106896397Y-74482872D01*
X106890686Y-74486169D01*
X106570267Y-74694251D01*
X106564938Y-74698123D01*
X106325847Y-74891734D01*
X106317834Y-74903177D01*
X103800500Y-74903177D01*
X103800500Y-73376500D01*
X103817381Y-73313500D01*
X103863500Y-73267381D01*
X103926500Y-73250500D01*
X186573500Y-73250500D01*
X186636500Y-73267381D01*
G37*
%TD.AperFunction*%
%TA.AperFunction,Conductor*%
G36*
X164302478Y-84661711D02*
G01*
X164355951Y-84696111D01*
X164413573Y-84758705D01*
X164421211Y-84765737D01*
X164590588Y-84897568D01*
X164599285Y-84903250D01*
X164628733Y-84919187D01*
X164677004Y-84965503D01*
X164694763Y-85030000D01*
X164677004Y-85094497D01*
X164628733Y-85140813D01*
X164599285Y-85156749D01*
X164590588Y-85162431D01*
X164421211Y-85294262D01*
X164413567Y-85301299D01*
X164268210Y-85459200D01*
X164261816Y-85467415D01*
X164175780Y-85599101D01*
X164130267Y-85640999D01*
X164070297Y-85656185D01*
X164010328Y-85640998D01*
X163964816Y-85599101D01*
X163875722Y-85462732D01*
X163756828Y-85333580D01*
X163732525Y-85307180D01*
X163703288Y-85253576D01*
X163702685Y-85192520D01*
X163730859Y-85138350D01*
X163781191Y-85103786D01*
X163896204Y-85060889D01*
X164013261Y-84973261D01*
X164100889Y-84856204D01*
X164145195Y-84737414D01*
X164181726Y-84685377D01*
X164239016Y-84657801D01*
X164302478Y-84661711D01*
G37*
%TD.AperFunction*%
%TD*%
M02*
