%TF.GenerationSoftware,KiCad,Pcbnew,(7.0.0)*%
%TF.CreationDate,2023-03-30T12:26:05-04:00*%
%TF.ProjectId,headunit_hub,68656164-756e-4697-945f-6875622e6b69,rev?*%
%TF.SameCoordinates,Original*%
%TF.FileFunction,Soldermask,Top*%
%TF.FilePolarity,Negative*%
%FSLAX46Y46*%
G04 Gerber Fmt 4.6, Leading zero omitted, Abs format (unit mm)*
G04 Created by KiCad (PCBNEW (7.0.0)) date 2023-03-30 12:26:05*
%MOMM*%
%LPD*%
G01*
G04 APERTURE LIST*
G04 Aperture macros list*
%AMRoundRect*
0 Rectangle with rounded corners*
0 $1 Rounding radius*
0 $2 $3 $4 $5 $6 $7 $8 $9 X,Y pos of 4 corners*
0 Add a 4 corners polygon primitive as box body*
4,1,4,$2,$3,$4,$5,$6,$7,$8,$9,$2,$3,0*
0 Add four circle primitives for the rounded corners*
1,1,$1+$1,$2,$3*
1,1,$1+$1,$4,$5*
1,1,$1+$1,$6,$7*
1,1,$1+$1,$8,$9*
0 Add four rect primitives between the rounded corners*
20,1,$1+$1,$2,$3,$4,$5,0*
20,1,$1+$1,$4,$5,$6,$7,0*
20,1,$1+$1,$6,$7,$8,$9,0*
20,1,$1+$1,$8,$9,$2,$3,0*%
G04 Aperture macros list end*
%ADD10C,0.010000*%
%ADD11RoundRect,0.050000X-1.000000X-1.000000X1.000000X-1.000000X1.000000X1.000000X-1.000000X1.000000X0*%
%ADD12RoundRect,0.050000X0.150000X0.650000X-0.150000X0.650000X-0.150000X-0.650000X0.150000X-0.650000X0*%
%ADD13RoundRect,0.050000X0.900000X1.100000X-0.900000X1.100000X-0.900000X-1.100000X0.900000X-1.100000X0*%
%ADD14RoundRect,0.050000X-0.850000X-0.850000X0.850000X-0.850000X0.850000X0.850000X-0.850000X0.850000X0*%
%ADD15C,1.500000*%
%ADD16O,1.500000X1.500000*%
%ADD17O,1.800000X1.800000*%
%ADD18C,0.900000*%
%ADD19C,6.500000*%
G04 APERTURE END LIST*
%TO.C,H3*%
G36*
X122556712Y-84222468D02*
G01*
X122655744Y-84222468D01*
X122672448Y-84412368D01*
X122723459Y-84597587D01*
X122808657Y-84773380D01*
X122927923Y-84935005D01*
X123081138Y-85077715D01*
X123134886Y-85116945D01*
X123220903Y-85167162D01*
X123324066Y-85214184D01*
X123430350Y-85252768D01*
X123525731Y-85277671D01*
X123582337Y-85284221D01*
X123651129Y-85284668D01*
X123651129Y-84797835D01*
X123651129Y-84606528D01*
X123592920Y-84622066D01*
X123470583Y-84638400D01*
X123335149Y-84630405D01*
X123206793Y-84599930D01*
X123163945Y-84582782D01*
X123043581Y-84517587D01*
X122953473Y-84442534D01*
X122881578Y-84346055D01*
X122842774Y-84274292D01*
X122787020Y-84116764D01*
X122771709Y-83956298D01*
X122797026Y-83798449D01*
X122824556Y-83723200D01*
X122885766Y-83621002D01*
X122973475Y-83521807D01*
X123075311Y-83437242D01*
X123178898Y-83378930D01*
X123199064Y-83371330D01*
X123357564Y-83337727D01*
X123515339Y-83341914D01*
X123665645Y-83381296D01*
X123801739Y-83453275D01*
X123916879Y-83555257D01*
X124002269Y-83680589D01*
X124030874Y-83738114D01*
X124049389Y-83778336D01*
X124053295Y-83789420D01*
X124035533Y-83800686D01*
X124002345Y-83811200D01*
X123949059Y-83826255D01*
X123919590Y-83836192D01*
X123888147Y-83829792D01*
X123873122Y-83802192D01*
X123840308Y-83742066D01*
X123782669Y-83673131D01*
X123712194Y-83607484D01*
X123640870Y-83557221D01*
X123619379Y-83546158D01*
X123493660Y-83510947D01*
X123362813Y-83512961D01*
X123235980Y-83549571D01*
X123122307Y-83618148D01*
X123031569Y-83715153D01*
X122996979Y-83768445D01*
X122976537Y-83814457D01*
X122966569Y-83867667D01*
X122963400Y-83942552D01*
X122963212Y-83984464D01*
X122964925Y-84075026D01*
X122972204Y-84137558D01*
X122988257Y-84186294D01*
X123016291Y-84235472D01*
X123021601Y-84243575D01*
X123111889Y-84349092D01*
X123220430Y-84417522D01*
X123351729Y-84451419D01*
X123394789Y-84455160D01*
X123476977Y-84455856D01*
X123550000Y-84450000D01*
X123591781Y-84440767D01*
X123625819Y-84422788D01*
X123644137Y-84394163D01*
X123648059Y-84370648D01*
X123862795Y-84370648D01*
X123862795Y-84797835D01*
X124037420Y-84796640D01*
X124130022Y-84792966D01*
X124215671Y-84784341D01*
X124278129Y-84772495D01*
X124285577Y-84770181D01*
X124356045Y-84726169D01*
X124399512Y-84658563D01*
X124413397Y-84578350D01*
X124395120Y-84496517D01*
X124362083Y-84444473D01*
X124337160Y-84417940D01*
X124310817Y-84400416D01*
X124273724Y-84389641D01*
X124216551Y-84383357D01*
X124129969Y-84379306D01*
X124086917Y-84377866D01*
X123862795Y-84370648D01*
X123648059Y-84370648D01*
X123652836Y-84342006D01*
X123655281Y-84306667D01*
X123661712Y-84194585D01*
X124001931Y-84197109D01*
X124156066Y-84199919D01*
X124274545Y-84206924D01*
X124363972Y-84219858D01*
X124430954Y-84240460D01*
X124482096Y-84270463D01*
X124524004Y-84311606D01*
X124545837Y-84340069D01*
X124570441Y-84381616D01*
X124584854Y-84429044D01*
X124591556Y-84494929D01*
X124593045Y-84579324D01*
X124588344Y-84689458D01*
X124570717Y-84770055D01*
X124534878Y-84833215D01*
X124475543Y-84891039D01*
X124447328Y-84912943D01*
X124416605Y-84931867D01*
X124378286Y-84945057D01*
X124323782Y-84953879D01*
X124244508Y-84959698D01*
X124131877Y-84963880D01*
X124125844Y-84964053D01*
X123862795Y-84971521D01*
X123862795Y-85289379D01*
X123942170Y-85275755D01*
X123997860Y-85260123D01*
X124076801Y-85230405D01*
X124164727Y-85192124D01*
X124193434Y-85178479D01*
X124367382Y-85071284D01*
X124516582Y-84933696D01*
X124637418Y-84771444D01*
X124726276Y-84590259D01*
X124779539Y-84395872D01*
X124794129Y-84226335D01*
X124774391Y-84028921D01*
X124718031Y-83842481D01*
X124629330Y-83670751D01*
X124512568Y-83517464D01*
X124372026Y-83386355D01*
X124211983Y-83281159D01*
X124036721Y-83205608D01*
X123850519Y-83163439D01*
X123657659Y-83158385D01*
X123580423Y-83167462D01*
X123395183Y-83210036D01*
X123234366Y-83276943D01*
X123090992Y-83368788D01*
X122934376Y-83510934D01*
X122812663Y-83672120D01*
X122725732Y-83847600D01*
X122673466Y-84032630D01*
X122655744Y-84222468D01*
X122556712Y-84222468D01*
X122570098Y-84031049D01*
X122625799Y-83826807D01*
X122721644Y-83633909D01*
X122857006Y-83454438D01*
X122899712Y-83409097D01*
X123069616Y-83264219D01*
X123255759Y-83158405D01*
X123458594Y-83091466D01*
X123678575Y-83063214D01*
X123732390Y-83062168D01*
X123945063Y-83082554D01*
X124147127Y-83141479D01*
X124334094Y-83235594D01*
X124501478Y-83361549D01*
X124644790Y-83515996D01*
X124759543Y-83695584D01*
X124838404Y-83887668D01*
X124870195Y-84037372D01*
X124882245Y-84206490D01*
X124874566Y-84377440D01*
X124847175Y-84532641D01*
X124837855Y-84565001D01*
X124751426Y-84773671D01*
X124632567Y-84955725D01*
X124482849Y-85109771D01*
X124303844Y-85234415D01*
X124097122Y-85328263D01*
X123921004Y-85378453D01*
X123878388Y-85396247D01*
X123863621Y-85433388D01*
X123862795Y-85454404D01*
X123860450Y-85491758D01*
X123846136Y-85510384D01*
X123808934Y-85516795D01*
X123756962Y-85517501D01*
X123694281Y-85516012D01*
X123663021Y-85507435D01*
X123652279Y-85485606D01*
X123651129Y-85457660D01*
X123648579Y-85425625D01*
X123634802Y-85405187D01*
X123600603Y-85390814D01*
X123536790Y-85376975D01*
X123508254Y-85371690D01*
X123305160Y-85313692D01*
X123117163Y-85219174D01*
X122948849Y-85092624D01*
X122804809Y-84938532D01*
X122689628Y-84761384D01*
X122607897Y-84565670D01*
X122581637Y-84465240D01*
X122555168Y-84244554D01*
X122556712Y-84222468D01*
G37*
D10*
X122556712Y-84222468D02*
X122655744Y-84222468D01*
X122672448Y-84412368D01*
X122723459Y-84597587D01*
X122808657Y-84773380D01*
X122927923Y-84935005D01*
X123081138Y-85077715D01*
X123134886Y-85116945D01*
X123220903Y-85167162D01*
X123324066Y-85214184D01*
X123430350Y-85252768D01*
X123525731Y-85277671D01*
X123582337Y-85284221D01*
X123651129Y-85284668D01*
X123651129Y-84797835D01*
X123651129Y-84606528D01*
X123592920Y-84622066D01*
X123470583Y-84638400D01*
X123335149Y-84630405D01*
X123206793Y-84599930D01*
X123163945Y-84582782D01*
X123043581Y-84517587D01*
X122953473Y-84442534D01*
X122881578Y-84346055D01*
X122842774Y-84274292D01*
X122787020Y-84116764D01*
X122771709Y-83956298D01*
X122797026Y-83798449D01*
X122824556Y-83723200D01*
X122885766Y-83621002D01*
X122973475Y-83521807D01*
X123075311Y-83437242D01*
X123178898Y-83378930D01*
X123199064Y-83371330D01*
X123357564Y-83337727D01*
X123515339Y-83341914D01*
X123665645Y-83381296D01*
X123801739Y-83453275D01*
X123916879Y-83555257D01*
X124002269Y-83680589D01*
X124030874Y-83738114D01*
X124049389Y-83778336D01*
X124053295Y-83789420D01*
X124035533Y-83800686D01*
X124002345Y-83811200D01*
X123949059Y-83826255D01*
X123919590Y-83836192D01*
X123888147Y-83829792D01*
X123873122Y-83802192D01*
X123840308Y-83742066D01*
X123782669Y-83673131D01*
X123712194Y-83607484D01*
X123640870Y-83557221D01*
X123619379Y-83546158D01*
X123493660Y-83510947D01*
X123362813Y-83512961D01*
X123235980Y-83549571D01*
X123122307Y-83618148D01*
X123031569Y-83715153D01*
X122996979Y-83768445D01*
X122976537Y-83814457D01*
X122966569Y-83867667D01*
X122963400Y-83942552D01*
X122963212Y-83984464D01*
X122964925Y-84075026D01*
X122972204Y-84137558D01*
X122988257Y-84186294D01*
X123016291Y-84235472D01*
X123021601Y-84243575D01*
X123111889Y-84349092D01*
X123220430Y-84417522D01*
X123351729Y-84451419D01*
X123394789Y-84455160D01*
X123476977Y-84455856D01*
X123550000Y-84450000D01*
X123591781Y-84440767D01*
X123625819Y-84422788D01*
X123644137Y-84394163D01*
X123648059Y-84370648D01*
X123862795Y-84370648D01*
X123862795Y-84797835D01*
X124037420Y-84796640D01*
X124130022Y-84792966D01*
X124215671Y-84784341D01*
X124278129Y-84772495D01*
X124285577Y-84770181D01*
X124356045Y-84726169D01*
X124399512Y-84658563D01*
X124413397Y-84578350D01*
X124395120Y-84496517D01*
X124362083Y-84444473D01*
X124337160Y-84417940D01*
X124310817Y-84400416D01*
X124273724Y-84389641D01*
X124216551Y-84383357D01*
X124129969Y-84379306D01*
X124086917Y-84377866D01*
X123862795Y-84370648D01*
X123648059Y-84370648D01*
X123652836Y-84342006D01*
X123655281Y-84306667D01*
X123661712Y-84194585D01*
X124001931Y-84197109D01*
X124156066Y-84199919D01*
X124274545Y-84206924D01*
X124363972Y-84219858D01*
X124430954Y-84240460D01*
X124482096Y-84270463D01*
X124524004Y-84311606D01*
X124545837Y-84340069D01*
X124570441Y-84381616D01*
X124584854Y-84429044D01*
X124591556Y-84494929D01*
X124593045Y-84579324D01*
X124588344Y-84689458D01*
X124570717Y-84770055D01*
X124534878Y-84833215D01*
X124475543Y-84891039D01*
X124447328Y-84912943D01*
X124416605Y-84931867D01*
X124378286Y-84945057D01*
X124323782Y-84953879D01*
X124244508Y-84959698D01*
X124131877Y-84963880D01*
X124125844Y-84964053D01*
X123862795Y-84971521D01*
X123862795Y-85289379D01*
X123942170Y-85275755D01*
X123997860Y-85260123D01*
X124076801Y-85230405D01*
X124164727Y-85192124D01*
X124193434Y-85178479D01*
X124367382Y-85071284D01*
X124516582Y-84933696D01*
X124637418Y-84771444D01*
X124726276Y-84590259D01*
X124779539Y-84395872D01*
X124794129Y-84226335D01*
X124774391Y-84028921D01*
X124718031Y-83842481D01*
X124629330Y-83670751D01*
X124512568Y-83517464D01*
X124372026Y-83386355D01*
X124211983Y-83281159D01*
X124036721Y-83205608D01*
X123850519Y-83163439D01*
X123657659Y-83158385D01*
X123580423Y-83167462D01*
X123395183Y-83210036D01*
X123234366Y-83276943D01*
X123090992Y-83368788D01*
X122934376Y-83510934D01*
X122812663Y-83672120D01*
X122725732Y-83847600D01*
X122673466Y-84032630D01*
X122655744Y-84222468D01*
X122556712Y-84222468D01*
X122570098Y-84031049D01*
X122625799Y-83826807D01*
X122721644Y-83633909D01*
X122857006Y-83454438D01*
X122899712Y-83409097D01*
X123069616Y-83264219D01*
X123255759Y-83158405D01*
X123458594Y-83091466D01*
X123678575Y-83063214D01*
X123732390Y-83062168D01*
X123945063Y-83082554D01*
X124147127Y-83141479D01*
X124334094Y-83235594D01*
X124501478Y-83361549D01*
X124644790Y-83515996D01*
X124759543Y-83695584D01*
X124838404Y-83887668D01*
X124870195Y-84037372D01*
X124882245Y-84206490D01*
X124874566Y-84377440D01*
X124847175Y-84532641D01*
X124837855Y-84565001D01*
X124751426Y-84773671D01*
X124632567Y-84955725D01*
X124482849Y-85109771D01*
X124303844Y-85234415D01*
X124097122Y-85328263D01*
X123921004Y-85378453D01*
X123878388Y-85396247D01*
X123863621Y-85433388D01*
X123862795Y-85454404D01*
X123860450Y-85491758D01*
X123846136Y-85510384D01*
X123808934Y-85516795D01*
X123756962Y-85517501D01*
X123694281Y-85516012D01*
X123663021Y-85507435D01*
X123652279Y-85485606D01*
X123651129Y-85457660D01*
X123648579Y-85425625D01*
X123634802Y-85405187D01*
X123600603Y-85390814D01*
X123536790Y-85376975D01*
X123508254Y-85371690D01*
X123305160Y-85313692D01*
X123117163Y-85219174D01*
X122948849Y-85092624D01*
X122804809Y-84938532D01*
X122689628Y-84761384D01*
X122607897Y-84565670D01*
X122581637Y-84465240D01*
X122555168Y-84244554D01*
X122556712Y-84222468D01*
%TD*%
D11*
%TO.C,Ex1*%
X147900000Y-90650000D03*
%TD*%
D12*
%TO.C,ToPi*%
X150050000Y-80600000D03*
X149550000Y-80600000D03*
X149050000Y-80600000D03*
X148550000Y-80600000D03*
X148050000Y-80600000D03*
X147550000Y-80600000D03*
X147050000Y-80600000D03*
X146550000Y-80600000D03*
X146050000Y-80600000D03*
X145550000Y-80600000D03*
X145050000Y-80600000D03*
X144550000Y-80600000D03*
X144050000Y-80600000D03*
X143550000Y-80600000D03*
X143050000Y-80600000D03*
X142550000Y-80600000D03*
X142050000Y-80600000D03*
X141550000Y-80600000D03*
X141050000Y-80600000D03*
X140550000Y-80600000D03*
D13*
X151950000Y-77350000D03*
X138650000Y-77350000D03*
%TD*%
D14*
%TO.C,LSCAN*%
X161600000Y-94250000D03*
%TD*%
D11*
%TO.C,Ex2*%
X148700000Y-86150000D03*
%TD*%
D15*
%TO.C,R1*%
X161600000Y-80050000D03*
D16*
X166679999Y-80049999D03*
%TD*%
D14*
%TO.C,J5*%
X185100000Y-84090000D03*
D17*
X185099999Y-86629999D03*
X185099999Y-89169999D03*
X185099999Y-91709999D03*
X185099999Y-94249999D03*
%TD*%
D18*
%TO.C,H4*%
X106550000Y-100250000D03*
X107252944Y-98552944D03*
X107252944Y-101947056D03*
X108950000Y-97850000D03*
D19*
X108950000Y-100250000D03*
D18*
X108950000Y-102650000D03*
X110647056Y-98552944D03*
X110647056Y-101947056D03*
X111350000Y-100250000D03*
%TD*%
D14*
%TO.C,J6*%
X162800000Y-83760000D03*
D17*
X165339999Y-83759999D03*
X162799999Y-86299999D03*
X165339999Y-86299999D03*
X162799999Y-88839999D03*
X165339999Y-88839999D03*
%TD*%
D18*
%TO.C,H2*%
X179950000Y-101750000D03*
X180652944Y-100052944D03*
X180652944Y-103447056D03*
X182350000Y-99350000D03*
D19*
X182350000Y-101750000D03*
D18*
X182350000Y-104150000D03*
X184047056Y-100052944D03*
X184047056Y-103447056D03*
X184750000Y-101750000D03*
%TD*%
%TO.C,H5*%
X179500000Y-77850000D03*
X180202944Y-76152944D03*
X180202944Y-79547056D03*
X181900000Y-75450000D03*
D19*
X181900000Y-77850000D03*
D18*
X181900000Y-80250000D03*
X183597056Y-76152944D03*
X183597056Y-79547056D03*
X184300000Y-77850000D03*
%TD*%
D17*
%TO.C,J1*%
X167574999Y-101834999D03*
X166304999Y-99294999D03*
X165034999Y-101834999D03*
X163764999Y-99294999D03*
X162494999Y-101834999D03*
X161224999Y-99294999D03*
X159954999Y-101834999D03*
X158684999Y-99294999D03*
X171384999Y-99294999D03*
X168844999Y-99294999D03*
X156144999Y-99294999D03*
X153604999Y-99294999D03*
X157414999Y-101834999D03*
%TD*%
D18*
%TO.C,H1*%
X106350000Y-77700000D03*
X107052944Y-76002944D03*
X107052944Y-79397056D03*
X108750000Y-75300000D03*
D19*
X108750000Y-77700000D03*
D18*
X108750000Y-80100000D03*
X110447056Y-76002944D03*
X110447056Y-79397056D03*
X111150000Y-77700000D03*
%TD*%
D17*
%TO.C,J3*%
X138064999Y-101834999D03*
X136794999Y-99294999D03*
X135524999Y-101834999D03*
X134254999Y-99294999D03*
X132984999Y-101834999D03*
X131714999Y-99294999D03*
X130444999Y-101834999D03*
X129174999Y-99294999D03*
X141874999Y-99294999D03*
X139334999Y-99294999D03*
X126634999Y-99294999D03*
X124094999Y-99294999D03*
X127904999Y-101834999D03*
%TD*%
M02*
