%TF.GenerationSoftware,KiCad,Pcbnew,(7.0.0)*%
%TF.CreationDate,2023-03-30T12:26:05-04:00*%
%TF.ProjectId,headunit_hub,68656164-756e-4697-945f-6875622e6b69,rev?*%
%TF.SameCoordinates,Original*%
%TF.FileFunction,Legend,Bot*%
%TF.FilePolarity,Positive*%
%FSLAX46Y46*%
G04 Gerber Fmt 4.6, Leading zero omitted, Abs format (unit mm)*
G04 Created by KiCad (PCBNEW (7.0.0)) date 2023-03-30 12:26:05*
%MOMM*%
%LPD*%
G01*
G04 APERTURE LIST*
%ADD10C,0.250000*%
G04 APERTURE END LIST*
D10*
X182538095Y-91780000D02*
X182633333Y-91732380D01*
X182633333Y-91732380D02*
X182776190Y-91732380D01*
X182776190Y-91732380D02*
X182919047Y-91780000D01*
X182919047Y-91780000D02*
X183014285Y-91875238D01*
X183014285Y-91875238D02*
X183061904Y-91970476D01*
X183061904Y-91970476D02*
X183109523Y-92160952D01*
X183109523Y-92160952D02*
X183109523Y-92303809D01*
X183109523Y-92303809D02*
X183061904Y-92494285D01*
X183061904Y-92494285D02*
X183014285Y-92589523D01*
X183014285Y-92589523D02*
X182919047Y-92684761D01*
X182919047Y-92684761D02*
X182776190Y-92732380D01*
X182776190Y-92732380D02*
X182680952Y-92732380D01*
X182680952Y-92732380D02*
X182538095Y-92684761D01*
X182538095Y-92684761D02*
X182490476Y-92637142D01*
X182490476Y-92637142D02*
X182490476Y-92303809D01*
X182490476Y-92303809D02*
X182680952Y-92303809D01*
X182061904Y-92732380D02*
X182061904Y-91732380D01*
X182061904Y-91732380D02*
X181490476Y-92732380D01*
X181490476Y-92732380D02*
X181490476Y-91732380D01*
X181014285Y-92732380D02*
X181014285Y-91732380D01*
X181014285Y-91732380D02*
X180776190Y-91732380D01*
X180776190Y-91732380D02*
X180633333Y-91780000D01*
X180633333Y-91780000D02*
X180538095Y-91875238D01*
X180538095Y-91875238D02*
X180490476Y-91970476D01*
X180490476Y-91970476D02*
X180442857Y-92160952D01*
X180442857Y-92160952D02*
X180442857Y-92303809D01*
X180442857Y-92303809D02*
X180490476Y-92494285D01*
X180490476Y-92494285D02*
X180538095Y-92589523D01*
X180538095Y-92589523D02*
X180633333Y-92684761D01*
X180633333Y-92684761D02*
X180776190Y-92732380D01*
X180776190Y-92732380D02*
X181014285Y-92732380D01*
X183061904Y-87182380D02*
X183061904Y-86182380D01*
X183061904Y-86182380D02*
X182823809Y-86182380D01*
X182823809Y-86182380D02*
X182680952Y-86230000D01*
X182680952Y-86230000D02*
X182585714Y-86325238D01*
X182585714Y-86325238D02*
X182538095Y-86420476D01*
X182538095Y-86420476D02*
X182490476Y-86610952D01*
X182490476Y-86610952D02*
X182490476Y-86753809D01*
X182490476Y-86753809D02*
X182538095Y-86944285D01*
X182538095Y-86944285D02*
X182585714Y-87039523D01*
X182585714Y-87039523D02*
X182680952Y-87134761D01*
X182680952Y-87134761D02*
X182823809Y-87182380D01*
X182823809Y-87182380D02*
X183061904Y-87182380D01*
X182061904Y-86801428D02*
X181300000Y-86801428D01*
X183074998Y-93932380D02*
X183074998Y-94741904D01*
X183074998Y-94741904D02*
X183027379Y-94837142D01*
X183027379Y-94837142D02*
X182979760Y-94884761D01*
X182979760Y-94884761D02*
X182884522Y-94932380D01*
X182884522Y-94932380D02*
X182694046Y-94932380D01*
X182694046Y-94932380D02*
X182598808Y-94884761D01*
X182598808Y-94884761D02*
X182551189Y-94837142D01*
X182551189Y-94837142D02*
X182503570Y-94741904D01*
X182503570Y-94741904D02*
X182503570Y-93932380D01*
X182074998Y-94884761D02*
X181932141Y-94932380D01*
X181932141Y-94932380D02*
X181694046Y-94932380D01*
X181694046Y-94932380D02*
X181598808Y-94884761D01*
X181598808Y-94884761D02*
X181551189Y-94837142D01*
X181551189Y-94837142D02*
X181503570Y-94741904D01*
X181503570Y-94741904D02*
X181503570Y-94646666D01*
X181503570Y-94646666D02*
X181551189Y-94551428D01*
X181551189Y-94551428D02*
X181598808Y-94503809D01*
X181598808Y-94503809D02*
X181694046Y-94456190D01*
X181694046Y-94456190D02*
X181884522Y-94408571D01*
X181884522Y-94408571D02*
X181979760Y-94360952D01*
X181979760Y-94360952D02*
X182027379Y-94313333D01*
X182027379Y-94313333D02*
X182074998Y-94218095D01*
X182074998Y-94218095D02*
X182074998Y-94122857D01*
X182074998Y-94122857D02*
X182027379Y-94027619D01*
X182027379Y-94027619D02*
X181979760Y-93980000D01*
X181979760Y-93980000D02*
X181884522Y-93932380D01*
X181884522Y-93932380D02*
X181646427Y-93932380D01*
X181646427Y-93932380D02*
X181503570Y-93980000D01*
X180741665Y-94408571D02*
X180598808Y-94456190D01*
X180598808Y-94456190D02*
X180551189Y-94503809D01*
X180551189Y-94503809D02*
X180503570Y-94599047D01*
X180503570Y-94599047D02*
X180503570Y-94741904D01*
X180503570Y-94741904D02*
X180551189Y-94837142D01*
X180551189Y-94837142D02*
X180598808Y-94884761D01*
X180598808Y-94884761D02*
X180694046Y-94932380D01*
X180694046Y-94932380D02*
X181074998Y-94932380D01*
X181074998Y-94932380D02*
X181074998Y-93932380D01*
X181074998Y-93932380D02*
X180741665Y-93932380D01*
X180741665Y-93932380D02*
X180646427Y-93980000D01*
X180646427Y-93980000D02*
X180598808Y-94027619D01*
X180598808Y-94027619D02*
X180551189Y-94122857D01*
X180551189Y-94122857D02*
X180551189Y-94218095D01*
X180551189Y-94218095D02*
X180598808Y-94313333D01*
X180598808Y-94313333D02*
X180646427Y-94360952D01*
X180646427Y-94360952D02*
X180741665Y-94408571D01*
X180741665Y-94408571D02*
X181074998Y-94408571D01*
X179522617Y-94884761D02*
X179379760Y-94932380D01*
X179379760Y-94932380D02*
X179141665Y-94932380D01*
X179141665Y-94932380D02*
X179046427Y-94884761D01*
X179046427Y-94884761D02*
X178998808Y-94837142D01*
X178998808Y-94837142D02*
X178951189Y-94741904D01*
X178951189Y-94741904D02*
X178951189Y-94646666D01*
X178951189Y-94646666D02*
X178998808Y-94551428D01*
X178998808Y-94551428D02*
X179046427Y-94503809D01*
X179046427Y-94503809D02*
X179141665Y-94456190D01*
X179141665Y-94456190D02*
X179332141Y-94408571D01*
X179332141Y-94408571D02*
X179427379Y-94360952D01*
X179427379Y-94360952D02*
X179474998Y-94313333D01*
X179474998Y-94313333D02*
X179522617Y-94218095D01*
X179522617Y-94218095D02*
X179522617Y-94122857D01*
X179522617Y-94122857D02*
X179474998Y-94027619D01*
X179474998Y-94027619D02*
X179427379Y-93980000D01*
X179427379Y-93980000D02*
X179332141Y-93932380D01*
X179332141Y-93932380D02*
X179094046Y-93932380D01*
X179094046Y-93932380D02*
X178951189Y-93980000D01*
X178522617Y-94932380D02*
X178522617Y-93932380D01*
X178522617Y-94408571D02*
X177951189Y-94408571D01*
X177951189Y-94932380D02*
X177951189Y-93932380D01*
X176998808Y-94932380D02*
X177474998Y-94932380D01*
X177474998Y-94932380D02*
X177474998Y-93932380D01*
X176665474Y-94932380D02*
X176665474Y-93932380D01*
X176665474Y-93932380D02*
X176427379Y-93932380D01*
X176427379Y-93932380D02*
X176284522Y-93980000D01*
X176284522Y-93980000D02*
X176189284Y-94075238D01*
X176189284Y-94075238D02*
X176141665Y-94170476D01*
X176141665Y-94170476D02*
X176094046Y-94360952D01*
X176094046Y-94360952D02*
X176094046Y-94503809D01*
X176094046Y-94503809D02*
X176141665Y-94694285D01*
X176141665Y-94694285D02*
X176189284Y-94789523D01*
X176189284Y-94789523D02*
X176284522Y-94884761D01*
X176284522Y-94884761D02*
X176427379Y-94932380D01*
X176427379Y-94932380D02*
X176665474Y-94932380D01*
X183061904Y-89582380D02*
X183061904Y-88582380D01*
X183061904Y-88582380D02*
X182823809Y-88582380D01*
X182823809Y-88582380D02*
X182680952Y-88630000D01*
X182680952Y-88630000D02*
X182585714Y-88725238D01*
X182585714Y-88725238D02*
X182538095Y-88820476D01*
X182538095Y-88820476D02*
X182490476Y-89010952D01*
X182490476Y-89010952D02*
X182490476Y-89153809D01*
X182490476Y-89153809D02*
X182538095Y-89344285D01*
X182538095Y-89344285D02*
X182585714Y-89439523D01*
X182585714Y-89439523D02*
X182680952Y-89534761D01*
X182680952Y-89534761D02*
X182823809Y-89582380D01*
X182823809Y-89582380D02*
X183061904Y-89582380D01*
X182061904Y-89201428D02*
X181300000Y-89201428D01*
X181680952Y-89582380D02*
X181680952Y-88820476D01*
X183204761Y-83632380D02*
X182871428Y-84632380D01*
X182871428Y-84632380D02*
X182538095Y-83632380D01*
X181633333Y-84537142D02*
X181680952Y-84584761D01*
X181680952Y-84584761D02*
X181823809Y-84632380D01*
X181823809Y-84632380D02*
X181919047Y-84632380D01*
X181919047Y-84632380D02*
X182061904Y-84584761D01*
X182061904Y-84584761D02*
X182157142Y-84489523D01*
X182157142Y-84489523D02*
X182204761Y-84394285D01*
X182204761Y-84394285D02*
X182252380Y-84203809D01*
X182252380Y-84203809D02*
X182252380Y-84060952D01*
X182252380Y-84060952D02*
X182204761Y-83870476D01*
X182204761Y-83870476D02*
X182157142Y-83775238D01*
X182157142Y-83775238D02*
X182061904Y-83680000D01*
X182061904Y-83680000D02*
X181919047Y-83632380D01*
X181919047Y-83632380D02*
X181823809Y-83632380D01*
X181823809Y-83632380D02*
X181680952Y-83680000D01*
X181680952Y-83680000D02*
X181633333Y-83727619D01*
X180633333Y-84537142D02*
X180680952Y-84584761D01*
X180680952Y-84584761D02*
X180823809Y-84632380D01*
X180823809Y-84632380D02*
X180919047Y-84632380D01*
X180919047Y-84632380D02*
X181061904Y-84584761D01*
X181061904Y-84584761D02*
X181157142Y-84489523D01*
X181157142Y-84489523D02*
X181204761Y-84394285D01*
X181204761Y-84394285D02*
X181252380Y-84203809D01*
X181252380Y-84203809D02*
X181252380Y-84060952D01*
X181252380Y-84060952D02*
X181204761Y-83870476D01*
X181204761Y-83870476D02*
X181157142Y-83775238D01*
X181157142Y-83775238D02*
X181061904Y-83680000D01*
X181061904Y-83680000D02*
X180919047Y-83632380D01*
X180919047Y-83632380D02*
X180823809Y-83632380D01*
X180823809Y-83632380D02*
X180680952Y-83680000D01*
X180680952Y-83680000D02*
X180633333Y-83727619D01*
M02*
