%TF.GenerationSoftware,KiCad,Pcbnew,(7.0.0)*%
%TF.CreationDate,2023-03-30T12:26:05-04:00*%
%TF.ProjectId,headunit_hub,68656164-756e-4697-945f-6875622e6b69,rev?*%
%TF.SameCoordinates,Original*%
%TF.FileFunction,Legend,Top*%
%TF.FilePolarity,Positive*%
%FSLAX46Y46*%
G04 Gerber Fmt 4.6, Leading zero omitted, Abs format (unit mm)*
G04 Created by KiCad (PCBNEW (7.0.0)) date 2023-03-30 12:26:05*
%MOMM*%
%LPD*%
G01*
G04 APERTURE LIST*
%ADD10C,0.250000*%
%ADD11C,0.304800*%
%ADD12C,0.300000*%
%ADD13C,0.150000*%
%ADD14C,0.120000*%
%ADD15C,0.010000*%
G04 APERTURE END LIST*
D10*
X176088095Y-93882380D02*
X176088095Y-94691904D01*
X176088095Y-94691904D02*
X176135714Y-94787142D01*
X176135714Y-94787142D02*
X176183333Y-94834761D01*
X176183333Y-94834761D02*
X176278571Y-94882380D01*
X176278571Y-94882380D02*
X176469047Y-94882380D01*
X176469047Y-94882380D02*
X176564285Y-94834761D01*
X176564285Y-94834761D02*
X176611904Y-94787142D01*
X176611904Y-94787142D02*
X176659523Y-94691904D01*
X176659523Y-94691904D02*
X176659523Y-93882380D01*
X177088095Y-94834761D02*
X177230952Y-94882380D01*
X177230952Y-94882380D02*
X177469047Y-94882380D01*
X177469047Y-94882380D02*
X177564285Y-94834761D01*
X177564285Y-94834761D02*
X177611904Y-94787142D01*
X177611904Y-94787142D02*
X177659523Y-94691904D01*
X177659523Y-94691904D02*
X177659523Y-94596666D01*
X177659523Y-94596666D02*
X177611904Y-94501428D01*
X177611904Y-94501428D02*
X177564285Y-94453809D01*
X177564285Y-94453809D02*
X177469047Y-94406190D01*
X177469047Y-94406190D02*
X177278571Y-94358571D01*
X177278571Y-94358571D02*
X177183333Y-94310952D01*
X177183333Y-94310952D02*
X177135714Y-94263333D01*
X177135714Y-94263333D02*
X177088095Y-94168095D01*
X177088095Y-94168095D02*
X177088095Y-94072857D01*
X177088095Y-94072857D02*
X177135714Y-93977619D01*
X177135714Y-93977619D02*
X177183333Y-93930000D01*
X177183333Y-93930000D02*
X177278571Y-93882380D01*
X177278571Y-93882380D02*
X177516666Y-93882380D01*
X177516666Y-93882380D02*
X177659523Y-93930000D01*
X178421428Y-94358571D02*
X178564285Y-94406190D01*
X178564285Y-94406190D02*
X178611904Y-94453809D01*
X178611904Y-94453809D02*
X178659523Y-94549047D01*
X178659523Y-94549047D02*
X178659523Y-94691904D01*
X178659523Y-94691904D02*
X178611904Y-94787142D01*
X178611904Y-94787142D02*
X178564285Y-94834761D01*
X178564285Y-94834761D02*
X178469047Y-94882380D01*
X178469047Y-94882380D02*
X178088095Y-94882380D01*
X178088095Y-94882380D02*
X178088095Y-93882380D01*
X178088095Y-93882380D02*
X178421428Y-93882380D01*
X178421428Y-93882380D02*
X178516666Y-93930000D01*
X178516666Y-93930000D02*
X178564285Y-93977619D01*
X178564285Y-93977619D02*
X178611904Y-94072857D01*
X178611904Y-94072857D02*
X178611904Y-94168095D01*
X178611904Y-94168095D02*
X178564285Y-94263333D01*
X178564285Y-94263333D02*
X178516666Y-94310952D01*
X178516666Y-94310952D02*
X178421428Y-94358571D01*
X178421428Y-94358571D02*
X178088095Y-94358571D01*
X179640476Y-94834761D02*
X179783333Y-94882380D01*
X179783333Y-94882380D02*
X180021428Y-94882380D01*
X180021428Y-94882380D02*
X180116666Y-94834761D01*
X180116666Y-94834761D02*
X180164285Y-94787142D01*
X180164285Y-94787142D02*
X180211904Y-94691904D01*
X180211904Y-94691904D02*
X180211904Y-94596666D01*
X180211904Y-94596666D02*
X180164285Y-94501428D01*
X180164285Y-94501428D02*
X180116666Y-94453809D01*
X180116666Y-94453809D02*
X180021428Y-94406190D01*
X180021428Y-94406190D02*
X179830952Y-94358571D01*
X179830952Y-94358571D02*
X179735714Y-94310952D01*
X179735714Y-94310952D02*
X179688095Y-94263333D01*
X179688095Y-94263333D02*
X179640476Y-94168095D01*
X179640476Y-94168095D02*
X179640476Y-94072857D01*
X179640476Y-94072857D02*
X179688095Y-93977619D01*
X179688095Y-93977619D02*
X179735714Y-93930000D01*
X179735714Y-93930000D02*
X179830952Y-93882380D01*
X179830952Y-93882380D02*
X180069047Y-93882380D01*
X180069047Y-93882380D02*
X180211904Y-93930000D01*
X180640476Y-94882380D02*
X180640476Y-93882380D01*
X180640476Y-94358571D02*
X181211904Y-94358571D01*
X181211904Y-94882380D02*
X181211904Y-93882380D01*
X182164285Y-94882380D02*
X181688095Y-94882380D01*
X181688095Y-94882380D02*
X181688095Y-93882380D01*
X182497619Y-94882380D02*
X182497619Y-93882380D01*
X182497619Y-93882380D02*
X182735714Y-93882380D01*
X182735714Y-93882380D02*
X182878571Y-93930000D01*
X182878571Y-93930000D02*
X182973809Y-94025238D01*
X182973809Y-94025238D02*
X183021428Y-94120476D01*
X183021428Y-94120476D02*
X183069047Y-94310952D01*
X183069047Y-94310952D02*
X183069047Y-94453809D01*
X183069047Y-94453809D02*
X183021428Y-94644285D01*
X183021428Y-94644285D02*
X182973809Y-94739523D01*
X182973809Y-94739523D02*
X182878571Y-94834761D01*
X182878571Y-94834761D02*
X182735714Y-94882380D01*
X182735714Y-94882380D02*
X182497619Y-94882380D01*
D11*
X156910571Y-73885888D02*
X156910571Y-74974460D01*
X156910571Y-74974460D02*
X156838000Y-75192174D01*
X156838000Y-75192174D02*
X156692857Y-75337317D01*
X156692857Y-75337317D02*
X156475143Y-75409888D01*
X156475143Y-75409888D02*
X156330000Y-75409888D01*
X158362000Y-75409888D02*
X157636286Y-75409888D01*
X157636286Y-75409888D02*
X157636286Y-73885888D01*
X159740857Y-75264745D02*
X159668285Y-75337317D01*
X159668285Y-75337317D02*
X159450571Y-75409888D01*
X159450571Y-75409888D02*
X159305428Y-75409888D01*
X159305428Y-75409888D02*
X159087714Y-75337317D01*
X159087714Y-75337317D02*
X158942571Y-75192174D01*
X158942571Y-75192174D02*
X158870000Y-75047031D01*
X158870000Y-75047031D02*
X158797428Y-74756745D01*
X158797428Y-74756745D02*
X158797428Y-74539031D01*
X158797428Y-74539031D02*
X158870000Y-74248745D01*
X158870000Y-74248745D02*
X158942571Y-74103602D01*
X158942571Y-74103602D02*
X159087714Y-73958460D01*
X159087714Y-73958460D02*
X159305428Y-73885888D01*
X159305428Y-73885888D02*
X159450571Y-73885888D01*
X159450571Y-73885888D02*
X159668285Y-73958460D01*
X159668285Y-73958460D02*
X159740857Y-74031031D01*
X160829428Y-73885888D02*
X160829428Y-74974460D01*
X160829428Y-74974460D02*
X160756857Y-75192174D01*
X160756857Y-75192174D02*
X160611714Y-75337317D01*
X160611714Y-75337317D02*
X160394000Y-75409888D01*
X160394000Y-75409888D02*
X160248857Y-75409888D01*
X162280857Y-75409888D02*
X161555143Y-75409888D01*
X161555143Y-75409888D02*
X161555143Y-73885888D01*
X163659714Y-75264745D02*
X163587142Y-75337317D01*
X163587142Y-75337317D02*
X163369428Y-75409888D01*
X163369428Y-75409888D02*
X163224285Y-75409888D01*
X163224285Y-75409888D02*
X163006571Y-75337317D01*
X163006571Y-75337317D02*
X162861428Y-75192174D01*
X162861428Y-75192174D02*
X162788857Y-75047031D01*
X162788857Y-75047031D02*
X162716285Y-74756745D01*
X162716285Y-74756745D02*
X162716285Y-74539031D01*
X162716285Y-74539031D02*
X162788857Y-74248745D01*
X162788857Y-74248745D02*
X162861428Y-74103602D01*
X162861428Y-74103602D02*
X163006571Y-73958460D01*
X163006571Y-73958460D02*
X163224285Y-73885888D01*
X163224285Y-73885888D02*
X163369428Y-73885888D01*
X163369428Y-73885888D02*
X163587142Y-73958460D01*
X163587142Y-73958460D02*
X163659714Y-74031031D01*
X164748285Y-73885888D02*
X164748285Y-74974460D01*
X164748285Y-74974460D02*
X164675714Y-75192174D01*
X164675714Y-75192174D02*
X164530571Y-75337317D01*
X164530571Y-75337317D02*
X164312857Y-75409888D01*
X164312857Y-75409888D02*
X164167714Y-75409888D01*
X166199714Y-75409888D02*
X165474000Y-75409888D01*
X165474000Y-75409888D02*
X165474000Y-73885888D01*
X167578571Y-75264745D02*
X167505999Y-75337317D01*
X167505999Y-75337317D02*
X167288285Y-75409888D01*
X167288285Y-75409888D02*
X167143142Y-75409888D01*
X167143142Y-75409888D02*
X166925428Y-75337317D01*
X166925428Y-75337317D02*
X166780285Y-75192174D01*
X166780285Y-75192174D02*
X166707714Y-75047031D01*
X166707714Y-75047031D02*
X166635142Y-74756745D01*
X166635142Y-74756745D02*
X166635142Y-74539031D01*
X166635142Y-74539031D02*
X166707714Y-74248745D01*
X166707714Y-74248745D02*
X166780285Y-74103602D01*
X166780285Y-74103602D02*
X166925428Y-73958460D01*
X166925428Y-73958460D02*
X167143142Y-73885888D01*
X167143142Y-73885888D02*
X167288285Y-73885888D01*
X167288285Y-73885888D02*
X167505999Y-73958460D01*
X167505999Y-73958460D02*
X167578571Y-74031031D01*
X168667142Y-73885888D02*
X168667142Y-74974460D01*
X168667142Y-74974460D02*
X168594571Y-75192174D01*
X168594571Y-75192174D02*
X168449428Y-75337317D01*
X168449428Y-75337317D02*
X168231714Y-75409888D01*
X168231714Y-75409888D02*
X168086571Y-75409888D01*
X170118571Y-75409888D02*
X169392857Y-75409888D01*
X169392857Y-75409888D02*
X169392857Y-73885888D01*
X171497428Y-75264745D02*
X171424856Y-75337317D01*
X171424856Y-75337317D02*
X171207142Y-75409888D01*
X171207142Y-75409888D02*
X171061999Y-75409888D01*
X171061999Y-75409888D02*
X170844285Y-75337317D01*
X170844285Y-75337317D02*
X170699142Y-75192174D01*
X170699142Y-75192174D02*
X170626571Y-75047031D01*
X170626571Y-75047031D02*
X170553999Y-74756745D01*
X170553999Y-74756745D02*
X170553999Y-74539031D01*
X170553999Y-74539031D02*
X170626571Y-74248745D01*
X170626571Y-74248745D02*
X170699142Y-74103602D01*
X170699142Y-74103602D02*
X170844285Y-73958460D01*
X170844285Y-73958460D02*
X171061999Y-73885888D01*
X171061999Y-73885888D02*
X171207142Y-73885888D01*
X171207142Y-73885888D02*
X171424856Y-73958460D01*
X171424856Y-73958460D02*
X171497428Y-74031031D01*
D10*
X181338095Y-89582380D02*
X181338095Y-88582380D01*
X181338095Y-88582380D02*
X181576190Y-88582380D01*
X181576190Y-88582380D02*
X181719047Y-88630000D01*
X181719047Y-88630000D02*
X181814285Y-88725238D01*
X181814285Y-88725238D02*
X181861904Y-88820476D01*
X181861904Y-88820476D02*
X181909523Y-89010952D01*
X181909523Y-89010952D02*
X181909523Y-89153809D01*
X181909523Y-89153809D02*
X181861904Y-89344285D01*
X181861904Y-89344285D02*
X181814285Y-89439523D01*
X181814285Y-89439523D02*
X181719047Y-89534761D01*
X181719047Y-89534761D02*
X181576190Y-89582380D01*
X181576190Y-89582380D02*
X181338095Y-89582380D01*
X182338095Y-89201428D02*
X183100000Y-89201428D01*
X182719047Y-89582380D02*
X182719047Y-88820476D01*
D12*
X168242857Y-85045000D02*
X168100000Y-84973571D01*
X168100000Y-84973571D02*
X167885714Y-84973571D01*
X167885714Y-84973571D02*
X167671428Y-85045000D01*
X167671428Y-85045000D02*
X167528571Y-85187857D01*
X167528571Y-85187857D02*
X167457142Y-85330714D01*
X167457142Y-85330714D02*
X167385714Y-85616428D01*
X167385714Y-85616428D02*
X167385714Y-85830714D01*
X167385714Y-85830714D02*
X167457142Y-86116428D01*
X167457142Y-86116428D02*
X167528571Y-86259285D01*
X167528571Y-86259285D02*
X167671428Y-86402142D01*
X167671428Y-86402142D02*
X167885714Y-86473571D01*
X167885714Y-86473571D02*
X168028571Y-86473571D01*
X168028571Y-86473571D02*
X168242857Y-86402142D01*
X168242857Y-86402142D02*
X168314285Y-86330714D01*
X168314285Y-86330714D02*
X168314285Y-85830714D01*
X168314285Y-85830714D02*
X168028571Y-85830714D01*
X168957142Y-86473571D02*
X168957142Y-84973571D01*
X168957142Y-84973571D02*
X169814285Y-86473571D01*
X169814285Y-86473571D02*
X169814285Y-84973571D01*
X170528571Y-86473571D02*
X170528571Y-84973571D01*
X170528571Y-84973571D02*
X170885714Y-84973571D01*
X170885714Y-84973571D02*
X171100000Y-85045000D01*
X171100000Y-85045000D02*
X171242857Y-85187857D01*
X171242857Y-85187857D02*
X171314286Y-85330714D01*
X171314286Y-85330714D02*
X171385714Y-85616428D01*
X171385714Y-85616428D02*
X171385714Y-85830714D01*
X171385714Y-85830714D02*
X171314286Y-86116428D01*
X171314286Y-86116428D02*
X171242857Y-86259285D01*
X171242857Y-86259285D02*
X171100000Y-86402142D01*
X171100000Y-86402142D02*
X170885714Y-86473571D01*
X170885714Y-86473571D02*
X170528571Y-86473571D01*
D11*
X114036742Y-74531031D02*
X114109314Y-74458460D01*
X114109314Y-74458460D02*
X114254457Y-74385888D01*
X114254457Y-74385888D02*
X114617314Y-74385888D01*
X114617314Y-74385888D02*
X114762457Y-74458460D01*
X114762457Y-74458460D02*
X114835028Y-74531031D01*
X114835028Y-74531031D02*
X114907599Y-74676174D01*
X114907599Y-74676174D02*
X114907599Y-74821317D01*
X114907599Y-74821317D02*
X114835028Y-75039031D01*
X114835028Y-75039031D02*
X113964171Y-75909888D01*
X113964171Y-75909888D02*
X114907599Y-75909888D01*
X115851028Y-74385888D02*
X115996171Y-74385888D01*
X115996171Y-74385888D02*
X116141314Y-74458460D01*
X116141314Y-74458460D02*
X116213886Y-74531031D01*
X116213886Y-74531031D02*
X116286457Y-74676174D01*
X116286457Y-74676174D02*
X116359028Y-74966460D01*
X116359028Y-74966460D02*
X116359028Y-75329317D01*
X116359028Y-75329317D02*
X116286457Y-75619602D01*
X116286457Y-75619602D02*
X116213886Y-75764745D01*
X116213886Y-75764745D02*
X116141314Y-75837317D01*
X116141314Y-75837317D02*
X115996171Y-75909888D01*
X115996171Y-75909888D02*
X115851028Y-75909888D01*
X115851028Y-75909888D02*
X115705886Y-75837317D01*
X115705886Y-75837317D02*
X115633314Y-75764745D01*
X115633314Y-75764745D02*
X115560743Y-75619602D01*
X115560743Y-75619602D02*
X115488171Y-75329317D01*
X115488171Y-75329317D02*
X115488171Y-74966460D01*
X115488171Y-74966460D02*
X115560743Y-74676174D01*
X115560743Y-74676174D02*
X115633314Y-74531031D01*
X115633314Y-74531031D02*
X115705886Y-74458460D01*
X115705886Y-74458460D02*
X115851028Y-74385888D01*
X116939600Y-74531031D02*
X117012172Y-74458460D01*
X117012172Y-74458460D02*
X117157315Y-74385888D01*
X117157315Y-74385888D02*
X117520172Y-74385888D01*
X117520172Y-74385888D02*
X117665315Y-74458460D01*
X117665315Y-74458460D02*
X117737886Y-74531031D01*
X117737886Y-74531031D02*
X117810457Y-74676174D01*
X117810457Y-74676174D02*
X117810457Y-74821317D01*
X117810457Y-74821317D02*
X117737886Y-75039031D01*
X117737886Y-75039031D02*
X116867029Y-75909888D01*
X116867029Y-75909888D02*
X117810457Y-75909888D01*
X118318458Y-74385888D02*
X119261886Y-74385888D01*
X119261886Y-74385888D02*
X118753886Y-74966460D01*
X118753886Y-74966460D02*
X118971601Y-74966460D01*
X118971601Y-74966460D02*
X119116744Y-75039031D01*
X119116744Y-75039031D02*
X119189315Y-75111602D01*
X119189315Y-75111602D02*
X119261886Y-75256745D01*
X119261886Y-75256745D02*
X119261886Y-75619602D01*
X119261886Y-75619602D02*
X119189315Y-75764745D01*
X119189315Y-75764745D02*
X119116744Y-75837317D01*
X119116744Y-75837317D02*
X118971601Y-75909888D01*
X118971601Y-75909888D02*
X118536172Y-75909888D01*
X118536172Y-75909888D02*
X118391029Y-75837317D01*
X118391029Y-75837317D02*
X118318458Y-75764745D01*
X120829430Y-75909888D02*
X120829430Y-74385888D01*
X122426001Y-75764745D02*
X122353429Y-75837317D01*
X122353429Y-75837317D02*
X122135715Y-75909888D01*
X122135715Y-75909888D02*
X121990572Y-75909888D01*
X121990572Y-75909888D02*
X121772858Y-75837317D01*
X121772858Y-75837317D02*
X121627715Y-75692174D01*
X121627715Y-75692174D02*
X121555144Y-75547031D01*
X121555144Y-75547031D02*
X121482572Y-75256745D01*
X121482572Y-75256745D02*
X121482572Y-75039031D01*
X121482572Y-75039031D02*
X121555144Y-74748745D01*
X121555144Y-74748745D02*
X121627715Y-74603602D01*
X121627715Y-74603602D02*
X121772858Y-74458460D01*
X121772858Y-74458460D02*
X121990572Y-74385888D01*
X121990572Y-74385888D02*
X122135715Y-74385888D01*
X122135715Y-74385888D02*
X122353429Y-74458460D01*
X122353429Y-74458460D02*
X122426001Y-74531031D01*
X123079144Y-75909888D02*
X123079144Y-74385888D01*
X123079144Y-74385888D02*
X123587144Y-75474460D01*
X123587144Y-75474460D02*
X124095144Y-74385888D01*
X124095144Y-74385888D02*
X124095144Y-75909888D01*
X124820858Y-75909888D02*
X124820858Y-74385888D01*
X124820858Y-75111602D02*
X125691715Y-75111602D01*
X125691715Y-75909888D02*
X125691715Y-74385888D01*
X127070572Y-74893888D02*
X127070572Y-75909888D01*
X126417429Y-74893888D02*
X126417429Y-75692174D01*
X126417429Y-75692174D02*
X126490000Y-75837317D01*
X126490000Y-75837317D02*
X126635143Y-75909888D01*
X126635143Y-75909888D02*
X126852857Y-75909888D01*
X126852857Y-75909888D02*
X126998000Y-75837317D01*
X126998000Y-75837317D02*
X127070572Y-75764745D01*
X127796286Y-75909888D02*
X127796286Y-74385888D01*
X127796286Y-74966460D02*
X127941429Y-74893888D01*
X127941429Y-74893888D02*
X128231714Y-74893888D01*
X128231714Y-74893888D02*
X128376857Y-74966460D01*
X128376857Y-74966460D02*
X128449429Y-75039031D01*
X128449429Y-75039031D02*
X128522000Y-75184174D01*
X128522000Y-75184174D02*
X128522000Y-75619602D01*
X128522000Y-75619602D02*
X128449429Y-75764745D01*
X128449429Y-75764745D02*
X128376857Y-75837317D01*
X128376857Y-75837317D02*
X128231714Y-75909888D01*
X128231714Y-75909888D02*
X127941429Y-75909888D01*
X127941429Y-75909888D02*
X127796286Y-75837317D01*
X130089543Y-75909888D02*
X130089543Y-74385888D01*
X130089543Y-74385888D02*
X130597543Y-75474460D01*
X130597543Y-75474460D02*
X131105543Y-74385888D01*
X131105543Y-74385888D02*
X131105543Y-75909888D01*
X131831257Y-75909888D02*
X131831257Y-74385888D01*
X131976400Y-75329317D02*
X132411828Y-75909888D01*
X132411828Y-74893888D02*
X131831257Y-75474460D01*
X133863256Y-75909888D02*
X132992399Y-75909888D01*
X133427828Y-75909888D02*
X133427828Y-74385888D01*
X133427828Y-74385888D02*
X133282685Y-74603602D01*
X133282685Y-74603602D02*
X133137542Y-74748745D01*
X133137542Y-74748745D02*
X132992399Y-74821317D01*
D10*
X181011904Y-91580000D02*
X180916666Y-91532380D01*
X180916666Y-91532380D02*
X180773809Y-91532380D01*
X180773809Y-91532380D02*
X180630952Y-91580000D01*
X180630952Y-91580000D02*
X180535714Y-91675238D01*
X180535714Y-91675238D02*
X180488095Y-91770476D01*
X180488095Y-91770476D02*
X180440476Y-91960952D01*
X180440476Y-91960952D02*
X180440476Y-92103809D01*
X180440476Y-92103809D02*
X180488095Y-92294285D01*
X180488095Y-92294285D02*
X180535714Y-92389523D01*
X180535714Y-92389523D02*
X180630952Y-92484761D01*
X180630952Y-92484761D02*
X180773809Y-92532380D01*
X180773809Y-92532380D02*
X180869047Y-92532380D01*
X180869047Y-92532380D02*
X181011904Y-92484761D01*
X181011904Y-92484761D02*
X181059523Y-92437142D01*
X181059523Y-92437142D02*
X181059523Y-92103809D01*
X181059523Y-92103809D02*
X180869047Y-92103809D01*
X181488095Y-92532380D02*
X181488095Y-91532380D01*
X181488095Y-91532380D02*
X182059523Y-92532380D01*
X182059523Y-92532380D02*
X182059523Y-91532380D01*
X182535714Y-92532380D02*
X182535714Y-91532380D01*
X182535714Y-91532380D02*
X182773809Y-91532380D01*
X182773809Y-91532380D02*
X182916666Y-91580000D01*
X182916666Y-91580000D02*
X183011904Y-91675238D01*
X183011904Y-91675238D02*
X183059523Y-91770476D01*
X183059523Y-91770476D02*
X183107142Y-91960952D01*
X183107142Y-91960952D02*
X183107142Y-92103809D01*
X183107142Y-92103809D02*
X183059523Y-92294285D01*
X183059523Y-92294285D02*
X183011904Y-92389523D01*
X183011904Y-92389523D02*
X182916666Y-92484761D01*
X182916666Y-92484761D02*
X182773809Y-92532380D01*
X182773809Y-92532380D02*
X182535714Y-92532380D01*
X181338095Y-87032380D02*
X181338095Y-86032380D01*
X181338095Y-86032380D02*
X181576190Y-86032380D01*
X181576190Y-86032380D02*
X181719047Y-86080000D01*
X181719047Y-86080000D02*
X181814285Y-86175238D01*
X181814285Y-86175238D02*
X181861904Y-86270476D01*
X181861904Y-86270476D02*
X181909523Y-86460952D01*
X181909523Y-86460952D02*
X181909523Y-86603809D01*
X181909523Y-86603809D02*
X181861904Y-86794285D01*
X181861904Y-86794285D02*
X181814285Y-86889523D01*
X181814285Y-86889523D02*
X181719047Y-86984761D01*
X181719047Y-86984761D02*
X181576190Y-87032380D01*
X181576190Y-87032380D02*
X181338095Y-87032380D01*
X182338095Y-86651428D02*
X183100000Y-86651428D01*
D12*
X156592857Y-84973571D02*
X157092857Y-86473571D01*
X157092857Y-86473571D02*
X157592857Y-84973571D01*
X158949999Y-86330714D02*
X158878571Y-86402142D01*
X158878571Y-86402142D02*
X158664285Y-86473571D01*
X158664285Y-86473571D02*
X158521428Y-86473571D01*
X158521428Y-86473571D02*
X158307142Y-86402142D01*
X158307142Y-86402142D02*
X158164285Y-86259285D01*
X158164285Y-86259285D02*
X158092856Y-86116428D01*
X158092856Y-86116428D02*
X158021428Y-85830714D01*
X158021428Y-85830714D02*
X158021428Y-85616428D01*
X158021428Y-85616428D02*
X158092856Y-85330714D01*
X158092856Y-85330714D02*
X158164285Y-85187857D01*
X158164285Y-85187857D02*
X158307142Y-85045000D01*
X158307142Y-85045000D02*
X158521428Y-84973571D01*
X158521428Y-84973571D02*
X158664285Y-84973571D01*
X158664285Y-84973571D02*
X158878571Y-85045000D01*
X158878571Y-85045000D02*
X158949999Y-85116428D01*
X160449999Y-86330714D02*
X160378571Y-86402142D01*
X160378571Y-86402142D02*
X160164285Y-86473571D01*
X160164285Y-86473571D02*
X160021428Y-86473571D01*
X160021428Y-86473571D02*
X159807142Y-86402142D01*
X159807142Y-86402142D02*
X159664285Y-86259285D01*
X159664285Y-86259285D02*
X159592856Y-86116428D01*
X159592856Y-86116428D02*
X159521428Y-85830714D01*
X159521428Y-85830714D02*
X159521428Y-85616428D01*
X159521428Y-85616428D02*
X159592856Y-85330714D01*
X159592856Y-85330714D02*
X159664285Y-85187857D01*
X159664285Y-85187857D02*
X159807142Y-85045000D01*
X159807142Y-85045000D02*
X160021428Y-84973571D01*
X160021428Y-84973571D02*
X160164285Y-84973571D01*
X160164285Y-84973571D02*
X160378571Y-85045000D01*
X160378571Y-85045000D02*
X160449999Y-85116428D01*
D10*
X180095238Y-83632380D02*
X180428571Y-84632380D01*
X180428571Y-84632380D02*
X180761904Y-83632380D01*
X181666666Y-84537142D02*
X181619047Y-84584761D01*
X181619047Y-84584761D02*
X181476190Y-84632380D01*
X181476190Y-84632380D02*
X181380952Y-84632380D01*
X181380952Y-84632380D02*
X181238095Y-84584761D01*
X181238095Y-84584761D02*
X181142857Y-84489523D01*
X181142857Y-84489523D02*
X181095238Y-84394285D01*
X181095238Y-84394285D02*
X181047619Y-84203809D01*
X181047619Y-84203809D02*
X181047619Y-84060952D01*
X181047619Y-84060952D02*
X181095238Y-83870476D01*
X181095238Y-83870476D02*
X181142857Y-83775238D01*
X181142857Y-83775238D02*
X181238095Y-83680000D01*
X181238095Y-83680000D02*
X181380952Y-83632380D01*
X181380952Y-83632380D02*
X181476190Y-83632380D01*
X181476190Y-83632380D02*
X181619047Y-83680000D01*
X181619047Y-83680000D02*
X181666666Y-83727619D01*
X182666666Y-84537142D02*
X182619047Y-84584761D01*
X182619047Y-84584761D02*
X182476190Y-84632380D01*
X182476190Y-84632380D02*
X182380952Y-84632380D01*
X182380952Y-84632380D02*
X182238095Y-84584761D01*
X182238095Y-84584761D02*
X182142857Y-84489523D01*
X182142857Y-84489523D02*
X182095238Y-84394285D01*
X182095238Y-84394285D02*
X182047619Y-84203809D01*
X182047619Y-84203809D02*
X182047619Y-84060952D01*
X182047619Y-84060952D02*
X182095238Y-83870476D01*
X182095238Y-83870476D02*
X182142857Y-83775238D01*
X182142857Y-83775238D02*
X182238095Y-83680000D01*
X182238095Y-83680000D02*
X182380952Y-83632380D01*
X182380952Y-83632380D02*
X182476190Y-83632380D01*
X182476190Y-83632380D02*
X182619047Y-83680000D01*
X182619047Y-83680000D02*
X182666666Y-83727619D01*
D13*
%TO.C,Ex1*%
X146904762Y-88443571D02*
X147238095Y-88443571D01*
X147380952Y-88967380D02*
X146904762Y-88967380D01*
X146904762Y-88967380D02*
X146904762Y-87967380D01*
X146904762Y-87967380D02*
X147380952Y-87967380D01*
X147714286Y-88967380D02*
X148238095Y-88300714D01*
X147714286Y-88300714D02*
X148238095Y-88967380D01*
X149142857Y-88967380D02*
X148571429Y-88967380D01*
X148857143Y-88967380D02*
X148857143Y-87967380D01*
X148857143Y-87967380D02*
X148761905Y-88110238D01*
X148761905Y-88110238D02*
X148666667Y-88205476D01*
X148666667Y-88205476D02*
X148571429Y-88253095D01*
%TO.C,ToPi*%
X135717380Y-80326189D02*
X135717380Y-79754761D01*
X136717380Y-80040475D02*
X135717380Y-80040475D01*
X136717380Y-79278570D02*
X136669761Y-79373808D01*
X136669761Y-79373808D02*
X136622142Y-79421427D01*
X136622142Y-79421427D02*
X136526904Y-79469046D01*
X136526904Y-79469046D02*
X136241190Y-79469046D01*
X136241190Y-79469046D02*
X136145952Y-79421427D01*
X136145952Y-79421427D02*
X136098333Y-79373808D01*
X136098333Y-79373808D02*
X136050714Y-79278570D01*
X136050714Y-79278570D02*
X136050714Y-79135713D01*
X136050714Y-79135713D02*
X136098333Y-79040475D01*
X136098333Y-79040475D02*
X136145952Y-78992856D01*
X136145952Y-78992856D02*
X136241190Y-78945237D01*
X136241190Y-78945237D02*
X136526904Y-78945237D01*
X136526904Y-78945237D02*
X136622142Y-78992856D01*
X136622142Y-78992856D02*
X136669761Y-79040475D01*
X136669761Y-79040475D02*
X136717380Y-79135713D01*
X136717380Y-79135713D02*
X136717380Y-79278570D01*
X136717380Y-78516665D02*
X135717380Y-78516665D01*
X135717380Y-78516665D02*
X135717380Y-78135713D01*
X135717380Y-78135713D02*
X135765000Y-78040475D01*
X135765000Y-78040475D02*
X135812619Y-77992856D01*
X135812619Y-77992856D02*
X135907857Y-77945237D01*
X135907857Y-77945237D02*
X136050714Y-77945237D01*
X136050714Y-77945237D02*
X136145952Y-77992856D01*
X136145952Y-77992856D02*
X136193571Y-78040475D01*
X136193571Y-78040475D02*
X136241190Y-78135713D01*
X136241190Y-78135713D02*
X136241190Y-78516665D01*
X136717380Y-77516665D02*
X136050714Y-77516665D01*
X135717380Y-77516665D02*
X135765000Y-77564284D01*
X135765000Y-77564284D02*
X135812619Y-77516665D01*
X135812619Y-77516665D02*
X135765000Y-77469046D01*
X135765000Y-77469046D02*
X135717380Y-77516665D01*
X135717380Y-77516665D02*
X135812619Y-77516665D01*
%TO.C,LSCAN*%
X159980952Y-92287380D02*
X159504762Y-92287380D01*
X159504762Y-92287380D02*
X159504762Y-91287380D01*
X160266667Y-92239761D02*
X160409524Y-92287380D01*
X160409524Y-92287380D02*
X160647619Y-92287380D01*
X160647619Y-92287380D02*
X160742857Y-92239761D01*
X160742857Y-92239761D02*
X160790476Y-92192142D01*
X160790476Y-92192142D02*
X160838095Y-92096904D01*
X160838095Y-92096904D02*
X160838095Y-92001666D01*
X160838095Y-92001666D02*
X160790476Y-91906428D01*
X160790476Y-91906428D02*
X160742857Y-91858809D01*
X160742857Y-91858809D02*
X160647619Y-91811190D01*
X160647619Y-91811190D02*
X160457143Y-91763571D01*
X160457143Y-91763571D02*
X160361905Y-91715952D01*
X160361905Y-91715952D02*
X160314286Y-91668333D01*
X160314286Y-91668333D02*
X160266667Y-91573095D01*
X160266667Y-91573095D02*
X160266667Y-91477857D01*
X160266667Y-91477857D02*
X160314286Y-91382619D01*
X160314286Y-91382619D02*
X160361905Y-91335000D01*
X160361905Y-91335000D02*
X160457143Y-91287380D01*
X160457143Y-91287380D02*
X160695238Y-91287380D01*
X160695238Y-91287380D02*
X160838095Y-91335000D01*
X161838095Y-92192142D02*
X161790476Y-92239761D01*
X161790476Y-92239761D02*
X161647619Y-92287380D01*
X161647619Y-92287380D02*
X161552381Y-92287380D01*
X161552381Y-92287380D02*
X161409524Y-92239761D01*
X161409524Y-92239761D02*
X161314286Y-92144523D01*
X161314286Y-92144523D02*
X161266667Y-92049285D01*
X161266667Y-92049285D02*
X161219048Y-91858809D01*
X161219048Y-91858809D02*
X161219048Y-91715952D01*
X161219048Y-91715952D02*
X161266667Y-91525476D01*
X161266667Y-91525476D02*
X161314286Y-91430238D01*
X161314286Y-91430238D02*
X161409524Y-91335000D01*
X161409524Y-91335000D02*
X161552381Y-91287380D01*
X161552381Y-91287380D02*
X161647619Y-91287380D01*
X161647619Y-91287380D02*
X161790476Y-91335000D01*
X161790476Y-91335000D02*
X161838095Y-91382619D01*
X162219048Y-92001666D02*
X162695238Y-92001666D01*
X162123810Y-92287380D02*
X162457143Y-91287380D01*
X162457143Y-91287380D02*
X162790476Y-92287380D01*
X163123810Y-92287380D02*
X163123810Y-91287380D01*
X163123810Y-91287380D02*
X163695238Y-92287380D01*
X163695238Y-92287380D02*
X163695238Y-91287380D01*
%TO.C,Ex2*%
X147554762Y-83893571D02*
X147888095Y-83893571D01*
X148030952Y-84417380D02*
X147554762Y-84417380D01*
X147554762Y-84417380D02*
X147554762Y-83417380D01*
X147554762Y-83417380D02*
X148030952Y-83417380D01*
X148364286Y-84417380D02*
X148888095Y-83750714D01*
X148364286Y-83750714D02*
X148888095Y-84417380D01*
X149221429Y-83512619D02*
X149269048Y-83465000D01*
X149269048Y-83465000D02*
X149364286Y-83417380D01*
X149364286Y-83417380D02*
X149602381Y-83417380D01*
X149602381Y-83417380D02*
X149697619Y-83465000D01*
X149697619Y-83465000D02*
X149745238Y-83512619D01*
X149745238Y-83512619D02*
X149792857Y-83607857D01*
X149792857Y-83607857D02*
X149792857Y-83703095D01*
X149792857Y-83703095D02*
X149745238Y-83845952D01*
X149745238Y-83845952D02*
X149173810Y-84417380D01*
X149173810Y-84417380D02*
X149792857Y-84417380D01*
%TO.C,J1*%
X148527619Y-96421666D02*
X147813333Y-96421666D01*
X147813333Y-96421666D02*
X147670476Y-96374047D01*
X147670476Y-96374047D02*
X147575238Y-96278809D01*
X147575238Y-96278809D02*
X147527619Y-96135952D01*
X147527619Y-96135952D02*
X147527619Y-96040714D01*
X147527619Y-97421666D02*
X147527619Y-96850238D01*
X147527619Y-97135952D02*
X148527619Y-97135952D01*
X148527619Y-97135952D02*
X148384761Y-97040714D01*
X148384761Y-97040714D02*
X148289523Y-96945476D01*
X148289523Y-96945476D02*
X148241904Y-96850238D01*
%TO.C,J3*%
X119017619Y-96421666D02*
X118303333Y-96421666D01*
X118303333Y-96421666D02*
X118160476Y-96374047D01*
X118160476Y-96374047D02*
X118065238Y-96278809D01*
X118065238Y-96278809D02*
X118017619Y-96135952D01*
X118017619Y-96135952D02*
X118017619Y-96040714D01*
X119017619Y-96802619D02*
X119017619Y-97421666D01*
X119017619Y-97421666D02*
X118636666Y-97088333D01*
X118636666Y-97088333D02*
X118636666Y-97231190D01*
X118636666Y-97231190D02*
X118589047Y-97326428D01*
X118589047Y-97326428D02*
X118541428Y-97374047D01*
X118541428Y-97374047D02*
X118446190Y-97421666D01*
X118446190Y-97421666D02*
X118208095Y-97421666D01*
X118208095Y-97421666D02*
X118112857Y-97374047D01*
X118112857Y-97374047D02*
X118065238Y-97326428D01*
X118065238Y-97326428D02*
X118017619Y-97231190D01*
X118017619Y-97231190D02*
X118017619Y-96945476D01*
X118017619Y-96945476D02*
X118065238Y-96850238D01*
X118065238Y-96850238D02*
X118112857Y-96802619D01*
D14*
%TO.C,Ex1*%
X146700000Y-89450000D02*
X149100000Y-89450000D01*
X146700000Y-91850000D02*
X146700000Y-89450000D01*
X149100000Y-89450000D02*
X149100000Y-91850000D01*
X149100000Y-91850000D02*
X146700000Y-91850000D01*
%TO.C,ToPi*%
X151950000Y-80050000D02*
X151950000Y-78710000D01*
X151950000Y-75990000D02*
X151950000Y-74250000D01*
X151950000Y-74250000D02*
X138650000Y-74250000D01*
X150460000Y-80050000D02*
X151950000Y-80050000D01*
X150460000Y-80050000D02*
X150460000Y-81250000D01*
X140140000Y-80050000D02*
X138650000Y-80050000D01*
X138650000Y-80050000D02*
X138650000Y-78710000D01*
X138650000Y-74250000D02*
X138650000Y-75990000D01*
%TO.C,LSCAN*%
X160270000Y-92920000D02*
X161600000Y-92920000D01*
X160270000Y-94250000D02*
X160270000Y-92920000D01*
X160270000Y-95520000D02*
X160270000Y-95580000D01*
X160270000Y-95520000D02*
X162930000Y-95520000D01*
X160270000Y-95580000D02*
X162930000Y-95580000D01*
X162930000Y-95520000D02*
X162930000Y-95580000D01*
%TO.C,Ex2*%
X147500000Y-84950000D02*
X149900000Y-84950000D01*
X147500000Y-87350000D02*
X147500000Y-84950000D01*
X149900000Y-84950000D02*
X149900000Y-87350000D01*
X149900000Y-87350000D02*
X147500000Y-87350000D01*
%TO.C,R1*%
X162220000Y-79130000D02*
X166060000Y-79130000D01*
X162220000Y-80970000D02*
X166060000Y-80970000D01*
%TO.C,J5*%
X183770000Y-82760000D02*
X185100000Y-82760000D01*
X183770000Y-84090000D02*
X183770000Y-82760000D01*
X183770000Y-85360000D02*
X183770000Y-95580000D01*
X183770000Y-85360000D02*
X186430000Y-85360000D01*
X183770000Y-95580000D02*
X186430000Y-95580000D01*
X186430000Y-85360000D02*
X186430000Y-95580000D01*
%TO.C,H3*%
G36*
X121011502Y-83468482D02*
G01*
X121073048Y-83468482D01*
X121075232Y-83633463D01*
X121076381Y-83676586D01*
X121086860Y-83954535D01*
X121101519Y-84199944D01*
X121122015Y-84421450D01*
X121150001Y-84627691D01*
X121187135Y-84827302D01*
X121235070Y-85028921D01*
X121295463Y-85241185D01*
X121369968Y-85472730D01*
X121460241Y-85732194D01*
X121481944Y-85792668D01*
X121565478Y-86025379D01*
X121635491Y-86222732D01*
X121693387Y-86388987D01*
X121740571Y-86528400D01*
X121778446Y-86645229D01*
X121808416Y-86743733D01*
X121831887Y-86828169D01*
X121850261Y-86902796D01*
X121854936Y-86923662D01*
X121893485Y-87153079D01*
X121916789Y-87417317D01*
X121924594Y-87711608D01*
X121916644Y-88031180D01*
X121915410Y-88055943D01*
X121904453Y-88243513D01*
X121891351Y-88410180D01*
X121874684Y-88565124D01*
X121853035Y-88717521D01*
X121824984Y-88876548D01*
X121789112Y-89051383D01*
X121744001Y-89251203D01*
X121705490Y-89413670D01*
X121667944Y-89576006D01*
X121642260Y-89703127D01*
X121627898Y-89800294D01*
X121624319Y-89872767D01*
X121630981Y-89925808D01*
X121647345Y-89964676D01*
X121648691Y-89966775D01*
X121706737Y-90024799D01*
X121801629Y-90081694D01*
X121927910Y-90134780D01*
X122080121Y-90181376D01*
X122091714Y-90184352D01*
X122191832Y-90205643D01*
X122324486Y-90227821D01*
X122479931Y-90249680D01*
X122648420Y-90270015D01*
X122820207Y-90287623D01*
X122985548Y-90301299D01*
X123090212Y-90307783D01*
X123223263Y-90312810D01*
X123387395Y-90316146D01*
X123572781Y-90317842D01*
X123769595Y-90317948D01*
X123968011Y-90316517D01*
X124158203Y-90313597D01*
X124330344Y-90309241D01*
X124474610Y-90303499D01*
X124529906Y-90300341D01*
X124824746Y-90276757D01*
X125088543Y-90246546D01*
X125319415Y-90210104D01*
X125515480Y-90167830D01*
X125674855Y-90120124D01*
X125795658Y-90067382D01*
X125868734Y-90016965D01*
X125914735Y-89970150D01*
X125936570Y-89928084D01*
X125942379Y-89871190D01*
X125942055Y-89840615D01*
X125936459Y-89784897D01*
X125922467Y-89697179D01*
X125901765Y-89586575D01*
X125876039Y-89462201D01*
X125852682Y-89357641D01*
X125821207Y-89216843D01*
X125790477Y-89071062D01*
X125763047Y-88933010D01*
X125741473Y-88815396D01*
X125732061Y-88757671D01*
X125713786Y-88592839D01*
X125702541Y-88395278D01*
X125698045Y-88173958D01*
X125700020Y-87937847D01*
X125708186Y-87695916D01*
X125722262Y-87457132D01*
X125741970Y-87230465D01*
X125767030Y-87024883D01*
X125790527Y-86882751D01*
X125805730Y-86811872D01*
X125830569Y-86706616D01*
X125863419Y-86573416D01*
X125902653Y-86418702D01*
X125946644Y-86248906D01*
X125993766Y-86070459D01*
X126031419Y-85930251D01*
X126109229Y-85638951D01*
X126175479Y-85382156D01*
X126231470Y-85154037D01*
X126278500Y-84948767D01*
X126317869Y-84760517D01*
X126350877Y-84583458D01*
X126378823Y-84411764D01*
X126394871Y-84300418D01*
X126412034Y-84137780D01*
X126424220Y-83942151D01*
X126431420Y-83722577D01*
X126433630Y-83488107D01*
X126430842Y-83247789D01*
X126423050Y-83010672D01*
X126410247Y-82785803D01*
X126396082Y-82617668D01*
X126382971Y-82491057D01*
X126367109Y-82346423D01*
X126349333Y-82190603D01*
X126330480Y-82030430D01*
X126311388Y-81872739D01*
X126292892Y-81724365D01*
X126275830Y-81592144D01*
X126261039Y-81482909D01*
X126249356Y-81403495D01*
X126242849Y-81366219D01*
X126234651Y-81340628D01*
X126217353Y-81321531D01*
X126183135Y-81305433D01*
X126124178Y-81288839D01*
X126032661Y-81268254D01*
X126015410Y-81264556D01*
X125583746Y-81184513D01*
X125135005Y-81125709D01*
X124663103Y-81087563D01*
X124161956Y-81069493D01*
X123958045Y-81067763D01*
X123458039Y-81076164D01*
X122989914Y-81103244D01*
X122547191Y-81149786D01*
X122123387Y-81216573D01*
X121712019Y-81304388D01*
X121462612Y-81369117D01*
X121366543Y-81396478D01*
X121284378Y-81421278D01*
X121225425Y-81440618D01*
X121199925Y-81450949D01*
X121186491Y-81479509D01*
X121172745Y-81545851D01*
X121158937Y-81645426D01*
X121145321Y-81773688D01*
X121132148Y-81926087D01*
X121119673Y-82098075D01*
X121108146Y-82285106D01*
X121097820Y-82482630D01*
X121088948Y-82686101D01*
X121081783Y-82890969D01*
X121076576Y-83092687D01*
X121073580Y-83286708D01*
X121073048Y-83468482D01*
X121011502Y-83468482D01*
X121010311Y-83330077D01*
X121014375Y-83009717D01*
X121024671Y-82678981D01*
X121040773Y-82346321D01*
X121062258Y-82020188D01*
X121088699Y-81709031D01*
X121119673Y-81421303D01*
X121154754Y-81165452D01*
X121162949Y-81114473D01*
X121199532Y-80917615D01*
X121237408Y-80761690D01*
X121277035Y-80645306D01*
X121318873Y-80567071D01*
X121355368Y-80530266D01*
X121405420Y-80508797D01*
X121493165Y-80483930D01*
X121614179Y-80456533D01*
X121764038Y-80427472D01*
X121938315Y-80397617D01*
X122132588Y-80367834D01*
X122307045Y-80343632D01*
X122899715Y-80278021D01*
X123479385Y-80239495D01*
X124041672Y-80228099D01*
X124582188Y-80243878D01*
X125096550Y-80286878D01*
X125302129Y-80312842D01*
X125523378Y-80345533D01*
X125705233Y-80376536D01*
X125850561Y-80406621D01*
X125962231Y-80436558D01*
X126043111Y-80467115D01*
X126096067Y-80499063D01*
X126123968Y-80533171D01*
X126124092Y-80533442D01*
X126155529Y-80620214D01*
X126188880Y-80744536D01*
X126223505Y-80901699D01*
X126258762Y-81086996D01*
X126294011Y-81295720D01*
X126328612Y-81523164D01*
X126361924Y-81764620D01*
X126393307Y-82015381D01*
X126422120Y-82270740D01*
X126447722Y-82525989D01*
X126469474Y-82776421D01*
X126486733Y-83017328D01*
X126498861Y-83244004D01*
X126501297Y-83305585D01*
X126506031Y-83536709D01*
X126502676Y-83761859D01*
X126490450Y-83986111D01*
X126468570Y-84214540D01*
X126436252Y-84452224D01*
X126392713Y-84704238D01*
X126337169Y-84975659D01*
X126268838Y-85271564D01*
X126186936Y-85597028D01*
X126094110Y-85944582D01*
X126029683Y-86181419D01*
X125975618Y-86383634D01*
X125930805Y-86557355D01*
X125894137Y-86708709D01*
X125864505Y-86843824D01*
X125840801Y-86968827D01*
X125821917Y-87089847D01*
X125806743Y-87213011D01*
X125794173Y-87344447D01*
X125783096Y-87490282D01*
X125772406Y-87656645D01*
X125766476Y-87755938D01*
X125756002Y-87999274D01*
X125755279Y-88224968D01*
X125765257Y-88442355D01*
X125786886Y-88660770D01*
X125821119Y-88889546D01*
X125868906Y-89138019D01*
X125931198Y-89415522D01*
X125938814Y-89447540D01*
X125977992Y-89628480D01*
X125998646Y-89775248D01*
X125998595Y-89892724D01*
X125975658Y-89985787D01*
X125927653Y-90059319D01*
X125852400Y-90118198D01*
X125747718Y-90167304D01*
X125611425Y-90211518D01*
X125595335Y-90216035D01*
X125424742Y-90255620D01*
X125217972Y-90290557D01*
X124980963Y-90320517D01*
X124719649Y-90345173D01*
X124439967Y-90364197D01*
X124147853Y-90377261D01*
X123849242Y-90384038D01*
X123550071Y-90384199D01*
X123256276Y-90377417D01*
X122973793Y-90363365D01*
X122952629Y-90361968D01*
X122643169Y-90336185D01*
X122374539Y-90303066D01*
X122145832Y-90262372D01*
X121956142Y-90213862D01*
X121804564Y-90157298D01*
X121690193Y-90092441D01*
X121612122Y-90019050D01*
X121601800Y-90004835D01*
X121581007Y-89968899D01*
X121567325Y-89928945D01*
X121561232Y-89879803D01*
X121563205Y-89816305D01*
X121573723Y-89733280D01*
X121593262Y-89625559D01*
X121622300Y-89487974D01*
X121661314Y-89315356D01*
X121668277Y-89285168D01*
X121718523Y-89061622D01*
X121758417Y-88868256D01*
X121789527Y-88694629D01*
X121813423Y-88530301D01*
X121831675Y-88364832D01*
X121845852Y-88187781D01*
X121854437Y-88046918D01*
X121863814Y-87691179D01*
X121851380Y-87365475D01*
X121817290Y-87072181D01*
X121778484Y-86878525D01*
X121755861Y-86795492D01*
X121721303Y-86681731D01*
X121677710Y-86546161D01*
X121627983Y-86397702D01*
X121575023Y-86245274D01*
X121547905Y-86169442D01*
X121449094Y-85894051D01*
X121364466Y-85652705D01*
X121292774Y-85440028D01*
X121232770Y-85250645D01*
X121183207Y-85079179D01*
X121142835Y-84920255D01*
X121110410Y-84768498D01*
X121084681Y-84618531D01*
X121064403Y-84464978D01*
X121048326Y-84302464D01*
X121035205Y-84125613D01*
X121023791Y-83929050D01*
X121022579Y-83905871D01*
X121012904Y-83631612D01*
X121011502Y-83468482D01*
G37*
D15*
X121011502Y-83468482D02*
X121073048Y-83468482D01*
X121075232Y-83633463D01*
X121076381Y-83676586D01*
X121086860Y-83954535D01*
X121101519Y-84199944D01*
X121122015Y-84421450D01*
X121150001Y-84627691D01*
X121187135Y-84827302D01*
X121235070Y-85028921D01*
X121295463Y-85241185D01*
X121369968Y-85472730D01*
X121460241Y-85732194D01*
X121481944Y-85792668D01*
X121565478Y-86025379D01*
X121635491Y-86222732D01*
X121693387Y-86388987D01*
X121740571Y-86528400D01*
X121778446Y-86645229D01*
X121808416Y-86743733D01*
X121831887Y-86828169D01*
X121850261Y-86902796D01*
X121854936Y-86923662D01*
X121893485Y-87153079D01*
X121916789Y-87417317D01*
X121924594Y-87711608D01*
X121916644Y-88031180D01*
X121915410Y-88055943D01*
X121904453Y-88243513D01*
X121891351Y-88410180D01*
X121874684Y-88565124D01*
X121853035Y-88717521D01*
X121824984Y-88876548D01*
X121789112Y-89051383D01*
X121744001Y-89251203D01*
X121705490Y-89413670D01*
X121667944Y-89576006D01*
X121642260Y-89703127D01*
X121627898Y-89800294D01*
X121624319Y-89872767D01*
X121630981Y-89925808D01*
X121647345Y-89964676D01*
X121648691Y-89966775D01*
X121706737Y-90024799D01*
X121801629Y-90081694D01*
X121927910Y-90134780D01*
X122080121Y-90181376D01*
X122091714Y-90184352D01*
X122191832Y-90205643D01*
X122324486Y-90227821D01*
X122479931Y-90249680D01*
X122648420Y-90270015D01*
X122820207Y-90287623D01*
X122985548Y-90301299D01*
X123090212Y-90307783D01*
X123223263Y-90312810D01*
X123387395Y-90316146D01*
X123572781Y-90317842D01*
X123769595Y-90317948D01*
X123968011Y-90316517D01*
X124158203Y-90313597D01*
X124330344Y-90309241D01*
X124474610Y-90303499D01*
X124529906Y-90300341D01*
X124824746Y-90276757D01*
X125088543Y-90246546D01*
X125319415Y-90210104D01*
X125515480Y-90167830D01*
X125674855Y-90120124D01*
X125795658Y-90067382D01*
X125868734Y-90016965D01*
X125914735Y-89970150D01*
X125936570Y-89928084D01*
X125942379Y-89871190D01*
X125942055Y-89840615D01*
X125936459Y-89784897D01*
X125922467Y-89697179D01*
X125901765Y-89586575D01*
X125876039Y-89462201D01*
X125852682Y-89357641D01*
X125821207Y-89216843D01*
X125790477Y-89071062D01*
X125763047Y-88933010D01*
X125741473Y-88815396D01*
X125732061Y-88757671D01*
X125713786Y-88592839D01*
X125702541Y-88395278D01*
X125698045Y-88173958D01*
X125700020Y-87937847D01*
X125708186Y-87695916D01*
X125722262Y-87457132D01*
X125741970Y-87230465D01*
X125767030Y-87024883D01*
X125790527Y-86882751D01*
X125805730Y-86811872D01*
X125830569Y-86706616D01*
X125863419Y-86573416D01*
X125902653Y-86418702D01*
X125946644Y-86248906D01*
X125993766Y-86070459D01*
X126031419Y-85930251D01*
X126109229Y-85638951D01*
X126175479Y-85382156D01*
X126231470Y-85154037D01*
X126278500Y-84948767D01*
X126317869Y-84760517D01*
X126350877Y-84583458D01*
X126378823Y-84411764D01*
X126394871Y-84300418D01*
X126412034Y-84137780D01*
X126424220Y-83942151D01*
X126431420Y-83722577D01*
X126433630Y-83488107D01*
X126430842Y-83247789D01*
X126423050Y-83010672D01*
X126410247Y-82785803D01*
X126396082Y-82617668D01*
X126382971Y-82491057D01*
X126367109Y-82346423D01*
X126349333Y-82190603D01*
X126330480Y-82030430D01*
X126311388Y-81872739D01*
X126292892Y-81724365D01*
X126275830Y-81592144D01*
X126261039Y-81482909D01*
X126249356Y-81403495D01*
X126242849Y-81366219D01*
X126234651Y-81340628D01*
X126217353Y-81321531D01*
X126183135Y-81305433D01*
X126124178Y-81288839D01*
X126032661Y-81268254D01*
X126015410Y-81264556D01*
X125583746Y-81184513D01*
X125135005Y-81125709D01*
X124663103Y-81087563D01*
X124161956Y-81069493D01*
X123958045Y-81067763D01*
X123458039Y-81076164D01*
X122989914Y-81103244D01*
X122547191Y-81149786D01*
X122123387Y-81216573D01*
X121712019Y-81304388D01*
X121462612Y-81369117D01*
X121366543Y-81396478D01*
X121284378Y-81421278D01*
X121225425Y-81440618D01*
X121199925Y-81450949D01*
X121186491Y-81479509D01*
X121172745Y-81545851D01*
X121158937Y-81645426D01*
X121145321Y-81773688D01*
X121132148Y-81926087D01*
X121119673Y-82098075D01*
X121108146Y-82285106D01*
X121097820Y-82482630D01*
X121088948Y-82686101D01*
X121081783Y-82890969D01*
X121076576Y-83092687D01*
X121073580Y-83286708D01*
X121073048Y-83468482D01*
X121011502Y-83468482D01*
X121010311Y-83330077D01*
X121014375Y-83009717D01*
X121024671Y-82678981D01*
X121040773Y-82346321D01*
X121062258Y-82020188D01*
X121088699Y-81709031D01*
X121119673Y-81421303D01*
X121154754Y-81165452D01*
X121162949Y-81114473D01*
X121199532Y-80917615D01*
X121237408Y-80761690D01*
X121277035Y-80645306D01*
X121318873Y-80567071D01*
X121355368Y-80530266D01*
X121405420Y-80508797D01*
X121493165Y-80483930D01*
X121614179Y-80456533D01*
X121764038Y-80427472D01*
X121938315Y-80397617D01*
X122132588Y-80367834D01*
X122307045Y-80343632D01*
X122899715Y-80278021D01*
X123479385Y-80239495D01*
X124041672Y-80228099D01*
X124582188Y-80243878D01*
X125096550Y-80286878D01*
X125302129Y-80312842D01*
X125523378Y-80345533D01*
X125705233Y-80376536D01*
X125850561Y-80406621D01*
X125962231Y-80436558D01*
X126043111Y-80467115D01*
X126096067Y-80499063D01*
X126123968Y-80533171D01*
X126124092Y-80533442D01*
X126155529Y-80620214D01*
X126188880Y-80744536D01*
X126223505Y-80901699D01*
X126258762Y-81086996D01*
X126294011Y-81295720D01*
X126328612Y-81523164D01*
X126361924Y-81764620D01*
X126393307Y-82015381D01*
X126422120Y-82270740D01*
X126447722Y-82525989D01*
X126469474Y-82776421D01*
X126486733Y-83017328D01*
X126498861Y-83244004D01*
X126501297Y-83305585D01*
X126506031Y-83536709D01*
X126502676Y-83761859D01*
X126490450Y-83986111D01*
X126468570Y-84214540D01*
X126436252Y-84452224D01*
X126392713Y-84704238D01*
X126337169Y-84975659D01*
X126268838Y-85271564D01*
X126186936Y-85597028D01*
X126094110Y-85944582D01*
X126029683Y-86181419D01*
X125975618Y-86383634D01*
X125930805Y-86557355D01*
X125894137Y-86708709D01*
X125864505Y-86843824D01*
X125840801Y-86968827D01*
X125821917Y-87089847D01*
X125806743Y-87213011D01*
X125794173Y-87344447D01*
X125783096Y-87490282D01*
X125772406Y-87656645D01*
X125766476Y-87755938D01*
X125756002Y-87999274D01*
X125755279Y-88224968D01*
X125765257Y-88442355D01*
X125786886Y-88660770D01*
X125821119Y-88889546D01*
X125868906Y-89138019D01*
X125931198Y-89415522D01*
X125938814Y-89447540D01*
X125977992Y-89628480D01*
X125998646Y-89775248D01*
X125998595Y-89892724D01*
X125975658Y-89985787D01*
X125927653Y-90059319D01*
X125852400Y-90118198D01*
X125747718Y-90167304D01*
X125611425Y-90211518D01*
X125595335Y-90216035D01*
X125424742Y-90255620D01*
X125217972Y-90290557D01*
X124980963Y-90320517D01*
X124719649Y-90345173D01*
X124439967Y-90364197D01*
X124147853Y-90377261D01*
X123849242Y-90384038D01*
X123550071Y-90384199D01*
X123256276Y-90377417D01*
X122973793Y-90363365D01*
X122952629Y-90361968D01*
X122643169Y-90336185D01*
X122374539Y-90303066D01*
X122145832Y-90262372D01*
X121956142Y-90213862D01*
X121804564Y-90157298D01*
X121690193Y-90092441D01*
X121612122Y-90019050D01*
X121601800Y-90004835D01*
X121581007Y-89968899D01*
X121567325Y-89928945D01*
X121561232Y-89879803D01*
X121563205Y-89816305D01*
X121573723Y-89733280D01*
X121593262Y-89625559D01*
X121622300Y-89487974D01*
X121661314Y-89315356D01*
X121668277Y-89285168D01*
X121718523Y-89061622D01*
X121758417Y-88868256D01*
X121789527Y-88694629D01*
X121813423Y-88530301D01*
X121831675Y-88364832D01*
X121845852Y-88187781D01*
X121854437Y-88046918D01*
X121863814Y-87691179D01*
X121851380Y-87365475D01*
X121817290Y-87072181D01*
X121778484Y-86878525D01*
X121755861Y-86795492D01*
X121721303Y-86681731D01*
X121677710Y-86546161D01*
X121627983Y-86397702D01*
X121575023Y-86245274D01*
X121547905Y-86169442D01*
X121449094Y-85894051D01*
X121364466Y-85652705D01*
X121292774Y-85440028D01*
X121232770Y-85250645D01*
X121183207Y-85079179D01*
X121142835Y-84920255D01*
X121110410Y-84768498D01*
X121084681Y-84618531D01*
X121064403Y-84464978D01*
X121048326Y-84302464D01*
X121035205Y-84125613D01*
X121023791Y-83929050D01*
X121022579Y-83905871D01*
X121012904Y-83631612D01*
X121011502Y-83468482D01*
D14*
%TO.C,J6*%
X161470000Y-82430000D02*
X162800000Y-82430000D01*
X161470000Y-83760000D02*
X161470000Y-82430000D01*
X161470000Y-85030000D02*
X161470000Y-90170000D01*
X161470000Y-85030000D02*
X164070000Y-85030000D01*
X161470000Y-90170000D02*
X166670000Y-90170000D01*
X164070000Y-82430000D02*
X166670000Y-82430000D01*
X164070000Y-85030000D02*
X164070000Y-82430000D01*
X166670000Y-82430000D02*
X166670000Y-90170000D01*
%TO.C,J1*%
X149395000Y-96755000D02*
X175595000Y-96755000D01*
X175595000Y-96755000D02*
X175595000Y-124355000D01*
X175595000Y-124355000D02*
X149395000Y-124355000D01*
X149395000Y-124355000D02*
X149395000Y-96755000D01*
X154495000Y-109935000D02*
X170895000Y-109935000D01*
X170895000Y-109935000D02*
X170895000Y-125935000D01*
X170895000Y-125935000D02*
X154495000Y-125935000D01*
X154495000Y-125935000D02*
X154495000Y-109935000D01*
%TO.C,J3*%
X119885000Y-96755000D02*
X146085000Y-96755000D01*
X146085000Y-96755000D02*
X146085000Y-124355000D01*
X146085000Y-124355000D02*
X119885000Y-124355000D01*
X119885000Y-124355000D02*
X119885000Y-96755000D01*
X124985000Y-109935000D02*
X141385000Y-109935000D01*
X141385000Y-109935000D02*
X141385000Y-125935000D01*
X141385000Y-125935000D02*
X124985000Y-125935000D01*
X124985000Y-125935000D02*
X124985000Y-109935000D01*
%TD*%
M02*
