M48
; DRILL file {KiCad (7.0.0)} date Thu Mar 30 12:26:08 2023
; FORMAT={-:-/ absolute / inch / decimal}
; #@! TF.CreationDate,2023-03-30T12:26:08-04:00
; #@! TF.GenerationSoftware,Kicad,Pcbnew,(7.0.0)
; #@! TF.FileFunction,MixedPlating,1,2
FMAT,2
INCH
; #@! TA.AperFunction,Plated,PTH,ViaDrill
T1C0.0157
; #@! TA.AperFunction,Plated,PTH,ComponentDrill
T2C0.0197
; #@! TA.AperFunction,Plated,PTH,ComponentDrill
T3C0.0276
; #@! TA.AperFunction,Plated,PTH,ComponentDrill
T4C0.0394
; #@! TA.AperFunction,Plated,PTH,ComponentDrill
T5C0.1260
%
G90
G05
T1
X5.6555Y-3.2736
X5.6555Y-3.374
X5.7185Y-3.3248
X5.7303Y-3.3819
X6.7441Y-4.0728
X6.8248Y-4.1083
T2
X4.187Y-3.0591
X4.1949Y-3.9469
X4.2147Y-2.9922
X4.2147Y-3.1259
X4.2226Y-3.88
X4.2226Y-4.0137
X4.2815Y-2.9646
X4.2815Y-3.1535
X4.2894Y-3.8524
X4.2894Y-4.0413
X4.3483Y-2.9922
X4.3483Y-3.1259
X4.3562Y-3.88
X4.3562Y-4.0137
X4.376Y-3.0591
X4.3839Y-3.9469
X7.0669Y-3.065
X7.0846Y-4.0059
X7.0946Y-2.9981
X7.0946Y-3.1318
X7.1123Y-3.9391
X7.1123Y-4.0727
X7.1614Y-2.9705
X7.1614Y-3.1594
X7.1791Y-3.9114
X7.1791Y-4.1004
X7.2282Y-2.9981
X7.2282Y-3.1318
X7.2459Y-3.9391
X7.2459Y-4.0727
X7.2559Y-3.065
X7.2736Y-4.0059
T3
X6.3622Y-3.1516
X6.5622Y-3.1516
T4
X4.8856Y-3.9093
X4.9856Y-3.9093
X5.0356Y-4.0093
X5.0856Y-3.9093
X5.1356Y-4.0093
X5.1856Y-3.9093
X5.2356Y-4.0093
X5.2856Y-3.9093
X5.3356Y-4.0093
X5.3856Y-3.9093
X5.4356Y-4.0093
X5.4856Y-3.9093
X5.5856Y-3.9093
X6.0474Y-3.9093
X6.1474Y-3.9093
X6.1974Y-4.0093
X6.2474Y-3.9093
X6.2974Y-4.0093
X6.3474Y-3.9093
X6.3622Y-3.7106
X6.3974Y-4.0093
X6.4094Y-3.2976
X6.4094Y-3.3976
X6.4094Y-3.4976
X6.4474Y-3.9093
X6.4974Y-4.0093
X6.5094Y-3.2976
X6.5094Y-3.3976
X6.5094Y-3.4976
X6.5474Y-3.9093
X6.5974Y-4.0093
X6.6474Y-3.9093
X6.7474Y-3.9093
X7.2874Y-3.3106
X7.2874Y-3.4106
X7.2874Y-3.5106
X7.2874Y-3.6106
X7.2874Y-3.7106
T5
X4.2815Y-3.0591
X4.2894Y-3.9469
X7.1614Y-3.065
X7.1791Y-4.0059
T0
M30
